<svg width="1440" height="205" viewBox="0 0 1440 205" fill="none" xmlns="http://www.w3.org/2000/svg">
<g clip-path="url(#clip0)">
<path d="M537.936 211.436C585.129 260.63 568.251 326.632 553.913 353.484L-6.50435 383L-36 -29C3.73719 17.5294 115.657 111.941 245.438 117.352C407.664 124.116 478.945 149.943 537.936 211.436Z" fill="#FFEED8"/>
<path fill-rule="evenodd" clip-rule="evenodd" d="M1437.06 0.638221C1438.96 0.285741 1440.79 1.54073 1441.14 3.44132L1441.15 3.4898C1441.51 5.39039 1440.25 7.21686 1438.35 7.56934C1436.45 7.92182 1434.62 6.66683 1434.27 4.76625L1434.26 4.71776C1433.91 2.81717 1435.16 0.990701 1437.06 0.638221ZM1440.67 20.0809C1442.57 19.7284 1444.4 20.9834 1444.75 22.884L1444.77 22.981C1445.12 24.8816 1443.87 26.708 1441.96 27.0605C1440.06 27.413 1438.24 26.158 1437.88 24.2574L1437.87 24.1604C1437.51 22.2599 1438.77 20.4334 1440.67 20.0809ZM1444.28 39.5721C1446.19 39.2196 1448.01 40.4746 1448.36 42.3752L1448.38 42.4721C1448.73 44.3727 1447.48 46.1992 1445.58 46.5517C1443.68 46.9042 1441.85 45.6492 1441.5 43.7486L1441.48 43.6516C1441.13 41.751 1442.38 39.9245 1444.28 39.5721ZM1447.9 59.0632C1449.8 58.7108 1451.63 59.9657 1451.98 61.8663L1452 61.9633C1452.35 63.8639 1451.09 65.6904 1449.19 66.0428C1447.29 66.3953 1445.47 65.1403 1445.11 63.2397L1445.1 63.1428C1444.74 61.2422 1446 59.4157 1447.9 59.0632ZM1451.51 78.5544C1453.42 78.2019 1455.24 79.4569 1455.59 81.3575L1455.61 81.4545C1455.96 83.3551 1454.71 85.1815 1452.81 85.534C1450.91 85.8865 1449.08 84.6315 1448.73 82.7309L1448.71 82.6339C1448.36 80.7334 1449.61 78.9069 1451.51 78.5544ZM1455.13 98.0456C1457.03 97.6931 1458.86 98.9481 1459.21 100.849L1459.23 100.946C1459.58 102.846 1458.32 104.673 1456.42 105.025C1454.52 105.378 1452.7 104.123 1452.34 102.222L1452.33 102.125C1451.97 100.225 1453.23 98.3981 1455.13 98.0456ZM1458.74 117.537C1460.64 117.184 1462.47 118.439 1462.82 120.34L1462.84 120.437C1463.19 122.337 1461.94 124.164 1460.04 124.516C1458.14 124.869 1456.31 123.614 1455.96 121.713L1455.94 121.616C1455.59 119.716 1456.84 117.889 1458.74 117.537ZM1462.36 137.028C1464.26 136.675 1466.09 137.93 1466.44 139.831L1466.46 139.928C1466.81 141.829 1465.55 143.655 1463.65 144.008C1461.75 144.36 1459.93 143.105 1459.57 141.204L1459.56 141.107C1459.2 139.207 1460.46 137.38 1462.36 137.028ZM1465.97 156.519C1467.87 156.167 1469.7 157.422 1470.05 159.322L1470.07 159.419C1470.42 161.32 1469.17 163.146 1467.27 163.499C1465.37 163.851 1463.54 162.596 1463.19 160.696L1463.17 160.599C1462.82 158.698 1464.07 156.872 1465.97 156.519ZM1469.59 176.01C1471.49 175.658 1473.32 176.913 1473.67 178.813L1473.69 178.91C1474.04 180.811 1472.78 182.637 1470.88 182.99C1468.98 183.342 1467.16 182.087 1466.8 180.187L1466.79 180.09C1466.43 178.189 1467.69 176.363 1469.59 176.01ZM1473.2 195.501C1475.1 195.149 1476.93 196.404 1477.28 198.304L1477.3 198.401C1477.65 200.302 1476.4 202.128 1474.5 202.481C1472.6 202.833 1470.77 201.578 1470.42 199.678L1470.4 199.581C1470.05 197.68 1471.3 195.854 1473.2 195.501ZM1476.82 214.993C1478.72 214.64 1480.55 215.895 1480.9 217.796L1480.92 217.893C1481.27 219.793 1480.01 221.62 1478.11 221.972C1476.21 222.325 1474.39 221.07 1474.03 219.169L1474.01 219.072C1473.66 217.171 1474.92 215.345 1476.82 214.993ZM1480.43 234.484C1482.33 234.131 1484.16 235.386 1484.51 237.287L1484.53 237.384C1484.88 239.284 1483.63 241.111 1481.73 241.463C1479.83 241.816 1478 240.561 1477.65 238.66L1477.63 238.563C1477.28 236.663 1478.53 234.836 1480.43 234.484ZM1484.05 253.975C1485.95 253.622 1487.77 254.877 1488.13 256.778L1488.15 256.875C1488.5 258.776 1487.24 260.602 1485.34 260.954C1483.44 261.307 1481.62 260.052 1481.26 258.151L1481.24 258.054C1480.89 256.154 1482.15 254.327 1484.05 253.975ZM1487.66 273.466C1489.56 273.114 1491.39 274.369 1491.74 276.269L1491.76 276.366C1492.11 278.267 1490.86 280.093 1488.96 280.446C1487.06 280.798 1485.23 279.543 1484.88 277.643L1484.86 277.546C1484.51 275.645 1485.76 273.819 1487.66 273.466ZM1491.28 292.957C1493.18 292.605 1495 293.86 1495.36 295.76L1495.37 295.857C1495.73 297.758 1494.47 299.584 1492.57 299.937C1490.67 300.289 1488.84 299.034 1488.49 297.134L1488.47 297.037C1488.12 295.136 1489.38 293.31 1491.28 292.957ZM1494.89 312.448C1496.79 312.096 1498.62 313.351 1498.97 315.251L1498.99 315.348C1499.34 317.249 1498.09 319.076 1496.19 319.428C1494.29 319.78 1492.46 318.526 1492.11 316.625L1492.09 316.528C1491.74 314.627 1492.99 312.801 1494.89 312.448ZM1498.51 331.94C1500.41 331.587 1502.23 332.842 1502.59 334.743L1502.6 334.791C1502.95 336.692 1501.69 338.518 1499.79 338.871C1497.89 339.223 1496.07 337.968 1495.71 336.068L1495.7 336.019C1495.35 334.118 1496.61 332.292 1498.51 331.94Z" fill="#FFE8C8"/>
<path fill-rule="evenodd" clip-rule="evenodd" d="M1415.43 4.6499C1417.33 4.29742 1419.16 5.55241 1419.51 7.453L1419.52 7.50148C1419.87 9.40207 1418.62 11.2285 1416.72 11.581C1414.82 11.9335 1412.99 10.6785 1412.64 8.77792L1412.63 8.72944C1412.28 6.82885 1413.53 5.00238 1415.43 4.6499ZM1419.04 24.0926C1420.94 23.7401 1422.77 24.9951 1423.12 26.8957L1423.14 26.9926C1423.49 28.8932 1422.23 30.7197 1420.33 31.0722C1418.43 31.4247 1416.61 30.1697 1416.25 28.2691L1416.24 28.1721C1415.88 26.2715 1417.14 24.4451 1419.04 24.0926ZM1422.65 43.5837C1424.55 43.2313 1426.38 44.4863 1426.73 46.3868L1426.75 46.4838C1427.1 48.3844 1425.85 50.2109 1423.95 50.5634C1422.05 50.9158 1420.22 49.6608 1419.87 47.7603L1419.85 47.6633C1419.5 45.7627 1420.75 43.9362 1422.65 43.5837ZM1426.27 63.0749C1428.17 62.7224 1430 63.9774 1430.35 65.878L1430.37 65.975C1430.72 67.8756 1429.46 69.702 1427.56 70.0545C1425.66 70.407 1423.84 69.152 1423.48 67.2514L1423.47 67.1545C1423.11 65.2539 1424.37 63.4274 1426.27 63.0749ZM1429.88 82.5661C1431.78 82.2136 1433.61 83.4686 1433.96 85.3692L1433.98 85.4661C1434.33 87.3667 1433.08 89.1932 1431.18 89.5457C1429.28 89.8982 1427.45 88.6432 1427.1 86.7426L1427.08 86.6456C1426.73 84.745 1427.98 82.9186 1429.88 82.5661ZM1433.5 102.057C1435.4 101.705 1437.23 102.96 1437.58 104.86L1437.6 104.957C1437.95 106.858 1436.69 108.684 1434.79 109.037C1432.89 109.389 1431.07 108.134 1430.71 106.234L1430.7 106.137C1430.34 104.236 1431.6 102.41 1433.5 102.057ZM1437.11 121.548C1439.01 121.196 1440.84 122.451 1441.19 124.352L1441.21 124.448C1441.56 126.349 1440.31 128.176 1438.41 128.528C1436.51 128.881 1434.68 127.626 1434.33 125.725L1434.31 125.628C1433.96 123.727 1435.21 121.901 1437.11 121.548ZM1440.73 141.04C1442.63 140.687 1444.45 141.942 1444.81 143.843L1444.83 143.94C1445.18 145.84 1443.92 147.667 1442.02 148.019C1440.12 148.372 1438.3 147.117 1437.94 145.216L1437.92 145.119C1437.57 143.219 1438.83 141.392 1440.73 141.04ZM1444.34 160.531C1446.24 160.178 1448.07 161.433 1448.42 163.334L1448.44 163.431C1448.79 165.331 1447.54 167.158 1445.64 167.51C1443.74 167.863 1441.91 166.608 1441.56 164.707L1441.54 164.61C1441.19 162.71 1442.44 160.883 1444.34 160.531ZM1447.96 180.022C1449.86 179.669 1451.68 180.924 1452.04 182.825L1452.05 182.922C1452.41 184.823 1451.15 186.649 1449.25 187.001C1447.35 187.354 1445.52 186.099 1445.17 184.198L1445.15 184.101C1444.8 182.201 1446.06 180.374 1447.96 180.022ZM1451.57 199.513C1453.47 199.161 1455.3 200.416 1455.65 202.316L1455.67 202.413C1456.02 204.314 1454.77 206.14 1452.87 206.493C1450.97 206.845 1449.14 205.59 1448.79 203.69L1448.77 203.593C1448.42 201.692 1449.67 199.866 1451.57 199.513ZM1455.19 219.004C1457.09 218.652 1458.91 219.907 1459.27 221.807L1459.28 221.904C1459.64 223.805 1458.38 225.631 1456.48 225.984C1454.58 226.336 1452.75 225.081 1452.4 223.181L1452.38 223.084C1452.03 221.183 1453.29 219.357 1455.19 219.004ZM1458.8 238.495C1460.7 238.143 1462.53 239.398 1462.88 241.298L1462.9 241.395C1463.25 243.296 1462 245.122 1460.1 245.475C1458.2 245.827 1456.37 244.572 1456.02 242.672L1456 242.575C1455.65 240.674 1456.9 238.848 1458.8 238.495ZM1462.42 257.987C1464.32 257.634 1466.14 258.889 1466.5 260.79L1466.51 260.887C1466.87 262.787 1465.61 264.614 1463.71 264.966C1461.81 265.319 1459.98 264.064 1459.63 262.163L1459.61 262.066C1459.26 260.165 1460.52 258.339 1462.42 257.987ZM1466.03 277.478C1467.93 277.125 1469.76 278.38 1470.11 280.281L1470.13 280.378C1470.48 282.278 1469.23 284.105 1467.33 284.457C1465.43 284.81 1463.6 283.555 1463.25 281.654L1463.23 281.557C1462.88 279.657 1464.13 277.83 1466.03 277.478ZM1469.65 296.969C1471.55 296.616 1473.37 297.871 1473.73 299.772L1473.74 299.869C1474.1 301.77 1472.84 303.596 1470.94 303.949C1469.04 304.301 1467.21 303.046 1466.86 301.145L1466.84 301.048C1466.49 299.148 1467.75 297.321 1469.65 296.969ZM1473.26 316.46C1475.16 316.108 1476.99 317.363 1477.34 319.263L1477.36 319.36C1477.71 321.261 1476.46 323.087 1474.56 323.44C1472.65 323.792 1470.83 322.537 1470.48 320.637L1470.46 320.54C1470.11 318.639 1471.36 316.813 1473.26 316.46ZM1476.88 335.951C1478.78 335.599 1480.6 336.854 1480.96 338.754L1480.96 338.803C1481.32 340.703 1480.06 342.53 1478.16 342.882C1476.26 343.235 1474.43 341.98 1474.08 340.079L1474.07 340.031C1473.72 338.13 1474.98 336.304 1476.88 335.951Z" fill="#FFE8C8"/>
<path fill-rule="evenodd" clip-rule="evenodd" d="M1393.8 8.66158C1395.7 8.3091 1397.53 9.56409 1397.88 11.4647L1397.89 11.5132C1398.24 13.4137 1396.99 15.2402 1395.09 15.5927C1393.19 15.9452 1391.36 14.6902 1391.01 12.7896L1391 12.7411C1390.65 10.8405 1391.9 9.01406 1393.8 8.66158ZM1397.41 28.1043C1399.31 27.7518 1401.13 29.0068 1401.49 30.9074L1401.51 31.0043C1401.86 32.9049 1400.6 34.7314 1398.7 35.0839C1396.8 35.4363 1394.98 34.1814 1394.62 32.2808L1394.6 32.1838C1394.25 30.2832 1395.51 28.4567 1397.41 28.1043ZM1401.02 47.5954C1402.92 47.2429 1404.75 48.4979 1405.1 50.3985L1405.12 50.4955C1405.47 52.3961 1404.22 54.2226 1402.32 54.575C1400.42 54.9275 1398.59 53.6725 1398.24 51.7719L1398.22 51.675C1397.87 49.7744 1399.12 47.9479 1401.02 47.5954ZM1404.64 67.0866C1406.54 66.7341 1408.36 67.9891 1408.72 69.8897L1408.73 69.9867C1409.09 71.8872 1407.83 73.7137 1405.93 74.0662C1404.03 74.4187 1402.2 73.1637 1401.85 71.2631L1401.83 71.1661C1401.48 69.2655 1402.74 67.4391 1404.64 67.0866ZM1408.25 86.5778C1410.15 86.2253 1411.98 87.4803 1412.33 89.3809L1412.35 89.4778C1412.7 91.3784 1411.45 93.2049 1409.55 93.5574C1407.65 93.9098 1405.82 92.6549 1405.47 90.7543L1405.45 90.6573C1405.1 88.7567 1406.35 86.9302 1408.25 86.5778ZM1411.87 106.069C1413.77 105.716 1415.59 106.971 1415.95 108.872L1415.96 108.969C1416.32 110.87 1415.06 112.696 1413.16 113.049C1411.26 113.401 1409.43 112.146 1409.08 110.245L1409.06 110.148C1408.71 108.248 1409.97 106.421 1411.87 106.069ZM1415.48 125.56C1417.38 125.208 1419.21 126.463 1419.56 128.363L1419.58 128.46C1419.93 130.361 1418.68 132.187 1416.78 132.54C1414.88 132.892 1413.05 131.637 1412.7 129.737L1412.68 129.64C1412.33 127.739 1413.58 125.913 1415.48 125.56ZM1419.1 145.051C1421 144.699 1422.82 145.954 1423.18 147.854L1423.19 147.951C1423.55 149.852 1422.29 151.678 1420.39 152.031C1418.49 152.383 1416.66 151.128 1416.31 149.228L1416.29 149.131C1415.94 147.23 1417.2 145.404 1419.1 145.051ZM1422.71 164.542C1424.61 164.19 1426.44 165.445 1426.79 167.346L1426.81 167.442C1427.16 169.343 1425.91 171.17 1424.01 171.522C1422.11 171.874 1420.28 170.62 1419.93 168.719L1419.91 168.622C1419.56 166.721 1420.81 164.895 1422.71 164.542ZM1426.33 184.034C1428.23 183.681 1430.05 184.936 1430.41 186.837L1430.42 186.934C1430.78 188.834 1429.52 190.661 1427.62 191.013C1425.72 191.366 1423.89 190.111 1423.54 188.21L1423.52 188.113C1423.17 186.213 1424.43 184.386 1426.33 184.034ZM1429.94 203.525C1431.84 203.172 1433.67 204.427 1434.02 206.328L1434.04 206.425C1434.39 208.325 1433.14 210.152 1431.24 210.504C1429.33 210.857 1427.51 209.602 1427.16 207.701L1427.14 207.604C1426.79 205.704 1428.04 203.877 1429.94 203.525ZM1433.56 223.016C1435.46 222.663 1437.28 223.918 1437.64 225.819L1437.65 225.916C1438.01 227.817 1436.75 229.643 1434.85 229.995C1432.95 230.348 1431.12 229.093 1430.77 227.192L1430.75 227.095C1430.4 225.195 1431.66 223.368 1433.56 223.016ZM1437.17 242.507C1439.07 242.155 1440.9 243.41 1441.25 245.31L1441.27 245.407C1441.62 247.308 1440.37 249.134 1438.47 249.487C1436.56 249.839 1434.74 248.584 1434.39 246.684L1434.37 246.587C1434.02 244.686 1435.27 242.86 1437.17 242.507ZM1440.79 261.998C1442.69 261.646 1444.51 262.901 1444.86 264.801L1444.88 264.898C1445.24 266.799 1443.98 268.625 1442.08 268.978C1440.18 269.33 1438.35 268.075 1438 266.175L1437.98 266.078C1437.63 264.177 1438.88 262.351 1440.79 261.998ZM1444.4 281.489C1446.3 281.137 1448.13 282.392 1448.48 284.292L1448.5 284.389C1448.85 286.29 1447.6 288.117 1445.69 288.469C1443.79 288.821 1441.97 287.566 1441.62 285.666L1441.6 285.569C1441.24 283.668 1442.5 281.842 1444.4 281.489ZM1448.02 300.981C1449.92 300.628 1451.74 301.883 1452.09 303.784L1452.11 303.881C1452.47 305.781 1451.21 307.608 1449.31 307.96C1447.41 308.313 1445.58 307.058 1445.23 305.157L1445.21 305.06C1444.86 303.159 1446.11 301.333 1448.02 300.981ZM1451.63 320.472C1453.53 320.119 1455.36 321.374 1455.71 323.275L1455.73 323.372C1456.08 325.272 1454.82 327.099 1452.92 327.451C1451.02 327.804 1449.2 326.549 1448.84 324.648L1448.83 324.551C1448.47 322.651 1449.73 320.824 1451.63 320.472ZM1455.24 339.963C1457.15 339.61 1458.97 340.865 1459.32 342.766L1459.33 342.814C1459.69 344.715 1458.43 346.542 1456.53 346.894C1454.63 347.246 1452.8 345.992 1452.45 344.091L1452.44 344.042C1452.09 342.142 1453.34 340.315 1455.24 339.963Z" fill="#FFE8C8"/>
<path fill-rule="evenodd" clip-rule="evenodd" d="M1372.17 12.6733C1374.07 12.3208 1375.9 13.5758 1376.25 15.4764L1376.26 15.5248C1376.61 17.4254 1375.36 19.2519 1373.46 19.6044C1371.56 19.9569 1369.73 18.7019 1369.38 16.8013L1369.37 16.7528C1369.02 14.8522 1370.27 13.0257 1372.17 12.6733ZM1375.78 32.1159C1377.68 31.7635 1379.5 33.0184 1379.86 34.919L1379.87 35.016C1380.23 36.9166 1378.97 38.7431 1377.07 39.0955C1375.17 39.448 1373.34 38.193 1372.99 36.2924L1372.97 36.1955C1372.62 34.2949 1373.88 32.4684 1375.78 32.1159ZM1379.39 51.6071C1381.29 51.2546 1383.12 52.5096 1383.47 54.4102L1383.49 54.5072C1383.84 56.4078 1382.59 58.2342 1380.69 58.5867C1378.79 58.9392 1376.96 57.6842 1376.61 55.7836L1376.59 55.6866C1376.24 53.7861 1377.49 51.9596 1379.39 51.6071ZM1383.01 71.0983C1384.91 70.7458 1386.73 72.0008 1387.09 73.9014L1387.1 73.9983C1387.46 75.8989 1386.2 77.7254 1384.3 78.0779C1382.4 78.4304 1380.57 77.1754 1380.22 75.2748L1380.2 75.1778C1379.85 73.2772 1381.11 71.4507 1383.01 71.0983ZM1386.62 90.5894C1388.52 90.237 1390.35 91.4919 1390.7 93.3925L1390.72 93.4895C1391.07 95.3901 1389.82 97.2166 1387.92 97.569C1386.01 97.9215 1384.19 96.6665 1383.84 94.7659L1383.82 94.669C1383.47 92.7684 1384.72 90.9419 1386.62 90.5894ZM1390.24 110.081C1392.14 109.728 1393.96 110.983 1394.32 112.884L1394.33 112.981C1394.69 114.881 1393.43 116.708 1391.53 117.06C1389.63 117.413 1387.8 116.158 1387.45 114.257L1387.43 114.16C1387.08 112.26 1388.34 110.433 1390.24 110.081ZM1393.85 129.572C1395.75 129.219 1397.58 130.474 1397.93 132.375L1397.95 132.472C1398.3 134.372 1397.05 136.199 1395.15 136.551C1393.24 136.904 1391.42 135.649 1391.07 133.748L1391.05 133.651C1390.7 131.751 1391.95 129.924 1393.85 129.572ZM1397.47 149.063C1399.37 148.71 1401.19 149.965 1401.55 151.866L1401.56 151.963C1401.92 153.864 1400.66 155.69 1398.76 156.043C1396.86 156.395 1395.03 155.14 1394.68 153.239L1394.66 153.142C1394.31 151.242 1395.56 149.415 1397.47 149.063ZM1401.08 168.554C1402.98 168.202 1404.81 169.457 1405.16 171.357L1405.18 171.454C1405.53 173.355 1404.28 175.181 1402.37 175.534C1400.47 175.886 1398.65 174.631 1398.3 172.731L1398.28 172.634C1397.92 170.733 1399.18 168.907 1401.08 168.554ZM1404.7 188.045C1406.6 187.693 1408.42 188.948 1408.77 190.848L1408.79 190.945C1409.15 192.846 1407.89 194.672 1405.99 195.025C1404.09 195.377 1402.26 194.122 1401.91 192.222L1401.89 192.125C1401.54 190.224 1402.79 188.398 1404.7 188.045ZM1408.31 207.536C1410.21 207.184 1412.04 208.439 1412.39 210.339L1412.41 210.436C1412.76 212.337 1411.5 214.164 1409.6 214.516C1407.7 214.868 1405.88 213.613 1405.52 211.713L1405.51 211.616C1405.15 209.715 1406.41 207.889 1408.31 207.536ZM1411.92 227.028C1413.83 226.675 1415.65 227.93 1416 229.831L1416.02 229.928C1416.37 231.828 1415.12 233.655 1413.22 234.007C1411.32 234.36 1409.49 233.105 1409.14 231.204L1409.12 231.107C1408.77 229.207 1410.02 227.38 1411.92 227.028ZM1415.54 246.519C1417.44 246.166 1419.27 247.421 1419.62 249.322L1419.64 249.419C1419.99 251.319 1418.73 253.146 1416.83 253.498C1414.93 253.851 1413.11 252.596 1412.75 250.695L1412.74 250.598C1412.38 248.698 1413.64 246.871 1415.54 246.519ZM1419.15 266.01C1421.05 265.657 1422.88 266.912 1423.23 268.813L1423.25 268.91C1423.6 270.811 1422.35 272.637 1420.45 272.99C1418.55 273.342 1416.72 272.087 1416.37 270.186L1416.35 270.089C1416 268.189 1417.25 266.362 1419.15 266.01ZM1422.77 285.501C1424.67 285.149 1426.5 286.404 1426.85 288.304L1426.87 288.401C1427.22 290.302 1425.96 292.128 1424.06 292.481C1422.16 292.833 1420.34 291.578 1419.98 289.678L1419.97 289.581C1419.61 287.68 1420.87 285.854 1422.77 285.501ZM1426.38 304.992C1428.28 304.64 1430.11 305.895 1430.46 307.795L1430.48 307.892C1430.83 309.793 1429.58 311.619 1427.68 311.972C1425.78 312.324 1423.95 311.069 1423.6 309.169L1423.58 309.072C1423.23 307.171 1424.48 305.345 1426.38 304.992ZM1430 324.483C1431.9 324.131 1433.73 325.386 1434.08 327.287L1434.1 327.384C1434.45 329.284 1433.19 331.111 1431.29 331.463C1429.39 331.816 1427.57 330.561 1427.21 328.66L1427.2 328.563C1426.84 326.662 1428.1 324.836 1430 324.483ZM1433.61 343.975C1435.51 343.622 1437.34 344.877 1437.69 346.778L1437.7 346.826C1438.05 348.727 1436.8 350.553 1434.9 350.906C1433 351.258 1431.17 350.003 1430.82 348.103L1430.81 348.054C1430.46 346.154 1431.71 344.327 1433.61 343.975Z" fill="#FFE8C8"/>
<path fill-rule="evenodd" clip-rule="evenodd" d="M1350.54 16.6849C1352.44 16.3325 1354.27 17.5874 1354.62 19.488L1354.63 19.5365C1354.98 21.4371 1353.73 23.2636 1351.83 23.6161C1349.92 23.9685 1348.1 22.7135 1347.75 20.813L1347.74 20.7645C1347.38 18.8639 1348.64 17.0374 1350.54 16.6849ZM1354.15 36.1276C1356.05 35.7751 1357.87 37.0301 1358.23 38.9307L1358.24 39.0277C1358.6 40.9283 1357.34 42.7547 1355.44 43.1072C1353.54 43.4597 1351.71 42.2047 1351.36 40.3041L1351.34 40.2072C1350.99 38.3066 1352.24 36.4801 1354.15 36.1276ZM1357.76 55.6188C1359.66 55.2663 1361.49 56.5213 1361.84 58.4219L1361.86 58.5188C1362.21 60.4194 1360.96 62.2459 1359.05 62.5984C1357.15 62.9509 1355.33 61.6959 1354.98 59.7953L1354.96 59.6983C1354.6 57.7977 1355.86 55.9713 1357.76 55.6188ZM1361.38 75.1099C1363.28 74.7575 1365.1 76.0125 1365.45 77.913L1365.47 78.01C1365.83 79.9106 1364.57 81.7371 1362.67 82.0896C1360.77 82.442 1358.94 81.187 1358.59 79.2865L1358.57 79.1895C1358.22 77.2889 1359.47 75.4624 1361.38 75.1099ZM1364.99 94.6011C1366.89 94.2486 1368.72 95.5036 1369.07 97.4042L1369.09 97.5012C1369.44 99.4018 1368.18 101.228 1366.28 101.581C1364.38 101.933 1362.56 100.678 1362.2 98.7776L1362.19 98.6807C1361.83 96.7801 1363.09 94.9536 1364.99 94.6011ZM1368.6 114.092C1370.51 113.74 1372.33 114.995 1372.68 116.895L1372.7 116.992C1373.05 118.893 1371.8 120.719 1369.9 121.072C1368 121.424 1366.17 120.169 1365.82 118.269L1365.8 118.172C1365.45 116.271 1366.7 114.445 1368.6 114.092ZM1372.22 133.583C1374.12 133.231 1375.95 134.486 1376.3 136.387L1376.32 136.484C1376.67 138.384 1375.41 140.211 1373.51 140.563C1371.61 140.916 1369.79 139.661 1369.43 137.76L1369.42 137.663C1369.06 135.762 1370.32 133.936 1372.22 133.583ZM1375.83 153.075C1377.73 152.722 1379.56 153.977 1379.91 155.878L1379.93 155.975C1380.28 157.875 1379.03 159.702 1377.13 160.054C1375.23 160.407 1373.4 159.152 1373.05 157.251L1373.03 157.154C1372.68 155.254 1373.93 153.427 1375.83 153.075ZM1379.45 172.566C1381.35 172.213 1383.18 173.468 1383.53 175.369L1383.55 175.466C1383.9 177.366 1382.64 179.193 1380.74 179.545C1378.84 179.898 1377.02 178.643 1376.66 176.742L1376.65 176.645C1376.29 174.745 1377.55 172.918 1379.45 172.566ZM1383.06 192.057C1384.96 191.704 1386.79 192.959 1387.14 194.86L1387.16 194.957C1387.51 196.858 1386.26 198.684 1384.36 199.037C1382.46 199.389 1380.63 198.134 1380.28 196.233L1380.26 196.136C1379.91 194.236 1381.16 192.409 1383.06 192.057ZM1386.68 211.548C1388.58 211.196 1390.41 212.451 1390.76 214.351L1390.78 214.448C1391.13 216.349 1389.87 218.175 1387.97 218.528C1386.07 218.88 1384.25 217.625 1383.89 215.725L1383.88 215.628C1383.52 213.727 1384.78 211.901 1386.68 211.548ZM1390.29 231.039C1392.19 230.687 1394.02 231.942 1394.37 233.842L1394.39 233.939C1394.74 235.84 1393.49 237.666 1391.59 238.019C1389.69 238.371 1387.86 237.116 1387.51 235.216L1387.49 235.119C1387.14 233.218 1388.39 231.392 1390.29 231.039ZM1393.91 250.53C1395.81 250.178 1397.64 251.433 1397.99 253.333L1398.01 253.43C1398.36 255.331 1397.1 257.157 1395.2 257.51C1393.3 257.862 1391.48 256.607 1391.12 254.707L1391.11 254.61C1390.75 252.709 1392.01 250.883 1393.91 250.53ZM1397.52 270.022C1399.42 269.669 1401.25 270.924 1401.6 272.825L1401.62 272.922C1401.97 274.822 1400.72 276.649 1398.82 277.001C1396.92 277.354 1395.09 276.099 1394.74 274.198L1394.72 274.101C1394.37 272.201 1395.62 270.374 1397.52 270.022ZM1401.14 289.513C1403.04 289.16 1404.86 290.415 1405.22 292.316L1405.24 292.413C1405.59 294.313 1404.33 296.14 1402.43 296.492C1400.53 296.845 1398.71 295.59 1398.35 293.689L1398.33 293.592C1397.98 291.692 1399.24 289.865 1401.14 289.513ZM1404.75 309.004C1406.65 308.651 1408.48 309.906 1408.83 311.807L1408.85 311.904C1409.2 313.805 1407.95 315.631 1406.05 315.984C1404.15 316.336 1402.32 315.081 1401.97 313.18L1401.95 313.083C1401.6 311.183 1402.85 309.356 1404.75 309.004ZM1408.37 328.495C1410.27 328.143 1412.09 329.398 1412.45 331.298L1412.47 331.395C1412.82 333.296 1411.56 335.122 1409.66 335.475C1407.76 335.827 1405.93 334.572 1405.58 332.672L1405.56 332.575C1405.21 330.674 1406.47 328.848 1408.37 328.495ZM1411.98 347.986C1413.88 347.634 1415.71 348.889 1416.06 350.789L1416.07 350.838C1416.42 352.738 1415.17 354.565 1413.27 354.917C1411.37 355.27 1409.54 354.015 1409.19 352.114L1409.18 352.066C1408.83 350.165 1410.08 348.339 1411.98 347.986Z" fill="#FFE8C8"/>
<path fill-rule="evenodd" clip-rule="evenodd" d="M1328.91 20.6966C1330.81 20.3441 1332.64 21.5991 1332.99 23.4997L1333 23.5482C1333.35 25.4488 1332.09 27.2753 1330.19 27.6277C1328.29 27.9802 1326.47 26.7252 1326.11 24.8246L1326.11 24.7761C1325.75 22.8756 1327.01 21.0491 1328.91 20.6966ZM1332.51 40.1393C1334.41 39.7868 1336.24 41.0418 1336.59 42.9424L1336.61 43.0394C1336.96 44.9399 1335.71 46.7664 1333.81 47.1189C1331.91 47.4714 1330.08 46.2164 1329.73 44.3158L1329.71 44.2188C1329.36 42.3182 1330.61 40.4918 1332.51 40.1393ZM1336.13 59.6305C1338.03 59.278 1339.86 60.533 1340.21 62.4336L1340.23 62.5305C1340.58 64.4311 1339.32 66.2576 1337.42 66.6101C1335.52 66.9625 1333.7 65.7076 1333.34 63.807L1333.33 63.71C1332.97 61.8094 1334.23 59.9829 1336.13 59.6305ZM1339.74 79.1216C1341.64 78.7691 1343.47 80.0241 1343.82 81.9247L1343.84 82.0217C1344.19 83.9223 1342.94 85.7488 1341.04 86.1012C1339.14 86.4537 1337.31 85.1987 1336.96 83.2981L1336.94 83.2012C1336.59 81.3006 1337.84 79.4741 1339.74 79.1216ZM1343.36 98.6128C1345.26 98.2603 1347.09 99.5153 1347.44 101.416L1347.46 101.513C1347.81 103.413 1346.55 105.24 1344.65 105.592C1342.75 105.945 1340.93 104.69 1340.57 102.789L1340.56 102.692C1340.2 100.792 1341.46 98.9653 1343.36 98.6128ZM1346.97 118.104C1348.87 117.751 1350.7 119.006 1351.05 120.907L1351.07 121.004C1351.42 122.905 1350.17 124.731 1348.27 125.084C1346.37 125.436 1344.54 124.181 1344.19 122.28L1344.17 122.184C1343.82 120.283 1345.07 118.456 1346.97 118.104ZM1350.59 137.595C1352.49 137.243 1354.32 138.498 1354.67 140.398L1354.69 140.495C1355.04 142.396 1353.78 144.222 1351.88 144.575C1349.98 144.927 1348.16 143.672 1347.8 141.772L1347.79 141.675C1347.43 139.774 1348.69 137.948 1350.59 137.595ZM1354.2 157.086C1356.1 156.734 1357.93 157.989 1358.28 159.889L1358.3 159.986C1358.65 161.887 1357.4 163.713 1355.5 164.066C1353.6 164.418 1351.77 163.163 1351.42 161.263L1351.4 161.166C1351.05 159.265 1352.3 157.439 1354.2 157.086ZM1357.82 176.577C1359.72 176.225 1361.55 177.48 1361.9 179.381L1361.92 179.478C1362.27 181.378 1361.01 183.205 1359.11 183.557C1357.21 183.91 1355.39 182.655 1355.03 180.754L1355.01 180.657C1354.66 178.756 1355.92 176.93 1357.82 176.577ZM1361.43 196.069C1363.33 195.716 1365.16 196.971 1365.51 198.872L1365.53 198.969C1365.88 200.869 1364.63 202.696 1362.73 203.048C1360.83 203.401 1359 202.146 1358.65 200.245L1358.63 200.148C1358.28 198.248 1359.53 196.421 1361.43 196.069ZM1365.05 215.56C1366.95 215.207 1368.77 216.462 1369.13 218.363L1369.15 218.46C1369.5 220.36 1368.24 222.187 1366.34 222.539C1364.44 222.892 1362.61 221.637 1362.26 219.736L1362.24 219.639C1361.89 217.739 1363.15 215.912 1365.05 215.56ZM1368.66 235.051C1370.56 234.698 1372.39 235.953 1372.74 237.854L1372.76 237.951C1373.11 239.852 1371.86 241.678 1369.96 242.031C1368.06 242.383 1366.23 241.128 1365.88 239.227L1365.86 239.13C1365.51 237.23 1366.76 235.403 1368.66 235.051ZM1372.28 254.542C1374.18 254.19 1376 255.445 1376.36 257.345L1376.37 257.442C1376.73 259.343 1375.47 261.169 1373.57 261.522C1371.67 261.874 1369.84 260.619 1369.49 258.719L1369.47 258.622C1369.12 256.721 1370.38 254.895 1372.28 254.542ZM1375.89 274.033C1377.79 273.681 1379.62 274.936 1379.97 276.836L1379.99 276.933C1380.34 278.834 1379.09 280.66 1377.19 281.013C1375.29 281.365 1373.46 280.11 1373.11 278.21L1373.09 278.113C1372.74 276.212 1373.99 274.386 1375.89 274.033ZM1379.51 293.524C1381.41 293.172 1383.23 294.427 1383.59 296.328L1383.6 296.424C1383.96 298.325 1382.7 300.152 1380.8 300.504C1378.9 300.857 1377.07 299.602 1376.72 297.701L1376.7 297.604C1376.35 295.703 1377.61 293.877 1379.51 293.524ZM1383.12 313.016C1385.02 312.663 1386.85 313.918 1387.2 315.819L1387.22 315.916C1387.57 317.816 1386.32 319.643 1384.42 319.995C1382.52 320.348 1380.69 319.093 1380.34 317.192L1380.32 317.095C1379.97 315.195 1381.22 313.368 1383.12 313.016ZM1386.74 332.507C1388.64 332.154 1390.46 333.409 1390.82 335.31L1390.83 335.407C1391.19 337.307 1389.93 339.134 1388.03 339.486C1386.13 339.839 1384.3 338.584 1383.95 336.683L1383.93 336.586C1383.58 334.686 1384.84 332.859 1386.74 332.507ZM1390.35 351.998C1392.25 351.645 1394.08 352.9 1394.43 354.801L1394.44 354.85C1394.79 356.75 1393.54 358.577 1391.64 358.929C1389.74 359.282 1387.91 358.027 1387.56 356.126L1387.55 356.078C1387.2 354.177 1388.45 352.35 1390.35 351.998Z" fill="#FFE8C8"/>
<path fill-rule="evenodd" clip-rule="evenodd" d="M1307.28 24.7083C1309.18 24.3558 1311 25.6108 1311.36 27.5114L1311.37 27.5599C1311.72 29.4605 1310.46 31.2869 1308.56 31.6394C1306.66 31.9919 1304.84 30.7369 1304.48 28.8363L1304.47 28.7878C1304.12 26.8872 1305.38 25.0608 1307.28 24.7083ZM1310.88 44.151C1312.78 43.7985 1314.61 45.0535 1314.96 46.9541L1314.98 47.051C1315.33 48.9516 1314.08 50.7781 1312.18 51.1306C1310.28 51.4831 1308.45 50.2281 1308.1 48.3275L1308.08 48.2305C1307.73 46.3299 1308.98 44.5034 1310.88 44.151ZM1314.5 63.6421C1316.4 63.2897 1318.23 64.5446 1318.58 66.4452L1318.6 66.5422C1318.95 68.4428 1317.69 70.2693 1315.79 70.6217C1313.89 70.9742 1312.07 69.7192 1311.71 67.8186L1311.69 67.7217C1311.34 65.8211 1312.6 63.9946 1314.5 63.6421ZM1318.11 83.1333C1320.01 82.7808 1321.84 84.0358 1322.19 85.9364L1322.21 86.0334C1322.56 87.9339 1321.31 89.7604 1319.41 90.1129C1317.51 90.4654 1315.68 89.2104 1315.33 87.3098L1315.31 87.2128C1314.96 85.3123 1316.21 83.4858 1318.11 83.1333ZM1321.73 102.624C1323.63 102.272 1325.45 103.527 1325.81 105.428L1325.83 105.525C1326.18 107.425 1324.92 109.252 1323.02 109.604C1321.12 109.957 1319.29 108.702 1318.94 106.801L1318.92 106.704C1318.57 104.803 1319.83 102.977 1321.73 102.624ZM1325.34 122.116C1327.24 121.763 1329.07 123.018 1329.42 124.919L1329.44 125.016C1329.79 126.916 1328.54 128.743 1326.64 129.095C1324.74 129.448 1322.91 128.193 1322.56 126.292L1322.54 126.195C1322.19 124.295 1323.44 122.468 1325.34 122.116ZM1328.96 141.607C1330.86 141.254 1332.68 142.509 1333.04 144.41L1333.05 144.507C1333.41 146.407 1332.15 148.234 1330.25 148.586C1328.35 148.939 1326.52 147.684 1326.17 145.783L1326.15 145.686C1325.8 143.786 1327.06 141.959 1328.96 141.607ZM1332.57 161.098C1334.47 160.745 1336.3 162 1336.65 163.901L1336.67 163.998C1337.02 165.899 1335.77 167.725 1333.87 168.078C1331.97 168.43 1330.14 167.175 1329.79 165.274L1329.77 165.178C1329.42 163.277 1330.67 161.45 1332.57 161.098ZM1336.19 180.589C1338.09 180.237 1339.91 181.492 1340.27 183.392L1340.28 183.489C1340.64 185.39 1339.38 187.216 1337.48 187.569C1335.58 187.921 1333.75 186.666 1333.4 184.766L1333.38 184.669C1333.03 182.768 1334.29 180.942 1336.19 180.589ZM1339.8 200.08C1341.7 199.728 1343.53 200.983 1343.88 202.883L1343.9 202.98C1344.25 204.881 1343 206.707 1341.1 207.06C1339.2 207.412 1337.37 206.157 1337.02 204.257L1337 204.16C1336.65 202.259 1337.9 200.433 1339.8 200.08ZM1343.42 219.571C1345.32 219.219 1347.14 220.474 1347.5 222.375L1347.51 222.471C1347.87 224.372 1346.61 226.199 1344.71 226.551C1342.81 226.904 1340.98 225.649 1340.63 223.748L1340.61 223.651C1340.26 221.75 1341.52 219.924 1343.42 219.571ZM1347.03 239.063C1348.93 238.71 1350.76 239.965 1351.11 241.866L1351.13 241.963C1351.48 243.863 1350.23 245.69 1348.33 246.042C1346.43 246.395 1344.6 245.14 1344.25 243.239L1344.23 243.142C1343.88 241.242 1345.13 239.415 1347.03 239.063ZM1350.65 258.554C1352.55 258.201 1354.37 259.456 1354.73 261.357L1354.74 261.454C1355.1 263.354 1353.84 265.181 1351.94 265.533C1350.04 265.886 1348.21 264.631 1347.86 262.73L1347.84 262.633C1347.49 260.733 1348.75 258.906 1350.65 258.554ZM1354.26 278.045C1356.16 277.692 1357.99 278.947 1358.34 280.848L1358.36 280.945C1358.71 282.846 1357.46 284.672 1355.56 285.025C1353.65 285.377 1351.83 284.122 1351.48 282.221L1351.46 282.124C1351.11 280.224 1352.36 278.397 1354.26 278.045ZM1357.88 297.536C1359.78 297.184 1361.6 298.439 1361.96 300.339L1361.97 300.436C1362.33 302.337 1361.07 304.163 1359.17 304.516C1357.27 304.868 1355.44 303.613 1355.09 301.713L1355.07 301.616C1354.72 299.715 1355.98 297.889 1357.88 297.536ZM1361.49 317.027C1363.39 316.675 1365.22 317.93 1365.57 319.83L1365.59 319.927C1365.94 321.828 1364.69 323.654 1362.78 324.007C1360.88 324.359 1359.06 323.104 1358.71 321.204L1358.69 321.107C1358.33 319.206 1359.59 317.38 1361.49 317.027ZM1365.11 336.518C1367.01 336.166 1368.83 337.421 1369.18 339.322L1369.2 339.419C1369.56 341.319 1368.3 343.146 1366.4 343.498C1364.5 343.851 1362.67 342.596 1362.32 340.695L1362.3 340.598C1361.95 338.697 1363.2 336.871 1365.11 336.518ZM1368.72 356.01C1370.62 355.657 1372.45 356.912 1372.8 358.813L1372.81 358.861C1373.16 360.762 1371.91 362.588 1370.01 362.941C1368.1 363.293 1366.28 362.038 1365.93 360.138L1365.92 360.089C1365.56 358.189 1366.82 356.362 1368.72 356.01Z" fill="#FFE8C8"/>
<path fill-rule="evenodd" clip-rule="evenodd" d="M1285.65 28.72C1287.55 28.3675 1289.37 29.6225 1289.73 31.5231L1289.73 31.5715C1290.09 33.4721 1288.83 35.2986 1286.93 35.6511C1285.03 36.0036 1283.2 34.7486 1282.85 32.848L1282.84 32.7995C1282.49 30.8989 1283.75 29.0724 1285.65 28.72ZM1289.25 48.1626C1291.15 47.8102 1292.98 49.0652 1293.33 50.9657L1293.35 51.0627C1293.7 52.9633 1292.45 54.7898 1290.55 55.1423C1288.65 55.4947 1286.82 54.2397 1286.47 52.3392L1286.45 52.2422C1286.1 50.3416 1287.35 48.5151 1289.25 48.1626ZM1292.87 67.6538C1294.77 67.3013 1296.59 68.5563 1296.95 70.4569L1296.96 70.5539C1297.32 72.4545 1296.06 74.2809 1294.16 74.6334C1292.26 74.9859 1290.43 73.7309 1290.08 71.8303L1290.06 71.7334C1289.71 69.8328 1290.97 68.0063 1292.87 67.6538ZM1296.48 87.145C1298.38 86.7925 1300.21 88.0475 1300.56 89.9481L1300.58 90.045C1300.93 91.9456 1299.68 93.7721 1297.78 94.1246C1295.88 94.4771 1294.05 93.2221 1293.7 91.3215L1293.68 91.2245C1293.33 89.3239 1294.58 87.4975 1296.48 87.145ZM1300.1 106.636C1302 106.284 1303.82 107.539 1304.18 109.439L1304.19 109.536C1304.55 111.437 1303.29 113.263 1301.39 113.616C1299.49 113.968 1297.66 112.713 1297.31 110.813L1297.29 110.716C1296.94 108.815 1298.2 106.989 1300.1 106.636ZM1303.71 126.127C1305.61 125.775 1307.44 127.03 1307.79 128.93L1307.81 129.027C1308.16 130.928 1306.91 132.754 1305.01 133.107C1303.11 133.459 1301.28 132.204 1300.93 130.304L1300.91 130.207C1300.56 128.306 1301.81 126.48 1303.71 126.127ZM1307.33 145.618C1309.23 145.266 1311.05 146.521 1311.41 148.422L1311.42 148.519C1311.78 150.419 1310.52 152.246 1308.62 152.598C1306.72 152.951 1304.89 151.696 1304.54 149.795L1304.52 149.698C1304.17 147.797 1305.43 145.971 1307.33 145.618ZM1310.94 165.11C1312.84 164.757 1314.67 166.012 1315.02 167.913L1315.04 168.01C1315.39 169.91 1314.14 171.737 1312.24 172.089C1310.33 172.442 1308.51 171.187 1308.16 169.286L1308.14 169.189C1307.79 167.289 1309.04 165.462 1310.94 165.11ZM1314.56 184.601C1316.46 184.248 1318.28 185.503 1318.64 187.404L1318.65 187.501C1319.01 189.401 1317.75 191.228 1315.85 191.58C1313.95 191.933 1312.12 190.678 1311.77 188.777L1311.75 188.68C1311.4 186.78 1312.66 184.953 1314.56 184.601ZM1318.17 204.092C1320.07 203.739 1321.9 204.994 1322.25 206.895L1322.27 206.992C1322.62 208.893 1321.37 210.719 1319.46 211.072C1317.56 211.424 1315.74 210.169 1315.39 208.268L1315.37 208.171C1315.01 206.271 1316.27 204.444 1318.17 204.092ZM1321.79 223.583C1323.69 223.231 1325.51 224.486 1325.86 226.386L1325.88 226.483C1326.24 228.384 1324.98 230.21 1323.08 230.563C1321.18 230.915 1319.35 229.66 1319 227.76L1318.98 227.663C1318.63 225.762 1319.88 223.936 1321.79 223.583ZM1325.4 243.074C1327.3 242.722 1329.13 243.977 1329.48 245.877L1329.5 245.974C1329.85 247.875 1328.6 249.701 1326.69 250.054C1324.79 250.406 1322.97 249.151 1322.61 247.251L1322.6 247.154C1322.24 245.253 1323.5 243.427 1325.4 243.074ZM1329.01 262.565C1330.92 262.213 1332.74 263.468 1333.09 265.368L1333.11 265.465C1333.46 267.366 1332.21 269.193 1330.31 269.545C1328.41 269.897 1326.58 268.643 1326.23 266.742L1326.21 266.645C1325.86 264.744 1327.11 262.918 1329.01 262.565ZM1332.63 282.057C1334.53 281.704 1336.36 282.959 1336.71 284.86L1336.73 284.957C1337.08 286.857 1335.82 288.684 1333.92 289.036C1332.02 289.389 1330.2 288.134 1329.84 286.233L1329.83 286.136C1329.47 284.236 1330.73 282.409 1332.63 282.057ZM1336.24 301.548C1338.15 301.195 1339.97 302.45 1340.32 304.351L1340.34 304.448C1340.69 306.348 1339.44 308.175 1337.54 308.527C1335.64 308.88 1333.81 307.625 1333.46 305.724L1333.44 305.627C1333.09 303.727 1334.34 301.9 1336.24 301.548ZM1339.86 321.039C1341.76 320.686 1343.59 321.941 1343.94 323.842L1343.96 323.939C1344.31 325.84 1343.05 327.666 1341.15 328.019C1339.25 328.371 1337.43 327.116 1337.07 325.215L1337.06 325.118C1336.7 323.218 1337.96 321.391 1339.86 321.039ZM1343.47 340.53C1345.37 340.178 1347.2 341.433 1347.55 343.333L1347.57 343.43C1347.92 345.331 1346.67 347.157 1344.77 347.51C1342.87 347.862 1341.04 346.607 1340.69 344.707L1340.67 344.61C1340.32 342.709 1341.57 340.883 1343.47 340.53ZM1347.09 360.021C1348.99 359.669 1350.82 360.924 1351.17 362.824L1351.18 362.873C1351.53 364.773 1350.27 366.6 1348.37 366.952C1346.47 367.305 1344.65 366.05 1344.29 364.149L1344.29 364.101C1343.93 362.2 1345.19 360.374 1347.09 360.021Z" fill="#FFE8C8"/>
<path fill-rule="evenodd" clip-rule="evenodd" d="M1264.02 32.7316C1265.92 32.3792 1267.74 33.6342 1268.09 35.5347L1268.1 35.5832C1268.46 37.4838 1267.2 39.3103 1265.3 39.6628C1263.4 40.0152 1261.57 38.7603 1261.22 36.8597L1261.21 36.8112C1260.86 34.9106 1262.11 33.0841 1264.02 32.7316ZM1267.62 52.1743C1269.52 51.8218 1271.35 53.0768 1271.7 54.9774L1271.72 55.0744C1272.07 56.975 1270.82 58.8015 1268.92 59.1539C1267.01 59.5064 1265.19 58.2514 1264.84 56.3508L1264.82 56.2539C1264.47 54.3533 1265.72 52.5268 1267.62 52.1743ZM1271.24 71.6655C1273.14 71.313 1274.96 72.568 1275.32 74.4686L1275.33 74.5656C1275.69 76.4661 1274.43 78.2926 1272.53 78.6451C1270.63 78.9976 1268.8 77.7426 1268.45 75.842L1268.43 75.745C1268.08 73.8444 1269.34 72.018 1271.24 71.6655ZM1274.85 91.1567C1276.75 90.8042 1278.58 92.0592 1278.93 93.9598L1278.95 94.0567C1279.3 95.9573 1278.05 97.7838 1276.14 98.1363C1274.24 98.4887 1272.42 97.2338 1272.07 95.3332L1272.05 95.2362C1271.69 93.3356 1272.95 91.5091 1274.85 91.1567ZM1278.47 110.648C1280.37 110.295 1282.19 111.55 1282.54 113.451L1282.56 113.548C1282.92 115.448 1281.66 117.275 1279.76 117.627C1277.86 117.98 1276.03 116.725 1275.68 114.824L1275.66 114.727C1275.31 112.827 1276.56 111 1278.47 110.648ZM1282.08 130.139C1283.98 129.787 1285.81 131.042 1286.16 132.942L1286.18 133.039C1286.53 134.94 1285.28 136.766 1283.37 137.119C1281.47 137.471 1279.65 136.216 1279.3 134.316L1279.28 134.219C1278.92 132.318 1280.18 130.491 1282.08 130.139ZM1285.69 149.63C1287.6 149.278 1289.42 150.533 1289.77 152.433L1289.79 152.53C1290.14 154.431 1288.89 156.257 1286.99 156.61C1285.09 156.962 1283.26 155.707 1282.91 153.807L1282.89 153.71C1282.54 151.809 1283.79 149.983 1285.69 149.63ZM1289.31 169.121C1291.21 168.769 1293.04 170.024 1293.39 171.924L1293.41 172.021C1293.76 173.922 1292.5 175.748 1290.6 176.101C1288.7 176.453 1286.88 175.198 1286.52 173.298L1286.51 173.201C1286.15 171.3 1287.41 169.474 1289.31 169.121ZM1292.92 188.612C1294.83 188.26 1296.65 189.515 1297 191.416L1297.02 191.513C1297.37 193.413 1296.12 195.24 1294.22 195.592C1292.32 195.945 1290.49 194.69 1290.14 192.789L1290.12 192.692C1289.77 190.791 1291.02 188.965 1292.92 188.612ZM1296.54 208.104C1298.44 207.751 1300.27 209.006 1300.62 210.907L1300.64 211.004C1300.99 212.904 1299.73 214.731 1297.83 215.083C1295.93 215.436 1294.11 214.181 1293.75 212.28L1293.74 212.183C1293.38 210.283 1294.64 208.456 1296.54 208.104ZM1300.15 227.595C1302.05 227.242 1303.88 228.497 1304.23 230.398L1304.25 230.495C1304.6 232.395 1303.35 234.222 1301.45 234.574C1299.55 234.927 1297.72 233.672 1297.37 231.771L1297.35 231.674C1297 229.774 1298.25 227.947 1300.15 227.595ZM1303.77 247.086C1305.67 246.733 1307.5 247.988 1307.85 249.889L1307.87 249.986C1308.22 251.887 1306.96 253.713 1305.06 254.066C1303.16 254.418 1301.34 253.163 1300.98 251.262L1300.97 251.165C1300.61 249.265 1301.87 247.438 1303.77 247.086ZM1307.38 266.577C1309.28 266.225 1311.11 267.48 1311.46 269.38L1311.48 269.477C1311.83 271.378 1310.58 273.204 1308.68 273.557C1306.78 273.909 1304.95 272.654 1304.6 270.754L1304.58 270.657C1304.23 268.756 1305.48 266.93 1307.38 266.577ZM1311 286.068C1312.9 285.716 1314.73 286.971 1315.08 288.871L1315.1 288.968C1315.45 290.869 1314.19 292.695 1312.29 293.048C1310.39 293.4 1308.57 292.145 1308.21 290.245L1308.2 290.148C1307.84 288.247 1309.1 286.421 1311 286.068ZM1314.61 305.559C1316.51 305.207 1318.34 306.462 1318.69 308.363L1318.71 308.46C1319.06 310.36 1317.81 312.187 1315.91 312.539C1314.01 312.892 1312.18 311.637 1311.83 309.736L1311.81 309.639C1311.46 307.738 1312.71 305.912 1314.61 305.559ZM1318.23 325.051C1320.13 324.698 1321.96 325.953 1322.31 327.854L1322.33 327.951C1322.68 329.851 1321.42 331.678 1319.52 332.03C1317.62 332.383 1315.8 331.128 1315.44 329.227L1315.43 329.13C1315.07 327.23 1316.33 325.403 1318.23 325.051ZM1321.84 344.542C1323.74 344.189 1325.57 345.444 1325.92 347.345L1325.94 347.442C1326.29 349.342 1325.04 351.169 1323.14 351.521C1321.24 351.874 1319.41 350.619 1319.06 348.718L1319.04 348.621C1318.69 346.721 1319.94 344.894 1321.84 344.542ZM1325.46 364.033C1327.36 363.681 1329.18 364.935 1329.54 366.836L1329.55 366.885C1329.9 368.785 1328.64 370.612 1326.74 370.964C1324.84 371.317 1323.02 370.062 1322.66 368.161L1322.65 368.113C1322.3 366.212 1323.56 364.385 1325.46 364.033Z" fill="#FFE8C8"/>
<path fill-rule="evenodd" clip-rule="evenodd" d="M1242.38 36.7433C1244.28 36.3908 1246.11 37.6458 1246.46 39.5464L1246.47 39.5949C1246.82 41.4955 1245.57 43.322 1243.67 43.6744C1241.77 44.0269 1239.94 42.7719 1239.59 40.8713L1239.58 40.8229C1239.23 38.9223 1240.48 37.0958 1242.38 36.7433ZM1245.99 56.186C1247.89 55.8335 1249.72 57.0885 1250.07 58.9891L1250.09 59.0861C1250.44 60.9867 1249.18 62.8131 1247.28 63.1656C1245.38 63.5181 1243.56 62.2631 1243.2 60.3625L1243.19 60.2655C1242.83 58.365 1244.09 56.5385 1245.99 56.186ZM1249.6 75.6772C1251.51 75.3247 1253.33 76.5797 1253.68 78.4803L1253.7 78.5772C1254.05 80.4778 1252.8 82.3043 1250.9 82.6568C1249 83.0093 1247.17 81.7543 1246.82 79.8537L1246.8 79.7567C1246.45 77.8561 1247.7 76.0296 1249.6 75.6772ZM1253.22 95.1683C1255.12 94.8159 1256.95 96.0708 1257.3 97.9714L1257.32 98.0684C1257.67 99.969 1256.41 101.795 1254.51 102.148C1252.61 102.5 1250.79 101.245 1250.43 99.3448L1250.42 99.2479C1250.06 97.3473 1251.32 95.5208 1253.22 95.1683ZM1256.83 114.66C1258.73 114.307 1260.56 115.562 1260.91 117.463L1260.93 117.56C1261.28 119.46 1260.03 121.287 1258.13 121.639C1256.23 121.992 1254.4 120.737 1254.05 118.836L1254.03 118.739C1253.68 116.838 1254.93 115.012 1256.83 114.66ZM1260.45 134.151C1262.35 133.798 1264.18 135.053 1264.53 136.954L1264.55 137.051C1264.9 138.951 1263.64 140.778 1261.74 141.13C1259.84 141.483 1258.02 140.228 1257.66 138.327L1257.65 138.23C1257.29 136.33 1258.55 134.503 1260.45 134.151ZM1264.06 153.642C1265.96 153.289 1267.79 154.544 1268.14 156.445L1268.16 156.542C1268.51 158.442 1267.26 160.269 1265.36 160.621C1263.46 160.974 1261.63 159.719 1261.28 157.818L1261.26 157.721C1260.91 155.821 1262.16 153.994 1264.06 153.642ZM1267.68 173.133C1269.58 172.781 1271.41 174.036 1271.76 175.936L1271.78 176.033C1272.13 177.934 1270.87 179.76 1268.97 180.113C1267.07 180.465 1265.25 179.21 1264.89 177.31L1264.88 177.213C1264.52 175.312 1265.78 173.485 1267.68 173.133ZM1271.29 192.624C1273.19 192.272 1275.02 193.527 1275.37 195.427L1275.39 195.524C1275.74 197.425 1274.49 199.251 1272.59 199.604C1270.69 199.956 1268.86 198.701 1268.51 196.801L1268.49 196.704C1268.14 194.803 1269.39 192.977 1271.29 192.624ZM1274.91 212.115C1276.81 211.763 1278.64 213.018 1278.99 214.918L1279.01 215.015C1279.36 216.916 1278.1 218.742 1276.2 219.095C1274.3 219.447 1272.48 218.192 1272.12 216.292L1272.11 216.195C1271.75 214.294 1273.01 212.468 1274.91 212.115ZM1278.52 231.606C1280.42 231.254 1282.25 232.509 1282.6 234.41L1282.62 234.507C1282.97 236.407 1281.72 238.234 1279.82 238.586C1277.92 238.939 1276.09 237.684 1275.74 235.783L1275.72 235.686C1275.37 233.785 1276.62 231.959 1278.52 231.606ZM1282.14 251.098C1284.04 250.745 1285.86 252 1286.22 253.901L1286.24 253.998C1286.59 255.898 1285.33 257.725 1283.43 258.077C1281.53 258.43 1279.71 257.175 1279.35 255.274L1279.33 255.177C1278.98 253.277 1280.24 251.45 1282.14 251.098ZM1285.75 270.589C1287.65 270.236 1289.48 271.491 1289.83 273.392L1289.85 273.489C1290.2 275.389 1288.95 277.216 1287.05 277.568C1285.15 277.921 1283.32 276.666 1282.97 274.765L1282.95 274.668C1282.6 272.768 1283.85 270.941 1285.75 270.589ZM1289.37 290.08C1291.27 289.727 1293.09 290.982 1293.45 292.883L1293.46 292.98C1293.82 294.881 1292.56 296.707 1290.66 297.06C1288.76 297.412 1286.93 296.157 1286.58 294.256L1286.56 294.159C1286.21 292.259 1287.47 290.432 1289.37 290.08ZM1292.98 309.571C1294.88 309.219 1296.71 310.474 1297.06 312.374L1297.08 312.471C1297.43 314.372 1296.18 316.198 1294.28 316.551C1292.38 316.903 1290.55 315.648 1290.2 313.748L1290.18 313.651C1289.83 311.75 1291.08 309.924 1292.98 309.571ZM1296.6 329.062C1298.5 328.71 1300.32 329.965 1300.68 331.865L1300.69 331.962C1301.05 333.863 1299.79 335.689 1297.89 336.042C1295.99 336.394 1294.16 335.139 1293.81 333.239L1293.79 333.142C1293.44 331.241 1294.7 329.415 1296.6 329.062ZM1300.21 348.553C1302.11 348.201 1303.94 349.456 1304.29 351.357L1304.31 351.454C1304.66 353.354 1303.41 355.181 1301.51 355.533C1299.61 355.886 1297.78 354.631 1297.43 352.73L1297.41 352.633C1297.06 350.732 1298.31 348.906 1300.21 348.553ZM1303.83 368.045C1305.73 367.692 1307.55 368.947 1307.91 370.848L1307.92 370.896C1308.27 372.797 1307.01 374.623 1305.11 374.976C1303.21 375.328 1301.38 374.073 1301.03 372.173L1301.02 372.124C1300.67 370.224 1301.93 368.397 1303.83 368.045Z" fill="#FFE8C8"/>
<path fill-rule="evenodd" clip-rule="evenodd" d="M1220.75 40.755C1222.65 40.4025 1224.48 41.6575 1224.83 43.5581L1224.84 43.6066C1225.19 45.5072 1223.94 47.3336 1222.04 47.6861C1220.14 48.0386 1218.31 46.7836 1217.96 44.883L1217.95 44.8345C1217.6 42.9339 1218.85 41.1075 1220.75 40.755ZM1224.36 60.1977C1226.26 59.8452 1228.09 61.1002 1228.44 63.0008L1228.46 63.0977C1228.81 64.9983 1227.55 66.8248 1225.65 67.1773C1223.75 67.5298 1221.93 66.2748 1221.57 64.3742L1221.56 64.2772C1221.2 62.3766 1222.46 60.5502 1224.36 60.1977ZM1227.97 79.6888C1229.87 79.3364 1231.7 80.5914 1232.05 82.4919L1232.07 82.5889C1232.42 84.4895 1231.17 86.316 1229.27 86.6684C1227.37 87.0209 1225.54 85.7659 1225.19 83.8654L1225.17 83.7684C1224.82 81.8678 1226.07 80.0413 1227.97 79.6888ZM1231.59 99.18C1233.49 98.8275 1235.32 100.083 1235.67 101.983L1235.69 102.08C1236.04 103.981 1234.78 105.807 1232.88 106.16C1230.98 106.512 1229.16 105.257 1228.8 103.357L1228.79 103.26C1228.43 101.359 1229.69 99.5325 1231.59 99.18ZM1235.2 118.671C1237.1 118.319 1238.93 119.574 1239.28 121.474L1239.3 121.571C1239.65 123.472 1238.4 125.298 1236.5 125.651C1234.6 126.003 1232.77 124.748 1232.42 122.848L1232.4 122.751C1232.05 120.85 1233.3 119.024 1235.2 118.671ZM1238.82 138.162C1240.72 137.81 1242.54 139.065 1242.9 140.965L1242.92 141.062C1243.27 142.963 1242.01 144.789 1240.11 145.142C1238.21 145.494 1236.39 144.239 1236.03 142.339L1236.01 142.242C1235.66 140.341 1236.92 138.515 1238.82 138.162ZM1242.43 157.654C1244.33 157.301 1246.16 158.556 1246.51 160.457L1246.53 160.554C1246.88 162.454 1245.63 164.281 1243.73 164.633C1241.83 164.986 1240 163.731 1239.65 161.83L1239.63 161.733C1239.28 159.832 1240.53 158.006 1242.43 157.654ZM1246.05 177.145C1247.95 176.792 1249.77 178.047 1250.13 179.948L1250.14 180.045C1250.5 181.945 1249.24 183.772 1247.34 184.124C1245.44 184.477 1243.61 183.222 1243.26 181.321L1243.24 181.224C1242.89 179.324 1244.15 177.497 1246.05 177.145ZM1249.66 196.636C1251.56 196.283 1253.39 197.538 1253.74 199.439L1253.76 199.536C1254.11 201.436 1252.86 203.263 1250.96 203.615C1249.06 203.968 1247.23 202.713 1246.88 200.812L1246.86 200.715C1246.51 198.815 1247.76 196.988 1249.66 196.636ZM1253.28 216.127C1255.18 215.775 1257 217.029 1257.36 218.93L1257.37 219.027C1257.73 220.928 1256.47 222.754 1254.57 223.107C1252.67 223.459 1250.84 222.204 1250.49 220.303L1250.47 220.207C1250.12 218.306 1251.38 216.479 1253.28 216.127ZM1256.89 235.618C1258.79 235.266 1260.62 236.521 1260.97 238.421L1260.99 238.518C1261.34 240.419 1260.09 242.245 1258.19 242.598C1256.29 242.95 1254.46 241.695 1254.11 239.795L1254.09 239.698C1253.74 237.797 1254.99 235.971 1256.89 235.618ZM1260.51 255.109C1262.41 254.757 1264.23 256.012 1264.59 257.912L1264.6 258.009C1264.96 259.91 1263.7 261.736 1261.8 262.089C1259.9 262.441 1258.07 261.186 1257.72 259.286L1257.7 259.189C1257.35 257.288 1258.61 255.462 1260.51 255.109ZM1264.12 274.6C1266.02 274.248 1267.85 275.503 1268.2 277.404L1268.22 277.501C1268.57 279.401 1267.32 281.228 1265.42 281.58C1263.52 281.933 1261.69 280.678 1261.34 278.777L1261.32 278.68C1260.97 276.779 1262.22 274.953 1264.12 274.6ZM1267.74 294.092C1269.64 293.739 1271.46 294.994 1271.82 296.895L1271.83 296.992C1272.19 298.892 1270.93 300.719 1269.03 301.071C1267.13 301.424 1265.3 300.169 1264.95 298.268L1264.93 298.171C1264.58 296.271 1265.84 294.444 1267.74 294.092ZM1271.35 313.583C1273.25 313.23 1275.08 314.485 1275.43 316.386L1275.45 316.483C1275.8 318.383 1274.55 320.21 1272.65 320.562C1270.74 320.915 1268.92 319.66 1268.57 317.759L1268.55 317.662C1268.2 315.762 1269.45 313.935 1271.35 313.583ZM1274.97 333.074C1276.87 332.721 1278.69 333.976 1279.05 335.877L1279.06 335.974C1279.42 337.875 1278.16 339.701 1276.26 340.054C1274.36 340.406 1272.53 339.151 1272.18 337.251L1272.16 337.154C1271.81 335.253 1273.07 333.426 1274.97 333.074ZM1278.58 352.565C1280.48 352.213 1282.31 353.468 1282.66 355.368L1282.68 355.465C1283.03 357.366 1281.78 359.192 1279.88 359.545C1277.97 359.897 1276.15 358.642 1275.8 356.742L1275.78 356.645C1275.43 354.744 1276.68 352.918 1278.58 352.565ZM1282.2 372.056C1284.1 371.704 1285.92 372.959 1286.27 374.859L1286.28 374.908C1286.64 376.808 1285.38 378.635 1283.48 378.987C1281.58 379.34 1279.75 378.085 1279.4 376.184L1279.39 376.136C1279.04 374.235 1280.29 372.409 1282.2 372.056Z" fill="#FFE8C8"/>
<path fill-rule="evenodd" clip-rule="evenodd" d="M1199.12 44.7667C1201.02 44.4142 1202.85 45.6692 1203.2 47.5698L1203.21 47.6183C1203.56 49.5188 1202.31 51.3453 1200.41 51.6978C1198.51 52.0503 1196.68 50.7953 1196.33 48.8947L1196.32 48.8462C1195.97 46.9456 1197.22 45.1192 1199.12 44.7667ZM1202.73 64.2094C1204.63 63.8569 1206.45 65.1119 1206.81 67.0125L1206.83 67.1094C1207.18 69.01 1205.92 70.8365 1204.02 71.189C1202.12 71.5414 1200.29 70.2865 1199.94 68.3859L1199.92 68.2889C1199.57 66.3883 1200.83 64.5618 1202.73 64.2094ZM1206.34 83.7005C1208.24 83.348 1210.07 84.603 1210.42 86.5036L1210.44 86.6006C1210.79 88.5012 1209.54 90.3277 1207.64 90.6801C1205.74 91.0326 1203.91 89.7776 1203.56 87.877L1203.54 87.7801C1203.19 85.8795 1204.44 84.053 1206.34 83.7005ZM1209.96 103.192C1211.86 102.839 1213.68 104.094 1214.04 105.995L1214.05 106.092C1214.41 107.992 1213.15 109.819 1211.25 110.171C1209.35 110.524 1207.52 109.269 1207.17 107.368L1207.15 107.271C1206.8 105.371 1208.06 103.544 1209.96 103.192ZM1213.57 122.683C1215.47 122.33 1217.3 123.585 1217.65 125.486L1217.67 125.583C1218.02 127.484 1216.77 129.31 1214.87 129.662C1212.97 130.015 1211.14 128.76 1210.79 126.859L1210.77 126.762C1210.42 124.862 1211.67 123.035 1213.57 122.683ZM1217.19 142.174C1219.09 141.822 1220.91 143.077 1221.27 144.977L1221.28 145.074C1221.64 146.975 1220.38 148.801 1218.48 149.154C1216.58 149.506 1214.75 148.251 1214.4 146.351L1214.38 146.254C1214.03 144.353 1215.29 142.527 1217.19 142.174ZM1220.8 161.665C1222.7 161.313 1224.53 162.568 1224.88 164.468L1224.9 164.565C1225.25 166.466 1224 168.292 1222.1 168.645C1220.2 168.997 1218.37 167.742 1218.02 165.842L1218 165.745C1217.65 163.844 1218.9 162.018 1220.8 161.665ZM1224.42 181.156C1226.32 180.804 1228.14 182.059 1228.5 183.959L1228.51 184.056C1228.87 185.957 1227.61 187.783 1225.71 188.136C1223.81 188.488 1221.98 187.233 1221.63 185.333L1221.61 185.236C1221.26 183.335 1222.52 181.509 1224.42 181.156ZM1228.03 200.648C1229.93 200.295 1231.76 201.55 1232.11 203.451L1232.13 203.548C1232.48 205.448 1231.23 207.275 1229.33 207.627C1227.42 207.98 1225.6 206.725 1225.25 204.824L1225.23 204.727C1224.88 202.826 1226.13 201 1228.03 200.648ZM1231.65 220.139C1233.55 219.786 1235.37 221.041 1235.73 222.942L1235.74 223.039C1236.1 224.939 1234.84 226.766 1232.94 227.118C1231.04 227.471 1229.21 226.216 1228.86 224.315L1228.84 224.218C1228.49 222.318 1229.75 220.491 1231.65 220.139ZM1235.26 239.63C1237.16 239.277 1238.99 240.532 1239.34 242.433L1239.36 242.53C1239.71 244.43 1238.46 246.257 1236.56 246.609C1234.65 246.962 1232.83 245.707 1232.48 243.806L1232.46 243.709C1232.11 241.809 1233.36 239.982 1235.26 239.63ZM1238.88 259.121C1240.78 258.768 1242.6 260.023 1242.96 261.924L1242.97 262.021C1243.33 263.922 1242.07 265.748 1240.17 266.101C1238.27 266.453 1236.44 265.198 1236.09 263.297L1236.07 263.201C1235.72 261.3 1236.97 259.473 1238.88 259.121ZM1242.49 278.612C1244.39 278.26 1246.22 279.515 1246.57 281.415L1246.59 281.512C1246.94 283.413 1245.69 285.239 1243.78 285.592C1241.88 285.944 1240.06 284.689 1239.71 282.789L1239.69 282.692C1239.33 280.791 1240.59 278.965 1242.49 278.612ZM1246.11 298.103C1248.01 297.751 1249.83 299.006 1250.18 300.906L1250.2 301.003C1250.56 302.904 1249.3 304.73 1247.4 305.083C1245.5 305.435 1243.67 304.18 1243.32 302.28L1243.3 302.183C1242.95 300.282 1244.2 298.456 1246.11 298.103ZM1249.72 317.594C1251.62 317.242 1253.45 318.497 1253.8 320.398L1253.82 320.495C1254.17 322.395 1252.91 324.222 1251.01 324.574C1249.11 324.927 1247.29 323.672 1246.93 321.771L1246.92 321.674C1246.56 319.773 1247.82 317.947 1249.72 317.594ZM1253.33 337.086C1255.24 336.733 1257.06 337.988 1257.41 339.889L1257.43 339.986C1257.78 341.886 1256.53 343.713 1254.63 344.065C1252.73 344.418 1250.9 343.163 1250.55 341.262L1250.53 341.165C1250.18 339.265 1251.43 337.438 1253.33 337.086ZM1256.95 356.577C1258.85 356.224 1260.68 357.479 1261.03 359.38L1261.05 359.477C1261.4 361.378 1260.14 363.204 1258.24 363.556C1256.34 363.909 1254.52 362.654 1254.16 360.753L1254.15 360.656C1253.79 358.756 1255.05 356.929 1256.95 356.577ZM1260.56 376.068C1262.46 375.716 1264.29 376.971 1264.64 378.871L1264.65 378.92C1265.01 380.82 1263.75 382.647 1261.85 382.999C1259.95 383.352 1258.12 382.097 1257.77 380.196L1257.76 380.148C1257.41 378.247 1258.66 376.421 1260.56 376.068Z" fill="#FFE8C8"/>
<path fill-rule="evenodd" clip-rule="evenodd" d="M1177.49 48.7784C1179.39 48.4259 1181.22 49.6809 1181.57 51.5814L1181.58 51.6299C1181.93 53.5305 1180.68 55.357 1178.78 55.7095C1176.88 56.062 1175.05 54.807 1174.7 52.9064L1174.69 52.8579C1174.33 50.9573 1175.59 49.1308 1177.49 48.7784ZM1181.1 68.221C1183 67.8686 1184.82 69.1235 1185.18 71.0241L1185.19 71.1211C1185.55 73.0217 1184.29 74.8482 1182.39 75.2006C1180.49 75.5531 1178.66 74.2981 1178.31 72.3975L1178.29 72.3006C1177.94 70.4 1179.2 68.5735 1181.1 68.221ZM1184.71 87.7122C1186.61 87.3597 1188.44 88.6147 1188.79 90.5153L1188.81 90.6123C1189.16 92.5129 1187.91 94.3393 1186.01 94.6918C1184.1 95.0443 1182.28 93.7893 1181.93 91.8887L1181.91 91.7917C1181.56 89.8912 1182.81 88.0647 1184.71 87.7122ZM1188.33 107.203C1190.23 106.851 1192.05 108.106 1192.41 110.006L1192.42 110.103C1192.78 112.004 1191.52 113.83 1189.62 114.183C1187.72 114.535 1185.89 113.28 1185.54 111.38L1185.52 111.283C1185.17 109.382 1186.43 107.556 1188.33 107.203ZM1191.94 126.695C1193.84 126.342 1195.67 127.597 1196.02 129.498L1196.04 129.595C1196.39 131.495 1195.14 133.322 1193.24 133.674C1191.33 134.027 1189.51 132.772 1189.16 130.871L1189.14 130.774C1188.79 128.873 1190.04 127.047 1191.94 126.695ZM1195.56 146.186C1197.46 145.833 1199.28 147.088 1199.64 148.989L1199.65 149.086C1200.01 150.986 1198.75 152.813 1196.85 153.165C1194.95 153.518 1193.12 152.263 1192.77 150.362L1192.75 150.265C1192.4 148.365 1193.65 146.538 1195.56 146.186ZM1199.17 165.677C1201.07 165.324 1202.9 166.579 1203.25 168.48L1203.27 168.577C1203.62 170.478 1202.37 172.304 1200.46 172.656C1198.56 173.009 1196.74 171.754 1196.39 169.853L1196.37 169.756C1196.01 167.856 1197.27 166.029 1199.17 165.677ZM1202.79 185.168C1204.69 184.816 1206.51 186.071 1206.86 187.971L1206.88 188.068C1207.24 189.969 1205.98 191.795 1204.08 192.148C1202.18 192.5 1200.35 191.245 1200 189.345L1199.98 189.248C1199.63 187.347 1200.88 185.521 1202.79 185.168ZM1206.4 204.659C1208.3 204.307 1210.13 205.562 1210.48 207.462L1210.5 207.559C1210.85 209.46 1209.59 211.286 1207.69 211.639C1205.79 211.991 1203.97 210.736 1203.61 208.836L1203.6 208.739C1203.24 206.838 1204.5 205.012 1206.4 204.659ZM1210.01 224.15C1211.92 223.798 1213.74 225.053 1214.09 226.953L1214.11 227.05C1214.46 228.951 1213.21 230.777 1211.31 231.13C1209.41 231.482 1207.58 230.227 1207.23 228.327L1207.21 228.23C1206.86 226.329 1208.11 224.503 1210.01 224.15ZM1213.63 243.641C1215.53 243.289 1217.36 244.544 1217.71 246.445L1217.73 246.542C1218.08 248.442 1216.82 250.269 1214.92 250.621C1213.02 250.974 1211.2 249.719 1210.84 247.818L1210.83 247.721C1210.47 245.82 1211.73 243.994 1213.63 243.641ZM1217.24 263.133C1219.14 262.78 1220.97 264.035 1221.32 265.936L1221.34 266.033C1221.69 267.933 1220.44 269.76 1218.54 270.112C1216.64 270.465 1214.81 269.21 1214.46 267.309L1214.44 267.212C1214.09 265.312 1215.34 263.485 1217.24 263.133ZM1220.86 282.624C1222.76 282.271 1224.59 283.526 1224.94 285.427L1224.96 285.524C1225.31 287.424 1224.05 289.251 1222.15 289.603C1220.25 289.956 1218.43 288.701 1218.07 286.8L1218.06 286.703C1217.7 284.803 1218.96 282.976 1220.86 282.624ZM1224.47 302.115C1226.37 301.762 1228.2 303.017 1228.55 304.918L1228.57 305.015C1228.92 306.916 1227.67 308.742 1225.77 309.095C1223.87 309.447 1222.04 308.192 1221.69 306.292L1221.67 306.195C1221.32 304.294 1222.57 302.467 1224.47 302.115ZM1228.09 321.606C1229.99 321.254 1231.82 322.509 1232.17 324.409L1232.19 324.506C1232.54 326.407 1231.28 328.233 1229.38 328.586C1227.48 328.938 1225.66 327.683 1225.3 325.783L1225.29 325.686C1224.93 323.785 1226.19 321.959 1228.09 321.606ZM1231.7 341.097C1233.6 340.745 1235.43 342 1235.78 343.9L1235.8 343.997C1236.15 345.898 1234.9 347.724 1233 348.077C1231.1 348.429 1229.27 347.174 1228.92 345.274L1228.9 345.177C1228.55 343.276 1229.8 341.45 1231.7 341.097ZM1235.32 360.589C1237.22 360.236 1239.05 361.491 1239.4 363.392L1239.42 363.489C1239.77 365.389 1238.51 367.216 1236.61 367.568C1234.71 367.921 1232.89 366.666 1232.53 364.765L1232.52 364.668C1232.16 362.767 1233.42 360.941 1235.32 360.589ZM1238.93 380.08C1240.83 379.727 1242.66 380.982 1243.01 382.883L1243.02 382.931C1243.37 384.832 1242.12 386.658 1240.22 387.011C1238.32 387.363 1236.49 386.108 1236.14 384.208L1236.13 384.159C1235.78 382.259 1237.03 380.432 1238.93 380.08Z" fill="#FFE8C8"/>
<path fill-rule="evenodd" clip-rule="evenodd" d="M1155.86 52.79C1157.76 52.4375 1159.59 53.6925 1159.94 55.5931L1159.95 55.6416C1160.3 57.5422 1159.05 59.3687 1157.14 59.7212C1155.24 60.0736 1153.42 58.8186 1153.07 56.9181L1153.06 56.8696C1152.7 54.969 1153.96 53.1425 1155.86 52.79ZM1159.47 72.2327C1161.37 71.8802 1163.19 73.1352 1163.54 75.0358L1163.56 75.1328C1163.92 77.0334 1162.66 78.8598 1160.76 79.2123C1158.86 79.5648 1157.03 78.3098 1156.68 76.4092L1156.66 76.3122C1156.31 74.4117 1157.56 72.5852 1159.47 72.2327ZM1163.08 91.7239C1164.98 91.3714 1166.81 92.6264 1167.16 94.527L1167.18 94.6239C1167.53 96.5245 1166.28 98.351 1164.37 98.7035C1162.47 99.056 1160.65 97.801 1160.29 95.9004L1160.28 95.8034C1159.92 93.9028 1161.18 92.0764 1163.08 91.7239ZM1166.69 111.215C1168.6 110.863 1170.42 112.118 1170.77 114.018L1170.79 114.115C1171.14 116.016 1169.89 117.842 1167.99 118.195C1166.09 118.547 1164.26 117.292 1163.91 115.392L1163.89 115.295C1163.54 113.394 1164.79 111.568 1166.69 111.215ZM1170.31 130.706C1172.21 130.354 1174.04 131.609 1174.39 133.509L1174.41 133.606C1174.76 135.507 1173.5 137.333 1171.6 137.686C1169.7 138.038 1167.88 136.783 1167.52 134.883L1167.51 134.786C1167.15 132.885 1168.41 131.059 1170.31 130.706ZM1173.92 150.197C1175.82 149.845 1177.65 151.1 1178 153L1178.02 153.097C1178.37 154.998 1177.12 156.825 1175.22 157.177C1173.32 157.529 1171.49 156.274 1171.14 154.374L1171.12 154.277C1170.77 152.376 1172.02 150.55 1173.92 150.197ZM1177.54 169.689C1179.44 169.336 1181.27 170.591 1181.62 172.492L1181.64 172.589C1181.99 174.489 1180.73 176.316 1178.83 176.668C1176.93 177.021 1175.11 175.766 1174.75 173.865L1174.74 173.768C1174.38 171.867 1175.64 170.041 1177.54 169.689ZM1181.15 189.18C1183.05 188.827 1184.88 190.082 1185.23 191.983L1185.25 192.08C1185.6 193.98 1184.35 195.807 1182.45 196.159C1180.55 196.512 1178.72 195.257 1178.37 193.356L1178.35 193.259C1178 191.359 1179.25 189.532 1181.15 189.18ZM1184.77 208.671C1186.67 208.318 1188.5 209.573 1188.85 211.474L1188.87 211.571C1189.22 213.472 1187.96 215.298 1186.06 215.65C1184.16 216.003 1182.34 214.748 1181.98 212.847L1181.97 212.75C1181.61 210.85 1182.87 209.023 1184.77 208.671ZM1188.38 228.162C1190.28 227.81 1192.11 229.065 1192.46 230.965L1192.48 231.062C1192.83 232.963 1191.58 234.789 1189.68 235.142C1187.78 235.494 1185.95 234.239 1185.6 232.339L1185.58 232.242C1185.23 230.341 1186.48 228.514 1188.38 228.162ZM1192 247.653C1193.9 247.301 1195.73 248.556 1196.08 250.456L1196.1 250.553C1196.45 252.454 1195.19 254.28 1193.29 254.633C1191.39 254.985 1189.57 253.73 1189.21 251.83L1189.2 251.733C1188.84 249.832 1190.1 248.006 1192 247.653ZM1195.61 267.144C1197.51 266.792 1199.34 268.047 1199.69 269.947L1199.71 270.044C1200.06 271.945 1198.81 273.771 1196.91 274.124C1195.01 274.476 1193.18 273.221 1192.83 271.321L1192.81 271.224C1192.46 269.323 1193.71 267.497 1195.61 267.144ZM1199.23 286.635C1201.13 286.283 1202.96 287.538 1203.31 289.439L1203.33 289.536C1203.68 291.436 1202.42 293.263 1200.52 293.615C1198.62 293.968 1196.8 292.713 1196.44 290.812L1196.42 290.715C1196.07 288.814 1197.33 286.988 1199.23 286.635ZM1202.84 306.127C1204.74 305.774 1206.57 307.029 1206.92 308.93L1206.94 309.027C1207.29 310.927 1206.04 312.754 1204.14 313.106C1202.24 313.459 1200.41 312.204 1200.06 310.303L1200.04 310.206C1199.69 308.306 1200.94 306.479 1202.84 306.127ZM1206.46 325.618C1208.36 325.265 1210.18 326.52 1210.54 328.421L1210.56 328.518C1210.91 330.419 1209.65 332.245 1207.75 332.597C1205.85 332.95 1204.02 331.695 1203.67 329.794L1203.65 329.697C1203.3 327.797 1204.56 325.97 1206.46 325.618ZM1210.07 345.109C1211.97 344.757 1213.8 346.012 1214.15 347.912L1214.17 348.009C1214.52 349.91 1213.27 351.736 1211.37 352.089C1209.47 352.441 1207.64 351.186 1207.29 349.286L1207.27 349.189C1206.92 347.288 1208.17 345.461 1210.07 345.109ZM1213.69 364.6C1215.59 364.248 1217.41 365.503 1217.77 367.403L1217.78 367.5C1218.14 369.401 1216.88 371.227 1214.98 371.58C1213.08 371.932 1211.25 370.677 1210.9 368.777L1210.88 368.68C1210.53 366.779 1211.79 364.953 1213.69 364.6ZM1217.3 384.091C1219.2 383.739 1221.03 384.994 1221.38 386.894L1221.39 386.943C1221.74 388.844 1220.49 390.67 1218.59 391.022C1216.69 391.375 1214.86 390.12 1214.51 388.219L1214.5 388.171C1214.15 386.27 1215.4 384.444 1217.3 384.091Z" fill="#FFE8C8"/>
<path fill-rule="evenodd" clip-rule="evenodd" d="M1134.23 56.8017C1136.13 56.4492 1137.96 57.7042 1138.31 59.6048L1138.32 59.6533C1138.67 61.5539 1137.41 63.3804 1135.51 63.7328C1133.61 64.0853 1131.79 62.8303 1131.43 60.9297L1131.43 60.8812C1131.07 58.9807 1132.33 57.1542 1134.23 56.8017ZM1137.83 76.2444C1139.73 75.8919 1141.56 77.1469 1141.91 79.0475L1141.93 79.1445C1142.28 81.045 1141.03 82.8715 1139.13 83.224C1137.23 83.5765 1135.4 82.3215 1135.05 80.4209L1135.03 80.3239C1134.68 78.4233 1135.93 76.5969 1137.83 76.2444ZM1141.45 95.7356C1143.35 95.3831 1145.18 96.6381 1145.53 98.5387L1145.55 98.6356C1145.9 100.536 1144.64 102.363 1142.74 102.715C1140.84 103.068 1139.02 101.813 1138.66 99.9121L1138.65 99.8151C1138.29 97.9145 1139.55 96.088 1141.45 95.7356ZM1145.06 115.227C1146.96 114.874 1148.79 116.129 1149.14 118.03L1149.16 118.127C1149.51 120.027 1148.26 121.854 1146.36 122.206C1144.46 122.559 1142.63 121.304 1142.28 119.403L1142.26 119.306C1141.91 117.406 1143.16 115.579 1145.06 115.227ZM1148.68 134.718C1150.58 134.365 1152.41 135.62 1152.76 137.521L1152.78 137.618C1153.13 139.519 1151.87 141.345 1149.97 141.697C1148.07 142.05 1146.25 140.795 1145.89 138.894L1145.88 138.797C1145.52 136.897 1146.78 135.07 1148.68 134.718ZM1152.29 154.209C1154.19 153.857 1156.02 155.112 1156.37 157.012L1156.39 157.109C1156.74 159.01 1155.49 160.836 1153.59 161.189C1151.69 161.541 1149.86 160.286 1149.51 158.386L1149.49 158.289C1149.14 156.388 1150.39 154.562 1152.29 154.209ZM1155.91 173.7C1157.81 173.348 1159.64 174.603 1159.99 176.503L1160.01 176.6C1160.36 178.501 1159.1 180.327 1157.2 180.68C1155.3 181.032 1153.48 179.777 1153.12 177.877L1153.1 177.78C1152.75 175.879 1154.01 174.053 1155.91 173.7ZM1159.52 193.191C1161.42 192.839 1163.25 194.094 1163.6 195.994L1163.62 196.091C1163.97 197.992 1162.72 199.819 1160.82 200.171C1158.92 200.523 1157.09 199.268 1156.74 197.368L1156.72 197.271C1156.37 195.37 1157.62 193.544 1159.52 193.191ZM1163.14 212.683C1165.04 212.33 1166.86 213.585 1167.22 215.486L1167.24 215.583C1167.59 217.483 1166.33 219.31 1164.43 219.662C1162.53 220.015 1160.71 218.76 1160.35 216.859L1160.33 216.762C1159.98 214.861 1161.24 213.035 1163.14 212.683ZM1166.75 232.174C1168.65 231.821 1170.48 233.076 1170.83 234.977L1170.85 235.074C1171.2 236.974 1169.95 238.801 1168.05 239.153C1166.15 239.506 1164.32 238.251 1163.97 236.35L1163.95 236.253C1163.6 234.353 1164.85 232.526 1166.75 232.174ZM1170.37 251.665C1172.27 251.312 1174.09 252.567 1174.45 254.468L1174.46 254.565C1174.82 256.466 1173.56 258.292 1171.66 258.644C1169.76 258.997 1167.93 257.742 1167.58 255.841L1167.56 255.744C1167.21 253.844 1168.47 252.017 1170.37 251.665ZM1173.98 271.156C1175.88 270.804 1177.71 272.059 1178.06 273.959L1178.08 274.056C1178.43 275.957 1177.18 277.783 1175.28 278.136C1173.38 278.488 1171.55 277.233 1171.2 275.332L1171.18 275.236C1170.83 273.335 1172.08 271.508 1173.98 271.156ZM1177.6 290.647C1179.5 290.295 1181.32 291.55 1181.68 293.45L1181.69 293.547C1182.05 295.448 1180.79 297.274 1178.89 297.627C1176.99 297.979 1175.16 296.724 1174.81 294.824L1174.79 294.727C1174.44 292.826 1175.7 291 1177.6 290.647ZM1181.21 310.138C1183.11 309.786 1184.94 311.041 1185.29 312.941L1185.31 313.038C1185.66 314.939 1184.41 316.765 1182.51 317.118C1180.61 317.47 1178.78 316.215 1178.43 314.315L1178.41 314.218C1178.06 312.317 1179.31 310.491 1181.21 310.138ZM1184.83 329.63C1186.73 329.277 1188.55 330.532 1188.91 332.433L1188.92 332.53C1189.28 334.43 1188.02 336.257 1186.12 336.609C1184.22 336.962 1182.39 335.707 1182.04 333.806L1182.02 333.709C1181.67 331.808 1182.93 329.982 1184.83 329.63ZM1188.44 349.121C1190.34 348.768 1192.17 350.023 1192.52 351.924L1192.54 352.021C1192.89 353.921 1191.64 355.748 1189.74 356.1C1187.84 356.453 1186.01 355.198 1185.66 353.297L1185.64 353.2C1185.29 351.3 1186.54 349.473 1188.44 349.121ZM1192.06 368.612C1193.96 368.259 1195.78 369.514 1196.14 371.415L1196.15 371.512C1196.51 373.413 1195.25 375.239 1193.35 375.591C1191.45 375.944 1189.62 374.689 1189.27 372.788L1189.25 372.691C1188.9 370.791 1190.16 368.964 1192.06 368.612ZM1195.67 388.103C1197.57 387.751 1199.4 389.006 1199.75 390.906L1199.76 390.955C1200.11 392.855 1198.86 394.682 1196.96 395.034C1195.06 395.387 1193.23 394.132 1192.88 392.231L1192.87 392.183C1192.52 390.282 1193.77 388.456 1195.67 388.103Z" fill="#FFE8C8"/>
<path fill-rule="evenodd" clip-rule="evenodd" d="M1112.6 60.8134C1114.5 60.4609 1116.32 61.7159 1116.68 63.6165L1116.69 63.665C1117.04 65.5656 1115.78 67.392 1113.88 67.7445C1111.98 68.097 1110.16 66.842 1109.8 64.9414L1109.79 64.8929C1109.44 62.9923 1110.7 61.1659 1112.6 60.8134ZM1116.2 80.2561C1118.1 79.9036 1119.93 81.1586 1120.28 83.0592L1120.3 83.1561C1120.65 85.0567 1119.4 86.8832 1117.5 87.2357C1115.6 87.5882 1113.77 86.3332 1113.42 84.4326L1113.4 84.3356C1113.05 82.435 1114.3 80.6085 1116.2 80.2561ZM1119.82 99.7472C1121.72 99.3948 1123.54 100.65 1123.9 102.55L1123.92 102.647C1124.27 104.548 1123.01 106.374 1121.11 106.727C1119.21 107.079 1117.39 105.824 1117.03 103.924L1117.01 103.827C1116.66 101.926 1117.92 100.1 1119.82 99.7472ZM1123.43 119.238C1125.33 118.886 1127.16 120.141 1127.51 122.041L1127.53 122.138C1127.88 124.039 1126.63 125.866 1124.73 126.218C1122.83 126.57 1121 125.315 1120.65 123.415L1120.63 123.318C1120.28 121.417 1121.53 119.591 1123.43 119.238ZM1127.05 138.73C1128.95 138.377 1130.77 139.632 1131.13 141.533L1131.14 141.63C1131.5 143.53 1130.24 145.357 1128.34 145.709C1126.44 146.062 1124.61 144.807 1124.26 142.906L1124.24 142.809C1123.89 140.909 1125.15 139.082 1127.05 138.73ZM1130.66 158.221C1132.56 157.868 1134.39 159.123 1134.74 161.024L1134.76 161.121C1135.11 163.021 1133.86 164.848 1131.96 165.2C1130.06 165.553 1128.23 164.298 1127.88 162.397L1127.86 162.3C1127.51 160.4 1128.76 158.573 1130.66 158.221ZM1134.28 177.712C1136.18 177.359 1138 178.614 1138.36 180.515L1138.37 180.612C1138.73 182.513 1137.47 184.339 1135.57 184.692C1133.67 185.044 1131.84 183.789 1131.49 181.888L1131.47 181.791C1131.12 179.891 1132.38 178.064 1134.28 177.712ZM1137.89 197.203C1139.79 196.851 1141.62 198.106 1141.97 200.006L1141.99 200.103C1142.34 202.004 1141.09 203.83 1139.19 204.183C1137.29 204.535 1135.46 203.28 1135.11 201.38L1135.09 201.283C1134.74 199.382 1135.99 197.556 1137.89 197.203ZM1141.51 216.694C1143.41 216.342 1145.23 217.597 1145.59 219.497L1145.6 219.594C1145.96 221.495 1144.7 223.321 1142.8 223.674C1140.9 224.026 1139.07 222.771 1138.72 220.871L1138.7 220.774C1138.35 218.873 1139.61 217.047 1141.51 216.694ZM1145.12 236.185C1147.02 235.833 1148.85 237.088 1149.2 238.988L1149.22 239.085C1149.57 240.986 1148.32 242.812 1146.42 243.165C1144.52 243.517 1142.69 242.262 1142.34 240.362L1142.32 240.265C1141.97 238.364 1143.22 236.538 1145.12 236.185ZM1148.74 255.677C1150.64 255.324 1152.46 256.579 1152.82 258.48L1152.83 258.577C1153.19 260.477 1151.93 262.304 1150.03 262.656C1148.13 263.009 1146.3 261.754 1145.95 259.853L1145.93 259.756C1145.58 257.855 1146.84 256.029 1148.74 255.677ZM1152.35 275.168C1154.25 274.815 1156.08 276.07 1156.43 277.971L1156.45 278.068C1156.8 279.968 1155.55 281.795 1153.65 282.147C1151.74 282.5 1149.92 281.245 1149.57 279.344L1149.55 279.247C1149.2 277.347 1150.45 275.52 1152.35 275.168ZM1155.97 294.659C1157.87 294.306 1159.69 295.561 1160.05 297.462L1160.06 297.559C1160.42 299.459 1159.16 301.286 1157.26 301.638C1155.36 301.991 1153.53 300.736 1153.18 298.835L1153.16 298.738C1152.81 296.838 1154.07 295.011 1155.97 294.659ZM1159.58 314.15C1161.48 313.798 1163.31 315.053 1163.66 316.953L1163.68 317.05C1164.03 318.951 1162.78 320.777 1160.87 321.13C1158.97 321.482 1157.15 320.227 1156.8 318.327L1156.78 318.23C1156.42 316.329 1157.68 314.502 1159.58 314.15ZM1163.2 333.641C1165.1 333.289 1166.92 334.544 1167.27 336.444L1167.29 336.541C1167.65 338.442 1166.39 340.268 1164.49 340.621C1162.59 340.973 1160.76 339.718 1160.41 337.818L1160.39 337.721C1160.04 335.82 1161.29 333.994 1163.2 333.641ZM1166.81 353.132C1168.71 352.78 1170.54 354.035 1170.89 355.935L1170.91 356.032C1171.26 357.933 1170.01 359.76 1168.1 360.112C1166.2 360.464 1164.38 359.21 1164.03 357.309L1164.01 357.212C1163.65 355.311 1164.91 353.485 1166.81 353.132ZM1170.42 372.624C1172.33 372.271 1174.15 373.526 1174.5 375.427L1174.52 375.524C1174.87 377.424 1173.62 379.251 1171.72 379.603C1169.82 379.956 1167.99 378.701 1167.64 376.8L1167.62 376.703C1167.27 374.802 1168.52 372.976 1170.42 372.624ZM1174.04 392.115C1175.94 391.762 1177.77 393.017 1178.12 394.918L1178.13 394.966C1178.48 396.867 1177.23 398.693 1175.33 399.046C1173.42 399.398 1171.6 398.143 1171.25 396.243L1171.24 396.194C1170.88 394.294 1172.14 392.467 1174.04 392.115Z" fill="#FFE8C8"/>
<path fill-rule="evenodd" clip-rule="evenodd" d="M1090.97 64.8251C1092.87 64.4726 1094.69 65.7276 1095.05 67.6282L1095.05 67.6766C1095.41 69.5772 1094.15 71.4037 1092.25 71.7562C1090.35 72.1087 1088.52 70.8537 1088.17 68.9531L1088.16 68.9046C1087.81 67.004 1089.07 65.1775 1090.97 64.8251ZM1094.57 84.2677C1096.47 83.9153 1098.3 85.1703 1098.65 87.0708L1098.67 87.1678C1099.02 89.0684 1097.77 90.8949 1095.87 91.2474C1093.97 91.5998 1092.14 90.3448 1091.79 88.4443L1091.77 88.3473C1091.42 86.4467 1092.67 84.6202 1094.57 84.2677ZM1098.19 103.759C1100.09 103.406 1101.91 104.661 1102.27 106.562L1102.28 106.659C1102.64 108.56 1101.38 110.386 1099.48 110.739C1097.58 111.091 1095.75 109.836 1095.4 107.935L1095.38 107.838C1095.03 105.938 1096.29 104.111 1098.19 103.759ZM1101.8 123.25C1103.7 122.898 1105.53 124.153 1105.88 126.053L1105.9 126.15C1106.25 128.051 1105 129.877 1103.1 130.23C1101.2 130.582 1099.37 129.327 1099.02 127.427L1099 127.33C1098.65 125.429 1099.9 123.603 1101.8 123.25ZM1105.42 142.741C1107.32 142.389 1109.14 143.644 1109.5 145.544L1109.51 145.641C1109.87 147.542 1108.61 149.368 1106.71 149.721C1104.81 150.073 1102.98 148.818 1102.63 146.918L1102.61 146.821C1102.26 144.92 1103.52 143.094 1105.42 142.741ZM1109.03 162.232C1110.93 161.88 1112.76 163.135 1113.11 165.036L1113.13 165.132C1113.48 167.033 1112.23 168.86 1110.33 169.212C1108.42 169.565 1106.6 168.31 1106.25 166.409L1106.23 166.312C1105.88 164.411 1107.13 162.585 1109.03 162.232ZM1112.65 181.724C1114.55 181.371 1116.37 182.626 1116.73 184.527L1116.74 184.624C1117.1 186.524 1115.84 188.351 1113.94 188.703C1112.04 189.056 1110.21 187.801 1109.86 185.9L1109.84 185.803C1109.49 183.903 1110.75 182.076 1112.65 181.724ZM1116.26 201.215C1118.16 200.862 1119.99 202.117 1120.34 204.018L1120.36 204.115C1120.71 206.015 1119.46 207.842 1117.56 208.194C1115.65 208.547 1113.83 207.292 1113.48 205.391L1113.46 205.294C1113.1 203.394 1114.36 201.567 1116.26 201.215ZM1119.88 220.706C1121.78 220.353 1123.6 221.608 1123.95 223.509L1123.97 223.606C1124.33 225.507 1123.07 227.333 1121.17 227.686C1119.27 228.038 1117.44 226.783 1117.09 224.882L1117.07 224.785C1116.72 222.885 1117.97 221.058 1119.88 220.706ZM1123.49 240.197C1125.39 239.845 1127.22 241.1 1127.57 243L1127.59 243.097C1127.94 244.998 1126.69 246.824 1124.78 247.177C1122.88 247.529 1121.06 246.274 1120.71 244.374L1120.69 244.277C1120.33 242.376 1121.59 240.55 1123.49 240.197ZM1127.1 259.688C1129.01 259.336 1130.83 260.591 1131.18 262.491L1131.2 262.588C1131.55 264.489 1130.3 266.315 1128.4 266.668C1126.5 267.02 1124.67 265.765 1124.32 263.865L1124.3 263.768C1123.95 261.867 1125.2 260.041 1127.1 259.688ZM1130.72 279.179C1132.62 278.827 1134.45 280.082 1134.8 281.982L1134.82 282.079C1135.17 283.98 1133.91 285.806 1132.01 286.159C1130.11 286.511 1128.29 285.256 1127.93 283.356L1127.92 283.259C1127.56 281.358 1128.82 279.532 1130.72 279.179ZM1134.33 298.671C1136.24 298.318 1138.06 299.573 1138.41 301.474L1138.43 301.571C1138.78 303.471 1137.53 305.298 1135.63 305.65C1133.73 306.003 1131.9 304.748 1131.55 302.847L1131.53 302.75C1131.18 300.849 1132.43 299.023 1134.33 298.671ZM1137.95 318.162C1139.85 317.809 1141.68 319.064 1142.03 320.965L1142.05 321.062C1142.4 322.962 1141.14 324.789 1139.24 325.141C1137.34 325.494 1135.52 324.239 1135.16 322.338L1135.15 322.241C1134.79 320.341 1136.05 318.514 1137.95 318.162ZM1141.56 337.653C1143.46 337.3 1145.29 338.555 1145.64 340.456L1145.66 340.553C1146.01 342.454 1144.76 344.28 1142.86 344.632C1140.96 344.985 1139.13 343.73 1138.78 341.829L1138.76 341.732C1138.41 339.832 1139.66 338.005 1141.56 337.653ZM1145.18 357.144C1147.08 356.792 1148.91 358.047 1149.26 359.947L1149.28 360.044C1149.63 361.945 1148.37 363.771 1146.47 364.124C1144.57 364.476 1142.75 363.221 1142.39 361.321L1142.38 361.224C1142.02 359.323 1143.28 357.497 1145.18 357.144ZM1148.79 376.635C1150.69 376.283 1152.52 377.538 1152.87 379.438L1152.89 379.535C1153.24 381.436 1151.99 383.262 1150.09 383.615C1148.19 383.967 1146.36 382.712 1146.01 380.812L1145.99 380.715C1145.64 378.814 1146.89 376.988 1148.79 376.635ZM1152.41 396.126C1154.31 395.774 1156.14 397.029 1156.49 398.93L1156.5 398.978C1156.85 400.879 1155.59 402.705 1153.69 403.058C1151.79 403.41 1149.97 402.155 1149.61 400.254L1149.61 400.206C1149.25 398.305 1150.51 396.479 1152.41 396.126Z" fill="#FFE8C8"/>
<path fill-rule="evenodd" clip-rule="evenodd" d="M1069.33 68.8367C1071.24 68.4843 1073.06 69.7393 1073.41 71.6398L1073.42 71.6883C1073.78 73.5889 1072.52 75.4154 1070.62 75.7679C1068.72 76.1203 1066.89 74.8654 1066.54 72.9648L1066.53 72.9163C1066.18 71.0157 1067.43 69.1892 1069.33 68.8367ZM1072.94 88.2794C1074.84 87.9269 1076.67 89.1819 1077.02 91.0825L1077.04 91.1795C1077.39 93.0801 1076.14 94.9065 1074.24 95.259C1072.33 95.6115 1070.51 94.3565 1070.16 92.4559L1070.14 92.359C1069.79 90.4584 1071.04 88.6319 1072.94 88.2794ZM1076.56 107.771C1078.46 107.418 1080.28 108.673 1080.63 110.574L1080.65 110.671C1081.01 112.571 1079.75 114.398 1077.85 114.75C1075.95 115.103 1074.12 113.848 1073.77 111.947L1073.75 111.85C1073.4 109.95 1074.65 108.123 1076.56 107.771ZM1080.17 127.262C1082.07 126.909 1083.9 128.164 1084.25 130.065L1084.27 130.162C1084.62 132.062 1083.37 133.889 1081.46 134.241C1079.56 134.594 1077.74 133.339 1077.39 131.438L1077.37 131.341C1077.01 129.441 1078.27 127.614 1080.17 127.262ZM1083.79 146.753C1085.69 146.4 1087.51 147.655 1087.86 149.556L1087.88 149.653C1088.24 151.554 1086.98 153.38 1085.08 153.733C1083.18 154.085 1081.35 152.83 1081 150.929L1080.98 150.832C1080.63 148.932 1081.88 147.105 1083.79 146.753ZM1087.4 166.244C1089.3 165.892 1091.13 167.147 1091.48 169.047L1091.5 169.144C1091.85 171.045 1090.59 172.871 1088.69 173.224C1086.79 173.576 1084.97 172.321 1084.61 170.421L1084.6 170.324C1084.24 168.423 1085.5 166.597 1087.4 166.244ZM1091.01 185.735C1092.92 185.383 1094.74 186.638 1095.09 188.538L1095.11 188.635C1095.46 190.536 1094.21 192.362 1092.31 192.715C1090.41 193.067 1088.58 191.812 1088.23 189.912L1088.21 189.815C1087.86 187.914 1089.11 186.088 1091.01 185.735ZM1094.63 205.226C1096.53 204.874 1098.36 206.129 1098.71 208.03L1098.73 208.126C1099.08 210.027 1097.82 211.854 1095.92 212.206C1094.02 212.559 1092.2 211.304 1091.84 209.403L1091.83 209.306C1091.47 207.405 1092.73 205.579 1094.63 205.226ZM1098.24 224.718C1100.14 224.365 1101.97 225.62 1102.32 227.521L1102.34 227.618C1102.69 229.518 1101.44 231.345 1099.54 231.697C1097.64 232.05 1095.81 230.795 1095.46 228.894L1095.44 228.797C1095.09 226.897 1096.34 225.07 1098.24 224.718ZM1101.86 244.209C1103.76 243.856 1105.59 245.111 1105.94 247.012L1105.96 247.109C1106.31 249.009 1105.05 250.836 1103.15 251.188C1101.25 251.541 1099.43 250.286 1099.07 248.385L1099.06 248.288C1098.7 246.388 1099.96 244.561 1101.86 244.209ZM1105.47 263.7C1107.37 263.347 1109.2 264.602 1109.55 266.503L1109.57 266.6C1109.92 268.501 1108.67 270.327 1106.77 270.679C1104.87 271.032 1103.04 269.777 1102.69 267.876L1102.67 267.779C1102.32 265.879 1103.57 264.052 1105.47 263.7ZM1109.09 283.191C1110.99 282.839 1112.82 284.094 1113.17 285.994L1113.19 286.091C1113.54 287.992 1112.28 289.818 1110.38 290.171C1108.48 290.523 1106.66 289.268 1106.3 287.368L1106.29 287.271C1105.93 285.37 1107.19 283.544 1109.09 283.191ZM1112.7 302.682C1114.6 302.33 1116.43 303.585 1116.78 305.485L1116.8 305.582C1117.15 307.483 1115.9 309.309 1114 309.662C1112.1 310.014 1110.27 308.759 1109.92 306.859L1109.9 306.762C1109.55 304.861 1110.8 303.035 1112.7 302.682ZM1116.32 322.173C1118.22 321.821 1120.05 323.076 1120.4 324.976L1120.42 325.073C1120.77 326.974 1119.51 328.801 1117.61 329.153C1115.71 329.505 1113.89 328.25 1113.53 326.35L1113.52 326.253C1113.16 324.352 1114.42 322.526 1116.32 322.173ZM1119.93 341.665C1121.83 341.312 1123.66 342.567 1124.01 344.468L1124.03 344.565C1124.38 346.465 1123.13 348.292 1121.23 348.644C1119.33 348.997 1117.5 347.742 1117.15 345.841L1117.13 345.744C1116.78 343.843 1118.03 342.017 1119.93 341.665ZM1123.55 361.156C1125.45 360.803 1127.27 362.058 1127.63 363.959L1127.65 364.056C1128 365.956 1126.74 367.783 1124.84 368.135C1122.94 368.488 1121.12 367.233 1120.76 365.332L1120.74 365.235C1120.39 363.335 1121.65 361.508 1123.55 361.156ZM1127.16 380.647C1129.06 380.294 1130.89 381.549 1131.24 383.45L1131.26 383.547C1131.61 385.448 1130.36 387.274 1128.46 387.627C1126.56 387.979 1124.73 386.724 1124.38 384.823L1124.36 384.726C1124.01 382.826 1125.26 380.999 1127.16 380.647ZM1130.78 400.138C1132.68 399.786 1134.5 401.041 1134.86 402.941L1134.87 402.99C1135.22 404.89 1133.96 406.717 1132.06 407.069C1130.16 407.422 1128.34 406.167 1127.98 404.266L1127.97 404.218C1127.62 402.317 1128.88 400.491 1130.78 400.138Z" fill="#FFE8C8"/>
<path fill-rule="evenodd" clip-rule="evenodd" d="M1047.7 72.8484C1049.6 72.4959 1051.43 73.7509 1051.78 75.6515L1051.79 75.7C1052.14 77.6006 1050.89 79.4271 1048.99 79.7795C1047.09 80.132 1045.26 78.877 1044.91 76.9764L1044.9 76.928C1044.55 75.0274 1045.8 73.2009 1047.7 72.8484ZM1051.31 92.2911C1053.21 91.9386 1055.04 93.1936 1055.39 95.0942L1055.41 95.1912C1055.76 97.0918 1054.5 98.9182 1052.6 99.2707C1050.7 99.6232 1048.88 98.3682 1048.52 96.4676L1048.51 96.3706C1048.15 94.47 1049.41 92.6436 1051.31 92.2911ZM1054.92 111.782C1056.82 111.43 1058.65 112.685 1059 114.585L1059.02 114.682C1059.37 116.583 1058.12 118.409 1056.22 118.762C1054.32 119.114 1052.49 117.859 1052.14 115.959L1052.12 115.862C1051.77 113.961 1053.02 112.135 1054.92 111.782ZM1058.54 131.273C1060.44 130.921 1062.27 132.176 1062.62 134.077L1062.64 134.173C1062.99 136.074 1061.73 137.901 1059.83 138.253C1057.93 138.606 1056.11 137.351 1055.75 135.45L1055.74 135.353C1055.38 133.452 1056.64 131.626 1058.54 131.273ZM1062.15 150.765C1064.05 150.412 1065.88 151.667 1066.23 153.568L1066.25 153.665C1066.6 155.565 1065.35 157.392 1063.45 157.744C1061.55 158.097 1059.72 156.842 1059.37 154.941L1059.35 154.844C1059 152.944 1060.25 151.117 1062.15 150.765ZM1065.77 170.256C1067.67 169.903 1069.5 171.158 1069.85 173.059L1069.87 173.156C1070.22 175.056 1068.96 176.883 1067.06 177.235C1065.16 177.588 1063.34 176.333 1062.98 174.432L1062.97 174.335C1062.61 172.435 1063.87 170.608 1065.77 170.256ZM1069.38 189.747C1071.28 189.394 1073.11 190.649 1073.46 192.55L1073.48 192.647C1073.83 194.548 1072.58 196.374 1070.68 196.727C1068.78 197.079 1066.95 195.824 1066.6 193.923L1066.58 193.826C1066.23 191.926 1067.48 190.099 1069.38 189.747ZM1073 209.238C1074.9 208.886 1076.73 210.141 1077.08 212.041L1077.1 212.138C1077.45 214.039 1076.19 215.865 1074.29 216.218C1072.39 216.57 1070.57 215.315 1070.21 213.415L1070.2 213.318C1069.84 211.417 1071.1 209.591 1073 209.238ZM1076.61 228.729C1078.51 228.377 1080.34 229.632 1080.69 231.532L1080.71 231.629C1081.06 233.53 1079.81 235.356 1077.91 235.709C1076.01 236.061 1074.18 234.806 1073.83 232.906L1073.81 232.809C1073.46 230.908 1074.71 229.082 1076.61 228.729ZM1080.23 248.22C1082.13 247.868 1083.95 249.123 1084.31 251.024L1084.33 251.12C1084.68 253.021 1083.42 254.848 1081.52 255.2C1079.62 255.552 1077.8 254.298 1077.44 252.397L1077.42 252.3C1077.07 250.399 1078.33 248.573 1080.23 248.22ZM1083.84 267.712C1085.74 267.359 1087.57 268.614 1087.92 270.515L1087.94 270.612C1088.29 272.512 1087.04 274.339 1085.14 274.691C1083.24 275.044 1081.41 273.789 1081.06 271.888L1081.04 271.791C1080.69 269.891 1081.94 268.064 1083.84 267.712ZM1087.46 287.203C1089.36 286.85 1091.18 288.105 1091.54 290.006L1091.55 290.103C1091.91 292.003 1090.65 293.83 1088.75 294.182C1086.85 294.535 1085.02 293.28 1084.67 291.379L1084.65 291.282C1084.3 289.382 1085.56 287.555 1087.46 287.203ZM1091.07 306.694C1092.97 306.341 1094.8 307.596 1095.15 309.497L1095.17 309.594C1095.52 311.495 1094.27 313.321 1092.37 313.673C1090.47 314.026 1088.64 312.771 1088.29 310.87L1088.27 310.773C1087.92 308.873 1089.17 307.046 1091.07 306.694ZM1094.69 326.185C1096.59 325.833 1098.41 327.088 1098.77 328.988L1098.78 329.085C1099.14 330.986 1097.88 332.812 1095.98 333.165C1094.08 333.517 1092.25 332.262 1091.9 330.362L1091.88 330.265C1091.53 328.364 1092.79 326.538 1094.69 326.185ZM1098.3 345.676C1100.2 345.324 1102.03 346.579 1102.38 348.479L1102.4 348.576C1102.75 350.477 1101.5 352.303 1099.6 352.656C1097.7 353.008 1095.87 351.753 1095.52 349.853L1095.5 349.756C1095.15 347.855 1096.4 346.029 1098.3 345.676ZM1101.92 365.167C1103.82 364.815 1105.64 366.07 1106 367.97L1106.01 368.067C1106.37 369.968 1105.11 371.795 1103.21 372.147C1101.31 372.5 1099.48 371.245 1099.13 369.344L1099.11 369.247C1098.76 367.346 1100.02 365.52 1101.92 365.167ZM1105.53 384.659C1107.43 384.306 1109.26 385.561 1109.61 387.462L1109.63 387.559C1109.98 389.459 1108.73 391.286 1106.83 391.638C1104.93 391.991 1103.1 390.736 1102.75 388.835L1102.73 388.738C1102.38 386.838 1103.63 385.011 1105.53 384.659ZM1109.15 404.15C1111.05 403.797 1112.87 405.052 1113.23 406.953L1113.23 407.001C1113.59 408.902 1112.33 410.728 1110.43 411.081C1108.53 411.433 1106.7 410.178 1106.35 408.278L1106.34 408.229C1105.99 406.329 1107.25 404.502 1109.15 404.15Z" fill="#FFE8C8"/>
<path fill-rule="evenodd" clip-rule="evenodd" d="M1026.07 76.8601C1027.97 76.5076 1029.8 77.7626 1030.15 79.6632L1030.16 79.7117C1030.51 81.6123 1029.26 83.4387 1027.36 83.7912C1025.46 84.1437 1023.63 82.8887 1023.28 80.9881L1023.27 80.9396C1022.92 79.039 1024.17 77.2126 1026.07 76.8601ZM1029.68 96.3028C1031.58 95.9503 1033.41 97.2053 1033.76 99.1059L1033.78 99.2028C1034.13 101.103 1032.87 102.93 1030.97 103.282C1029.07 103.635 1027.25 102.38 1026.89 100.479L1026.88 100.382C1026.52 98.4817 1027.78 96.6553 1029.68 96.3028ZM1033.29 115.794C1035.19 115.441 1037.02 116.696 1037.37 118.597L1037.39 118.694C1037.74 120.595 1036.49 122.421 1034.59 122.774C1032.69 123.126 1030.86 121.871 1030.51 119.97L1030.49 119.873C1030.14 117.973 1031.39 116.146 1033.29 115.794ZM1036.91 135.285C1038.81 134.933 1040.63 136.188 1040.99 138.088L1041.01 138.185C1041.36 140.086 1040.1 141.912 1038.2 142.265C1036.3 142.617 1034.48 141.362 1034.12 139.462L1034.1 139.365C1033.75 137.464 1035.01 135.638 1036.91 135.285ZM1040.52 154.776C1042.42 154.424 1044.25 155.679 1044.6 157.579L1044.62 157.676C1044.97 159.577 1043.72 161.403 1041.82 161.756C1039.92 162.108 1038.09 160.853 1037.74 158.953L1037.72 158.856C1037.37 156.955 1038.62 155.129 1040.52 154.776ZM1044.14 174.267C1046.04 173.915 1047.86 175.17 1048.22 177.071L1048.24 177.168C1048.59 179.068 1047.33 180.895 1045.43 181.247C1043.53 181.6 1041.7 180.345 1041.35 178.444L1041.33 178.347C1040.98 176.446 1042.24 174.62 1044.14 174.267ZM1047.75 193.759C1049.65 193.406 1051.48 194.661 1051.83 196.562L1051.85 196.659C1052.2 198.559 1050.95 200.386 1049.05 200.738C1047.15 201.091 1045.32 199.836 1044.97 197.935L1044.95 197.838C1044.6 195.938 1045.85 194.111 1047.75 193.759ZM1051.37 213.25C1053.27 212.897 1055.09 214.152 1055.45 216.053L1055.46 216.15C1055.82 218.05 1054.56 219.877 1052.66 220.229C1050.76 220.582 1048.93 219.327 1048.58 217.426L1048.56 217.329C1048.21 215.429 1049.47 213.602 1051.37 213.25ZM1054.98 232.741C1056.88 232.388 1058.71 233.643 1059.06 235.544L1059.08 235.641C1059.43 237.542 1058.18 239.368 1056.28 239.721C1054.38 240.073 1052.55 238.818 1052.2 236.917L1052.18 236.82C1051.83 234.92 1053.08 233.093 1054.98 232.741ZM1058.6 252.232C1060.5 251.88 1062.32 253.135 1062.68 255.035L1062.69 255.132C1063.05 257.033 1061.79 258.859 1059.89 259.212C1057.99 259.564 1056.16 258.309 1055.81 256.409L1055.79 256.312C1055.44 254.411 1056.7 252.585 1058.6 252.232ZM1062.21 271.723C1064.11 271.371 1065.94 272.626 1066.29 274.526L1066.31 274.623C1066.66 276.524 1065.41 278.35 1063.51 278.703C1061.61 279.055 1059.78 277.8 1059.43 275.9L1059.41 275.803C1059.06 273.902 1060.31 272.076 1062.21 271.723ZM1065.83 291.214C1067.73 290.862 1069.55 292.117 1069.91 294.017L1069.92 294.114C1070.28 296.015 1069.02 297.841 1067.12 298.194C1065.22 298.546 1063.39 297.291 1063.04 295.391L1063.02 295.294C1062.67 293.393 1063.93 291.567 1065.83 291.214ZM1069.44 310.706C1071.34 310.353 1073.17 311.608 1073.52 313.509L1073.54 313.606C1073.89 315.506 1072.64 317.333 1070.74 317.685C1068.83 318.038 1067.01 316.783 1066.66 314.882L1066.64 314.785C1066.29 312.885 1067.54 311.058 1069.44 310.706ZM1073.06 330.197C1074.96 329.844 1076.78 331.099 1077.14 333L1077.15 333.097C1077.51 334.997 1076.25 336.824 1074.35 337.176C1072.45 337.529 1070.62 336.274 1070.27 334.373L1070.25 334.276C1069.9 332.376 1071.16 330.549 1073.06 330.197ZM1076.67 349.688C1078.57 349.335 1080.4 350.59 1080.75 352.491L1080.77 352.588C1081.12 354.489 1079.87 356.315 1077.97 356.668C1076.06 357.02 1074.24 355.765 1073.89 353.864L1073.87 353.767C1073.52 351.867 1074.77 350.04 1076.67 349.688ZM1080.29 369.179C1082.19 368.827 1084.01 370.082 1084.37 371.982L1084.38 372.079C1084.74 373.98 1083.48 375.806 1081.58 376.159C1079.68 376.511 1077.85 375.256 1077.5 373.356L1077.48 373.259C1077.13 371.358 1078.38 369.532 1080.29 369.179ZM1083.9 388.67C1085.8 388.318 1087.63 389.573 1087.98 391.473L1088 391.57C1088.35 393.471 1087.1 395.297 1085.19 395.65C1083.29 396.002 1081.47 394.747 1081.12 392.847L1081.1 392.75C1080.74 390.849 1082 389.023 1083.9 388.67ZM1087.52 408.161C1089.42 407.809 1091.24 409.064 1091.59 410.965L1091.6 411.013C1091.96 412.914 1090.7 414.74 1088.8 415.093C1086.9 415.445 1085.07 414.19 1084.72 412.289L1084.71 412.241C1084.36 410.34 1085.61 408.514 1087.52 408.161Z" fill="#FFE8C8"/>
<path fill-rule="evenodd" clip-rule="evenodd" d="M1004.44 80.8718C1006.34 80.5193 1008.17 81.7743 1008.52 83.6749L1008.53 83.7234C1008.88 85.6239 1007.63 87.4504 1005.73 87.8029C1003.83 88.1554 1002 86.9004 1001.65 84.9998L1001.64 84.9513C1001.29 83.0507 1002.54 81.2243 1004.44 80.8718ZM1008.05 100.314C1009.95 99.962 1011.77 101.217 1012.13 103.118L1012.14 103.215C1012.5 105.115 1011.24 106.942 1009.34 107.294C1007.44 107.647 1005.61 106.392 1005.26 104.491L1005.24 104.394C1004.89 102.493 1006.15 100.667 1008.05 100.314ZM1011.66 119.806C1013.56 119.453 1015.39 120.708 1015.74 122.609L1015.76 122.706C1016.11 124.606 1014.86 126.433 1012.96 126.785C1011.06 127.138 1009.23 125.883 1008.88 123.982L1008.86 123.885C1008.51 121.985 1009.76 120.158 1011.66 119.806ZM1015.28 139.297C1017.18 138.944 1019 140.199 1019.36 142.1L1019.37 142.197C1019.73 144.097 1018.47 145.924 1016.57 146.276C1014.67 146.629 1012.84 145.374 1012.49 143.473L1012.47 143.376C1012.12 141.476 1013.38 139.649 1015.28 139.297ZM1018.89 158.788C1020.79 158.435 1022.62 159.69 1022.97 161.591L1022.99 161.688C1023.34 163.589 1022.09 165.415 1020.19 165.768C1018.29 166.12 1016.46 164.865 1016.11 162.964L1016.09 162.867C1015.74 160.967 1016.99 159.14 1018.89 158.788ZM1022.51 178.279C1024.41 177.927 1026.23 179.182 1026.59 181.082L1026.6 181.179C1026.96 183.08 1025.7 184.906 1023.8 185.259C1021.9 185.611 1020.07 184.356 1019.72 182.456L1019.7 182.359C1019.35 180.458 1020.61 178.632 1022.51 178.279ZM1026.12 197.77C1028.02 197.418 1029.85 198.673 1030.2 200.573L1030.22 200.67C1030.57 202.571 1029.32 204.397 1027.42 204.75C1025.52 205.102 1023.69 203.847 1023.34 201.947L1023.32 201.85C1022.97 199.949 1024.22 198.123 1026.12 197.77ZM1029.74 217.261C1031.64 216.909 1033.46 218.164 1033.82 220.065L1033.83 220.162C1034.19 222.062 1032.93 223.889 1031.03 224.241C1029.13 224.594 1027.3 223.339 1026.95 221.438L1026.93 221.341C1026.58 219.44 1027.84 217.614 1029.74 217.261ZM1033.35 236.753C1035.25 236.4 1037.08 237.655 1037.43 239.556L1037.45 239.653C1037.8 241.553 1036.55 243.38 1034.65 243.732C1032.74 244.085 1030.92 242.83 1030.57 240.929L1030.55 240.832C1030.2 238.932 1031.45 237.105 1033.35 236.753ZM1036.97 256.244C1038.87 255.891 1040.69 257.146 1041.05 259.047L1041.06 259.144C1041.42 261.044 1040.16 262.871 1038.26 263.223C1036.36 263.576 1034.53 262.321 1034.18 260.42L1034.16 260.323C1033.81 258.423 1035.06 256.596 1036.97 256.244ZM1040.58 275.735C1042.48 275.382 1044.31 276.637 1044.66 278.538L1044.68 278.635C1045.03 280.536 1043.78 282.362 1041.87 282.715C1039.97 283.067 1038.15 281.812 1037.8 279.911L1037.78 279.814C1037.42 277.914 1038.68 276.087 1040.58 275.735ZM1044.2 295.226C1046.1 294.874 1047.92 296.129 1048.27 298.029L1048.29 298.126C1048.65 300.027 1047.39 301.853 1045.49 302.206C1043.59 302.558 1041.76 301.303 1041.41 299.403L1041.39 299.306C1041.04 297.405 1042.29 295.579 1044.2 295.226ZM1047.81 314.717C1049.71 314.365 1051.54 315.62 1051.89 317.52L1051.91 317.617C1052.26 319.518 1051 321.344 1049.1 321.697C1047.2 322.049 1045.38 320.794 1045.02 318.894L1045.01 318.797C1044.65 316.896 1045.91 315.07 1047.81 314.717ZM1051.42 334.208C1053.33 333.856 1055.15 335.111 1055.5 337.012L1055.52 337.108C1055.87 339.009 1054.62 340.836 1052.72 341.188C1050.82 341.54 1048.99 340.286 1048.64 338.385L1048.62 338.288C1048.27 336.387 1049.52 334.561 1051.42 334.208ZM1055.04 353.7C1056.94 353.347 1058.77 354.602 1059.12 356.503L1059.14 356.6C1059.49 358.5 1058.23 360.327 1056.33 360.679C1054.43 361.032 1052.61 359.777 1052.25 357.876L1052.24 357.779C1051.88 355.879 1053.14 354.052 1055.04 353.7ZM1058.65 373.191C1060.55 372.838 1062.38 374.093 1062.73 375.994L1062.75 376.091C1063.1 377.991 1061.85 379.818 1059.95 380.17C1058.05 380.523 1056.22 379.268 1055.87 377.367L1055.85 377.27C1055.5 375.37 1056.75 373.543 1058.65 373.191ZM1062.27 392.682C1064.17 392.329 1066 393.584 1066.35 395.485L1066.37 395.582C1066.72 397.483 1065.46 399.309 1063.56 399.662C1061.66 400.014 1059.84 398.759 1059.48 396.858L1059.47 396.761C1059.11 394.861 1060.37 393.034 1062.27 392.682ZM1065.88 412.173C1067.78 411.821 1069.61 413.076 1069.96 414.976L1069.97 415.025C1070.33 416.925 1069.07 418.752 1067.17 419.104C1065.27 419.457 1063.44 418.202 1063.09 416.301L1063.08 416.253C1062.73 414.352 1063.98 412.526 1065.88 412.173Z" fill="#FFE8C8"/>
</g>
<defs>
<clipPath id="clip0">
<rect width="1441" height="205" fill="white"/>
</clipPath>
</defs>
</svg>
