<svg width="26" height="26" viewBox="0 0 26 26" fill="none" xmlns="http://www.w3.org/2000/svg">
<path fill-rule="evenodd" clip-rule="evenodd" d="M4.54757 4.04692L1.44444 4.04692C0.6467 4.04692 0 4.69362 0 5.49136V24.5478C0 25.3456 0.6467 25.9923 1.44444 25.9923H24.5556C25.3533 25.9923 26 25.3456 26 24.5478V5.49136C26 4.69362 25.3533 4.04692 24.5556 4.04692H21.4518V1.44444C21.4518 0.646699 20.8051 0 20.0073 0C19.2096 0 18.5629 0.646699 18.5629 1.44444V4.04692H7.43646V1.44444C7.43646 0.646699 6.78976 0 5.99201 0C5.19427 0 4.54757 0.646699 4.54757 1.44444V4.04692ZM23.1111 8.65892L2.88889 8.65892V23.1034H23.1111V8.65892Z" fill="#3B968B"/>
<path d="M8 15L11.5 18.5L17.5 12" stroke="#3B968B" stroke-width="2.5" stroke-linecap="round" stroke-linejoin="round"/>
</svg>
