<svg width="1440" height="345" viewBox="0 0 1440 345" fill="none" xmlns="http://www.w3.org/2000/svg">
<g clip-path="url(#clip0)">
<path d="M1231.04 346.167C1028.26 347.355 920.544 77.4968 892.037 -57.5805C1102.31 -54.1125 1526.75 -30.0203 1542.29 38.6039C1561.71 124.384 1484.52 344.682 1231.04 346.167Z" fill="#FFEED8"/>
<path fill-rule="evenodd" clip-rule="evenodd" d="M415.798 14.9808C417.647 15.5437 418.69 17.4991 418.127 19.3483L418.112 19.3955C417.55 21.2447 415.594 22.2875 413.745 21.7247C411.896 21.1618 410.853 19.2064 411.416 17.3571L411.43 17.31C411.993 15.4608 413.948 14.418 415.798 14.9808ZM410.04 33.8981C411.889 34.461 412.932 36.4164 412.369 38.2656L412.34 38.36C411.777 40.2092 409.822 41.252 407.973 40.6891C406.123 40.1262 405.08 38.1708 405.643 36.3216L405.672 36.2273C406.235 34.378 408.19 33.3352 410.04 33.8981ZM404.267 52.8626C406.116 53.4255 407.159 55.3809 406.596 57.2301L406.568 57.3244C406.005 59.1737 404.049 60.2165 402.2 59.6536C400.351 59.0907 399.308 57.1353 399.871 55.2861L399.9 55.1917C400.462 53.3425 402.418 52.2997 404.267 52.8626ZM398.495 71.8271C400.344 72.3899 401.387 74.3453 400.824 76.1945L400.795 76.2889C400.232 78.1381 398.277 79.1809 396.428 78.6181C394.578 78.0552 393.536 76.0998 394.098 74.2505L394.127 74.1562C394.69 72.307 396.645 71.2642 398.495 71.8271ZM392.722 90.7915C394.571 91.3544 395.614 93.3098 395.051 95.159L395.023 95.2534C394.46 97.1026 392.504 98.1454 390.655 97.5825C388.806 97.0196 387.763 95.0643 388.326 93.215L388.355 93.1207C388.918 91.2714 390.873 90.2286 392.722 90.7915ZM386.95 109.756C388.799 110.319 389.842 112.274 389.279 114.123L389.25 114.218C388.687 116.067 386.732 117.11 384.883 116.547C383.033 115.984 381.991 114.029 382.553 112.179L382.582 112.085C383.145 110.236 385.1 109.193 386.95 109.756ZM381.177 128.72C383.026 129.283 384.069 131.239 383.506 133.088L383.478 133.182C382.915 135.032 380.959 136.074 379.11 135.511C377.261 134.949 376.218 132.993 376.781 131.144L376.81 131.05C377.373 129.2 379.328 128.158 381.177 128.72ZM375.405 147.685C377.254 148.248 378.297 150.203 377.734 152.052L377.705 152.147C377.142 153.996 375.187 155.039 373.338 154.476C371.488 153.913 370.446 151.958 371.009 150.108L371.037 150.014C371.6 148.165 373.556 147.122 375.405 147.685ZM369.632 166.649C371.482 167.212 372.524 169.168 371.961 171.017L371.933 171.111C371.37 172.96 369.414 174.003 367.565 173.44C365.716 172.877 364.673 170.922 365.236 169.073L365.265 168.979C365.828 167.129 367.783 166.087 369.632 166.649ZM363.86 185.614C365.709 186.177 366.752 188.132 366.189 189.981L366.16 190.076C365.597 191.925 363.642 192.968 361.793 192.405C359.944 191.842 358.901 189.887 359.464 188.037L359.492 187.943C360.055 186.094 362.011 185.051 363.86 185.614ZM358.087 204.578C359.937 205.141 360.979 207.097 360.417 208.946L360.388 209.04C359.825 210.889 357.87 211.932 356.02 211.369C354.171 210.806 353.128 208.851 353.691 207.002L353.72 206.907C354.283 205.058 356.238 204.015 358.087 204.578ZM352.315 223.543C354.164 224.106 355.207 226.061 354.644 227.91L354.615 228.005C354.052 229.854 352.097 230.897 350.248 230.334C348.399 229.771 347.356 227.815 347.919 225.966L347.947 225.872C348.51 224.023 350.466 222.98 352.315 223.543ZM346.542 242.507C348.392 243.07 349.434 245.025 348.872 246.875L348.843 246.969C348.28 248.818 346.325 249.861 344.475 249.298C342.626 248.735 341.583 246.78 342.146 244.931L342.175 244.836C342.738 242.987 344.693 241.944 346.542 242.507ZM340.77 261.472C342.619 262.035 343.662 263.99 343.099 265.839L343.07 265.934C342.508 267.783 340.552 268.826 338.703 268.263C336.854 267.7 335.811 265.744 336.374 263.895L336.402 263.801C336.965 261.952 338.921 260.909 340.77 261.472ZM334.997 280.436C336.847 280.999 337.89 282.954 337.327 284.804L337.298 284.898C336.735 286.747 334.78 287.79 332.93 287.227C331.081 286.664 330.038 284.709 330.601 282.86L330.63 282.765C331.193 280.916 333.148 279.873 334.997 280.436ZM329.225 299.401C331.074 299.964 332.117 301.919 331.554 303.768L331.525 303.862C330.963 305.712 329.007 306.754 327.158 306.192C325.309 305.629 324.266 303.673 324.829 301.824L324.858 301.73C325.42 299.881 327.376 298.838 329.225 299.401ZM323.453 318.365C325.302 318.928 326.345 320.883 325.782 322.733L325.753 322.827C325.19 324.676 323.235 325.719 321.385 325.156C319.536 324.593 318.493 322.638 319.056 320.789L319.085 320.694C319.648 318.845 321.603 317.802 323.453 318.365ZM317.68 337.33C319.529 337.892 320.572 339.848 320.009 341.697L319.995 341.744C319.432 343.593 317.477 344.636 315.627 344.073C313.778 343.511 312.735 341.555 313.298 339.706L313.313 339.659C313.875 337.81 315.831 336.767 317.68 337.33Z" fill="#FFF0DF"/>
<path fill-rule="evenodd" clip-rule="evenodd" d="M389.968 7.11862C391.817 7.6815 392.86 9.63689 392.297 11.4861L392.283 11.5333C391.72 13.3825 389.764 14.4253 387.915 13.8624C386.066 13.2996 385.023 11.3442 385.586 9.49495L385.6 9.44777C386.163 7.59854 388.119 6.55575 389.968 7.11862ZM384.21 26.0359C386.059 26.5988 387.102 28.5542 386.539 30.4034L386.51 30.4978C385.947 32.347 383.992 33.3898 382.143 32.8269C380.293 32.264 379.251 30.3086 379.813 28.4594L379.842 28.3651C380.405 26.5158 382.36 25.473 384.21 26.0359ZM378.437 45.0004C380.286 45.5633 381.329 47.5186 380.766 49.3679L380.738 49.4622C380.175 51.3115 378.219 52.3543 376.37 51.7914C374.521 51.2285 373.478 49.2731 374.041 47.4239L374.07 47.3295C374.633 45.4803 376.588 44.4375 378.437 45.0004ZM372.665 63.9648C374.514 64.5277 375.557 66.4831 374.994 68.3324L374.965 68.4267C374.402 70.2759 372.447 71.3187 370.598 70.7558C368.748 70.193 367.706 68.2376 368.268 66.3884L368.297 66.294C368.86 64.4448 370.815 63.402 372.665 63.9648ZM366.892 82.9293C368.741 83.4922 369.784 85.4476 369.221 87.2968L369.193 87.3912C368.63 89.2404 366.674 90.2832 364.825 89.7203C362.976 89.1574 361.933 87.202 362.496 85.3528L362.525 85.2585C363.088 83.4092 365.043 82.3664 366.892 82.9293ZM361.12 101.894C362.969 102.457 364.012 104.412 363.449 106.261L363.42 106.356C362.857 108.205 360.902 109.248 359.053 108.685C357.203 108.122 356.161 106.167 356.724 104.317L356.752 104.223C357.315 102.374 359.271 101.331 361.12 101.894ZM355.347 120.858C357.197 121.421 358.239 123.377 357.676 125.226L357.648 125.32C357.085 127.169 355.129 128.212 353.28 127.649C351.431 127.086 350.388 125.131 350.951 123.282L350.98 123.187C351.543 121.338 353.498 120.295 355.347 120.858ZM349.575 139.823C351.424 140.386 352.467 142.341 351.904 144.19L351.875 144.285C351.312 146.134 349.357 147.177 347.508 146.614C345.659 146.051 344.616 144.095 345.179 142.246L345.207 142.152C345.77 140.303 347.726 139.26 349.575 139.823ZM343.802 158.787C345.652 159.35 346.694 161.305 346.132 163.155L346.103 163.249C345.54 165.098 343.585 166.141 341.735 165.578C339.886 165.015 338.843 163.06 339.406 161.211L339.435 161.116C339.998 159.267 341.953 158.224 343.802 158.787ZM338.03 177.752C339.879 178.314 340.922 180.27 340.359 182.119L340.33 182.213C339.767 184.063 337.812 185.106 335.963 184.543C334.114 183.98 333.071 182.024 333.634 180.175L333.662 180.081C334.225 178.232 336.181 177.189 338.03 177.752ZM332.257 196.716C334.107 197.279 335.149 199.234 334.587 201.084L334.558 201.178C333.995 203.027 332.04 204.07 330.19 203.507C328.341 202.944 327.298 200.989 327.861 199.14L327.89 199.045C328.453 197.196 330.408 196.153 332.257 196.716ZM326.485 215.681C328.334 216.243 329.377 218.199 328.814 220.048L328.785 220.142C328.223 221.992 326.267 223.034 324.418 222.472C322.569 221.909 321.526 219.953 322.089 218.104L322.117 218.01C322.68 216.16 324.636 215.118 326.485 215.681ZM320.712 234.645C322.562 235.208 323.605 237.163 323.042 239.012L323.013 239.107C322.45 240.956 320.495 241.999 318.645 241.436C316.796 240.873 315.753 238.918 316.316 237.068L316.345 236.974C316.908 235.125 318.863 234.082 320.712 234.645ZM314.94 253.609C316.789 254.172 317.832 256.128 317.269 257.977L317.24 258.071C316.678 259.921 314.722 260.963 312.873 260.4C311.024 259.838 309.981 257.882 310.544 256.033L310.573 255.939C311.135 254.089 313.091 253.047 314.94 253.609ZM309.168 272.574C311.017 273.137 312.06 275.092 311.497 276.941L311.468 277.036C310.905 278.885 308.95 279.928 307.1 279.365C305.251 278.802 304.208 276.847 304.771 274.997L304.8 274.903C305.363 273.054 307.318 272.011 309.168 272.574ZM303.395 291.538C305.244 292.101 306.287 294.057 305.724 295.906L305.695 296C305.133 297.85 303.177 298.892 301.328 298.329C299.479 297.767 298.436 295.811 298.999 293.962L299.028 293.868C299.59 292.018 301.546 290.976 303.395 291.538ZM297.623 310.503C299.472 311.066 300.515 313.021 299.952 314.87L299.923 314.965C299.36 316.814 297.405 317.857 295.556 317.294C293.706 316.731 292.663 314.776 293.226 312.926L293.255 312.832C293.818 310.983 295.773 309.94 297.623 310.503ZM291.85 329.467C293.699 330.03 294.742 331.986 294.179 333.835L294.165 333.882C293.602 335.731 291.647 336.774 289.797 336.211C287.948 335.648 286.905 333.693 287.468 331.844L287.483 331.797C288.046 329.947 290.001 328.905 291.85 329.467Z" fill="#FFF0DF"/>
<path fill-rule="evenodd" clip-rule="evenodd" d="M364.138 -0.743584C365.987 -0.180709 367.03 1.77469 366.467 3.62392L366.453 3.67109C365.89 5.52032 363.934 6.56312 362.085 6.00024C360.236 5.43737 359.193 3.48197 359.756 1.63274L359.77 1.58556C360.333 -0.263665 362.289 -1.30646 364.138 -0.743584ZM358.38 18.1737C360.229 18.7366 361.272 20.692 360.709 22.5412L360.68 22.6356C360.117 24.4848 358.162 25.5276 356.313 24.9647C354.463 24.4018 353.421 22.4464 353.983 20.5972L354.012 20.5029C354.575 18.6536 356.53 17.6108 358.38 18.1737ZM352.607 37.1382C354.456 37.701 355.499 39.6564 354.936 41.5057L354.908 41.6C354.345 43.4492 352.389 44.492 350.54 43.9292C348.691 43.3663 347.648 41.4109 348.211 39.5617L348.24 39.4673C348.803 37.6181 350.758 36.5753 352.607 37.1382ZM346.835 56.1026C348.684 56.6655 349.727 58.6209 349.164 60.4701L349.135 60.5645C348.572 62.4137 346.617 63.4565 344.768 62.8936C342.918 62.3308 341.876 60.3754 342.439 58.5261L342.467 58.4318C343.03 56.5826 344.986 55.5398 346.835 56.1026ZM341.062 75.0671C342.912 75.63 343.954 77.5854 343.391 79.4346L343.363 79.529C342.8 81.3782 340.844 82.421 338.995 81.8581C337.146 81.2952 336.103 79.3398 336.666 77.4906L336.695 77.3963C337.258 75.547 339.213 74.5042 341.062 75.0671ZM335.29 94.0316C337.139 94.5945 338.182 96.5498 337.619 98.3991L337.59 98.4934C337.027 100.343 335.072 101.385 333.223 100.823C331.374 100.26 330.331 98.3043 330.894 96.4551L330.922 96.3607C331.485 94.5115 333.441 93.4687 335.29 94.0316ZM329.517 112.996C331.367 113.559 332.409 115.514 331.846 117.364L331.818 117.458C331.255 119.307 329.299 120.35 327.45 119.787C325.601 119.224 324.558 117.269 325.121 115.42L325.15 115.325C325.713 113.476 327.668 112.433 329.517 112.996ZM323.745 131.961C325.594 132.523 326.637 134.479 326.074 136.328L326.045 136.422C325.482 138.272 323.527 139.314 321.678 138.752C319.829 138.189 318.786 136.233 319.349 134.384L319.377 134.29C319.94 132.44 321.896 131.398 323.745 131.961ZM317.972 150.925C319.822 151.488 320.864 153.443 320.302 155.292L320.273 155.387C319.71 157.236 317.755 158.279 315.905 157.716C314.056 157.153 313.013 155.198 313.576 153.348L313.605 153.254C314.168 151.405 316.123 150.362 317.972 150.925ZM312.2 169.889C314.049 170.452 315.092 172.408 314.529 174.257L314.5 174.351C313.937 176.2 311.982 177.243 310.133 176.68C308.284 176.118 307.241 174.162 307.804 172.313L307.832 172.219C308.395 170.369 310.351 169.327 312.2 169.889ZM306.427 188.854C308.277 189.417 309.319 191.372 308.757 193.221L308.728 193.316C308.165 195.165 306.21 196.208 304.36 195.645C302.511 195.082 301.468 193.127 302.031 191.277L302.06 191.183C302.623 189.334 304.578 188.291 306.427 188.854ZM300.655 207.818C302.504 208.381 303.547 210.337 302.984 212.186L302.955 212.28C302.393 214.129 300.437 215.172 298.588 214.609C296.739 214.046 295.696 212.091 296.259 210.242L296.288 210.147C296.85 208.298 298.806 207.255 300.655 207.818ZM294.883 226.783C296.732 227.346 297.775 229.301 297.212 231.15L297.183 231.245C296.62 233.094 294.665 234.137 292.815 233.574C290.966 233.011 289.923 231.055 290.486 229.206L290.515 229.112C291.078 227.263 293.033 226.22 294.883 226.783ZM289.11 245.747C290.959 246.31 292.002 248.266 291.439 250.115L291.411 250.209C290.848 252.058 288.892 253.101 287.043 252.538C285.194 251.975 284.151 250.02 284.714 248.171L284.743 248.076C285.305 246.227 287.261 245.184 289.11 245.747ZM283.338 264.712C285.187 265.275 286.23 267.23 285.667 269.079L285.638 269.174C285.075 271.023 283.12 272.066 281.271 271.503C279.421 270.94 278.378 268.984 278.941 267.135L278.97 267.041C279.533 265.192 281.488 264.149 283.338 264.712ZM277.565 283.676C279.414 284.239 280.457 286.194 279.894 288.044L279.866 288.138C279.303 289.987 277.347 291.03 275.498 290.467C273.649 289.904 272.606 287.949 273.169 286.1L273.198 286.005C273.761 284.156 275.716 283.113 277.565 283.676ZM271.793 302.641C273.642 303.204 274.685 305.159 274.122 307.008L274.093 307.103C273.53 308.952 271.575 309.995 269.726 309.432C267.876 308.869 266.834 306.913 267.396 305.064L267.425 304.97C267.988 303.121 269.943 302.078 271.793 302.641ZM266.02 321.605C267.869 322.168 268.912 324.123 268.349 325.973L268.335 326.02C267.772 327.869 265.817 328.912 263.967 328.349C262.118 327.786 261.075 325.831 261.638 323.981L261.653 323.934C262.216 322.085 264.171 321.042 266.02 321.605Z" fill="#FFF0DF"/>
<path fill-rule="evenodd" clip-rule="evenodd" d="M338.308 -8.60579C340.157 -8.04291 341.2 -6.08752 340.637 -4.23829L340.623 -4.19111C340.06 -2.34188 338.104 -1.29909 336.255 -1.86196C334.406 -2.42484 333.363 -4.38023 333.926 -6.22946L333.94 -6.27663C334.503 -8.12586 336.459 -9.16866 338.308 -8.60579ZM332.55 10.3115C334.399 10.8744 335.442 12.8298 334.879 14.679L334.85 14.7734C334.287 16.6226 332.332 17.6654 330.483 17.1025C328.633 16.5396 327.591 14.5842 328.154 12.735L328.182 12.6407C328.745 10.7914 330.701 9.74863 332.55 10.3115ZM326.777 29.276C328.627 29.8388 329.669 31.7942 329.106 33.6435L329.078 33.7378C328.515 35.5871 326.559 36.6298 324.71 36.067C322.861 35.5041 321.818 33.5487 322.381 31.6995L322.41 31.6051C322.973 29.7559 324.928 28.7131 326.777 29.276ZM321.005 48.2404C322.854 48.8033 323.897 50.7587 323.334 52.6079L323.305 52.7023C322.742 54.5515 320.787 55.5943 318.938 55.0314C317.089 54.4686 316.046 52.5132 316.609 50.6639L316.637 50.5696C317.2 48.7204 319.156 47.6776 321.005 48.2404ZM315.232 67.2049C317.082 67.7678 318.124 69.7232 317.561 71.5724L317.533 71.6668C316.97 73.516 315.015 74.5588 313.165 73.9959C311.316 73.433 310.273 71.4776 310.836 69.6284L310.865 69.5341C311.428 67.6848 313.383 66.642 315.232 67.2049ZM309.46 86.1694C311.309 86.7323 312.352 88.6876 311.789 90.5369L311.76 90.6312C311.197 92.4804 309.242 93.5233 307.393 92.9604C305.544 92.3975 304.501 90.4421 305.064 88.5929L305.092 88.4985C305.655 86.6493 307.611 85.6065 309.46 86.1694ZM303.687 105.134C305.537 105.697 306.579 107.652 306.017 109.501L305.988 109.596C305.425 111.445 303.47 112.488 301.62 111.925C299.771 111.362 298.728 109.407 299.291 107.557L299.32 107.463C299.883 105.614 301.838 104.571 303.687 105.134ZM297.915 124.098C299.764 124.661 300.807 126.617 300.244 128.466L300.215 128.56C299.652 130.409 297.697 131.452 295.848 130.889C293.999 130.326 292.956 128.371 293.519 126.522L293.547 126.427C294.11 124.578 296.066 123.535 297.915 124.098ZM292.142 143.063C293.992 143.626 295.034 145.581 294.472 147.43L294.443 147.525C293.88 149.374 291.925 150.417 290.075 149.854C288.226 149.291 287.183 147.335 287.746 145.486L287.775 145.392C288.338 143.543 290.293 142.5 292.142 143.063ZM286.37 162.027C288.219 162.59 289.262 164.545 288.699 166.395L288.67 166.489C288.108 168.338 286.152 169.381 284.303 168.818C282.454 168.255 281.411 166.3 281.974 164.451L282.003 164.356C282.565 162.507 284.521 161.464 286.37 162.027ZM280.598 180.992C282.447 181.555 283.49 183.51 282.927 185.359L282.898 185.454C282.335 187.303 280.38 188.346 278.53 187.783C276.681 187.22 275.638 185.264 276.201 183.415L276.23 183.321C276.793 181.472 278.748 180.429 280.598 180.992ZM274.825 199.956C276.674 200.519 277.717 202.474 277.154 204.324L277.126 204.418C276.563 206.267 274.607 207.31 272.758 206.747C270.909 206.184 269.866 204.229 270.429 202.38L270.458 202.285C271.02 200.436 272.976 199.393 274.825 199.956ZM269.053 218.921C270.902 219.483 271.945 221.439 271.382 223.288L271.353 223.382C270.79 225.232 268.835 226.274 266.986 225.712C265.136 225.149 264.094 223.193 264.656 221.344L264.685 221.25C265.248 219.4 267.203 218.358 269.053 218.921ZM263.28 237.885C265.129 238.448 266.172 240.403 265.609 242.253L265.581 242.347C265.018 244.196 263.062 245.239 261.213 244.676C259.364 244.113 258.321 242.158 258.884 240.309L258.913 240.214C259.475 238.365 261.431 237.322 263.28 237.885ZM257.508 256.85C259.357 257.412 260.4 259.368 259.837 261.217L259.808 261.311C259.245 263.161 257.29 264.203 255.441 263.641C253.591 263.078 252.549 261.122 253.111 259.273L253.14 259.179C253.703 257.329 255.658 256.287 257.508 256.85ZM251.735 275.814C253.584 276.377 254.627 278.332 254.064 280.182L254.036 280.276C253.473 282.125 251.517 283.168 249.668 282.605C247.819 282.042 246.776 280.087 247.339 278.238L247.368 278.143C247.931 276.294 249.886 275.251 251.735 275.814ZM245.963 294.779C247.812 295.341 248.855 297.297 248.292 299.146L248.263 299.24C247.7 301.09 245.745 302.132 243.896 301.57C242.046 301.007 241.004 299.051 241.566 297.202L241.595 297.108C242.158 295.258 244.113 294.216 245.963 294.779ZM240.19 313.743C242.039 314.306 243.082 316.261 242.519 318.11L242.505 318.158C241.942 320.007 239.987 321.05 238.138 320.487C236.288 319.924 235.246 317.969 235.808 316.119L235.823 316.072C236.386 314.223 238.341 313.18 240.19 313.743Z" fill="#FFF0DF"/>
<path fill-rule="evenodd" clip-rule="evenodd" d="M312.478 -16.468C314.327 -15.9051 315.37 -13.9497 314.807 -12.1005L314.793 -12.0533C314.23 -10.2041 312.274 -9.16129 310.425 -9.72417C308.576 -10.287 307.533 -12.2424 308.096 -14.0917L308.11 -14.1388C308.673 -15.9881 310.629 -17.0309 312.478 -16.468ZM306.72 2.4493C308.569 3.01218 309.612 4.96757 309.049 6.8168L309.02 6.91115C308.457 8.76038 306.502 9.80318 304.653 9.2403C302.804 8.67743 301.761 6.72203 302.324 4.8728L302.352 4.77845C302.915 2.92922 304.871 1.88643 306.72 2.4493ZM300.947 21.4138C302.797 21.9766 303.839 23.932 303.276 25.7813L303.248 25.8756C302.685 27.7248 300.73 28.7676 298.88 28.2048C297.031 27.6419 295.988 25.6865 296.551 23.8373L296.58 23.7429C297.143 21.8937 299.098 20.8509 300.947 21.4138ZM295.175 40.3782C297.024 40.9411 298.067 42.8965 297.504 44.7457L297.475 44.8401C296.912 46.6893 294.957 47.7321 293.108 47.1692C291.259 46.6064 290.216 44.651 290.779 42.8017L290.807 42.7074C291.37 40.8582 293.326 39.8154 295.175 40.3782ZM289.402 59.3427C291.252 59.9056 292.294 61.861 291.732 63.7102L291.703 63.8046C291.14 65.6538 289.185 66.6966 287.335 66.1337C285.486 65.5708 284.443 63.6154 285.006 61.7662L285.035 61.6719C285.598 59.8226 287.553 58.7798 289.402 59.3427ZM283.63 78.3072C285.479 78.87 286.522 80.8255 285.959 82.6747L285.93 82.769C285.367 84.6183 283.412 85.661 281.563 85.0982C279.714 84.5353 278.671 82.5799 279.234 80.7307L279.262 80.6363C279.825 78.7871 281.781 77.7443 283.63 78.3072ZM277.857 97.2716C279.707 97.8345 280.749 99.7899 280.187 101.639L280.158 101.733C279.595 103.583 277.64 104.626 275.79 104.063C273.941 103.5 272.898 101.544 273.461 99.6951L273.49 99.6008C274.053 97.7516 276.008 96.7088 277.857 97.2716ZM272.085 116.236C273.934 116.799 274.977 118.754 274.414 120.604L274.385 120.698C273.823 122.547 271.867 123.59 270.018 123.027C268.169 122.464 267.126 120.509 267.689 118.66L267.717 118.565C268.28 116.716 270.236 115.673 272.085 116.236ZM266.313 135.201C268.162 135.763 269.205 137.719 268.642 139.568L268.613 139.662C268.05 141.512 266.095 142.554 264.245 141.992C262.396 141.429 261.353 139.473 261.916 137.624L261.945 137.53C262.508 135.68 264.463 134.638 266.313 135.201ZM260.54 154.165C262.389 154.728 263.432 156.683 262.869 158.533L262.84 158.627C262.278 160.476 260.322 161.519 258.473 160.956C256.624 160.393 255.581 158.438 256.144 156.589L256.173 156.494C256.735 154.645 258.691 153.602 260.54 154.165ZM254.768 173.129C256.617 173.692 257.66 175.648 257.097 177.497L257.068 177.591C256.505 179.441 254.55 180.483 252.701 179.92C250.851 179.358 249.808 177.402 250.371 175.553L250.4 175.459C250.963 173.609 252.918 172.567 254.768 173.129ZM248.995 192.094C250.844 192.657 251.887 194.612 251.324 196.461L251.296 196.556C250.733 198.405 248.777 199.448 246.928 198.885C245.079 198.322 244.036 196.367 244.599 194.517L244.628 194.423C245.19 192.574 247.146 191.531 248.995 192.094ZM243.223 211.058C245.072 211.621 246.115 213.577 245.552 215.426L245.523 215.52C244.96 217.369 243.005 218.412 241.156 217.849C239.306 217.286 238.264 215.331 238.826 213.482L238.855 213.388C239.418 211.538 241.373 210.496 243.223 211.058ZM237.45 230.023C239.299 230.586 240.342 232.541 239.779 234.39L239.751 234.485C239.188 236.334 237.232 237.377 235.383 236.814C233.534 236.251 232.491 234.296 233.054 232.446L233.083 232.352C233.646 230.503 235.601 229.46 237.45 230.023ZM231.678 248.987C233.527 249.55 234.57 251.506 234.007 253.355L233.978 253.449C233.415 255.298 231.46 256.341 229.611 255.778C227.761 255.215 226.719 253.26 227.281 251.411L227.31 251.316C227.873 249.467 229.829 248.424 231.678 248.987ZM225.905 267.952C227.754 268.515 228.797 270.47 228.234 272.319L228.206 272.414C227.643 274.263 225.687 275.306 223.838 274.743C221.989 274.18 220.946 272.225 221.509 270.375L221.538 270.281C222.101 268.432 224.056 267.389 225.905 267.952ZM220.133 286.916C221.982 287.479 223.025 289.435 222.462 291.284L222.433 291.378C221.87 293.227 219.915 294.27 218.066 293.707C216.216 293.144 215.174 291.189 215.737 289.34L215.765 289.245C216.328 287.396 218.284 286.353 220.133 286.916ZM214.36 305.881C216.21 306.444 217.252 308.399 216.689 310.248L216.675 310.295C216.112 312.145 214.157 313.187 212.308 312.625C210.458 312.062 209.416 310.106 209.978 308.257L209.993 308.21C210.556 306.361 212.511 305.318 214.36 305.881Z" fill="#FFF0DF"/>
<path fill-rule="evenodd" clip-rule="evenodd" d="M286.648 -24.3302C288.497 -23.7673 289.54 -21.8119 288.977 -19.9627L288.963 -19.9155C288.4 -18.0663 286.445 -17.0235 284.595 -17.5864C282.746 -18.1492 281.703 -20.1046 282.266 -21.9539L282.28 -22.001C282.843 -23.8503 284.799 -24.8931 286.648 -24.3302ZM280.89 -5.4129C282.739 -4.85003 283.782 -2.89463 283.219 -1.0454L283.19 -0.951057C282.627 0.898172 280.672 1.94097 278.823 1.3781C276.974 0.815223 275.931 -1.14017 276.494 -2.9894L276.522 -3.08376C277.085 -4.93298 279.041 -5.97578 280.89 -5.4129ZM275.117 13.5516C276.967 14.1144 278.009 16.0698 277.447 17.9191L277.418 18.0134C276.855 19.8626 274.9 20.9054 273.05 20.3426C271.201 19.7797 270.158 17.8243 270.721 15.9751L270.75 15.8807C271.313 14.0315 273.268 12.9887 275.117 13.5516ZM269.345 32.516C271.194 33.0789 272.237 35.0343 271.674 36.8835L271.645 36.9779C271.082 38.8271 269.127 39.8699 267.278 39.307C265.429 38.7442 264.386 36.7888 264.949 34.9395L264.977 34.8452C265.54 32.996 267.496 31.9532 269.345 32.516ZM263.572 51.4805C265.422 52.0434 266.464 53.9988 265.902 55.848L265.873 55.9424C265.31 57.7916 263.355 58.8344 261.505 58.2715C259.656 57.7086 258.613 55.7532 259.176 53.904L259.205 53.8096C259.768 51.9604 261.723 50.9176 263.572 51.4805ZM257.8 70.445C259.649 71.0079 260.692 72.9632 260.129 74.8125L260.1 74.9068C259.538 76.7561 257.582 77.7989 255.733 77.236C253.884 76.6731 252.841 74.7177 253.404 72.8685L253.432 72.7741C253.995 70.9249 255.951 69.8821 257.8 70.445ZM252.028 89.4094C253.877 89.9723 254.92 91.9277 254.357 93.7769L254.328 93.8713C253.765 95.7205 251.81 96.7633 249.96 96.2004C248.111 95.6376 247.068 93.6822 247.631 91.8329L247.66 91.7386C248.223 89.8894 250.178 88.8466 252.028 89.4094ZM246.255 108.374C248.104 108.937 249.147 110.892 248.584 112.741L248.555 112.836C247.993 114.685 246.037 115.728 244.188 115.165C242.339 114.602 241.296 112.647 241.859 110.797L241.888 110.703C242.45 108.854 244.406 107.811 246.255 108.374ZM240.483 127.338C242.332 127.901 243.375 129.857 242.812 131.706L242.783 131.8C242.22 133.649 240.265 134.692 238.416 134.129C236.566 133.566 235.523 131.611 236.086 129.762L236.115 129.668C236.678 127.818 238.633 126.775 240.483 127.338ZM234.71 146.303C236.559 146.866 237.602 148.821 237.039 150.67L237.011 150.765C236.448 152.614 234.492 153.657 232.643 153.094C230.794 152.531 229.751 150.576 230.314 148.726L230.343 148.632C230.905 146.783 232.861 145.74 234.71 146.303ZM228.938 165.267C230.787 165.83 231.83 167.786 231.267 169.635L231.238 169.729C230.675 171.578 228.72 172.621 226.871 172.058C225.021 171.495 223.979 169.54 224.541 167.691L224.57 167.596C225.133 165.747 227.088 164.704 228.938 165.267ZM223.165 184.232C225.014 184.795 226.057 186.75 225.494 188.599L225.466 188.694C224.903 190.543 222.947 191.586 221.098 191.023C219.249 190.46 218.206 188.504 218.769 186.655L218.798 186.561C219.361 184.712 221.316 183.669 223.165 184.232ZM217.393 203.196C219.242 203.759 220.285 205.714 219.722 207.564L219.693 207.658C219.13 209.507 217.175 210.55 215.326 209.987C213.476 209.424 212.434 207.469 212.997 205.62L213.025 205.525C213.588 203.676 215.544 202.633 217.393 203.196ZM211.62 222.161C213.469 222.724 214.512 224.679 213.949 226.528L213.921 226.622C213.358 228.472 211.402 229.515 209.553 228.952C207.704 228.389 206.661 226.433 207.224 224.584L207.253 224.49C207.816 222.641 209.771 221.598 211.62 222.161ZM205.848 241.125C207.697 241.688 208.74 243.643 208.177 245.493L208.148 245.587C207.585 247.436 205.63 248.479 203.781 247.916C201.932 247.353 200.889 245.398 201.452 243.549L201.48 243.454C202.043 241.605 203.999 240.562 205.848 241.125ZM200.075 260.09C201.925 260.652 202.967 262.608 202.404 264.457L202.376 264.551C201.813 266.401 199.857 267.443 198.008 266.881C196.159 266.318 195.116 264.362 195.679 262.513L195.708 262.419C196.271 260.57 198.226 259.527 200.075 260.09ZM194.303 279.054C196.152 279.617 197.195 281.572 196.632 283.422L196.603 283.516C196.04 285.365 194.085 286.408 192.236 285.845C190.387 285.282 189.344 283.327 189.907 281.478L189.935 281.383C190.498 279.534 192.454 278.491 194.303 279.054ZM188.53 298.019C190.38 298.581 191.422 300.537 190.86 302.386L190.845 302.433C190.282 304.282 188.327 305.325 186.478 304.762C184.628 304.199 183.586 302.244 184.149 300.395L184.163 300.348C184.726 298.498 186.681 297.456 188.53 298.019Z" fill="#FFF0DF"/>
<path fill-rule="evenodd" clip-rule="evenodd" d="M260.818 -32.1924C262.667 -31.6295 263.71 -29.6741 263.147 -27.8249L263.133 -27.7777C262.57 -25.9285 260.615 -24.8857 258.765 -25.4486C256.916 -26.0114 255.873 -27.9668 256.436 -29.8161L256.451 -29.8633C257.013 -31.7125 258.969 -32.7553 260.818 -32.1924ZM255.06 -13.2751C256.909 -12.7122 257.952 -10.7568 257.389 -8.90761L257.36 -8.81326C256.797 -6.96403 254.842 -5.92123 252.993 -6.48411C251.144 -7.04698 250.101 -9.00238 250.664 -10.8516L250.692 -10.946C251.255 -12.7952 253.211 -13.838 255.06 -13.2751ZM249.287 5.68935C251.137 6.25223 252.179 8.20763 251.617 10.0569L251.588 10.1512C251.025 12.0004 249.07 13.0432 247.22 12.4804C245.371 11.9175 244.328 9.96209 244.891 8.11286L244.92 8.01851C245.483 6.16928 247.438 5.12648 249.287 5.68935ZM243.515 24.6538C245.364 25.2167 246.407 27.1721 245.844 29.0213L245.815 29.1157C245.253 30.9649 243.297 32.0077 241.448 31.4448C239.599 30.8819 238.556 28.9266 239.119 27.0773L239.147 26.983C239.71 25.1337 241.666 24.0909 243.515 24.6538ZM237.743 43.6183C239.592 44.1812 240.635 46.1366 240.072 47.9858L240.043 48.0801C239.48 49.9294 237.525 50.9722 235.675 50.4093C233.826 49.8464 232.783 47.891 233.346 46.0418L233.375 45.9474C233.938 44.0982 235.893 43.0554 237.743 43.6183ZM231.97 62.5828C233.819 63.1456 234.862 65.101 234.299 66.9503L234.27 67.0446C233.708 68.8938 231.752 69.9367 229.903 69.3738C228.054 68.8109 227.011 66.8555 227.574 65.0063L227.603 64.9119C228.165 63.0627 230.121 62.0199 231.97 62.5828ZM226.198 81.5472C228.047 82.1101 229.09 84.0655 228.527 85.9147L228.498 86.0091C227.935 87.8583 225.98 88.9011 224.131 88.3382C222.281 87.7754 221.238 85.82 221.801 83.9707L221.83 83.8764C222.393 82.0272 224.348 80.9844 226.198 81.5472ZM220.425 100.512C222.274 101.075 223.317 103.03 222.754 104.879L222.726 104.974C222.163 106.823 220.207 107.866 218.358 107.303C216.509 106.74 215.466 104.784 216.029 102.935L216.058 102.841C216.62 100.992 218.576 99.9488 220.425 100.512ZM214.653 119.476C216.502 120.039 217.545 121.994 216.982 123.844L216.953 123.938C216.39 125.787 214.435 126.83 212.586 126.267C210.736 125.704 209.694 123.749 210.256 121.9L210.285 121.805C210.848 119.956 212.803 118.913 214.653 119.476ZM208.88 138.441C210.729 139.003 211.772 140.959 211.209 142.808L211.181 142.902C210.618 144.752 208.662 145.794 206.813 145.232C204.964 144.669 203.921 142.713 204.484 140.864L204.513 140.77C205.076 138.921 207.031 137.878 208.88 138.441ZM203.108 157.405C204.957 157.968 206 159.923 205.437 161.773L205.408 161.867C204.845 163.716 202.89 164.759 201.041 164.196C199.191 163.633 198.149 161.678 198.711 159.829L198.74 159.734C199.303 157.885 201.258 156.842 203.108 157.405ZM197.335 176.37C199.184 176.932 200.227 178.888 199.664 180.737L199.636 180.831C199.073 182.681 197.117 183.723 195.268 183.16C193.419 182.598 192.376 180.642 192.939 178.793L192.968 178.699C193.531 176.849 195.486 175.807 197.335 176.37ZM191.563 195.334C193.412 195.897 194.455 197.852 193.892 199.701L193.863 199.796C193.3 201.645 191.345 202.688 189.496 202.125C187.646 201.562 186.604 199.607 187.167 197.757L187.195 197.663C187.758 195.814 189.714 194.771 191.563 195.334ZM185.79 214.298C187.64 214.861 188.682 216.817 188.119 218.666L188.091 218.76C187.528 220.61 185.572 221.652 183.723 221.089C181.874 220.527 180.831 218.571 181.394 216.722L181.423 216.628C181.986 214.778 183.941 213.736 185.79 214.298ZM180.018 233.263C181.867 233.826 182.91 235.781 182.347 237.63L182.318 237.725C181.755 239.574 179.8 240.617 177.951 240.054C176.102 239.491 175.059 237.536 175.622 235.686L175.65 235.592C176.213 233.743 178.169 232.7 180.018 233.263ZM174.245 252.227C176.095 252.79 177.137 254.746 176.575 256.595L176.546 256.689C175.983 258.539 174.028 259.581 172.178 259.018C170.329 258.456 169.286 256.5 169.849 254.651L169.878 254.557C170.441 252.707 172.396 251.665 174.245 252.227ZM168.473 271.192C170.322 271.755 171.365 273.71 170.802 275.559L170.773 275.654C170.21 277.503 168.255 278.546 166.406 277.983C164.557 277.42 163.514 275.465 164.077 273.615L164.105 273.521C164.668 271.672 166.624 270.629 168.473 271.192ZM162.7 290.156C164.55 290.719 165.592 292.675 165.03 294.524L165.015 294.571C164.452 296.42 162.497 297.463 160.648 296.9C158.799 296.337 157.756 294.382 158.319 292.533L158.333 292.486C158.896 290.636 160.851 289.593 162.7 290.156Z" fill="#FFF0DF"/>
<path fill-rule="evenodd" clip-rule="evenodd" d="M234.988 -40.0546C236.837 -39.4917 237.88 -37.5363 237.317 -35.6871L237.303 -35.6399C236.74 -33.7907 234.785 -32.7479 232.935 -33.3108C231.086 -33.8737 230.043 -35.829 230.606 -37.6783L230.621 -37.7255C231.183 -39.5747 233.139 -40.6175 234.988 -40.0546ZM229.23 -21.1373C231.079 -20.5744 232.122 -18.619 231.559 -16.7698L231.53 -16.6755C230.968 -14.8262 229.012 -13.7834 227.163 -14.3463C225.314 -14.9092 224.271 -16.8646 224.834 -18.7138L224.862 -18.8082C225.425 -20.6574 227.381 -21.7002 229.23 -21.1373ZM223.458 -2.17284C225.307 -1.60997 226.35 0.345429 225.787 2.19466L225.758 2.289C225.195 4.13823 223.24 5.18103 221.39 4.61816C219.541 4.05528 218.498 2.09988 219.061 0.250656L219.09 0.156303C219.653 -1.69292 221.608 -2.73572 223.458 -2.17284ZM217.685 16.7916C219.534 17.3545 220.577 19.3099 220.014 21.1591L219.985 21.2535C219.423 23.1027 217.467 24.1455 215.618 23.5826C213.769 23.0198 212.726 21.0643 213.289 19.2151L213.318 19.1208C213.88 17.2715 215.836 16.2287 217.685 16.7916ZM211.913 35.7561C213.762 36.319 214.805 38.2744 214.242 40.1236L214.213 40.2179C213.65 42.0672 211.695 43.11 209.846 42.5471C207.996 41.9842 206.953 40.0288 207.516 38.1796L207.545 38.0852C208.108 36.236 210.063 35.1932 211.913 35.7561ZM206.14 54.7206C207.989 55.2834 209.032 57.2388 208.469 59.0881L208.441 59.1824C207.878 61.0316 205.922 62.0744 204.073 61.5116C202.224 60.9487 201.181 58.9933 201.744 57.1441L201.773 57.0497C202.335 55.2005 204.291 54.1577 206.14 54.7206ZM200.368 73.685C202.217 74.2479 203.26 76.2033 202.697 78.0525L202.668 78.1469C202.105 79.9961 200.15 81.0389 198.301 80.476C196.451 79.9132 195.409 77.9578 195.971 76.1085L196 76.0142C196.563 74.1649 198.518 73.1222 200.368 73.685ZM194.595 92.6495C196.444 93.2124 197.487 95.1678 196.924 97.017L196.896 97.1113C196.333 98.9606 194.377 100.003 192.528 99.4405C190.679 98.8776 189.636 96.9222 190.199 95.073L190.228 94.9787C190.791 93.1294 192.746 92.0866 194.595 92.6495ZM188.823 111.614C190.672 112.177 191.715 114.132 191.152 115.981L191.123 116.076C190.56 117.925 188.605 118.968 186.756 118.405C184.906 117.842 183.864 115.887 184.426 114.037L184.455 113.943C185.018 112.094 186.973 111.051 188.823 111.614ZM183.05 130.578C184.899 131.141 185.942 133.097 185.379 134.946L185.351 135.04C184.788 136.889 182.832 137.932 180.983 137.369C179.134 136.807 178.091 134.851 178.654 133.002L178.683 132.908C179.246 131.058 181.201 130.016 183.05 130.578ZM177.278 149.543C179.127 150.106 180.17 152.061 179.607 153.91L179.578 154.005C179.015 155.854 177.06 156.897 175.211 156.334C173.361 155.771 172.319 153.816 172.882 151.966L172.91 151.872C173.473 150.023 175.429 148.98 177.278 149.543ZM171.505 168.507C173.355 169.07 174.397 171.026 173.834 172.875L173.806 172.969C173.243 174.818 171.287 175.861 169.438 175.298C167.589 174.735 166.546 172.78 167.109 170.931L167.138 170.836C167.701 168.987 169.656 167.944 171.505 168.507ZM165.733 187.472C167.582 188.035 168.625 189.99 168.062 191.839L168.033 191.934C167.47 193.783 165.515 194.826 163.666 194.263C161.817 193.7 160.774 191.744 161.337 189.895L161.365 189.801C161.928 187.952 163.884 186.909 165.733 187.472ZM159.96 206.436C161.81 206.999 162.852 208.955 162.29 210.804L162.261 210.898C161.698 212.747 159.743 213.79 157.893 213.227C156.044 212.664 155.001 210.709 155.564 208.86L155.593 208.765C156.156 206.916 158.111 205.873 159.96 206.436ZM154.188 225.401C156.037 225.964 157.08 227.919 156.517 229.768L156.488 229.863C155.925 231.712 153.97 232.755 152.121 232.192C150.272 231.629 149.229 229.673 149.792 227.824L149.82 227.73C150.383 225.881 152.339 224.838 154.188 225.401ZM148.415 244.365C150.265 244.928 151.307 246.883 150.745 248.733L150.716 248.827C150.153 250.676 148.198 251.719 146.348 251.156C144.499 250.593 143.456 248.638 144.019 246.789L144.048 246.694C144.611 244.845 146.566 243.802 148.415 244.365ZM142.643 263.33C144.492 263.893 145.535 265.848 144.972 267.697L144.943 267.792C144.381 269.641 142.425 270.684 140.576 270.121C138.727 269.558 137.684 267.602 138.247 265.753L138.275 265.659C138.838 263.81 140.794 262.767 142.643 263.33ZM136.87 282.294C138.72 282.857 139.763 284.812 139.2 286.662L139.185 286.709C138.622 288.558 136.667 289.601 134.818 289.038C132.969 288.475 131.926 286.52 132.489 284.67L132.503 284.623C133.066 282.774 135.021 281.731 136.87 282.294Z" fill="#FFF0DF"/>
<path fill-rule="evenodd" clip-rule="evenodd" d="M209.158 -47.9168C211.007 -47.3539 212.05 -45.3985 211.487 -43.5493L211.473 -43.5021C210.91 -41.6529 208.955 -40.6101 207.105 -41.173C205.256 -41.7359 204.213 -43.6913 204.776 -45.5405L204.791 -45.5877C205.354 -47.4369 207.309 -48.4797 209.158 -47.9168ZM203.4 -28.9995C205.249 -28.4366 206.292 -26.4812 205.729 -24.632L205.7 -24.5377C205.138 -22.6884 203.182 -21.6456 201.333 -22.2085C199.484 -22.7714 198.441 -24.7268 199.004 -26.576L199.033 -26.6704C199.595 -28.5196 201.551 -29.5624 203.4 -28.9995ZM197.628 -10.035C199.477 -9.47217 200.52 -7.51678 199.957 -5.66755L199.928 -5.5732C199.365 -3.72397 197.41 -2.68117 195.561 -3.24405C193.711 -3.80692 192.668 -5.76232 193.231 -7.61155L193.26 -7.7059C193.823 -9.55513 195.778 -10.5979 197.628 -10.035ZM191.855 8.92942C193.704 9.4923 194.747 11.4477 194.184 13.2969L194.156 13.3913C193.593 15.2405 191.637 16.2833 189.788 15.7204C187.939 15.1575 186.896 13.2021 187.459 11.3529L187.488 11.2586C188.05 9.40934 190.006 8.36655 191.855 8.92942ZM186.083 27.8939C187.932 28.4568 188.975 30.4122 188.412 32.2614L188.383 32.3557C187.82 34.205 185.865 35.2478 184.016 34.6849C182.166 34.122 181.124 32.1666 181.686 30.3174L181.715 30.223C182.278 28.3738 184.233 27.331 186.083 27.8939ZM180.31 46.8584C182.159 47.4212 183.202 49.3766 182.639 51.2259L182.611 51.3202C182.048 53.1694 180.092 54.2122 178.243 53.6494C176.394 53.0865 175.351 51.1311 175.914 49.2819L175.943 49.1875C176.506 47.3383 178.461 46.2955 180.31 46.8584ZM174.538 65.8228C176.387 66.3857 177.43 68.3411 176.867 70.1903L176.838 70.2847C176.275 72.1339 174.32 73.1767 172.471 72.6138C170.621 72.051 169.579 70.0956 170.141 68.2463L170.17 68.152C170.733 66.3027 172.688 65.26 174.538 65.8228ZM168.765 84.7873C170.614 85.3502 171.657 87.3056 171.094 89.1548L171.066 89.2491C170.503 91.0984 168.547 92.1412 166.698 91.5783C164.849 91.0154 163.806 89.06 164.369 87.2108L164.398 87.1164C164.961 85.2672 166.916 84.2244 168.765 84.7873ZM162.993 103.752C164.842 104.315 165.885 106.27 165.322 108.119L165.293 108.214C164.73 110.063 162.775 111.106 160.926 110.543C159.076 109.98 158.034 108.024 158.597 106.175L158.625 106.081C159.188 104.232 161.144 103.189 162.993 103.752ZM157.22 122.716C159.07 123.279 160.112 125.234 159.549 127.084L159.521 127.178C158.958 129.027 157.002 130.07 155.153 129.507C153.304 128.944 152.261 126.989 152.824 125.14L152.853 125.045C153.416 123.196 155.371 122.153 157.22 122.716ZM151.448 141.681C153.297 142.244 154.34 144.199 153.777 146.048L153.748 146.142C153.185 147.992 151.23 149.035 149.381 148.472C147.532 147.909 146.489 145.953 147.052 144.104L147.08 144.01C147.643 142.161 149.599 141.118 151.448 141.681ZM145.675 160.645C147.525 161.208 148.567 163.163 148.005 165.013L147.976 165.107C147.413 166.956 145.458 167.999 143.608 167.436C141.759 166.873 140.716 164.918 141.279 163.069L141.308 162.974C141.871 161.125 143.826 160.082 145.675 160.645ZM139.903 179.61C141.752 180.172 142.795 182.128 142.232 183.977L142.203 184.071C141.64 185.921 139.685 186.963 137.836 186.401C135.987 185.838 134.944 183.882 135.507 182.033L135.535 181.939C136.098 180.089 138.054 179.047 139.903 179.61ZM134.13 198.574C135.98 199.137 137.022 201.092 136.46 202.942L136.431 203.036C135.868 204.885 133.913 205.928 132.063 205.365C130.214 204.802 129.171 202.847 129.734 200.998L129.763 200.903C130.326 199.054 132.281 198.011 134.13 198.574ZM128.358 217.539C130.207 218.101 131.25 220.057 130.687 221.906L130.658 222C130.096 223.85 128.14 224.892 126.291 224.33C124.442 223.767 123.399 221.811 123.962 219.962L123.99 219.868C124.553 218.018 126.509 216.976 128.358 217.539ZM122.585 236.503C124.435 237.066 125.478 239.021 124.915 240.87L124.886 240.965C124.323 242.814 122.368 243.857 120.518 243.294C118.669 242.731 117.626 240.776 118.189 238.927L118.218 238.832C118.781 236.983 120.736 235.94 122.585 236.503ZM116.813 255.467C118.662 256.03 119.705 257.986 119.142 259.835L119.113 259.929C118.551 261.779 116.595 262.821 114.746 262.258C112.897 261.696 111.854 259.74 112.417 257.891L112.446 257.797C113.008 255.947 114.964 254.905 116.813 255.467ZM111.041 274.432C112.89 274.995 113.933 276.95 113.37 278.799L113.355 278.847C112.792 280.696 110.837 281.739 108.988 281.176C107.139 280.613 106.096 278.657 106.659 276.808L106.673 276.761C107.236 274.912 109.191 273.869 111.041 274.432Z" fill="#FFF0DF"/>
<path fill-rule="evenodd" clip-rule="evenodd" d="M183.328 -55.779C185.177 -55.2161 186.22 -53.2607 185.657 -51.4115L185.643 -51.3643C185.08 -49.5151 183.125 -48.4723 181.276 -49.0352C179.426 -49.5981 178.383 -51.5535 178.946 -53.4027L178.961 -53.4499C179.524 -55.2991 181.479 -56.3419 183.328 -55.779ZM177.57 -36.8617C179.419 -36.2988 180.462 -34.3435 179.899 -32.4942L179.871 -32.3999C179.308 -30.5506 177.352 -29.5078 175.503 -30.0707C173.654 -30.6336 172.611 -32.589 173.174 -34.4382L173.203 -34.5326C173.765 -36.3818 175.721 -37.4246 177.57 -36.8617ZM171.798 -17.8973C173.647 -17.3344 174.69 -15.379 174.127 -13.5298L174.098 -13.4354C173.535 -11.5862 171.58 -10.5434 169.731 -11.1063C167.881 -11.6691 166.839 -13.6245 167.401 -15.4738L167.43 -15.5681C167.993 -17.4173 169.948 -18.4601 171.798 -17.8973ZM166.025 1.06721C167.874 1.63009 168.917 3.58549 168.354 5.43472L168.326 5.52906C167.763 7.37829 165.807 8.42109 163.958 7.85822C162.109 7.29534 161.066 5.33994 161.629 3.49072L161.658 3.39636C162.221 1.54713 164.176 0.50434 166.025 1.06721ZM160.253 20.0317C162.102 20.5946 163.145 22.55 162.582 24.3992L162.553 24.4935C161.99 26.3428 160.035 27.3856 158.186 26.8227C156.336 26.2598 155.294 24.3044 155.856 22.4552L155.885 22.3608C156.448 20.5116 158.403 19.4688 160.253 20.0317ZM154.48 38.9962C156.329 39.559 157.372 41.5144 156.809 43.3637L156.781 43.458C156.218 45.3072 154.262 46.35 152.413 45.7872C150.564 45.2243 149.521 43.2689 150.084 41.4197L150.113 41.3253C150.676 39.4761 152.631 38.4333 154.48 38.9962ZM148.708 57.9606C150.557 58.5235 151.6 60.4789 151.037 62.3281L151.008 62.4225C150.445 64.2717 148.49 65.3145 146.641 64.7516C144.791 64.1887 143.749 62.2334 144.312 60.3841L144.34 60.2898C144.903 58.4405 146.859 57.3977 148.708 57.9606ZM142.935 76.9251C144.785 77.488 145.827 79.4434 145.264 81.2926L145.236 81.3869C144.673 83.2362 142.717 84.279 140.868 83.7161C139.019 83.1532 137.976 81.1978 138.539 79.3486L138.568 79.2542C139.131 77.405 141.086 76.3622 142.935 76.9251ZM137.163 95.8895C139.012 96.4524 140.055 98.4078 139.492 100.257L139.463 100.351C138.9 102.201 136.945 103.243 135.096 102.681C133.247 102.118 132.204 100.162 132.767 98.313L132.795 98.2187C133.358 96.3695 135.314 95.3267 137.163 95.8895ZM131.39 114.854C133.24 115.417 134.282 117.372 133.72 119.221L133.691 119.316C133.128 121.165 131.173 122.208 129.323 121.645C127.474 121.082 126.431 119.127 126.994 117.277L127.023 117.183C127.586 115.334 129.541 114.291 131.39 114.854ZM125.618 133.818C127.467 134.381 128.51 136.337 127.947 138.186L127.918 138.28C127.355 140.13 125.4 141.172 123.551 140.609C121.702 140.047 120.659 138.091 121.222 136.242L121.25 136.148C121.813 134.298 123.769 133.256 125.618 133.818ZM119.845 152.783C121.695 153.346 122.737 155.301 122.175 157.15L122.146 157.245C121.583 159.094 119.628 160.137 117.778 159.574C115.929 159.011 114.886 157.056 115.449 155.206L115.478 155.112C116.041 153.263 117.996 152.22 119.845 152.783ZM114.073 171.747C115.922 172.31 116.965 174.266 116.402 176.115L116.373 176.209C115.811 178.058 113.855 179.101 112.006 178.538C110.157 177.975 109.114 176.02 109.677 174.171L109.705 174.077C110.268 172.227 112.224 171.184 114.073 171.747ZM108.301 190.712C110.15 191.275 111.193 193.23 110.63 195.079L110.601 195.174C110.038 197.023 108.083 198.066 106.233 197.503C104.384 196.94 103.341 194.985 103.904 193.135L103.933 193.041C104.496 191.192 106.451 190.149 108.301 190.712ZM102.528 209.676C104.377 210.239 105.42 212.195 104.857 214.044L104.828 214.138C104.266 215.987 102.31 217.03 100.461 216.467C98.6117 215.904 97.5689 213.949 98.1318 212.1L98.1605 212.005C98.7234 210.156 100.679 209.113 102.528 209.676ZM96.7556 228.641C98.6048 229.204 99.6476 231.159 99.0847 233.008L99.056 233.103C98.4931 234.952 96.5377 235.995 94.6885 235.432C92.8393 234.869 91.7964 232.914 92.3593 231.064L92.3881 230.97C92.9509 229.121 94.9063 228.078 96.7556 228.641ZM90.9831 247.605C92.8323 248.168 93.8751 250.124 93.3122 251.973L93.2835 252.067C92.7206 253.916 90.7652 254.959 88.916 254.396C87.0668 253.833 86.024 251.878 86.5869 250.029L86.6156 249.934C87.1785 248.085 89.1338 247.042 90.9831 247.605ZM85.2106 266.57C87.0598 267.133 88.1026 269.088 87.5398 270.937L87.5254 270.984C86.9625 272.834 85.0071 273.876 83.1579 273.314C81.3087 272.751 80.2659 270.795 80.8288 268.946L80.8431 268.899C81.406 267.05 83.3614 266.007 85.2106 266.57Z" fill="#FFF0DF"/>
<path fill-rule="evenodd" clip-rule="evenodd" d="M157.498 -63.6412C159.347 -63.0783 160.39 -61.1229 159.827 -59.2737L159.813 -59.2265C159.25 -57.3773 157.295 -56.3345 155.446 -56.8974C153.596 -57.4603 152.554 -59.4157 153.116 -61.2649L153.131 -61.3121C153.694 -63.1613 155.649 -64.2041 157.498 -63.6412ZM151.74 -44.7239C153.589 -44.161 154.632 -42.2057 154.069 -40.3564L154.041 -40.2621C153.478 -38.4128 151.522 -37.37 149.673 -37.9329C147.824 -38.4958 146.781 -40.4512 147.344 -42.3004L147.373 -42.3948C147.936 -44.244 149.891 -45.2868 151.74 -44.7239ZM145.968 -25.7595C147.817 -25.1966 148.86 -23.2412 148.297 -21.392L148.268 -21.2976C147.705 -19.4484 145.75 -18.4056 143.901 -18.9685C142.051 -19.5313 141.009 -21.4867 141.571 -23.336L141.6 -23.4303C142.163 -25.2795 144.118 -26.3223 145.968 -25.7595ZM140.195 -6.79499C142.044 -6.23212 143.087 -4.27672 142.524 -2.42749L142.496 -2.33315C141.933 -0.483918 139.977 0.558884 138.128 -0.00399017C136.279 -0.566865 135.236 -2.52226 135.799 -4.37149L135.828 -4.46584C136.391 -6.31506 138.346 -7.35787 140.195 -6.79499ZM134.423 12.1695C136.272 12.7324 137.315 14.6877 136.752 16.537L136.723 16.6313C136.16 18.4806 134.205 19.5234 132.356 18.9605C130.506 18.3976 129.464 16.4422 130.027 14.593L130.055 14.4986C130.618 12.6494 132.574 11.6066 134.423 12.1695ZM128.65 31.134C130.5 31.6968 131.542 33.6522 130.979 35.5014L130.951 35.5958C130.388 37.445 128.432 38.4878 126.583 37.925C124.734 37.3621 123.691 35.4067 124.254 33.5574L124.283 33.4631C124.846 31.6139 126.801 30.5711 128.65 31.134ZM122.878 50.0984C124.727 50.6613 125.77 52.6167 125.207 54.4659L125.178 54.5603C124.615 56.4095 122.66 57.4523 120.811 56.8894C118.962 56.3265 117.919 54.3711 118.482 52.5219L118.51 52.4276C119.073 50.5783 121.029 49.5355 122.878 50.0984ZM117.105 69.0629C118.955 69.6258 119.997 71.5812 119.434 73.4304L119.406 73.5247C118.843 75.374 116.888 76.4168 115.038 75.8539C113.189 75.291 112.146 73.3356 112.709 71.4864L112.738 71.392C113.301 69.5428 115.256 68.5 117.105 69.0629ZM111.333 88.0273C113.182 88.5902 114.225 90.5456 113.662 92.3948L113.633 92.4892C113.07 94.3384 111.115 95.3812 109.266 94.8183C107.417 94.2555 106.374 92.3001 106.937 90.4508L106.965 90.3565C107.528 88.5073 109.484 87.4645 111.333 88.0273ZM105.56 106.992C107.41 107.555 108.452 109.51 107.89 111.359L107.861 111.454C107.298 113.303 105.343 114.346 103.493 113.783C101.644 113.22 100.601 111.265 101.164 109.415L101.193 109.321C101.756 107.472 103.711 106.429 105.56 106.992ZM99.788 125.956C101.637 126.519 102.68 128.475 102.117 130.324L102.088 130.418C101.526 132.267 99.5701 133.31 97.7209 132.747C95.8717 132.184 94.8289 130.229 95.3917 128.38L95.4205 128.285C95.9833 126.436 97.9387 125.393 99.788 125.956ZM94.0155 144.921C95.8647 145.484 96.9075 147.439 96.3447 149.288L96.3159 149.383C95.7531 151.232 93.7977 152.275 91.9484 151.712C90.0992 151.149 89.0564 149.193 89.6193 147.344L89.648 147.25C90.2109 145.401 92.1663 144.358 94.0155 144.921ZM88.243 163.885C90.0923 164.448 91.135 166.403 90.5722 168.253L90.5435 168.347C89.9806 170.196 88.0252 171.239 86.176 170.676C84.3267 170.113 83.2839 168.158 83.8468 166.309L83.8755 166.214C84.4384 164.365 86.3938 163.322 88.243 163.885ZM82.4706 182.85C84.3198 183.412 85.3626 185.368 84.7997 187.217L84.771 187.311C84.2081 189.161 82.2527 190.203 80.4035 189.641C78.5543 189.078 77.5115 187.122 78.0743 185.273L78.1031 185.179C78.6659 183.33 80.6213 182.287 82.4706 182.85ZM76.6981 201.814C78.5473 202.377 79.5901 204.332 79.0272 206.182L78.9985 206.276C78.4356 208.125 76.4802 209.168 74.631 208.605C72.7818 208.042 71.739 206.087 72.3019 204.238L72.3306 204.143C72.8935 202.294 74.8489 201.251 76.6981 201.814ZM70.9256 220.779C72.7748 221.341 73.8176 223.297 73.2548 225.146L73.226 225.24C72.6632 227.09 70.7078 228.132 68.8586 227.57C67.0093 227.007 65.9665 225.051 66.5294 223.202L66.5581 223.108C67.121 221.258 69.0764 220.216 70.9256 220.779ZM65.1531 239.743C67.0024 240.306 68.0452 242.261 67.4823 244.111L67.4536 244.205C66.8907 246.054 64.9353 247.097 63.0861 246.534C61.2368 245.971 60.194 244.016 60.7569 242.167L60.7856 242.072C61.3485 240.223 63.3039 239.18 65.1531 239.743ZM59.3807 258.708C61.2299 259.27 62.2727 261.226 61.7098 263.075L61.6955 263.122C61.1326 264.971 59.1772 266.014 57.328 265.451C55.4787 264.888 54.4359 262.933 54.9988 261.084L55.0132 261.037C55.576 259.187 57.5314 258.145 59.3807 258.708Z" fill="#FFF0DF"/>
<path fill-rule="evenodd" clip-rule="evenodd" d="M131.668 -71.5034C133.518 -70.9405 134.56 -68.9852 133.997 -67.1359L133.983 -67.0887C133.42 -65.2395 131.465 -64.1967 129.616 -64.7596C127.766 -65.3225 126.724 -67.2779 127.286 -69.1271L127.301 -69.1743C127.864 -71.0235 129.819 -72.0663 131.668 -71.5034ZM125.91 -52.5861C127.759 -52.0233 128.802 -50.0679 128.239 -48.2186L128.211 -48.1243C127.648 -46.275 125.692 -45.2323 123.843 -45.7951C121.994 -46.358 120.951 -48.3134 121.514 -50.1626L121.543 -50.257C122.106 -52.1062 124.061 -53.149 125.91 -52.5861ZM120.138 -33.6217C121.987 -33.0588 123.03 -31.1034 122.467 -29.2542L122.438 -29.1598C121.875 -27.3106 119.92 -26.2678 118.071 -26.8307C116.221 -27.3935 115.179 -29.3489 115.742 -31.1982L115.77 -31.2925C116.333 -33.1417 118.289 -34.1845 120.138 -33.6217ZM114.365 -14.6572C116.215 -14.0943 117.257 -12.1389 116.694 -10.2897L116.666 -10.1953C116.103 -8.34612 114.147 -7.30331 112.298 -7.86619C110.449 -8.42906 109.406 -10.3845 109.969 -12.2337L109.998 -12.328C110.561 -14.1773 112.516 -15.2201 114.365 -14.6572ZM108.593 4.30727C110.442 4.87015 111.485 6.82554 110.922 8.67477L110.893 8.76913C110.33 10.6184 108.375 11.6611 106.526 11.0983C104.677 10.5354 103.634 8.58001 104.197 6.73077L104.225 6.63643C104.788 4.7872 106.744 3.7444 108.593 4.30727ZM102.82 23.2717C104.67 23.8346 105.712 25.79 105.149 27.6393L105.121 27.7336C104.558 29.5828 102.603 30.6256 100.753 30.0628C98.9041 29.4999 97.8613 27.5445 98.4241 25.6953L98.4529 25.6009C99.0157 23.7517 100.971 22.7089 102.82 23.2717ZM97.0479 42.2362C98.8971 42.7991 99.9399 44.7545 99.377 46.6037L99.3483 46.6981C98.7854 48.5473 96.83 49.5901 94.9808 49.0272C93.1316 48.4643 92.0888 46.5089 92.6517 44.6597L92.6804 44.5654C93.2432 42.7161 95.1987 41.6733 97.0479 42.2362ZM91.2754 61.2007C93.1246 61.7636 94.1674 63.7189 93.6046 65.5682L93.5759 65.6625C93.013 67.5118 91.0576 68.5545 89.2083 67.9917C87.3591 67.4288 86.3163 65.4734 86.8792 63.6242L86.9079 63.5298C87.4708 61.6806 89.4262 60.6378 91.2754 61.2007ZM85.5029 80.1651C87.3522 80.728 88.395 82.6834 87.8321 84.5326L87.8034 84.627C87.2405 86.4762 85.2851 87.519 83.4359 86.9561C81.5867 86.3933 80.5439 84.4379 81.1067 82.5886L81.1355 82.4943C81.6983 80.645 83.6537 79.6023 85.5029 80.1651ZM79.7305 99.1296C81.5797 99.6925 82.6225 101.648 82.0596 103.497L82.0309 103.591C81.468 105.441 79.5127 106.483 77.6634 105.921C75.8142 105.358 74.7714 103.402 75.3343 101.553L75.363 101.459C75.9259 99.6095 77.8813 98.5667 79.7305 99.1296ZM73.958 118.094C75.8073 118.657 76.85 120.612 76.2872 122.462L76.2585 122.556C75.6956 124.405 73.7402 125.448 71.8909 124.885C70.0417 124.322 68.9989 122.367 69.5618 120.518L69.5905 120.423C70.1534 118.574 72.1088 117.531 73.958 118.094ZM68.1855 137.058C70.0348 137.621 71.0776 139.577 70.5147 141.426L70.486 141.52C69.9231 143.37 67.9677 144.412 66.1185 143.849C64.2693 143.287 63.2265 141.331 63.7893 139.482L63.8181 139.388C64.3809 137.538 66.3363 136.496 68.1855 137.058ZM62.4131 156.023C64.2623 156.586 65.3051 158.541 64.7422 160.39L64.7135 160.485C64.1507 162.334 62.1953 163.377 60.346 162.814C58.4968 162.251 57.454 160.296 58.0169 158.446L58.0456 158.352C58.6085 156.503 60.5639 155.46 62.4131 156.023ZM56.6406 174.987C58.4899 175.55 59.5326 177.506 58.9698 179.355L58.9411 179.449C58.3782 181.299 56.4228 182.341 54.5735 181.778C52.7243 181.216 51.6815 179.26 52.2444 177.411L52.2731 177.317C52.836 175.467 54.7914 174.425 56.6406 174.987ZM50.8681 193.952C52.7174 194.515 53.7602 196.47 53.1973 198.319L53.1686 198.414C52.6057 200.263 50.6503 201.306 48.8011 200.743C46.9518 200.18 45.909 198.225 46.4719 196.375L46.5006 196.281C47.0635 194.432 49.0189 193.389 50.8681 193.952ZM45.0957 212.916C46.9449 213.479 47.9877 215.435 47.4248 217.284L47.3961 217.378C46.8332 219.227 44.8778 220.27 43.0286 219.707C41.1794 219.145 40.1366 217.189 40.6994 215.34L40.7282 215.246C41.2911 213.396 43.2464 212.354 45.0957 212.916ZM39.3232 231.881C41.1724 232.444 42.2152 234.399 41.6524 236.248L41.6236 236.343C41.0607 238.192 39.1054 239.235 37.2561 238.672C35.4069 238.109 34.3641 236.154 34.927 234.304L34.9557 234.21C35.5186 232.361 37.474 231.318 39.3232 231.881ZM33.5507 250.845C35.4 251.408 36.4428 253.364 35.8799 255.213L35.8655 255.26C35.3027 257.109 33.3473 258.152 31.498 257.589C29.6488 257.026 28.606 255.071 29.1689 253.222L29.1832 253.174C29.7461 251.325 31.7015 250.282 33.5507 250.845Z" fill="#FFF0DF"/>
<path fill-rule="evenodd" clip-rule="evenodd" d="M105.838 -79.3656C107.688 -78.8027 108.73 -76.8474 108.168 -74.9981L108.153 -74.9509C107.59 -73.1017 105.635 -72.0589 103.786 -72.6218C101.936 -73.1847 100.894 -75.1401 101.457 -76.9893L101.471 -77.0365C102.034 -78.8857 103.989 -79.9285 105.838 -79.3656ZM100.08 -60.4483C101.93 -59.8855 102.972 -57.9301 102.409 -56.0808L102.381 -55.9865C101.818 -54.1373 99.8624 -53.0945 98.0132 -53.6573C96.164 -54.2202 95.1212 -56.1756 95.6841 -58.0248L95.7128 -58.1192C96.2757 -59.9684 98.231 -61.0112 100.08 -60.4483ZM94.3078 -41.4839C96.157 -40.921 97.1998 -38.9656 96.637 -37.1164L96.6082 -37.022C96.0454 -35.1728 94.09 -34.13 92.2408 -34.6929C90.3915 -35.2557 89.3487 -37.2111 89.9116 -39.0604L89.9403 -39.1547C90.5032 -41.0039 92.4586 -42.0467 94.3078 -41.4839ZM88.5353 -22.5194C90.3846 -21.9565 91.4274 -20.0011 90.8645 -18.1519L90.8358 -18.0575C90.2729 -16.2083 88.3175 -15.1655 86.4683 -15.7284C84.619 -16.2913 83.5763 -18.2467 84.1391 -20.0959L84.1678 -20.1902C84.7307 -22.0395 86.6861 -23.0823 88.5353 -22.5194ZM82.7629 -3.55493C84.6121 -2.99206 85.6549 -1.03666 85.092 0.812569L85.0633 0.906921C84.5004 2.75615 82.545 3.79894 80.6958 3.23607C78.8466 2.67319 77.8038 0.717807 78.3667 -1.13142L78.3954 -1.22578C78.9582 -3.07501 80.9136 -4.11781 82.7629 -3.55493ZM76.9904 15.4095C78.8396 15.9724 79.8824 17.9278 79.3195 19.777L79.2908 19.8714C78.728 21.7206 76.7726 22.7634 74.9233 22.2005C73.0741 21.6377 72.0313 19.6823 72.5942 17.8331L72.6229 17.7387C73.1858 15.8895 75.1412 14.8467 76.9904 15.4095ZM71.2179 34.374C73.0672 34.9369 74.11 36.8923 73.5471 38.7415L73.5184 38.8359C72.9555 40.6851 71.0001 41.7279 69.1509 41.165C67.3016 40.6021 66.2588 38.6467 66.8217 36.7975L66.8504 36.7032C67.4133 34.8539 69.3687 33.8111 71.2179 34.374ZM65.4455 53.3385C67.2947 53.9013 68.3375 55.8567 67.7746 57.706L67.7459 57.8003C67.183 59.6496 65.2276 60.6923 63.3784 60.1295C61.5292 59.5666 60.4864 57.6112 61.0493 55.762L61.078 55.6676C61.6408 53.8184 63.5962 52.7756 65.4455 53.3385ZM59.673 72.3029C61.5222 72.8658 62.565 74.8212 62.0022 76.6704L61.9734 76.7648C61.4106 78.614 59.4552 79.6568 57.6059 79.0939C55.7567 78.531 54.7139 76.5757 55.2768 74.7264L55.3055 74.6321C55.8684 72.7828 57.8238 71.7401 59.673 72.3029ZM53.9005 91.2674C55.7498 91.8303 56.7926 93.7857 56.2297 95.6349L56.201 95.7292C55.6381 97.5785 53.6827 98.6213 51.8335 98.0584C49.9843 97.4955 48.9414 95.5401 49.5043 93.6909L49.533 93.5965C50.0959 91.7473 52.0513 90.7045 53.9005 91.2674ZM48.1281 110.232C49.9773 110.795 51.0201 112.75 50.4572 114.599L50.4285 114.694C49.8656 116.543 47.9102 117.586 46.061 117.023C44.2118 116.46 43.169 114.505 43.7319 112.655L43.7606 112.561C44.3235 110.712 46.2789 109.669 48.1281 110.232ZM42.3556 129.196C44.2049 129.759 45.2476 131.715 44.6848 133.564L44.6561 133.658C44.0932 135.507 42.1378 136.55 40.2886 135.987C38.4393 135.424 37.3965 133.469 37.9594 131.62L37.9881 131.525C38.551 129.676 40.5064 128.633 42.3556 129.196ZM36.5831 148.161C38.4324 148.724 39.4752 150.679 38.9123 152.528L38.8836 152.623C38.3207 154.472 36.3653 155.515 34.5161 154.952C32.6669 154.389 31.6241 152.433 32.1869 150.584L32.2157 150.49C32.7785 148.641 34.7339 147.598 36.5831 148.161ZM30.8107 167.125C32.6599 167.688 33.7027 169.643 33.1398 171.493L33.1111 171.587C32.5482 173.436 30.5928 174.479 28.7436 173.916C26.8944 173.353 25.8516 171.398 26.4145 169.549L26.4432 169.454C27.0061 167.605 28.9615 166.562 30.8107 167.125ZM25.0382 186.09C26.8874 186.653 27.9302 188.608 27.3674 190.457L27.3386 190.552C26.7758 192.401 24.8204 193.444 22.9711 192.881C21.1219 192.318 20.0791 190.362 20.642 188.513L20.6707 188.419C21.2336 186.57 23.189 185.527 25.0382 186.09ZM19.2657 205.054C21.115 205.617 22.1578 207.572 21.5949 209.422L21.5662 209.516C21.0033 211.365 19.0479 212.408 17.1987 211.845C15.3494 211.282 14.3066 209.327 14.8695 207.478L14.8982 207.383C15.4611 205.534 17.4165 204.491 19.2657 205.054ZM13.4933 224.019C15.3425 224.582 16.3853 226.537 15.8224 228.386L15.7937 228.481C15.2308 230.33 13.2754 231.373 11.4262 230.81C9.57696 230.247 8.53416 228.291 9.09704 226.442L9.12576 226.348C9.68864 224.499 11.644 223.456 13.4933 224.019ZM7.72079 242.983C9.57002 243.546 10.6128 245.501 10.0499 247.351L10.0356 247.398C9.47272 249.247 7.51732 250.29 5.66809 249.727C3.81886 249.164 2.77607 247.209 3.33894 245.359L3.35329 245.312C3.91617 243.463 5.87156 242.42 7.72079 242.983Z" fill="#FFF0DF"/>
<path fill-rule="evenodd" clip-rule="evenodd" d="M80.0085 -87.2278C81.8577 -86.665 82.9005 -84.7096 82.3376 -82.8603L82.3232 -82.8132C81.7604 -80.9639 79.805 -79.9211 77.9557 -80.484C76.1065 -81.0469 75.0637 -83.0023 75.6266 -84.8515L75.6409 -84.8987C76.2038 -86.7479 78.1592 -87.7907 80.0085 -87.2278ZM74.2503 -68.3105C76.0996 -67.7477 77.1424 -65.7923 76.5795 -63.943L76.5508 -63.8487C75.9879 -61.9995 74.0325 -60.9567 72.1833 -61.5195C70.334 -62.0824 69.2913 -64.0378 69.8541 -65.887L69.8828 -65.9814C70.4457 -67.8306 72.4011 -68.8734 74.2503 -68.3105ZM68.4779 -49.3461C70.3271 -48.7832 71.3699 -46.8278 70.807 -44.9786L70.7783 -44.8842C70.2154 -43.035 68.26 -41.9922 66.4108 -42.5551C64.5616 -43.1179 63.5188 -45.0733 64.0816 -46.9226L64.1104 -47.0169C64.6732 -48.8661 66.6286 -49.9089 68.4779 -49.3461ZM62.7054 -30.3816C64.5546 -29.8187 65.5974 -27.8633 65.0346 -26.0141L65.0058 -25.9198C64.443 -24.0705 62.4876 -23.0277 60.6383 -23.5906C58.7891 -24.1535 57.7463 -26.1089 58.3092 -27.9581L58.3379 -28.0525C58.9008 -29.9017 60.8562 -30.9445 62.7054 -30.3816ZM56.9329 -11.4171C58.7822 -10.8543 59.825 -8.89887 59.2621 -7.04964L59.2334 -6.95528C58.6705 -5.10605 56.7151 -4.06325 54.8659 -4.62613C53.0166 -5.189 51.9738 -7.1444 52.5367 -8.99363L52.5654 -9.08798C53.1283 -10.9372 55.0837 -11.98 56.9329 -11.4171ZM51.1605 7.54734C53.0097 8.11022 54.0525 10.0656 53.4896 11.9148L53.4609 12.0092C52.898 13.8584 50.9426 14.9012 49.0934 14.3383C47.2442 13.7755 46.2014 11.8201 46.7643 9.97084L46.793 9.8765C47.3558 8.02726 49.3112 6.98447 51.1605 7.54734ZM45.388 26.5118C47.2372 27.0747 48.28 29.0301 47.7171 30.8793L47.6884 30.9736C47.1256 32.8229 45.1702 33.8657 43.3209 33.3028C41.4717 32.7399 40.4289 30.7845 40.9918 28.9353L41.0205 28.841C41.5834 26.9917 43.5388 25.9489 45.388 26.5118ZM39.6155 45.4763C41.4648 46.0391 42.5076 47.9945 41.9447 49.8438L41.916 49.9381C41.3531 51.7873 39.3977 52.8301 37.5485 52.2673C35.6992 51.7044 34.6564 49.749 35.2193 47.8998L35.248 47.8054C35.8109 45.9562 37.7663 44.9134 39.6155 45.4763ZM33.8431 64.4407C35.6923 65.0036 36.7351 66.959 36.1722 68.8082L36.1435 68.9026C35.5806 70.7518 33.6252 71.7946 31.776 71.2317C29.9268 70.6688 28.884 68.7134 29.4469 66.8642L29.4756 66.7699C30.0384 64.9207 31.9938 63.8778 33.8431 64.4407ZM28.0706 83.4052C29.9198 83.9681 30.9626 85.9234 30.3997 87.7727L30.371 87.867C29.8082 89.7163 27.8528 90.759 26.0035 90.1962C24.1543 89.6333 23.1115 87.6779 23.6744 85.8287L23.7031 85.7343C24.266 83.8851 26.2214 82.8423 28.0706 83.4052ZM22.2981 102.37C24.1474 102.932 25.1902 104.888 24.6273 106.737L24.5986 106.831C24.0357 108.681 22.0803 109.724 20.2311 109.161C18.3818 108.598 17.339 106.642 17.9019 104.793L17.9306 104.699C18.4935 102.85 20.4489 101.807 22.2981 102.37ZM16.5257 121.334C18.3749 121.897 19.4177 123.852 18.8548 125.702L18.8261 125.796C18.2632 127.645 16.3078 128.688 14.4586 128.125C12.6094 127.562 11.5666 125.607 12.1295 123.758L12.1582 123.663C12.721 121.814 14.6764 120.771 16.5257 121.334ZM10.7532 140.299C12.6024 140.861 13.6452 142.817 13.0824 144.666L13.0536 144.76C12.4908 146.61 10.5354 147.652 8.68614 147.09C6.83691 146.527 5.79412 144.571 6.35699 142.722L6.38571 142.628C6.94859 140.778 8.90398 139.736 10.7532 140.299ZM4.98074 159.263C6.82997 159.826 7.87276 161.781 7.30989 163.63L7.28117 163.725C6.71829 165.574 4.7629 166.617 2.91367 166.054C1.06444 165.491 0.0216388 163.536 0.584518 161.687L0.613243 161.592C1.17611 159.743 3.13151 158.7 4.98074 159.263ZM-0.791733 178.227C1.0575 178.79 2.1003 180.746 1.53742 182.595L1.5087 182.689C0.945818 184.539 -1.00957 185.581 -2.8588 185.018C-4.70803 184.456 -5.75083 182.5 -5.18795 180.651L-5.15923 180.557C-4.59635 178.707 -2.64096 177.665 -0.791733 178.227ZM-6.5642 197.192C-4.71497 197.755 -3.67217 199.71 -4.23505 201.559L-4.26378 201.654C-4.82666 203.503 -6.78205 204.546 -8.63128 203.983C-10.4805 203.42 -11.5233 201.465 -10.9604 199.615L-10.9317 199.521C-10.3688 197.672 -8.41343 196.629 -6.5642 197.192ZM-12.3367 216.156C-10.4874 216.719 -9.44465 218.675 -10.0075 220.524L-10.0362 220.618C-10.5991 222.468 -12.5545 223.51 -14.4037 222.947C-16.253 222.385 -17.2958 220.429 -16.7329 218.58L-16.7042 218.486C-16.1413 216.636 -14.1859 215.594 -12.3367 216.156ZM-18.1092 235.121C-16.2599 235.684 -15.2171 237.639 -15.78 239.488L-15.7943 239.536C-16.3572 241.385 -18.3126 242.428 -20.1618 241.865C-22.0111 241.302 -23.0539 239.346 -22.491 237.497L-22.4767 237.45C-21.9138 235.601 -19.9584 234.558 -18.1092 235.121Z" fill="#FFF0DF"/>
<path fill-rule="evenodd" clip-rule="evenodd" d="M54.1785 -95.09C56.0277 -94.5272 57.0705 -92.5718 56.5077 -90.7225L56.4933 -90.6754C55.9304 -88.8261 53.975 -87.7833 52.1258 -88.3462C50.2766 -88.9091 49.2338 -90.8645 49.7966 -92.7137L49.811 -92.7609C50.3739 -94.6101 52.3293 -95.6529 54.1785 -95.09ZM48.4204 -76.1727C50.2696 -75.6099 51.3124 -73.6545 50.7496 -71.8052L50.7208 -71.7109C50.158 -69.8617 48.2026 -68.8189 46.3533 -69.3817C44.5041 -69.9446 43.4613 -71.9 44.0242 -73.7492L44.0529 -73.8436C44.6158 -75.6928 46.5712 -76.7356 48.4204 -76.1727ZM42.6479 -57.2083C44.4972 -56.6454 45.54 -54.69 44.9771 -52.8408L44.9484 -52.7464C44.3855 -50.8972 42.4301 -49.8544 40.5809 -50.4173C38.7316 -50.9801 37.6888 -52.9355 38.2517 -54.7848L38.2804 -54.8791C38.8433 -56.7284 40.7987 -57.7711 42.6479 -57.2083ZM36.8755 -38.2438C38.7247 -37.6809 39.7675 -35.7255 39.2046 -33.8763L39.1759 -33.782C38.613 -31.9327 36.6576 -30.8899 34.8084 -31.4528C32.9592 -32.0157 31.9164 -33.9711 32.4792 -35.8203L32.508 -35.9147C33.0708 -37.7639 35.0262 -38.8067 36.8755 -38.2438ZM31.103 -19.2793C32.9522 -18.7165 33.995 -16.7611 33.4321 -14.9118L33.4034 -14.8175C32.8406 -12.9683 30.8852 -11.9255 29.0359 -12.4883C27.1867 -13.0512 26.1439 -15.0066 26.7068 -16.8558L26.7355 -16.9502C27.2984 -18.7994 29.2538 -19.8422 31.103 -19.2793ZM25.3305 -0.314865C27.1798 0.24801 28.2226 2.2034 27.6597 4.05264L27.631 4.14699C27.0681 5.99621 25.1127 7.03902 23.2635 6.47614C21.4142 5.91327 20.3714 3.95787 20.9343 2.10864L20.963 2.01429C21.5259 0.165059 23.4813 -0.87774 25.3305 -0.314865ZM19.5581 18.6496C21.4073 19.2125 22.4501 21.1679 21.8872 23.0171L21.8585 23.1115C21.2956 24.9607 19.3402 26.0035 17.491 25.4406C15.6418 24.8777 14.599 22.9223 15.1618 21.0731L15.1906 20.9787C15.7534 19.1295 17.7088 18.0867 19.5581 18.6496ZM13.7856 37.6141C15.6348 38.1769 16.6776 40.1323 16.1147 41.9816L16.086 42.0759C15.5231 43.9251 13.5678 44.9679 11.7185 44.4051C9.86929 43.8422 8.8265 41.8868 9.38937 40.0376L9.41809 39.9432C9.98097 38.094 11.9364 37.0512 13.7856 37.6141ZM8.01313 56.5785C9.86236 57.1414 10.9052 59.0968 10.3423 60.946L10.3136 61.0404C9.75069 62.8896 7.79529 63.9324 5.94606 63.3695C4.09683 62.8066 3.05404 60.8512 3.61691 59.002L3.64563 58.9077C4.20851 57.0584 6.1639 56.0156 8.01313 56.5785ZM2.24066 75.543C4.08989 76.1058 5.13269 78.0612 4.56982 79.9105L4.5411 80.0048C3.97822 81.8541 2.02283 82.8968 0.173599 82.334C-1.67563 81.7711 -2.71843 79.8157 -2.15556 77.9665L-2.12684 77.8721C-1.56396 76.0229 0.391433 74.9801 2.24066 75.543ZM-3.5318 94.5074C-1.68257 95.0703 -0.639774 97.0257 -1.20264 98.8749L-1.23137 98.9693C-1.79424 100.818 -3.74964 101.861 -5.59887 101.298C-7.4481 100.736 -8.49089 98.7802 -7.92802 96.9309L-7.8993 96.8366C-7.33643 94.9873 -5.38103 93.9445 -3.5318 94.5074ZM-9.30427 113.472C-7.45504 114.035 -6.41224 115.99 -6.97511 117.839L-7.00383 117.934C-7.56671 119.783 -9.5221 120.826 -11.3713 120.263C-13.2206 119.7 -14.2634 117.745 -13.7005 115.895L-13.6718 115.801C-13.1089 113.952 -11.1535 112.909 -9.30427 113.472ZM-15.0767 132.436C-13.2275 132.999 -12.1847 134.955 -12.7476 136.804L-12.7763 136.898C-13.3392 138.747 -15.2946 139.79 -17.1438 139.227C-18.993 138.664 -20.0358 136.709 -19.4729 134.86L-19.4442 134.765C-18.8814 132.916 -16.926 131.873 -15.0767 132.436ZM-20.8492 151.401C-19 151.964 -17.9572 153.919 -18.5201 155.768L-18.5488 155.863C-19.1116 157.712 -21.067 158.755 -22.9163 158.192C-24.7655 157.629 -25.8083 155.674 -25.2454 153.824L-25.2167 153.73C-24.6538 151.881 -22.6984 150.838 -20.8492 151.401ZM-26.6217 170.365C-24.7724 170.928 -23.7296 172.884 -24.2925 174.733L-24.3212 174.827C-24.8841 176.676 -26.8395 177.719 -28.6887 177.156C-30.538 176.593 -31.5808 174.638 -31.0179 172.789L-30.9892 172.694C-30.4263 170.845 -28.4709 169.802 -26.6217 170.365ZM-32.3941 189.33C-30.5449 189.893 -29.5021 191.848 -30.065 193.697L-30.0937 193.792C-30.6566 195.641 -32.612 196.684 -34.4612 196.121C-36.3104 195.558 -37.3532 193.603 -36.7904 191.753L-36.7616 191.659C-36.1988 189.81 -34.2434 188.767 -32.3941 189.33ZM-38.1666 208.294C-36.3174 208.857 -35.2746 210.812 -35.8375 212.662L-35.8662 212.756C-36.4291 214.605 -38.3845 215.648 -40.2337 215.085C-42.0829 214.522 -43.1257 212.567 -42.5628 210.718L-42.5341 210.623C-41.9712 208.774 -40.0158 207.731 -38.1666 208.294ZM-43.9391 227.259C-42.0899 227.822 -41.0471 229.777 -41.6099 231.626L-41.6243 231.673C-42.1872 233.523 -44.1426 234.565 -45.9918 234.003C-47.841 233.44 -48.8838 231.484 -48.3209 229.635L-48.3066 229.588C-47.7437 227.739 -45.7883 226.696 -43.9391 227.259Z" fill="#FFF0DF"/>
<path fill-rule="evenodd" clip-rule="evenodd" d="M28.3486 -102.952C30.1978 -102.389 31.2406 -100.434 30.6777 -98.5847L30.6634 -98.5376C30.1005 -96.6883 28.1451 -95.6455 26.2959 -96.2084C24.4466 -96.7713 23.4038 -98.7267 23.9667 -100.576L23.9811 -100.623C24.5439 -102.472 26.4993 -103.515 28.3486 -102.952ZM22.5905 -84.0349C24.4397 -83.4721 25.4825 -81.5167 24.9196 -79.6674L24.8909 -79.5731C24.328 -77.7239 22.3726 -76.6811 20.5234 -77.2439C18.6742 -77.8068 17.6314 -79.7622 18.1942 -81.6114L18.223 -81.7058C18.7858 -83.555 20.7412 -84.5978 22.5905 -84.0349ZM16.818 -65.0705C18.6672 -64.5076 19.71 -62.5522 19.1471 -60.703L19.1184 -60.6086C18.5555 -58.7594 16.6002 -57.7166 14.7509 -58.2795C12.9017 -58.8424 11.8589 -60.7977 12.4218 -62.647L12.4505 -62.7413C13.0134 -64.5906 14.9688 -65.6334 16.818 -65.0705ZM11.0455 -46.106C12.8948 -45.5431 13.9376 -43.5877 13.3747 -41.7385L13.346 -41.6442C12.7831 -39.7949 10.8277 -38.7521 8.97845 -39.315C7.12923 -39.8779 6.08643 -41.8333 6.64931 -43.6825L6.67802 -43.7769C7.2409 -45.6261 9.1963 -46.6689 11.0455 -46.106ZM5.27306 -27.1415C7.12229 -26.5787 8.16509 -24.6233 7.60221 -22.774L7.57349 -22.6797C7.01061 -20.8305 5.05522 -19.7877 3.20599 -20.3505C1.35676 -20.9134 0.313964 -22.8688 0.876839 -24.718L0.905556 -24.8124C1.46843 -26.6616 3.42383 -27.7044 5.27306 -27.1415ZM-0.499413 -8.17706C1.34982 -7.61419 2.39261 -5.65879 1.82973 -3.80956L1.80102 -3.71522C1.23814 -1.86599 -0.717253 -0.823188 -2.56648 -1.38606C-4.41571 -1.94894 -5.4585 -3.90434 -4.89563 -5.75356L-4.86691 -5.84792C-4.30404 -7.69715 -2.34864 -8.73994 -0.499413 -8.17706ZM-6.27188 10.7874C-4.42265 11.3503 -3.37985 13.3057 -3.94273 15.1549L-3.97145 15.2492C-4.53433 17.0985 -6.48972 18.1413 -8.33895 17.5784C-10.1882 17.0155 -11.231 15.0601 -10.6681 13.2109L-10.6394 13.1165C-10.0765 11.2673 -8.12111 10.2245 -6.27188 10.7874ZM-12.0443 29.7519C-10.1951 30.3147 -9.15232 32.2701 -9.71519 34.1194L-9.74391 34.2137C-10.3068 36.0629 -12.2622 37.1057 -14.1114 36.5429C-15.9606 35.98 -17.0034 34.0246 -16.4406 32.1754L-16.4118 32.081C-15.849 30.2318 -13.8936 29.189 -12.0443 29.7519ZM-17.8168 48.7163C-15.9676 49.2792 -14.9248 51.2346 -15.4877 53.0838L-15.5164 53.1782C-16.0793 55.0274 -18.0347 56.0702 -19.8839 55.5073C-21.7331 54.9444 -22.7759 52.989 -22.213 51.1398L-22.1843 51.0455C-21.6214 49.1962 -19.666 48.1534 -17.8168 48.7163ZM-23.5893 67.6808C-21.74 68.2436 -20.6972 70.199 -21.2601 72.0483L-21.2888 72.1426C-21.8517 73.9918 -23.8071 75.0346 -25.6563 74.4718C-27.5056 73.9089 -28.5484 71.9535 -27.9855 70.1043L-27.9568 70.0099C-27.3939 68.1607 -25.4385 67.1179 -23.5893 67.6808ZM-29.3617 86.6452C-27.5125 87.2081 -26.4697 89.1635 -27.0326 91.0127L-27.0613 91.1071C-27.6242 92.9563 -29.5796 93.9991 -31.4288 93.4362C-33.278 92.8733 -34.3208 90.918 -33.758 89.0687L-33.7292 88.9744C-33.1664 87.1251 -31.211 86.0823 -29.3617 86.6452ZM-35.1342 105.61C-33.285 106.173 -32.2422 108.128 -32.8051 109.977L-32.8338 110.072C-33.3966 111.921 -35.352 112.964 -37.2013 112.401C-39.0505 111.838 -40.0933 109.882 -39.5304 108.033L-39.5017 107.939C-38.9388 106.09 -36.9834 105.047 -35.1342 105.61ZM-40.9067 124.574C-39.0574 125.137 -38.0146 127.092 -38.5775 128.942L-38.6062 129.036C-39.1691 130.885 -41.1245 131.928 -42.9737 131.365C-44.823 130.802 -45.8658 128.847 -45.3029 126.998L-45.2742 126.903C-44.7113 125.054 -42.7559 124.011 -40.9067 124.574ZM-46.6791 143.539C-44.8299 144.101 -43.7871 146.057 -44.35 147.906L-44.3787 148C-44.9416 149.85 -46.897 150.892 -48.7462 150.33C-50.5954 149.767 -51.6382 147.811 -51.0754 145.962L-51.0466 145.868C-50.4838 144.019 -48.5284 142.976 -46.6791 143.539ZM-52.4516 162.503C-50.6024 163.066 -49.5596 165.021 -50.1225 166.871L-50.1512 166.965C-50.7141 168.814 -52.6695 169.857 -54.5187 169.294C-56.3679 168.731 -57.4107 166.776 -56.8478 164.927L-56.8191 164.832C-56.2562 162.983 -54.3008 161.94 -52.4516 162.503ZM-58.2241 181.468C-56.3749 182.03 -55.3321 183.986 -55.8949 185.835L-55.9237 185.929C-56.4865 187.779 -58.4419 188.821 -60.2912 188.259C-62.1404 187.696 -63.1832 185.74 -62.6203 183.891L-62.5916 183.797C-62.0287 181.947 -60.0733 180.905 -58.2241 181.468ZM-63.9966 200.432C-62.1473 200.995 -61.1045 202.95 -61.6674 204.8L-61.6961 204.894C-62.259 206.743 -64.2144 207.786 -66.0636 207.223C-67.9129 206.66 -68.9557 204.705 -68.3928 202.856L-68.3641 202.761C-67.8012 200.912 -65.8458 199.869 -63.9966 200.432ZM-69.769 219.397C-67.9198 219.959 -66.877 221.915 -67.4399 223.764L-67.4542 223.811C-68.0171 225.66 -69.9725 226.703 -71.8217 226.14C-73.671 225.577 -74.7138 223.622 -74.1509 221.773L-74.1365 221.726C-73.5737 219.876 -71.6183 218.834 -69.769 219.397Z" fill="#FFF0DF"/>
<path fill-rule="evenodd" clip-rule="evenodd" d="M2.51863 -110.814C4.36786 -110.252 5.41065 -108.296 4.84778 -106.447L4.83342 -106.4C4.27055 -104.551 2.31515 -103.508 0.465919 -104.071C-1.38331 -104.633 -2.4261 -106.589 -1.86323 -108.438L-1.84887 -108.485C-1.28599 -110.335 0.669402 -111.377 2.51863 -110.814ZM-3.23948 -91.8971C-1.39025 -91.3343 -0.347449 -89.3789 -0.910324 -87.5296L-0.939049 -87.4353C-1.50192 -85.5861 -3.45732 -84.5433 -5.30655 -85.1061C-7.15578 -85.669 -8.19857 -87.6244 -7.6357 -89.4736L-7.60698 -89.568C-7.0441 -91.4172 -5.08871 -92.46 -3.23948 -91.8971ZM-9.01195 -72.9327C-7.16272 -72.3698 -6.11992 -70.4144 -6.68279 -68.5652L-6.71152 -68.4708C-7.27439 -66.6216 -9.22979 -65.5788 -11.079 -66.1417C-12.9282 -66.7046 -13.971 -68.66 -13.4082 -70.5092L-13.3794 -70.6035C-12.8166 -72.4528 -10.8612 -73.4956 -9.01195 -72.9327ZM-14.7844 -53.9682C-12.9352 -53.4053 -11.8924 -51.4499 -12.4553 -49.6007L-12.484 -49.5064C-13.0469 -47.6571 -15.0023 -46.6143 -16.8515 -47.1772C-18.7007 -47.7401 -19.7435 -49.6955 -19.1806 -51.5447L-19.1519 -51.6391C-18.589 -53.4883 -16.6336 -54.5311 -14.7844 -53.9682ZM-20.5569 -35.0037C-18.7077 -34.4409 -17.6649 -32.4855 -18.2277 -30.6362L-18.2565 -30.5419C-18.8193 -28.6927 -20.7747 -27.6499 -22.624 -28.2127C-24.4732 -28.7756 -25.516 -30.731 -24.9531 -32.5802L-24.9244 -32.6746C-24.3615 -34.5238 -22.4061 -35.5666 -20.5569 -35.0037ZM-26.3294 -16.0393C-24.4801 -15.4764 -23.4373 -13.521 -24.0002 -11.6718L-24.0289 -11.5774C-24.5918 -9.72819 -26.5472 -8.68539 -28.3964 -9.24827C-30.2457 -9.81114 -31.2884 -11.7665 -30.7256 -13.6158L-30.6969 -13.7101C-30.134 -15.5594 -28.1786 -16.6021 -26.3294 -16.0393ZM-32.1018 2.92519C-30.2526 3.48807 -29.2098 5.44346 -29.7727 7.29269L-29.8014 7.38704C-30.3643 9.23627 -32.3197 10.2791 -34.1689 9.71619C-36.0181 9.15332 -37.0609 7.19792 -36.498 5.34869L-36.4693 5.25434C-35.9064 3.40511 -33.9511 2.36232 -32.1018 2.92519ZM-37.8743 21.8897C-36.0251 22.4525 -34.9823 24.4079 -35.5451 26.2572L-35.5739 26.3515C-36.1367 28.2007 -38.0921 29.2435 -39.9414 28.6806C-41.7906 28.1178 -42.8334 26.1624 -42.2705 24.3132L-42.2418 24.2188C-41.6789 22.3696 -39.7235 21.3268 -37.8743 21.8897ZM-43.6468 40.8541C-41.7975 41.417 -40.7547 43.3724 -41.3176 45.2216L-41.3463 45.316C-41.9092 47.1652 -43.8646 48.208 -45.7138 47.6451C-47.563 47.0822 -48.6058 45.1268 -48.043 43.2776L-48.0143 43.1833C-47.4514 41.334 -45.496 40.2912 -43.6468 40.8541ZM-49.4192 59.8186C-47.57 60.3814 -46.5272 62.3368 -47.0901 64.1861L-47.1188 64.2804C-47.6817 66.1296 -49.6371 67.1724 -51.4863 66.6096C-53.3355 66.0467 -54.3783 64.0913 -53.8154 62.2421L-53.7867 62.1477C-53.2238 60.2985 -51.2684 59.2557 -49.4192 59.8186ZM-55.1917 78.783C-53.3424 79.3459 -52.2997 81.3013 -52.8625 83.1505L-52.8912 83.2449C-53.4541 85.0941 -55.4095 86.1369 -57.2587 85.574C-59.108 85.0111 -60.1508 83.0557 -59.5879 81.2065L-59.5592 81.1122C-58.9963 79.2629 -57.0409 78.2201 -55.1917 78.783ZM-60.9641 97.7475C-59.1149 98.3103 -58.0721 100.266 -58.635 102.115L-58.6637 102.209C-59.2266 104.059 -61.182 105.101 -63.0312 104.538C-64.8804 103.976 -65.9232 102.02 -65.3604 100.171L-65.3316 100.077C-64.7688 98.2274 -62.8134 97.1846 -60.9641 97.7475ZM-66.7366 116.712C-64.8874 117.275 -63.8446 119.23 -64.4075 121.079L-64.4362 121.174C-64.9991 123.023 -66.9544 124.066 -68.8037 123.503C-70.6529 122.94 -71.6957 120.985 -71.1328 119.135L-71.1041 119.041C-70.5412 117.192 -68.5858 116.149 -66.7366 116.712ZM-72.5091 135.676C-70.6598 136.239 -69.6171 138.195 -70.1799 140.044L-70.2086 140.138C-70.7715 141.988 -72.7269 143.03 -74.5761 142.467C-76.4254 141.905 -77.4682 139.949 -76.9053 138.1L-76.8766 138.006C-76.3137 136.156 -74.3583 135.114 -72.5091 135.676ZM-78.2816 154.641C-76.4323 155.204 -75.3895 157.159 -75.9524 159.008L-75.9811 159.103C-76.544 160.952 -78.4994 161.995 -80.3486 161.432C-82.1979 160.869 -83.2407 158.914 -82.6778 157.064L-82.6491 156.97C-82.0862 155.121 -80.1308 154.078 -78.2816 154.641ZM-84.054 173.605C-82.2048 174.168 -81.162 176.124 -81.7249 177.973L-81.7536 178.067C-82.3165 179.916 -84.2719 180.959 -86.1211 180.396C-87.9703 179.833 -89.0131 177.878 -88.4502 176.029L-88.4215 175.935C-87.8586 174.085 -85.9033 173.042 -84.054 173.605ZM-89.8265 192.57C-87.9773 193.133 -86.9345 195.088 -87.4973 196.937L-87.5261 197.032C-88.0889 198.881 -90.0443 199.924 -91.8936 199.361C-93.7428 198.798 -94.7856 196.843 -94.2227 194.993L-94.194 194.899C-93.6311 193.05 -91.6757 192.007 -89.8265 192.57ZM-95.599 211.534C-93.7497 212.097 -92.7069 214.053 -93.2698 215.902L-93.2842 215.949C-93.847 217.798 -95.8024 218.841 -97.6517 218.278C-99.5009 217.715 -100.544 215.76 -99.9808 213.911L-99.9665 213.863C-99.4036 212.014 -97.4482 210.971 -95.599 211.534Z" fill="#FFF0DF"/>
</g>
<defs>
<clipPath id="clip0">
<rect width="1441" height="345" fill="white" transform="translate(-1)"/>
</clipPath>
</defs>
</svg>
