<svg width="106" height="36" viewBox="0 0 106 36" fill="none" xmlns="http://www.w3.org/2000/svg">
<g opacity="0.3" clip-path="url(#clip0)">
<path d="M26.4359 12.7478H14.2582V16.4139H22.8946C22.468 21.5547 18.2523 23.7471 14.2728 23.7471C9.18159 23.7471 4.739 19.6831 4.739 13.9868C4.739 8.43785 8.97396 4.16434 14.2841 4.16434C18.3809 4.16434 20.795 6.81397 20.795 6.81397L23.3251 4.15579C23.3251 4.15579 20.0776 0.487946 14.1548 0.487946C6.61346 0.487946 0.778809 6.94598 0.778809 13.9215C0.778809 20.7567 6.26731 27.422 14.3473 27.422C21.4542 27.422 26.6564 22.4828 26.6564 15.1793C26.6564 13.6384 26.4359 12.7478 26.4359 12.7478Z" fill="black"/>
<path d="M36.4126 10.0946C31.4159 10.0946 27.835 14.0578 27.835 18.6801C27.835 23.3708 31.3083 27.4077 36.4714 27.4077C41.1453 27.4077 44.9745 23.7834 44.9745 18.781C44.9745 13.0475 40.5203 10.0946 36.4126 10.0946ZM36.4623 13.4949C38.9196 13.4949 41.248 15.5103 41.248 18.758C41.248 21.9368 38.9294 24.0097 36.451 24.0097C33.7278 24.0097 31.5795 21.797 31.5795 18.7328C31.5795 15.7344 33.7012 13.4949 36.4623 13.4949Z" fill="black"/>
<path d="M55.0689 10.0946C50.0721 10.0946 46.4912 14.0578 46.4912 18.6801C46.4912 23.3708 49.9645 27.4077 55.1276 27.4077C59.8016 27.4077 63.6307 23.7834 63.6307 18.781C63.6307 13.0475 59.1765 10.0946 55.0689 10.0946ZM55.1186 13.4949C57.5758 13.4949 59.9043 15.5103 59.9043 18.758C59.9043 21.9368 57.5856 24.0097 55.1073 24.0097C52.384 24.0097 50.2358 21.797 50.2358 18.7328C50.2358 15.7344 52.3574 13.4949 55.1186 13.4949Z" fill="black"/>
<path d="M73.3658 10.1038C68.7793 10.1038 65.1743 14.1792 65.1743 18.7535C65.1743 23.964 69.3538 27.4192 73.2867 27.4192C75.7186 27.4192 77.0117 26.4399 77.9663 25.3158V27.0228C77.9663 30.0095 76.1789 31.7979 73.481 31.7979C70.8747 31.7979 69.5674 29.8318 69.1131 28.7161L65.8338 30.1069C66.9972 32.6025 69.339 35.2051 73.5081 35.2051C78.0681 35.2051 81.5437 32.291 81.5437 26.1796V10.6239H77.9663V12.0904C76.8671 10.8879 75.3629 10.1038 73.3658 10.1038ZM73.6978 13.4972C75.9464 13.4972 78.2554 15.4452 78.2554 18.7718C78.2554 22.1531 75.9514 24.0166 73.6481 24.0166C71.203 24.0166 68.9279 22.0024 68.9279 18.8039C68.9279 15.4804 71.2908 13.4972 73.6978 13.4972Z" fill="black"/>
<path d="M97.4505 10.0834C93.1242 10.0834 89.4917 13.5756 89.4917 18.7285C89.4917 24.181 93.5407 27.4149 97.8661 27.4149C101.476 27.4149 103.692 25.4112 105.014 23.6159L102.065 21.6247C101.299 22.8298 100.02 24.0077 97.8842 24.0077C95.4854 24.0077 94.3825 22.6751 93.6992 21.3841L105.141 16.5678L104.547 15.1564C103.441 12.3922 100.862 10.0834 97.4505 10.0834ZM97.5996 13.4127C99.1586 13.4127 100.28 14.2536 100.757 15.2618L93.1165 18.5017C92.7871 15.9933 95.1294 13.4127 97.5996 13.4127Z" fill="black"/>
<path d="M84.0371 26.9005H87.7952V1.38449H84.0371V26.9005Z" fill="black"/>
</g>
<defs>
<clipPath id="clip0">
<rect width="104.465" height="34.8216" fill="white" transform="translate(0.728027 0.436615)"/>
</clipPath>
</defs>
</svg>
