<svg width="56" height="29" viewBox="0 0 56 29" fill="none" xmlns="http://www.w3.org/2000/svg">
<g opacity="0.3" clip-path="url(#clip0)">
<path d="M32.6894 4.46553C31.9722 3.71763 31.1819 3.15289 30.3623 2.69499C28.9133 1.82499 27.2009 1.3213 25.3129 1.24499C25.1812 1.24499 25.0495 1.22972 24.947 1.22972H24.2152H12.7114V28.0473H19.8537V22.2777C20.5855 22.2777 25.108 22.2777 25.108 22.2777C26.7618 22.2777 28.3132 21.8962 29.689 21.2093C28.7231 19.3014 28.1815 17.1188 28.1815 14.814C28.1815 10.7082 29.9378 6.99923 32.6894 4.46553ZM24.8446 16.0351C24.7421 16.0351 24.6396 16.0351 24.5372 16.0351H19.8537V7.47239H24.3908C26.352 7.47239 28.3864 8.73924 28.3864 11.7308C28.3864 14.6614 26.7765 15.8824 24.8446 16.0351Z" fill="black"/>
<path d="M54.5846 13.9897C54.5699 13.6234 54.526 13.2723 54.4821 12.906C54.4528 12.6923 54.4382 12.5702 54.4382 12.5702H45.5103H42.6856H41.866V18.8129H46.3885C45.2322 20.385 43.432 21.4076 41.383 21.4076C37.9143 21.4076 35.0896 18.4618 35.0896 14.8444C35.0896 11.227 37.9143 8.28122 41.383 8.28122C42.8759 8.28122 44.237 8.83069 45.3201 9.73123L45.3493 9.74649L50.6182 4.99961C48.2326 2.57275 44.9688 1.06169 41.383 1.06169C38.046 1.06169 35.0164 2.35907 32.6893 4.48066C34.1383 5.99172 35.2213 8.17437 35.3091 11.3491C35.3091 11.4712 35.3238 11.5933 35.3238 11.7155V11.746C35.3238 11.8223 35.3238 11.8833 35.3238 11.9597C35.3238 16.0655 33.0552 19.5455 29.689 21.2245C31.899 25.605 36.319 28.6119 41.383 28.6119C46.447 28.6119 50.8524 25.6203 53.0771 21.2397V21.255C53.2527 20.9192 53.4137 20.5681 53.5454 20.2018C54.1601 18.6908 54.526 17.0271 54.5846 15.3023C54.5992 15.1039 54.5992 14.936 54.5992 14.8139C54.6138 14.5544 54.5992 14.2644 54.5846 13.9897Z" fill="black"/>
<path d="M35.3234 11.9595C35.3234 11.8832 35.3234 11.8221 35.3234 11.7458V11.7153C35.3234 11.5932 35.3234 11.4711 35.3088 11.349C35.221 8.18949 34.1379 5.99158 32.689 4.48051C29.9228 7.01422 28.1812 10.7079 28.1812 14.8443C28.1812 17.149 28.7373 19.3317 29.6886 21.2396C33.0549 19.5454 35.3234 16.0806 35.3234 11.9595Z" fill="black"/>
<path d="M1.19287 1.3051L1.22214 28.0616H8.3059L8.27663 1.3051H1.19287Z" fill="black"/>
</g>
<defs>
<clipPath id="clip0">
<rect width="54.7196" height="28.1889" fill="white" transform="translate(0.543457 0.734314)"/>
</clipPath>
</defs>
</svg>
