<svg width="134" height="28" viewBox="0 0 134 28" fill="none" xmlns="http://www.w3.org/2000/svg">
<g opacity="0.3" clip-path="url(#clip0)">
<path d="M6.10153 0.909276V1.56234H8.56271V14.2155C8.56271 18.0114 7.47812 19.0726 5.10037 19.0726C3.59863 19.0726 3.34833 17.9298 3.34833 17.3583C3.34833 15.9706 3.26491 15.1134 1.97174 15.1134C0.678579 15.1134 0.511719 16.3787 0.511719 16.7869C0.511719 18.542 1.3043 19.8482 4.85008 19.8482C9.06329 19.8482 11.3159 18.4604 11.3159 13.8481V1.52152H13.8605V0.868469H6.10153V0.909276ZM13.8605 17.3992C13.5685 17.6849 13.4017 18.0522 13.4017 18.4604C13.4017 18.8685 13.5685 19.2359 13.8605 19.4808C14.1525 19.7665 14.528 19.9298 14.9451 19.9298C15.3623 19.9298 15.7377 19.8073 16.0297 19.4808C16.3217 19.1951 16.4886 18.8685 16.4886 18.4604C16.4886 18.0522 16.3217 17.6849 16.0297 17.3992C15.7377 17.1134 15.3623 16.991 14.9451 16.991C14.528 16.991 14.1525 17.1134 13.8605 17.3992ZM31.1722 17.3992C30.8802 17.6849 30.7134 18.0522 30.7134 18.4604C30.7134 18.8685 30.8385 19.2359 31.1722 19.4808C31.506 19.7665 31.8397 19.9298 32.2568 19.9298C32.674 19.9298 33.0494 19.8073 33.3414 19.4808C33.6334 19.1951 33.8003 18.8685 33.8003 18.4604C33.8003 18.0522 33.6334 17.6849 33.3414 17.3992C33.0494 17.1134 32.674 16.991 32.2568 16.991C31.798 16.991 31.4642 17.1134 31.1722 17.3992ZM19.2 0.909276V1.56234H21.4526V16.0114C21.4526 17.1543 21.3692 17.44 21.2441 17.7665C21.1189 18.1339 20.7852 18.4196 20.3263 18.6237C19.9926 18.7461 19.4503 18.8277 18.7412 18.8685V19.4808H26.959V18.9094C26.2499 18.9094 25.7493 18.8277 25.3739 18.7053C24.8733 18.5012 24.5813 18.2563 24.4144 17.8481C24.2893 17.5216 24.2058 17.2359 24.2058 16.6645V11.7257H26.2499C32.1317 11.7257 33.8003 9.43994 33.8003 6.33788C33.8003 3.19501 32.7991 0.990914 26.7922 0.990914L19.2 0.909276ZM24.2058 1.64398H25.6241C30.1711 1.64398 31.1722 3.48072 31.1722 6.46033C31.1722 9.43993 29.3785 10.991 25.791 10.991H24.2475V1.64398H24.2058ZM55.1166 0.950095C55.0332 1.11336 49.3183 15.0726 49.3183 15.0726L49.1931 15.1543L49.068 15.0726C49.068 15.0726 42.9776 1.15418 42.8942 0.950095H37.5129V1.56234H39.849V15.8889L39.8072 17.1951C39.7655 17.5216 39.6404 17.8481 39.4735 18.093C39.3067 18.3788 39.0147 18.542 38.5975 18.7053C38.3472 18.7869 37.9718 18.8277 37.5129 18.8685V19.4808H42.8524V18.9094C42.3936 18.9094 42.185 18.8277 41.9347 18.7461C41.5593 18.6237 41.2673 18.4196 41.0587 18.1747C40.8918 17.9298 40.7667 17.6032 40.725 17.2767L40.6833 15.9706V3.60317H41.017C41.017 3.60317 47.8999 19.3583 47.9834 19.5216H48.5674L55.0749 3.76643H55.2418V16.542C55.2418 17.0726 55.2001 17.5216 55.0749 17.8481C54.9498 18.2155 54.6578 18.5012 54.2823 18.7053C53.9903 18.8277 53.5315 18.9094 52.9058 18.9502V19.5624H60.331V18.9502C59.747 18.9094 59.2882 18.8277 58.9544 18.7053C58.5373 18.5012 58.2453 18.2155 58.1201 17.8073C57.995 17.4808 57.9533 17.0726 57.9533 16.542V1.64398H59.9139V1.07255H55.1166V0.950095ZM61.7076 12.9502C61.7076 19.5624 66.9637 19.9706 68.09 19.9706C70.3426 19.9706 74.5976 18.6237 74.5976 12.8277C74.5976 8.33789 71.8861 5.8889 68.2151 5.8889C64.1688 5.8889 61.7076 8.46033 61.7076 12.9502ZM64.6694 13.0318C64.6694 9.39912 64.9197 6.70523 68.1317 6.70523C71.5941 6.70523 71.6358 9.52157 71.6358 12.7869C71.6358 17.5216 70.8015 19.1543 68.1317 19.1543C65.1283 19.1543 64.6694 17.7257 64.6694 13.0318ZM81.1885 8.8685H81.0217C81.0217 8.8685 80.6879 6.82767 80.5628 6.21542C79.6451 6.21542 75.9741 6.21542 75.9741 6.21542V6.90931H78.477C78.477 6.90931 78.477 8.99095 78.477 9.72565V16.0522C78.477 16.9502 78.3936 17.6032 78.185 17.9706C77.9347 18.4196 77.3507 18.6645 76.433 18.6645H76.0159V19.4808H83.7331V18.6645H83.316C82.3148 18.6645 81.856 18.4604 81.6057 18.0114C81.3554 17.6441 81.2302 16.991 81.2302 16.0522V11.3175C81.2302 9.72565 82.4817 7.8889 83.9417 7.8889C85.4852 7.8889 85.4434 10.2154 87.1955 9.27666C88.1549 8.78687 87.9881 6.09298 85.0263 6.09298C82.5651 6.09298 81.8142 7.43992 81.1885 8.8685ZM105.216 6.90931C104.34 7.56237 104.007 8.17463 104.007 9.03177C104.007 9.43994 104.132 9.72565 104.34 9.92973C104.591 10.1338 104.841 10.2155 105.175 10.2155C105.926 10.2155 106.384 9.84809 106.51 8.8685C106.635 8.1338 106.802 7.72564 107.177 7.35829C107.552 6.95013 108.178 6.74605 109.012 6.74605C109.972 6.74605 110.681 6.99094 111.056 7.52156C111.39 8.01136 111.599 8.66443 111.599 9.43994V11.644C109.138 11.8481 103.297 12.3379 103.548 16.6645C103.631 18.3788 105.175 19.8482 107.177 19.8482C109.346 19.8482 110.764 18.6236 111.682 17.6441C111.849 18.5828 112.725 19.6849 114.31 19.6849C116.104 19.6849 117.189 18.8277 117.314 16.6645H116.855C116.73 17.6032 116.146 18.093 115.645 18.093C114.811 18.093 114.561 17.6441 114.477 16.9094L114.435 15.1951V9.64402C114.435 8.46034 114.227 7.64401 113.518 6.95013C112.808 6.25625 111.432 5.8889 109.43 5.8889C107.552 5.8889 106.134 6.21543 105.216 6.90931ZM106.259 16.1338C106.259 13.6849 109.722 12.4195 111.599 12.4195V16.7053L111.557 16.8277L111.515 16.8685C110.18 18.0522 109.179 18.4604 108.47 18.4604C106.551 18.4196 106.259 16.9094 106.259 16.1338ZM122.737 8.62361H122.486L121.986 6.21542H117.814V6.90931C118.607 6.95013 119.9 6.95013 119.9 6.95013V16.0522C119.9 16.7461 119.858 17.2767 119.733 17.6032C119.608 18.0114 119.358 18.2971 118.941 18.4604C118.69 18.5828 118.273 18.6236 117.773 18.6645V19.4808H124.447V18.6237C123.78 18.5828 123.321 18.3787 123.07 18.0522C122.82 17.6849 122.695 17.0726 122.695 16.1747V12.6644C122.695 11.195 122.695 9.80728 123.196 8.90932C123.738 7.97054 124.739 7.43992 125.865 7.43992C126.866 7.43992 127.409 7.76646 127.742 8.37871C128.034 8.90932 128.201 10.4195 128.201 11.4808L128.16 15.8073C128.16 16.542 128.243 17.0726 128.201 17.3992C128.118 17.8073 127.951 18.093 127.617 18.2971C127.367 18.4604 127.033 18.542 126.533 18.5828V19.44H132.957V18.6237C132.164 18.5828 131.622 18.3788 131.372 18.0114C131.121 17.6441 130.871 16.991 130.871 16.0522L130.913 10.0522C130.913 9.19504 130.788 8.46033 130.454 7.84809C130.12 7.23584 129.661 6.78686 129.077 6.50114C128.493 6.21543 127.784 6.05216 127.033 6.05216C124.405 6.05216 123.321 7.64401 122.737 8.62361ZM101.295 5.35829C100.878 5.48074 100.628 5.84808 100.503 6.41951C100.419 6.95012 100.169 7.27666 99.9185 7.35829C99.6265 7.43993 99.3345 7.39911 98.9591 7.27666C98.25 6.66441 96.9568 5.8889 94.6208 5.8889C90.8664 5.8889 89.1978 8.50115 89.1978 10.9093C89.1978 13.6848 90.2824 15.0726 92.7019 15.5624C92.8687 15.6032 92.8687 15.7665 92.7019 15.7665C90.6578 16.1747 88.8224 16.7461 88.8224 18.6645C88.8224 19.8073 89.4898 20.4604 90.3658 20.7869C91.3253 21.1543 92.6601 21.3584 94.3705 21.3992C95.8305 21.3992 96.8734 21.4808 97.5825 21.5624C98.3334 21.6441 98.9174 21.8482 99.3345 22.1747C99.7934 22.5012 100.002 22.991 100.002 23.6441C100.002 24.542 99.5014 25.2359 98.542 25.7666C97.6242 26.2563 96.4145 26.5012 94.871 26.5012C93.5779 26.5012 92.4933 26.3788 91.5338 25.7666C90.8247 25.3176 90.6578 24.4604 90.8247 23.8482C90.9498 23.2359 90.7413 22.5829 89.9904 22.4604C89.5732 22.3788 89.0726 22.6237 88.8224 22.9502C88.6138 23.2767 88.5304 23.6849 88.5304 24.1747C88.5304 25.7665 89.7818 26.5012 90.7412 26.7461C92.2013 27.1951 93.1607 27.2768 94.4956 27.2768C96.2476 27.2768 97.7077 27.0319 98.7088 26.5012C99.7517 26.0114 100.461 25.3584 100.836 24.6645C101.253 23.9298 101.42 23.1951 101.42 22.5012C101.42 21.5624 101.212 20.7869 100.795 20.2155C99.4597 18.4196 97.5408 18.6236 93.2859 18.4604C91.2418 18.4604 90.8247 18.093 90.8247 17.4808C90.8247 16.5828 91.5756 16.2155 94.579 15.7665C97.4991 15.3175 100.252 14.2563 100.252 10.7461C100.252 9.72565 100.002 8.8685 99.71 8.25625C100.336 8.3787 100.878 8.37871 101.379 8.21544C101.963 8.05218 102.338 7.76646 102.588 7.35829C102.797 6.95013 102.88 6.58278 102.755 6.17462C102.547 5.56237 102.213 5.23583 101.754 5.23583C101.587 5.27665 101.462 5.31747 101.295 5.35829ZM91.9093 10.8685C91.9093 8.41953 92.7853 6.58278 94.6625 6.58278C96.8316 6.58278 97.4991 8.25626 97.4991 10.8277C97.4991 14.5012 96.3311 14.991 94.6625 14.991C92.9104 14.991 91.9093 14.3787 91.9093 10.8685Z" fill="black"/>
</g>
<defs>
<clipPath id="clip0">
<rect width="132.654" height="26.5307" fill="white" transform="translate(0.469238 0.785919)"/>
</clipPath>
</defs>
</svg>
