<svg width="134" height="19" viewBox="0 0 134 19" fill="none" xmlns="http://www.w3.org/2000/svg">
<g opacity="0.3" clip-path="url(#clip0)">
<path d="M57.728 12.5319H66.4852L61.8734 4.80674L53.3753 18.7549H49.5148L59.8525 1.99029C60.2929 1.3197 61.0443 0.890533 61.8734 0.890533C62.6766 0.890533 63.4279 1.29288 63.8684 1.93664L74.2578 18.7281H70.3974L68.5579 15.6166H59.6711L57.728 12.5319ZM97.9645 15.6702V1.10512H94.6741V17.0918C94.6741 17.521 94.8295 17.9502 95.1404 18.2721C95.4513 18.5939 95.8659 18.7817 96.3322 18.7817H111.308L113.251 15.6702H97.9645ZM43.6076 13.0415C46.7944 13.0415 49.3853 10.386 49.3853 7.0599C49.3853 3.76063 46.7944 1.0783 43.6076 1.0783H29.2281V18.7549H32.5186V4.21663H43.4003C44.9289 4.21663 46.1467 5.50415 46.1467 7.08673C46.1467 8.6693 44.9289 9.95682 43.4003 9.95682L34.1508 9.93L43.9703 18.7817H48.7376L42.1308 13.0415H43.6076ZM9.01918 18.7817C4.30376 18.7817 0.469238 14.8387 0.469238 9.95682C0.469238 5.07497 4.30376 1.10512 9.01918 1.10512H18.9423C23.6577 1.10512 27.4922 5.07497 27.4922 9.95682C27.4922 14.8387 23.6577 18.7817 18.9423 18.7817H9.01918ZM18.7091 15.6702C21.7664 15.6702 24.2277 13.122 24.2277 9.95682C24.2277 6.79167 21.7664 4.21663 18.7091 4.21663H9.22645C6.1692 4.21663 3.70785 6.79167 3.70785 9.95682C3.70785 13.122 6.19511 15.6702 9.22645 15.6702H18.7091ZM81.0978 18.7817C76.3824 18.7817 72.5479 14.8387 72.5479 9.95682C72.5479 5.07497 76.3824 1.10512 81.0978 1.10512H92.8864L90.9691 4.21663H81.3051C78.2478 4.21663 75.7606 6.79167 75.7606 9.95682C75.7606 13.122 78.2478 15.6702 81.3051 15.6702H93.1454L91.2023 18.7817H81.0978ZM121.283 15.6702C118.769 15.6702 116.619 13.9267 115.971 11.5126H130.014L131.957 8.40107H115.971C116.619 6.01379 118.769 4.24345 121.283 4.24345H130.921L132.864 1.13194H121.049C116.334 1.13194 112.499 5.1018 112.499 9.98365C112.499 14.8655 116.334 18.8085 121.049 18.8085H131.18L133.123 15.697H121.283V15.6702Z" fill="black"/>
</g>
<defs>
<clipPath id="clip0">
<rect width="132.654" height="18.2399" fill="white" transform="translate(0.469238 0.729401)"/>
</clipPath>
</defs>
</svg>
