<svg width="132" height="26" viewBox="0 0 132 26" fill="none" xmlns="http://www.w3.org/2000/svg">
<g opacity="0.3" clip-path="url(#clip0)">
<path d="M130.181 23.3471C129.644 23.3471 129.214 23.7925 129.214 24.3494C129.214 24.9062 129.644 25.3517 130.181 25.3517C130.718 25.3517 131.147 24.9062 131.147 24.3494C131.147 23.7925 130.718 23.3471 130.181 23.3471ZM130.181 25.2032C129.715 25.2032 129.358 24.832 129.358 24.3494C129.358 23.8668 129.751 23.4956 130.181 23.4956C130.61 23.4956 131.004 23.8668 131.004 24.3494C131.004 24.832 130.61 25.2032 130.181 25.2032Z" fill="black"/>
<path d="M130.646 24.0899C130.646 23.8671 130.467 23.7929 130.252 23.7929H129.787V24.9066H129.93V24.3869H130.109L130.431 24.9066H130.61L130.288 24.3869C130.503 24.3869 130.646 24.3126 130.646 24.0899ZM130.145 24.2384H129.966V23.9414H130.252C130.36 23.9414 130.503 23.9785 130.503 24.0899C130.503 24.2384 130.252 24.2384 130.145 24.2384Z" fill="black"/>
<path d="M123.918 25.3889C124.097 24.8692 124.275 24.2752 124.419 23.6813C124.705 22.4933 124.848 21.2683 124.848 20.0432C124.848 19.3379 124.812 18.5954 124.705 17.9272C124.633 18.9666 124.454 19.8576 124.454 19.8576C124.49 20.0061 124.562 20.2288 124.598 20.3402C124.49 21.3796 124.311 22.4191 124.025 23.4214C123.882 22.9388 123.739 22.4562 123.703 22.4191C123.345 23.3843 122.844 24.498 122.343 25.4261H123.918V25.3889Z" fill="black"/>
<path d="M120.661 25.3889H121.555C124.096 21.5281 124.204 18.0757 124.204 17.4074C124.204 16.1453 123.989 15.0316 123.667 14.1035C123.667 14.1035 123.13 12.6928 122.307 11.4306C122.378 11.7276 122.557 12.2844 122.665 12.767C122.665 12.8042 122.665 12.8413 122.665 12.8413C122.844 13.1383 123.56 14.4376 123.667 15.9225C123.667 15.9225 123.166 15.1801 122.772 14.6974C122.772 15.5142 122.665 16.2938 122.486 17.0733C122.486 17.0733 123.237 18.0014 123.595 18.5954C123.595 18.5954 123.381 19.8947 122.88 21.1198C122.378 20.3402 121.734 19.6348 121.734 19.6348C121.341 20.6 120.875 21.5652 120.338 22.4933C120.338 22.4933 121.305 23.6813 121.519 24.0154C121.269 24.498 120.983 24.9435 120.661 25.3889Z" fill="black"/>
<path d="M117.511 25.3889C119.193 23.4214 120.625 21.1569 121.484 18.7068C122.235 16.5907 122.629 13.9921 121.985 11.6533C121.949 11.5049 121.877 11.3564 121.842 11.2079C121.627 10.651 121.341 10.1313 121.054 9.76006C120.267 8.83198 119.336 8.01526 118.334 7.30992C118.477 7.49554 118.62 7.71828 118.728 7.9039C118.728 7.9039 119.945 8.83198 120.661 9.79718C119.766 9.12896 119.229 8.8691 119.193 8.83198C119.551 9.72293 119.623 10.4283 119.623 10.4283C119.623 10.4283 120.696 11.0222 121.663 11.8761C121.806 12.5072 121.842 13.1754 121.842 13.8436C120.875 12.9527 119.73 12.2473 119.73 12.2473C119.694 12.9898 119.623 13.7694 119.444 14.5118C119.444 14.5118 120.517 15.2172 121.555 16.1824C121.555 16.1824 121.269 17.5559 120.768 18.6696C119.766 17.7044 118.799 16.962 118.728 16.8877C118.728 16.8877 118.227 18.2242 117.439 19.5606C118.442 20.4515 119.372 21.3796 119.372 21.3796C118.799 22.3077 118.155 23.1987 117.439 24.0154L115.65 22.1592C114.934 23.0873 114.147 23.9783 113.288 24.7578C113.323 24.795 113.681 25.2033 113.824 25.3889H117.511Z" fill="black"/>
<path d="M117.976 7.45869C117.869 7.3102 117.726 7.12458 117.582 6.97609C117.439 6.86472 117.332 6.71623 117.189 6.64198C115.721 5.49116 112.965 4.89719 112.965 4.89719C113.216 5.04568 113.431 5.19417 113.431 5.19417C113.431 5.19417 114.54 5.49116 115.506 5.97376C115.506 5.97376 114.612 5.75102 114.039 5.67678C114.29 5.89952 114.504 6.12225 114.683 6.38212C114.683 6.38212 116.509 6.71623 117.296 7.16171C117.296 7.16171 117.69 7.57006 117.976 8.2754C116.723 7.75568 115.328 7.49581 115.328 7.49581C115.506 7.94129 115.65 8.38677 115.721 8.86938C115.721 8.86938 117.26 9.27773 118.441 9.83458C118.549 10.3914 118.585 10.9854 118.549 11.5794C117.189 10.874 115.829 10.4286 115.829 10.4286C115.793 11.0596 115.721 11.6907 115.542 12.3218C115.542 12.3218 117.403 13.1757 118.262 13.7325C118.083 14.5121 117.833 15.2546 117.511 15.997C116.222 15.1432 114.862 14.3636 114.862 14.3636C114.504 15.2174 113.681 16.591 113.681 16.591C113.717 16.591 115.113 17.5933 116.151 18.4843C115.614 19.301 115.005 20.1177 114.361 20.8973C114.146 20.6746 112.071 18.7813 112.071 18.7813C111.462 19.5237 110.746 20.2662 109.995 20.9344L111.963 23.2732C110.675 24.3869 109.386 25.2036 109.386 25.2036L107.74 22.7535C107.74 22.7535 106.559 23.6815 104.626 24.6467V25.3521H111.068C118.37 19.7465 120.911 11.6536 117.976 7.45869Z" fill="black"/>
<path d="M114.325 6.60468C112.536 4.11742 109.744 4.45153 108.921 4.60002C107.99 4.74852 107.31 4.93413 107.31 4.93413C107.525 4.97125 107.811 5.00838 107.99 5.0455C108.134 5.00838 109.422 4.71139 110.353 4.82276C109.673 4.89701 108.742 5.19399 108.635 5.23112C108.67 5.23112 108.921 5.34249 109.279 5.52811C109.386 5.49098 110.639 5.15687 111.856 5.11975C111.856 5.11975 112.321 5.34248 112.751 5.63947C111.176 5.63947 109.887 5.93646 109.851 5.93646C110.03 6.12207 110.209 6.30769 110.388 6.56755C112.106 6.30769 113.574 6.41906 113.574 6.41906C113.574 6.41906 113.789 6.67892 113.86 6.82742C113.967 7.01303 114.075 7.19865 114.182 7.42139C112.428 7.19865 110.746 7.34714 110.746 7.34714C110.854 7.64413 110.925 7.97823 110.997 8.34947C111.176 8.34947 112.679 8.34947 114.576 8.7207C114.647 9.16618 114.647 9.64878 114.612 10.1685C114.29 10.0943 112.751 9.6859 111.033 9.50029C110.997 9.94577 110.925 10.3912 110.782 10.8738C110.961 10.911 113.073 11.4307 114.254 11.9133C114.218 11.9875 114.218 12.0618 114.182 12.136C114.003 12.6558 113.788 13.1755 113.538 13.6952C112.607 13.2126 110.281 12.2845 110.281 12.2845C110.066 12.8043 109.78 13.3611 109.422 13.918C109.422 13.918 111.426 15.1059 112.357 15.737C111.927 16.4052 111.426 17.0363 110.854 17.6674C110.174 17.0363 108.42 15.6256 108.277 15.5143C107.704 16.2196 107.024 16.9249 106.809 17.1477L108.885 19.6349L108.814 19.6721C108.348 20.0433 107.883 20.4145 107.453 20.7115C107.096 20.9714 106.809 21.157 106.702 21.2312C106.666 21.1941 105.306 18.9296 105.091 18.5584C104.948 18.6697 104.805 18.7811 104.626 18.8925V23.5329C104.877 23.4215 105.127 23.273 105.378 23.1616C106.559 22.5677 107.704 21.7881 108.742 20.9342C109.422 20.3774 110.138 19.7092 110.854 18.9667C111.677 18.0757 112.428 17.1477 113.037 16.1825C115.399 12.6558 116.008 8.98056 114.325 6.60468Z" fill="black"/>
<path d="M109.673 6.41894C108.814 5.41661 107.418 5.04538 105.772 5.30524C105.736 5.30524 105.664 5.30524 105.628 5.34237C105.485 5.37949 105.378 5.37949 105.235 5.41661C104.984 5.49086 104.805 5.52798 104.698 5.5651V6.08483C104.877 5.93634 105.02 5.82497 105.199 5.7136C105.521 5.63935 105.843 5.60223 106.165 5.5651C105.7 5.86209 105.127 6.23332 104.698 6.56743V6.97579C104.698 6.97579 105.915 5.97346 106.845 5.5651C107.06 5.5651 107.311 5.60223 107.525 5.67647C106.094 6.30757 105.02 7.08716 104.948 7.1614C105.092 7.23565 105.235 7.34702 105.235 7.38415C105.271 7.38415 106.631 6.45606 108.17 5.93634C108.384 6.04771 108.563 6.15908 108.742 6.30757C107.096 6.79017 105.485 7.64401 105.485 7.64401C105.593 7.75538 105.664 7.86674 105.736 7.97811H105.772C107.49 7.23565 109.279 6.8273 109.279 6.8273C109.422 7.01291 109.53 7.23565 109.637 7.49551C109.637 7.49551 108.026 7.68113 105.915 8.38647C106.022 8.68346 106.022 8.90619 106.022 8.90619C106.022 8.90619 107.991 8.46072 109.816 8.38647C109.852 8.68346 109.816 9.01756 109.78 9.3888C108.706 9.31455 106.13 9.46304 106.058 9.46304C106.058 9.46304 106.058 9.83427 105.951 10.2055C105.951 10.2055 107.812 10.2798 109.53 10.6139C109.387 11.0222 109.243 11.4677 109.029 11.8761C107.883 11.5048 106.165 11.0965 105.7 10.9851C105.593 11.2821 105.414 11.5791 105.271 11.8761C105.271 11.8761 107.382 12.8413 108.17 13.2867C107.812 13.8436 107.132 14.586 107.132 14.586C106.917 14.4376 106.738 14.2891 106.559 14.1406C105.986 13.7322 105.163 13.1382 104.662 12.767V14.586L105.736 15.9225C105.378 16.2195 105.02 16.4793 104.662 16.7392V17.8158L104.698 17.7786C105.199 17.4445 105.7 17.0362 106.165 16.5907C109.995 13.2125 111.534 8.64633 109.673 6.41894Z" fill="black"/>
<path d="M104.733 11.6166C105.7 10.2059 105.843 8.57246 104.984 7.75575C104.912 7.6815 104.805 7.60725 104.733 7.57013V11.6166Z" fill="black"/>
<path d="M109.959 3.96907C118.477 3.96907 125.456 11.2081 125.456 20.0806C125.456 21.8996 125.17 23.6815 124.597 25.3892H128.391V0.850723H104.733V4.93428H104.769C106.416 4.26606 108.169 3.96907 109.959 3.96907Z" fill="black"/>
<path d="M94.8194 8.6465C94.2467 8.12677 93.4951 7.68129 92.6003 7.42143C91.7055 7.12444 90.6318 6.97595 89.3791 6.97595H83.0083V19.2266H89.3791C91.634 19.2266 93.3877 18.7069 94.6404 17.7046C95.8931 16.7022 96.5016 15.1431 96.5016 13.1013C96.5016 12.1732 96.3584 11.3565 96.1079 10.5769C95.8215 9.83444 95.392 9.20335 94.8194 8.6465ZM92.6719 14.6233C92.5287 15.0317 92.314 15.3658 92.0277 15.6257C91.7413 15.8855 91.3476 16.0711 90.8823 16.1825C90.4171 16.2939 89.8444 16.331 89.2002 16.331H86.4085V9.87156H89.2002C89.8802 9.87156 90.4529 9.94581 90.9181 10.0572C91.3834 10.1686 91.7771 10.3542 92.0635 10.614C92.3498 10.8739 92.5645 11.208 92.6719 11.6164C92.8151 12.0247 92.8509 12.5073 92.8509 13.1013C92.8867 13.6953 92.8151 14.215 92.6719 14.6233Z" fill="black"/>
<path d="M69.4071 14.1779H75.8853V11.802H69.4071V9.76019H77.1022L77.0306 6.97595H65.9712V19.2266H77.3528L77.3886 16.4795H69.4071V14.1779Z" fill="black"/>
<path d="M48.5415 6.97595L48.4341 9.87156H52.9796V19.2266H56.4155V9.87156H60.9252L60.8536 6.97595H48.5415Z" fill="black"/>
<path d="M43.2443 6.97595H39.7368V19.2266H43.2443V6.97595Z" fill="black"/>
<path d="M30.0019 13.0642L30.0377 14.3635L30.0019 14.4006L29.1072 13.4725L22.7363 6.97595H19.873V19.2266H23.0227V12.8043L22.9869 11.4679L23.0227 11.4307L23.9174 12.3959L30.8967 19.2266H33.1516V6.97595H30.0019V13.0642Z" fill="black"/>
<path d="M10.3881 13.8809C10.3881 14.809 10.1376 15.5143 9.6365 15.9598C9.13543 16.4053 8.31223 16.628 7.2027 16.628C6.09318 16.628 5.26999 16.4053 4.73312 15.9598C4.19625 15.5143 3.94571 14.809 3.94571 13.8809V6.97595H0.509766V13.8437C0.509766 15.737 1.08242 17.1477 2.22774 18.0758C3.37306 19.0039 5.01945 19.4865 7.2027 19.4865C9.38596 19.4865 11.0324 19.041 12.1419 18.1129C13.2514 17.1848 13.8241 15.7742 13.8241 13.8809V7.01308H10.3881V13.8809Z" fill="black"/>
</g>
<defs>
<clipPath id="clip0">
<rect width="130.995" height="24.8726" fill="white" transform="translate(0.331055 0.850632)"/>
</clipPath>
</defs>
</svg>
