<svg width="132" height="35" viewBox="0 0 132 35" fill="none" xmlns="http://www.w3.org/2000/svg">
<g opacity="0.3" clip-path="url(#clip0)">
<path d="M1.37085 1.02597C1.33506 1.02597 1.26348 1.02596 1.1919 1.06281L1.15611 1.09966V1.13651C1.08452 1.57869 0.905567 2.31566 0.726611 2.79468V2.83153V2.86838C0.798193 3.01577 1.01294 3.08947 1.12031 2.97892V2.94207C1.22769 2.68414 1.33506 2.4262 1.5856 2.20511C1.83614 1.98402 2.373 1.94717 2.87408 1.94717H3.48253C3.73307 1.94717 3.73307 1.94717 3.73307 2.20511V7.25332C3.73307 8.46931 3.66148 8.54301 3.12462 8.57986L2.73091 8.6167H2.69512C2.62354 8.65355 2.58775 8.72725 2.58775 8.83779C2.58775 8.91149 2.62354 9.02204 2.69512 9.05888H2.73091H2.76671C3.44674 9.02204 3.84044 9.02203 4.30572 9.02203C4.73522 9.02203 5.09313 9.02204 5.73737 9.05888H5.77316H5.80895C5.88053 9.02204 5.91632 8.91149 5.91632 8.83779C5.91632 8.72725 5.88053 8.65355 5.84474 8.6167L5.45104 8.57986C4.91417 8.54301 4.87838 8.46931 4.87838 7.25332V2.20511C4.87838 2.09456 4.87838 1.98402 4.87838 1.94717C4.91417 1.91032 5.02155 1.91032 5.09313 1.91032H5.88053C6.45319 1.91032 6.88268 1.98402 7.09743 2.16826C7.2048 2.24195 7.27639 2.53674 7.34797 2.94207V2.97892V3.01577C7.38376 3.05262 7.45534 3.08946 7.56271 3.08946C7.67009 3.08946 7.74167 3.05262 7.77746 2.97892V2.94207V2.90522C7.74167 2.57359 7.81325 1.65239 7.95642 1.21021V1.17336V1.13651C7.92063 1.06282 7.77746 1.02597 7.74167 1.02597H7.6343H7.59851V1.06281C7.45534 1.32075 7.38376 1.32075 6.8111 1.32075H2.30142C1.80035 1.32075 1.5856 1.2839 1.54981 1.02597V0.989115L1.51402 0.952271C1.51402 1.02597 1.44243 1.02597 1.37085 1.02597ZM94.5351 1.02597L94.3562 1.06281L94.3204 1.09966V1.13651C94.2488 1.57869 94.0699 2.31566 93.8909 2.79468V2.83153V2.86838C93.9625 3.01577 94.1772 3.05262 94.2846 2.97892V2.94207C94.392 2.68414 94.4993 2.4262 94.7499 2.20511C95.0004 1.98402 95.5373 1.94717 96.0384 1.94717H96.6468C96.8974 1.94717 96.8973 1.94717 96.8973 2.20511V7.25332C96.8973 8.46931 96.8258 8.54301 96.2889 8.57986L95.8952 8.6167H95.8594C95.7878 8.65355 95.752 8.72725 95.752 8.83779C95.752 8.91149 95.7878 9.02204 95.8594 9.05888H95.8952H95.931C96.611 9.02204 97.0047 9.02203 97.47 9.02203C97.8995 9.02203 98.2574 9.02204 98.9017 9.05888H98.9374C99.0448 9.02204 99.0448 8.87464 99.0448 8.83779C99.0448 8.72725 99.009 8.65355 98.9732 8.6167L98.5795 8.57986C98.0427 8.54301 98.0069 8.46931 98.0069 7.25332V2.20511C98.0069 2.09456 98.0069 1.98402 98.0069 1.94717C98.0427 1.91032 98.15 1.91032 98.2216 1.91032H99.009C99.5817 1.91032 100.011 1.98402 100.226 2.16826C100.333 2.24195 100.405 2.53674 100.476 2.94207V2.97892V3.01577C100.512 3.05262 100.584 3.08946 100.691 3.08946C100.799 3.08946 100.87 3.05262 100.906 2.97892V2.94207V2.90522C100.87 2.57359 100.942 1.68923 101.085 1.21021V1.17336V1.13651C101.049 1.06282 100.942 1.02597 100.87 1.02597H100.763H100.727V1.06281C100.584 1.32075 100.512 1.32075 99.9396 1.32075H95.3941C94.8931 1.32075 94.6783 1.2839 94.6425 1.02597V0.989115L94.6067 0.952271C94.6425 1.02597 94.6067 1.02597 94.5351 1.02597ZM84.9789 1.21021C83.5831 1.21021 82.6525 2.02087 82.6525 3.23686C82.6525 4.26861 83.4041 4.93188 83.8694 5.26351L84.9073 5.96363C85.6589 6.4795 85.7663 6.99538 85.7663 7.47441C85.7663 8.06398 85.3726 8.6904 84.4778 8.6904C83.3683 8.6904 82.903 7.80604 82.6883 7.06908V7.03223C82.6525 6.99538 82.5809 6.95853 82.5093 6.95853C82.4377 6.95853 82.3304 6.99538 82.2588 7.06908V7.10593V7.14277C82.2946 7.65865 82.4377 8.50616 82.5809 8.7641V8.80094H82.6167C82.8314 8.94834 83.4399 9.24312 84.3705 9.24312C85.8021 9.24312 86.8043 8.35876 86.8043 7.06908C86.8043 6.14787 86.339 5.44776 85.4084 4.82134L84.5136 4.26861C84.1915 4.04752 83.6189 3.60534 83.6189 2.94207C83.6189 2.49989 83.762 1.76293 84.8357 1.76293C85.8021 1.76293 86.0884 2.4262 86.2316 2.97892V3.01577C86.2674 3.05262 86.339 3.08946 86.4106 3.08946C86.4821 3.08946 86.5895 3.05262 86.6611 2.97892V2.94207V2.90522C86.6611 2.4262 86.5537 1.79978 86.4464 1.50499L86.4106 1.43129H86.339C86.2674 1.43129 86.1242 1.39445 85.9811 1.3576C85.7663 1.2839 85.3726 1.21021 84.9789 1.21021ZM118.98 1.21021C116.69 1.21021 115.008 2.97892 115.008 5.30036C115.008 7.25332 116.368 9.20627 118.98 9.20627C121.2 9.20627 122.882 7.47441 122.882 5.18982C122.882 3.27371 121.665 1.21021 118.98 1.21021ZM130.219 1.3576L130.112 1.39445C129.968 1.4313 129.288 1.43129 128.644 1.43129H126.604C126.21 1.43129 125.817 1.4313 125.351 1.39445H125.316H125.28C125.172 1.4313 125.172 1.57869 125.172 1.61553C125.172 1.72608 125.208 1.79978 125.244 1.83663L125.459 1.87348C126.031 1.94717 126.031 2.02087 126.031 3.20001V7.25332C126.031 8.43246 125.996 8.50616 125.459 8.57986L125.172 8.6167L125.137 8.65355C125.065 8.72725 125.065 8.83779 125.065 8.91149C125.065 8.98518 125.101 9.05888 125.172 9.09573H125.208H125.244C125.745 9.05888 126.139 9.05888 126.604 9.05888C127.033 9.05888 127.427 9.05888 128.071 9.09573H128.107H128.143C128.215 9.05888 128.25 8.94834 128.25 8.87464C128.25 8.7641 128.215 8.6904 128.179 8.65355L127.785 8.6167C127.212 8.57985 127.212 8.50616 127.212 7.29017V5.70569C127.212 5.4846 127.212 5.4846 127.499 5.4846H128.25C128.644 5.4846 128.93 5.4846 129.074 5.52145C129.217 5.5583 129.324 5.66884 129.36 5.88993L129.467 6.36896C129.575 6.47951 129.825 6.44266 129.861 6.36896V6.33211V6.29527C129.861 6.18472 129.861 6.03732 129.861 5.85308C129.861 5.63199 129.825 5.41091 129.825 5.18982C129.825 4.96873 129.825 4.71079 129.861 4.4897C129.861 4.30546 129.861 4.15807 129.861 4.04752V4.01067V3.97383C129.825 3.90013 129.682 3.90013 129.646 3.90013C129.539 3.90013 129.467 3.93698 129.431 3.97383L129.324 4.45285C129.253 4.71079 129.181 4.74764 129.109 4.78449C129.002 4.82133 128.644 4.85818 128.215 4.85818H127.463C127.177 4.85818 127.177 4.85818 127.177 4.63709V2.24196C127.177 1.87348 127.177 1.87348 127.427 1.87348H128.107C128.572 1.87348 128.93 1.87348 129.145 1.94717C129.61 2.05772 129.754 2.38935 129.861 2.94207V2.97892L129.897 3.01577C129.933 3.05262 130.004 3.08946 130.076 3.08946C130.147 3.08946 130.255 3.05262 130.29 2.97892V2.94207V2.90522C130.255 2.49989 130.255 1.98402 130.255 1.43129V1.3576H130.219ZM25.2435 1.3576H25.1719C25.0646 1.39445 24.3845 1.39445 23.7045 1.39445H21.6286C21.1991 1.39445 20.8412 1.39445 20.3401 1.3576H20.3044H20.2686C20.1612 1.39445 20.1612 1.54184 20.1612 1.57869C20.1612 1.68923 20.197 1.76293 20.2328 1.79978L20.4475 1.83663C21.0202 1.91032 21.056 1.98402 21.056 3.16317V7.21647C21.056 8.43246 20.9844 8.50616 20.4475 8.54301L20.0538 8.57986L20.018 8.6167C19.9464 8.6904 19.9464 8.80095 19.9464 8.87464C19.9464 8.94834 19.9822 9.02204 20.0538 9.05888H20.0896H20.1254C20.7696 9.02204 21.1276 9.02203 21.6286 9.02203H22.6308C23.5971 9.02203 24.5635 9.02204 25.5656 9.05888H25.6372L25.673 9.02203C25.8162 8.6904 26.1025 7.84289 26.1741 7.43756V7.40071V7.36386C26.1383 7.25332 25.9951 7.21647 25.9236 7.21647C25.852 7.21647 25.8162 7.21647 25.7804 7.25332L25.7446 7.29017C25.4225 7.95344 25.1362 8.24822 24.993 8.35876C24.7425 8.46931 24.4203 8.50616 23.6329 8.50616C22.7024 8.50616 22.4876 8.39561 22.3802 8.28507C22.2371 8.10083 22.2013 7.73235 22.2013 7.17962V5.59515C22.2013 5.37406 22.2013 5.37406 22.4876 5.37406H23.1319C23.5256 5.37406 23.8119 5.37406 23.955 5.4109C24.0982 5.44775 24.1698 5.5583 24.2414 5.77939L24.3488 6.22156V6.25842C24.3845 6.29526 24.4561 6.33211 24.5635 6.33211C24.6709 6.33211 24.7425 6.29526 24.7782 6.22156V6.18472V6.14787C24.7782 6.03732 24.7782 5.88994 24.7425 5.74254C24.7425 5.52145 24.7067 5.30036 24.7067 5.07927C24.7067 4.85818 24.7067 4.60024 24.7425 4.37915C24.7425 4.19491 24.7782 4.04752 24.7782 3.93698V3.90013V3.86328C24.7425 3.78958 24.6709 3.75273 24.5635 3.75273C24.4919 3.75273 24.3845 3.78958 24.3488 3.82643L24.2414 4.34231C24.2056 4.60025 24.134 4.63709 24.0266 4.67394C23.9193 4.71079 23.5971 4.74764 23.1319 4.74764H22.4876C22.2013 4.74764 22.2013 4.74764 22.2013 4.52655V2.2788C22.2013 1.91032 22.2013 1.91032 22.4518 1.91032H23.2392C23.7045 1.91032 24.0624 1.91032 24.2772 1.98402C24.7782 2.09456 24.8856 2.4262 25.0288 2.94207L25.0646 3.01577V3.05262C25.1004 3.08947 25.1719 3.12631 25.2435 3.12631C25.3151 3.12631 25.4225 3.08947 25.4583 3.01577V2.97892V2.79468C25.3867 2.13141 25.3509 1.57869 25.2793 1.39445L25.2435 1.3576ZM70.9488 1.3576H70.8772C70.7698 1.39445 70.054 1.39445 69.4098 1.39445H67.3339C66.9044 1.39445 66.5465 1.39445 66.0454 1.3576H66.0096H65.9738C65.8664 1.39445 65.8665 1.54184 65.8665 1.57869C65.8665 1.68923 65.9022 1.76293 65.938 1.79978L66.1528 1.83663C66.7254 1.91032 66.7612 1.98402 66.7612 3.16317V7.21647C66.7612 8.43246 66.6896 8.50616 66.1528 8.54301L65.7591 8.57986L65.7233 8.6167C65.6517 8.6904 65.6517 8.80095 65.6517 8.87464C65.6517 8.94834 65.6875 9.02204 65.7591 9.05888H65.7949C66.4391 9.02204 66.797 9.02203 67.2981 9.02203H68.3002C69.2666 9.02203 70.233 9.02204 71.2351 9.05888H71.2709L71.3067 9.02203C71.4499 8.6904 71.7362 7.84289 71.8078 7.43756V7.40071V7.36386C71.772 7.25332 71.6288 7.21647 71.5572 7.21647C71.4857 7.21647 71.4499 7.21647 71.4141 7.25332L71.3783 7.29017C71.0562 7.95344 70.7698 8.24822 70.6267 8.35876C70.3761 8.46931 70.054 8.50616 69.2666 8.50616C68.336 8.50616 68.1213 8.39561 68.0139 8.28507C67.8708 8.10083 67.835 7.73235 67.835 7.17962V5.59515C67.835 5.37406 67.835 5.37406 68.1213 5.37406H68.7655C69.1592 5.37406 69.4456 5.37406 69.5887 5.4109C69.7319 5.44775 69.8035 5.5583 69.8751 5.77939L69.9824 6.22156V6.25842C70.0182 6.29526 70.0898 6.33211 70.1972 6.33211C70.3046 6.33211 70.3761 6.29526 70.4119 6.22156V6.18472V6.14787C70.4119 6.03732 70.4119 5.88994 70.3761 5.74254C70.3761 5.52145 70.3403 5.30036 70.3403 5.07927C70.3403 4.85818 70.3403 4.60024 70.3761 4.37915C70.3761 4.19491 70.4119 4.04752 70.4119 3.93698V3.90013V3.86328C70.3761 3.78958 70.3046 3.75273 70.1972 3.75273C70.0898 3.75273 70.0182 3.78958 69.9824 3.82643L69.8751 4.34231C69.8393 4.60025 69.7677 4.63709 69.6603 4.67394C69.5529 4.71079 69.195 4.74764 68.7655 4.74764H68.1213C67.835 4.74764 67.835 4.74764 67.835 4.52655V2.2788C67.835 1.91032 67.835 1.91032 68.0855 1.91032H68.8729C69.3382 1.91032 69.6961 1.91032 69.9109 1.98402C70.4119 2.09456 70.5193 2.4262 70.6625 2.94207L70.6983 3.01577V3.05262C70.734 3.08947 70.8056 3.12631 70.8772 3.12631C70.9488 3.12631 71.0562 3.08947 71.092 3.01577V2.97892V2.79468C71.0204 2.13141 70.9846 1.57869 70.913 1.39445L70.9488 1.3576ZM43.4612 1.3576H43.3896C43.2465 1.39445 43.0675 1.39445 42.8885 1.39445C42.7096 1.39445 42.1011 1.39445 41.6717 1.3576H41.6359H41.6001C41.5285 1.39445 41.4927 1.46814 41.4927 1.54184C41.4927 1.65238 41.4927 1.72608 41.5643 1.79978L41.6001 1.83663L41.8148 1.87348C42.1011 1.91032 42.3159 1.98402 42.4591 2.13141C42.6738 2.3525 42.6738 2.57359 42.6738 2.86838V6.22156C42.6738 6.77429 42.6738 8.06398 42.5306 8.39561C42.4948 8.46931 42.4233 8.54301 42.1011 8.57986L41.779 8.6167L41.7432 8.65355C41.7074 8.6904 41.6717 8.80095 41.6717 8.87464C41.6717 8.94834 41.7074 9.02204 41.779 9.05888H41.8148H41.8506C42.2443 9.02204 42.5306 9.02203 42.9959 9.02203C43.3538 9.02203 43.7475 9.02204 44.2844 9.05888H44.3202H44.356C44.3918 9.02204 44.4276 8.94834 44.4634 8.87464C44.4634 8.80095 44.4634 8.6904 44.3918 8.65355L44.356 8.6167L43.9623 8.57986C43.7117 8.54301 43.5328 8.50616 43.4612 8.39561C43.3538 8.17453 43.2823 7.32702 43.2823 6.11102V3.64219C43.2823 3.45795 43.2823 3.23686 43.318 3.08946C43.497 3.27371 43.7833 3.64219 44.0339 3.97383C44.2128 4.19491 44.3918 4.37916 44.4991 4.52655L47.0403 7.51125C47.8993 8.50616 48.293 8.98519 48.4362 9.20627L48.472 9.24312H48.5078C48.6509 9.24312 48.7583 9.16943 48.7941 9.05888C48.7941 8.91149 48.7583 8.46931 48.7583 7.10593V4.26861C48.7583 3.67904 48.7583 2.4999 48.9015 2.13141C48.9015 2.09456 49.0446 2.02087 49.4383 1.94717L49.6173 1.91032L49.6531 1.87348C49.6889 1.83663 49.7247 1.72608 49.7247 1.65238C49.7247 1.57869 49.6889 1.50499 49.6173 1.46814H49.5815H49.5457C49.1878 1.50499 48.9015 1.50499 48.4362 1.50499C48.0425 1.50499 47.6846 1.50499 47.1477 1.46814C47.0761 1.50499 47.0403 1.54184 47.0403 1.65238C47.0045 1.76293 47.0403 1.87347 47.1119 1.91032H47.1477L47.3624 1.94717C47.7561 1.98402 47.9351 2.05772 47.9709 2.13141C48.1141 2.3525 48.1856 3.16316 48.1856 4.416V6.84799C48.1856 6.95853 48.1856 7.06908 48.1856 7.17962C47.7919 6.77429 47.3982 6.33211 46.8972 5.74254L45.3581 3.97383C44.2844 2.72099 43.6402 1.91032 43.497 1.54184L43.4612 1.3576ZM37.3409 1.3576C37.2693 1.39445 37.2336 1.46814 37.2336 1.54184C37.2336 1.61554 37.2336 1.72608 37.3051 1.76293L37.3409 1.79978L37.663 1.83663C37.9136 1.87347 38.0925 1.91032 38.1283 2.02087C38.2715 2.24196 38.3431 3.05262 38.3431 4.30546V5.59515C38.3431 6.92168 37.9852 8.50616 36.2314 8.50616C34.764 8.50616 34.0839 7.58495 34.0839 5.59515V3.16317C34.0839 1.94717 34.1197 1.87347 34.6566 1.83663L34.9429 1.79978C35.0145 1.76293 35.0145 1.68923 35.0145 1.57869C35.0145 1.50499 34.9787 1.39445 34.9071 1.3576H34.8713H34.8355C34.2987 1.39445 33.9408 1.39445 33.4755 1.39445C33.0102 1.39445 32.6523 1.39445 32.1154 1.3576H32.0796H32.0438C31.9723 1.39445 31.9365 1.50499 31.9365 1.57869C31.9365 1.68923 31.9723 1.76293 32.0081 1.79978H32.0438L32.3302 1.83663C32.867 1.87347 32.9028 1.98402 32.9028 3.16317V5.81624C32.9028 7.17962 33.1892 8.02713 33.7976 8.54301C34.2987 8.98518 34.9787 9.16942 35.9093 9.16942C36.7683 9.16942 37.5915 8.83779 38.0567 8.32192C38.5936 7.73235 38.8442 6.84799 38.8442 5.5583V4.26861C38.8442 3.67904 38.8442 2.3525 38.9873 1.98402C39.0231 1.87347 39.2379 1.79978 39.4526 1.76293L39.7389 1.72608L39.7747 1.68924C39.8105 1.61554 39.8463 1.54184 39.8463 1.46814C39.8463 1.39445 39.8105 1.3576 39.7389 1.32075H39.7031H39.6673C39.2736 1.3576 38.9873 1.3576 38.522 1.3576C38.1641 1.39445 37.7704 1.39445 37.3409 1.3576ZM56.6323 1.3576C56.525 1.43129 56.4892 1.50499 56.4892 1.57869C56.4892 1.65239 56.525 1.76293 56.5608 1.79978H56.5965L56.8113 1.83663C57.2408 1.87347 57.384 2.09456 57.6345 2.72098L59.5672 7.6218C59.782 8.21137 59.9609 8.72725 60.0683 9.09573V9.13258H60.1041C60.1757 9.16943 60.2472 9.16942 60.283 9.16942C60.3546 9.16942 60.3904 9.16943 60.462 9.13258H60.4978V9.09573C60.6767 8.50616 61.2136 7.14277 61.6431 6.14787L62.2515 4.74764C62.7526 3.56849 63.1821 2.64729 63.4684 2.16826C63.6116 1.94717 63.7548 1.83662 63.9695 1.79978L64.3274 1.76293L64.3632 1.72608C64.4348 1.65238 64.4348 1.54184 64.4348 1.46814C64.4348 1.39445 64.399 1.32075 64.3274 1.2839H64.2916H64.2559C63.8979 1.32075 63.54 1.32075 63.1821 1.32075C62.7526 1.32075 62.3231 1.32075 62.0368 1.2839H62.001H61.9652C61.8936 1.32075 61.8578 1.39445 61.8578 1.46814C61.8578 1.54184 61.8936 1.65239 61.9294 1.68924L62.1442 1.72608C62.5379 1.76293 62.5737 1.83663 62.5737 1.83663C62.5737 1.91032 62.5737 2.02087 62.4663 2.24196C62.2873 2.72099 61.7505 4.01067 61.4283 4.78449C61.3568 4.96873 61.2494 5.22666 61.142 5.52145C60.9273 6.03733 60.6767 6.66374 60.462 7.14277C59.9251 5.92678 59.4598 4.67394 58.9588 3.4211C58.6366 2.61044 58.4577 2.02087 58.4219 1.87348C58.4219 1.83663 58.5293 1.79978 58.8514 1.76293L59.0303 1.72608H59.0661C59.1019 1.68923 59.1377 1.57869 59.1377 1.50499C59.1377 1.4313 59.1019 1.3576 59.0303 1.32075H58.9946H58.9588C58.4577 1.3576 58.0998 1.3576 57.6345 1.3576C57.3124 1.39445 56.9902 1.39445 56.6323 1.3576ZM102.731 1.3576C102.66 1.39445 102.624 1.46814 102.588 1.54184C102.588 1.61554 102.588 1.72608 102.66 1.79978V1.83663L102.982 1.91032C103.268 1.94717 103.411 1.98402 103.805 2.72098L105.094 5.30036C105.416 5.92678 105.451 6.03733 105.451 6.66375V7.25332C105.451 8.46931 105.416 8.543 104.879 8.6167L104.521 8.65355L104.485 8.6904C104.413 8.7641 104.413 8.87464 104.413 8.94834C104.413 9.02203 104.449 9.09573 104.521 9.13258H104.557H104.592C105.165 9.09573 105.559 9.09573 106.024 9.09573C106.489 9.09573 106.847 9.09573 107.527 9.13258H107.563C107.599 9.09573 107.67 9.05888 107.67 8.94834C107.67 8.87464 107.67 8.7641 107.599 8.6904L107.563 8.65355L107.134 8.6167C106.633 8.57985 106.561 8.50616 106.561 7.25332V6.66375C106.561 5.81624 106.597 5.74254 107.062 4.89503L107.742 3.67904C107.814 3.56849 107.885 3.45795 107.921 3.34741C108.351 2.57359 108.673 2.02087 109.138 1.91032L109.46 1.83663C109.532 1.79978 109.532 1.68923 109.532 1.61553C109.532 1.54184 109.496 1.46814 109.424 1.39445H109.388H109.353C108.565 1.4313 108.1 1.4313 107.277 1.39445H107.241C107.169 1.4313 107.134 1.50499 107.134 1.57869C107.134 1.65239 107.134 1.76293 107.205 1.83663L107.241 1.87348L107.456 1.91032C107.67 1.94717 107.814 1.98402 107.849 2.02087C107.814 2.16826 107.42 2.90523 107.205 3.34741L107.169 3.45795C106.919 3.97382 106.597 4.5634 106.203 5.22666C105.917 4.67394 105.63 4.08437 105.344 3.53165C105.237 3.31056 105.129 3.08947 105.022 2.86838C104.95 2.72099 104.7 2.13141 104.7 2.02087C104.7 1.98402 104.736 1.94717 105.094 1.91032L105.272 1.87348L105.308 1.83663C105.38 1.76293 105.38 1.65239 105.38 1.57869C105.38 1.50499 105.308 1.43129 105.237 1.43129C104.95 1.46814 104.557 1.46814 104.056 1.46814C103.519 1.39445 103.125 1.39445 102.731 1.3576ZM12.6451 1.3576C12.1082 1.39445 11.7503 1.39445 11.3566 1.39445C11.0702 1.39445 10.8197 1.39445 10.5334 1.39445C10.3544 1.39445 10.1755 1.39445 9.96072 1.39445H9.92493H9.88914C9.78176 1.4313 9.78176 1.57869 9.78176 1.61553C9.78176 1.72608 9.81756 1.79978 9.85335 1.83663H9.88914L10.2113 1.87348C10.7123 1.91032 10.7839 2.02087 10.7839 3.20001V7.25332C10.7839 8.43246 10.7481 8.46931 10.2113 8.57986L9.99651 8.6167L9.96072 8.65355C9.88914 8.72725 9.88914 8.83779 9.88914 8.91149C9.88914 8.98518 9.92493 9.05888 9.99651 9.09573H10.0323H10.0681C10.2113 9.09573 10.3544 9.09573 10.4976 9.09573C10.7481 9.09573 11.0345 9.05888 11.3208 9.05888C11.7503 9.05888 12.0724 9.05888 12.7166 9.09573H12.7524H12.7882C12.8598 9.05888 12.8956 8.94834 12.8956 8.87464C12.8956 8.7641 12.8598 8.6904 12.824 8.65355L12.4661 8.6167C11.9292 8.543 11.8576 8.50616 11.8576 7.29017V5.70569C11.8576 5.44775 11.8576 5.44776 12.3229 5.44776H15.4726C15.9378 5.44776 15.9378 5.44775 15.9378 5.70569V7.29017C15.9378 8.50616 15.9378 8.50616 15.3294 8.6167L15.0788 8.65355L15.0431 8.6904C14.9715 8.7641 14.9715 8.87464 14.9715 8.94834C14.9715 9.02203 15.0073 9.09573 15.0788 9.13258H15.1146H15.1504C15.6873 9.09573 16.0452 9.09573 16.4747 9.09573C16.9042 9.09573 17.2979 9.09573 17.799 9.13258H17.8348H17.8706C17.9779 9.09573 17.9779 8.94834 17.9779 8.91149C17.9779 8.80094 17.9421 8.72725 17.9063 8.6904L17.62 8.65355C17.0474 8.57985 17.0474 8.50616 17.0474 7.32701V3.27371C17.0474 2.05771 17.0832 1.98402 17.62 1.94717L17.8348 1.91032H17.8706C17.9421 1.87347 17.9421 1.79978 17.9421 1.68924C17.9421 1.65239 17.9063 1.50499 17.8348 1.46814H17.799H17.7632C17.2263 1.50499 16.8684 1.50499 16.4747 1.50499C16.0094 1.50499 15.6157 1.50499 15.1504 1.46814H15.1146H15.0788C14.9715 1.50499 14.9715 1.65239 14.9715 1.68924C14.9715 1.79978 15.0073 1.87347 15.0431 1.91032L15.2936 1.94717C15.8663 2.02087 15.902 2.09456 15.902 3.27371V4.56339C15.902 4.82133 15.902 4.82134 15.4368 4.82134H12.2871C11.8219 4.82134 11.8219 4.82133 11.8219 4.56339V3.27371C11.8219 2.05771 11.8576 1.98402 12.3945 1.94717L12.6093 1.91032H12.6451C12.7166 1.87347 12.7166 1.79978 12.7166 1.68924C12.7882 1.54184 12.7524 1.43129 12.6451 1.3576ZM51.9079 1.3576C51.8005 1.39445 51.8005 1.54184 51.7647 1.57869C51.7647 1.68923 51.8005 1.76293 51.8363 1.79978L52.1227 1.83663C52.6595 1.87347 52.6953 1.98402 52.6953 3.20001V7.21647C52.6953 8.43246 52.6595 8.50616 52.0869 8.57986L51.8005 8.6167L51.7647 8.65355C51.6932 8.72725 51.6932 8.83779 51.6932 8.91149C51.6932 8.98518 51.729 9.05888 51.8005 9.09573H51.8363H51.8721C52.4448 9.05888 52.8027 9.05888 53.268 9.05888C53.6975 9.05888 54.0912 9.05888 54.628 9.09573H54.6638H54.6996C54.807 9.05888 54.807 8.91149 54.807 8.87464C54.807 8.7641 54.7712 8.6904 54.7354 8.65355L54.4133 8.6167C53.8406 8.543 53.8048 8.46931 53.8048 7.25332V3.23686C53.8048 2.02087 53.8406 1.91032 54.3775 1.87348L54.6638 1.83663C54.6996 1.79978 54.7354 1.72608 54.7354 1.61553C54.7354 1.57869 54.7354 1.4313 54.628 1.39445H54.5923H54.5565C54.0554 1.4313 53.6617 1.43129 53.1964 1.43129C52.8385 1.39444 52.4448 1.39445 51.9079 1.3576ZM89.2023 1.3576C89.0949 1.43129 89.0949 1.54184 89.0591 1.57869C89.0591 1.68923 89.0949 1.76293 89.1307 1.79978L89.417 1.83663C89.9897 1.87347 89.9897 1.94717 89.9897 3.20001V7.21647C89.9897 8.43246 89.9539 8.50616 89.3812 8.57986L89.0949 8.6167L89.0591 8.65355C88.9875 8.72725 88.9875 8.83779 88.9875 8.91149C88.9875 8.98518 89.0233 9.05888 89.0949 9.09573H89.1307H89.1665C89.7391 9.05888 90.097 9.05888 90.5623 9.05888C90.9918 9.05888 91.3497 9.05888 91.9224 9.09573H91.9582C92.0656 9.05888 92.0655 8.91149 92.0655 8.87464C92.0655 8.7641 92.0298 8.6904 91.994 8.65355L91.6719 8.6167C91.0992 8.543 91.0634 8.46931 91.0634 7.25332V3.23686C91.0634 2.02087 91.0992 1.91032 91.6361 1.87348L91.9224 1.83663C91.994 1.79978 91.994 1.72608 91.994 1.61553C91.994 1.57869 91.9582 1.4313 91.8866 1.39445H91.8508C91.3139 1.4313 90.956 1.43129 90.4907 1.43129C90.1328 1.39444 89.7749 1.39445 89.2023 1.3576ZM76.389 1.3576C75.3869 1.3576 74.5995 1.39444 73.9195 1.43129H73.8837C73.8121 1.46814 73.7763 1.54184 73.7763 1.61553C73.7763 1.72608 73.8121 1.79978 73.8837 1.83663L74.2416 1.87348C74.5995 1.91032 74.6353 1.98402 74.6353 3.12631V7.17962C74.6353 8.35877 74.5995 8.43246 74.0626 8.50616L73.7405 8.54301L73.7047 8.57986C73.6331 8.65355 73.6331 8.7641 73.6689 8.83779C73.6689 8.91149 73.7047 8.98518 73.7763 8.98518H73.8121C74.3132 8.94834 74.7069 8.94834 75.1721 8.94834C75.6374 8.94834 75.9953 8.94834 76.4606 8.98518H76.4964H76.5322C76.6038 8.94834 76.6396 8.83779 76.6396 8.80094C76.6396 8.6904 76.6396 8.6167 76.568 8.57986L76.3175 8.54301C75.7448 8.46931 75.7448 8.39562 75.7448 7.21647V5.77939C75.7448 5.63199 75.7448 5.632 76.1743 5.632C76.6038 5.632 76.7469 5.74254 76.8901 5.96363C77.0691 6.22157 77.248 6.51636 77.427 6.84799C77.6059 7.17962 77.8207 7.47441 77.9639 7.69549C78.7155 8.80094 79.2881 9.16942 80.2903 9.16942C80.505 9.16942 80.684 9.13258 80.7913 9.09573H80.8271C80.8629 9.05888 80.8987 8.98518 80.8987 8.91149C80.8987 8.83779 80.8629 8.80095 80.7913 8.7641H80.7556C80.505 8.72725 80.2187 8.6167 80.0397 8.46931C79.2881 7.80604 78.6797 6.84799 77.8565 5.4846C77.7849 5.37406 77.7849 5.33721 77.7849 5.33721C78.1428 5.18982 79.1807 4.63709 79.1807 3.38425C79.1807 2.4262 78.6797 1.94717 78.2144 1.72608C77.7133 1.39445 76.9975 1.3576 76.389 1.3576ZM118.802 1.72608C120.877 1.72608 121.629 3.75273 121.629 5.52145C121.629 7.84289 120.305 8.6904 119.159 8.6904C116.905 8.6904 116.296 6.33211 116.296 4.93188C116.26 2.57359 117.62 1.72608 118.802 1.72608ZM76.389 1.87348C77.6059 1.87348 78.0712 2.75783 78.0712 3.53165C78.0712 4.15807 77.8923 4.5634 77.5701 4.85818C77.248 5.11612 76.8185 5.11612 76.4964 5.11612C75.9953 5.11612 75.8522 5.07927 75.8164 5.07927C75.8164 5.04242 75.8164 4.89503 75.8164 4.78449V2.13141C75.7448 1.91032 75.7448 1.87348 76.389 1.87348ZM10.9271 15.2125C8.20695 15.2125 5.73737 15.9864 3.80465 17.534C1.80034 19.1185 0.476074 21.6978 0.476074 24.7194C0.476074 28.22 2.12247 30.6888 4.19835 32.1627C6.13107 33.4893 8.38591 33.9683 10.7481 33.9683C12.4303 33.9683 14.3272 33.563 14.8999 33.3419C15.1862 33.2313 15.5083 33.1208 15.8305 33.0839C16.2242 32.5681 16.9042 30.7994 17.0832 29.3623C16.9758 29.178 16.5821 29.1043 16.4031 29.2517C15.7947 30.8362 14.2914 33.1208 10.8913 33.1208C6.56056 33.1208 3.08882 29.9887 3.08882 24.2772C3.08882 18.6763 6.52477 16.0232 10.5334 16.0232C14.363 16.0232 15.5441 18.1236 15.9378 19.966C16.1168 20.1134 16.5105 20.1134 16.6537 19.9291C16.4389 18.2709 16.2957 16.5759 16.2957 15.9495C16.0452 15.9864 15.8663 15.9127 15.5441 15.839C14.363 15.5073 12.3587 15.2125 10.9271 15.2125ZM64.2916 15.2125C61.5357 15.2125 59.1019 15.9864 57.1692 17.534C55.1649 19.1185 53.8406 21.6978 53.8406 24.7194C53.8406 28.22 55.487 30.6888 57.5629 32.1627C59.4956 33.4893 61.7505 33.9683 64.1127 33.9683C65.7949 33.9683 67.6918 33.563 68.2645 33.3419C68.5508 33.2313 68.8729 33.1208 69.195 33.0839C69.5887 32.5681 70.2688 30.7994 70.4477 29.3623C70.3403 29.178 69.9466 29.1043 69.7677 29.2517C69.1592 30.8362 67.656 33.1208 64.2559 33.1208C59.9251 33.1208 56.4534 29.9887 56.4534 24.2772C56.4534 18.6763 59.8893 16.0232 63.8979 16.0232C67.7276 16.0232 68.9087 18.1236 69.3024 19.966C69.4814 20.1134 69.8751 20.1134 70.0182 19.9291C69.8035 18.2709 69.6603 16.5759 69.6603 15.9495C69.4098 15.9864 69.2308 15.9127 68.9445 15.839C67.7276 15.5073 65.7233 15.2125 64.2916 15.2125ZM81.9367 15.2125C81.6503 15.581 81.1851 16.0601 80.5766 16.2443C80.6482 16.6865 80.505 17.2023 80.1113 18.1604L77.427 25.4932C76.3175 28.5148 75.5658 30.2835 75.1006 31.5363C74.7426 32.4944 74.17 32.826 73.5257 32.8629L72.6668 32.9365C72.5236 33.0839 72.5594 33.4893 72.7026 33.5998C73.4184 33.563 74.3489 33.5261 75.2437 33.5261C76.4964 33.563 77.2838 33.563 77.9639 33.5998C78.2144 33.4893 78.2144 33.0471 77.9996 32.9365L77.1407 32.8629C76.4964 32.826 76.389 32.6418 76.389 32.3101C76.389 32.0153 76.568 31.2784 76.9617 30.0624L77.8923 27.2251C78.0712 26.6723 78.2502 26.5618 78.8944 26.5618H82.8672C83.6546 26.5618 83.762 26.6355 83.941 27.2251L85.0863 30.9099C85.301 31.5732 85.4442 32.0522 85.4442 32.347C85.4442 32.6049 85.0863 32.7892 84.5136 32.826L83.762 32.8997C83.5831 33.0471 83.6189 33.4524 83.7978 33.563C84.5494 33.5261 85.5516 33.4893 86.8043 33.4893C87.9854 33.4893 88.9159 33.5261 89.9897 33.563C90.1328 33.4524 90.1686 33.0102 89.9897 32.8997L89.2738 32.826C88.1285 32.6786 87.8064 32.2733 87.019 29.9518L83.4041 19.0448C83.0104 17.8656 82.5809 16.6128 82.2588 15.3968C82.2588 15.2494 82.0798 15.2125 81.9367 15.2125ZM102.266 15.2125C98.2932 15.2125 95.6805 16.5022 93.9267 18.3815C92.2803 20.187 91.5645 22.5085 91.5645 24.7931C91.5645 27.1882 92.4235 29.3254 93.9983 30.9467C96.0384 33.0471 98.9017 33.9683 102.015 33.9683C103.447 33.9683 105.344 33.6367 106.74 33.2682C107.241 33.1208 107.706 33.0102 108.028 33.0102C108.136 32.9365 108.136 32.7523 108.064 32.6786C107.599 32.4944 107.42 31.8311 107.42 30.7625V29.2517C107.42 27.8515 107.456 27.1145 108.565 26.9671L108.995 26.8934C109.174 26.746 109.138 26.3407 108.959 26.2302C108.1 26.267 107.205 26.3039 106.167 26.3039C104.628 26.3039 103.161 26.267 102.409 26.2302C102.23 26.3039 102.194 26.7829 102.409 26.8934L103.554 27.0408C105.165 27.2251 105.272 27.4093 105.272 29.6571V30.7256C105.272 31.61 105.129 32.089 105.022 32.2733C104.736 32.7155 103.769 33.0839 102.123 33.0839C96.8258 33.0839 94.213 28.9938 94.213 23.7982C94.213 19.7449 96.4679 15.9864 101.55 15.9864C104.235 15.9864 106.203 16.9076 106.955 19.8186C107.098 19.966 107.599 19.966 107.67 19.7449C107.42 18.1236 107.277 16.7233 107.277 15.8021C106.955 15.839 106.131 15.6547 105.666 15.5442C105.165 15.5073 103.769 15.2125 102.266 15.2125ZM122.023 15.2125C116.618 15.2125 112.645 19.3764 112.645 24.7931C112.645 29.657 116.189 33.9683 122.023 33.9683C127.105 33.9683 131.149 29.9887 131.149 24.4983C131.149 19.7449 128.107 15.2125 122.023 15.2125ZM20.8054 15.581C20.6623 15.6547 20.5907 16.1337 20.7696 16.2443L21.4497 16.2811C22.8097 16.3917 22.9887 16.8339 22.9887 19.708V29.4728C22.9887 32.3101 22.9529 32.6049 21.4497 32.8629L21.0202 32.9365C20.877 33.0839 20.9128 33.5261 21.056 33.5998C22.0939 33.563 22.9887 33.5261 24.0982 33.5261C25.1362 33.5261 26.0309 33.563 27.4268 33.5998C27.57 33.5261 27.6415 33.0471 27.4626 32.9365L26.711 32.8629C25.2435 32.7155 25.1004 32.3101 25.1004 29.4728V25.6406C25.1004 24.8299 25.1719 24.7562 26.4246 24.7562H33.9408C35.1935 24.7562 35.265 24.7931 35.265 25.6406V29.4728C35.265 32.3101 35.265 32.6049 33.6544 32.8629L33.1534 32.9365C33.0102 33.0839 33.046 33.5261 33.1892 33.5998C34.3345 33.563 35.3008 33.5261 36.3746 33.5261C37.4125 33.5261 38.3073 33.563 39.56 33.5998C39.7031 33.5261 39.7747 33.0471 39.5958 32.9365L38.9515 32.8629C37.4125 32.6786 37.3767 32.3101 37.3767 29.4728V19.708C37.3767 16.8707 37.4125 16.4654 38.9515 16.2811L39.4884 16.2443C39.6316 16.1337 39.5958 15.6547 39.4526 15.581C38.2715 15.6179 37.3767 15.6547 36.3388 15.6547C35.265 15.6547 34.3703 15.6179 33.1534 15.581C33.0102 15.6547 32.9386 16.1337 33.1176 16.2443L33.6187 16.2811C35.1577 16.4285 35.2293 16.8339 35.2293 19.708V22.8401C35.2293 23.6876 35.1935 23.7245 33.905 23.7245H26.3888C25.1362 23.7245 25.0646 23.6876 25.0646 22.8401V19.708C25.0646 16.8707 25.1362 16.4654 26.6394 16.2811L27.1405 16.2443C27.2836 16.1337 27.2478 15.6547 27.1047 15.581C25.9594 15.6179 25.0646 15.6547 24.0624 15.6547C22.9887 15.6547 22.0939 15.581 20.8054 15.581ZM43.9265 15.581C43.7833 15.6547 43.7117 16.1337 43.8907 16.2443L44.5349 16.2811C46.074 16.4285 46.1455 16.8707 46.1455 19.7449V29.3991C46.1455 32.2733 46.1098 32.6418 44.5349 32.826L43.8907 32.8997C43.7475 33.0471 43.7833 33.4893 43.9265 33.563C45.2508 33.5261 46.1455 33.4893 47.2551 33.4893C48.293 33.4893 49.1878 33.5261 50.5121 33.563C50.6552 33.4893 50.7268 33.0102 50.5478 32.8997L49.9036 32.826C48.3646 32.6418 48.293 32.2733 48.293 29.3991V19.7449C48.293 16.8707 48.3288 16.4285 49.9036 16.2811L50.5478 16.2443C50.691 16.1337 50.6552 15.6547 50.5121 15.581C49.1878 15.6179 48.293 15.6547 47.2551 15.6547C46.1455 15.6547 45.2508 15.6179 43.9265 15.581ZM121.557 16.0601C126.604 16.0601 128.501 20.8872 128.501 25.3458C128.501 30.6888 125.494 33.1208 122.345 33.1208C117.155 33.1208 115.258 27.9252 115.258 23.9087C115.294 17.9762 118.837 16.0601 121.557 16.0601ZM81.0419 18.5289H81.0777C81.2208 18.8605 81.4714 19.5975 81.6861 20.2239L83.1178 24.6457C83.3683 25.3827 83.2967 25.4932 82.5451 25.4932H79.2881C78.5723 25.4932 78.5365 25.4563 78.7513 24.8299L80.3977 20.1134C80.684 19.3027 80.9703 18.6394 81.0419 18.5289Z" fill="black"/>
</g>
<defs>
<clipPath id="clip0">
<rect width="130.995" height="33.1634" fill="white" transform="translate(0.331055 0.91452)"/>
</clipPath>
</defs>
</svg>
