<svg width="25" height="25" viewBox="0 0 25 25" fill="none" xmlns="http://www.w3.org/2000/svg">
<path d="M25 4.48818C24.0703 4.896 23.0797 5.16631 22.0469 5.29756C23.1094 4.66318 23.9203 3.66631 24.3016 2.46475C23.3109 3.05537 22.2172 3.47256 21.0516 3.70537C20.1109 2.70381 18.7703 2.0835 17.3078 2.0835C14.4703 2.0835 12.1859 4.38662 12.1859 7.21006C12.1859 7.61631 12.2203 8.00693 12.3047 8.37881C8.04375 8.171 4.27344 6.12881 1.74062 3.01787C1.29844 3.78506 1.03906 4.66318 1.03906 5.6085C1.03906 7.3835 1.95312 8.95693 3.31562 9.86787C2.49219 9.85225 1.68437 9.61318 1 9.23662C1 9.25225 1 9.27256 1 9.29287C1 11.7835 2.77656 13.8522 5.10625 14.3288C4.68906 14.4429 4.23438 14.4976 3.7625 14.4976C3.43437 14.4976 3.10312 14.4788 2.79219 14.4101C3.45625 16.4397 5.34062 17.9319 7.58125 17.9804C5.8375 19.3444 3.62344 20.1663 1.22656 20.1663C0.80625 20.1663 0.403125 20.1476 0 20.096C2.27031 21.5601 4.96094 22.396 7.8625 22.396C17.2937 22.396 22.45 14.5835 22.45 7.81162C22.45 7.58506 22.4422 7.36631 22.4312 7.14912C23.4484 6.42725 24.3031 5.52568 25 4.48818Z" fill="#827D78"/>
</svg>
