<svg width="594" height="402" viewBox="0 0 594 402" fill="none" xmlns="http://www.w3.org/2000/svg">
<path opacity="0.7" d="M405.52 60.8497C332.322 60.8497 268.871 97.5366 238.013 151.051C223.84 175.666 195.075 191.135 163.559 191.031C163.38 191.031 163.141 191.031 162.961 191.031C72.9588 191.083 0 238.274 0 296.44C0 354.606 72.9588 401.85 162.961 401.85C200.158 401.85 234.425 393.802 261.874 380.214C283.882 369.344 310.314 367.515 333.637 375.981C355.764 384.029 380.044 388.471 405.52 388.471C509.516 388.471 593.718 314.47 593 223.432C592.282 133.283 508.738 60.8497 405.52 60.8497Z" fill="#E8EDFF"/>
<path d="M547.167 225.242H382.831C380.096 225.242 378 223.056 378 220.415V132.069C378 129.337 380.187 127.242 382.831 127.242H547.167C549.901 127.242 551.997 129.428 551.997 132.069V220.415C552.088 223.056 549.901 225.242 547.167 225.242Z" fill="white" stroke="black" stroke-width="1.1664" stroke-miterlimit="10"/>
<path d="M544 133.242H386V218.242H544V133.242Z" fill="white" stroke="black" stroke-miterlimit="10"/>
<path opacity="0.6" d="M421 162.242V185.242H427V162.242H421Z" fill="#A0AAB8"/>
<path d="M411 162.242V185.242H417V162.242H411Z" fill="#A0AAB8"/>
<path opacity="0.5" d="M462.702 161.902V184.955H469.081V161.902H462.702Z" fill="#FDEB3B"/>
<path opacity="0.8" d="M452.748 161.879V184.933H459.126V161.879H452.748Z" fill="#FDEB3B"/>
<path d="M442.793 161.857V184.911H449.172V161.857H442.793Z" fill="#FDEB3B"/>
<path d="M432.3 161.843V184.897H438.678V161.843H432.3Z" fill="#FDEB3B"/>
<path opacity="0.3" d="M514.886 161.872V184.926H521.265V161.872H514.886Z" fill="#0A3BFF"/>
<path opacity="0.6" d="M504.932 161.85V184.903H511.31V161.85H504.932Z" fill="#0A3BFF"/>
<path d="M494.977 161.827V184.881H501.355V161.827H494.977Z" fill="#0A3BFF"/>
<path d="M484.484 161.904V184.958H490.863V161.904H484.484Z" fill="#0A3BFF"/>
<path d="M473.991 161.891V184.945H480.37V161.891H473.991Z" fill="#0A3BFF"/>
<path d="M263.089 10.1112C265.605 10.1112 267.645 8.07157 267.645 5.55559C267.645 3.03961 265.605 1 263.089 1C260.573 1 258.534 3.03961 258.534 5.55559C258.534 8.07157 260.573 10.1112 263.089 10.1112Z" fill="white" stroke="black" stroke-miterlimit="10"/>
<path d="M227.826 76.4482C230.342 76.4482 232.381 74.4086 232.381 71.8926C232.381 69.3766 230.342 67.337 227.826 67.337C225.31 67.337 223.27 69.3766 223.27 71.8926C223.27 74.4086 225.31 76.4482 227.826 76.4482Z" fill="white" stroke="black" stroke-miterlimit="10"/>
<path d="M297.899 40.8204H262.453V91.8488H297.899V40.8204Z" fill="white" stroke="black" stroke-miterlimit="10"/>
<path d="M280.222 74.1712C285.556 74.1712 289.881 69.8467 289.881 64.5122C289.881 59.1777 285.556 54.8533 280.222 54.8533C274.887 54.8533 270.563 59.1777 270.563 64.5122C270.563 69.8467 274.887 74.1712 280.222 74.1712Z" fill="#FDEB3B" stroke="black" stroke-miterlimit="10"/>
<path d="M284.504 59.8644L279.401 64.9672L276.303 61.8691L274.025 64.1471L279.401 69.5233L286.782 62.1424L284.504 59.8644Z" fill="white"/>
<path d="M297.9 50.1149H275.301V91.8488H297.9V50.1149Z" fill="#E6EBFF"/>
<path d="M316.579 53.0306H281.133V104.059H316.579V53.0306Z" fill="white" stroke="black" stroke-miterlimit="10"/>
<path d="M298.81 86.3815C304.145 86.3815 308.469 82.057 308.469 76.7226C308.469 71.3881 304.145 67.0636 298.81 67.0636C293.476 67.0636 289.151 71.3881 289.151 76.7226C289.151 82.057 293.476 86.3815 298.81 86.3815Z" fill="#0A3BFF" stroke="black" stroke-miterlimit="10"/>
<path d="M303.184 72.0747L298.081 77.1775L294.983 74.1705L292.705 76.4486L297.99 81.8248L305.462 74.3528L303.184 72.0747Z" fill="white"/>
<path d="M303.275 146.704C302.911 147.889 302.729 149.438 302.729 151.351" stroke="black" stroke-miterlimit="10"/>
<path d="M306.373 103.877C306.373 111.805 302.729 111.805 302.729 119.732C302.729 127.66 306.373 127.66 306.373 135.587C306.373 138.595 305.827 140.417 305.189 142.057" stroke="black" stroke-miterlimit="10"/>
<path d="M271.656 113.171C272.658 116.907 274.754 118.365 274.754 124.288C274.754 132.216 271.109 132.216 271.109 140.144" stroke="black" stroke-miterlimit="10"/>
<path d="M274.663 92.6688C274.663 100.596 271.018 100.596 271.018 108.524" stroke="black" stroke-miterlimit="10"/>
<path d="M332.5 45.2423C334.985 45.2423 337 43.4514 337 41.2423C337 39.0332 334.985 37.2423 332.5 37.2423C330.015 37.2423 328 39.0332 328 41.2423C328 43.4514 330.015 45.2423 332.5 45.2423Z" fill="white" stroke="black" stroke-miterlimit="10"/>
<path d="M199.258 225.242H34.8307C32.0964 225.242 30 223.056 30 220.415V132.069C30 129.337 32.1875 127.242 34.8307 127.242H199.167C201.901 127.242 203.997 129.428 203.997 132.069V220.415C204.088 223.056 201.901 225.242 199.258 225.242Z" fill="white" stroke="black" stroke-width="1.1664" stroke-miterlimit="10"/>
<path d="M196 133.242H38V218.242H196V133.242Z" fill="white" stroke="black" stroke-miterlimit="10"/>
<path d="M92.51 197.65H69.4561V204.028H92.51V197.65Z" fill="#A0AAB8"/>
<path d="M92.51 187.718H69.4561V194.097H92.51V187.718Z" fill="#A0AAB8"/>
<path d="M124.403 197.651H101.349V204.029H124.403V197.651Z" fill="#FDEB3B"/>
<path d="M124.403 187.718H101.349V194.097H124.403V187.718Z" fill="#FDEB3B"/>
<path opacity="0.8" d="M124.403 177.785H101.349V184.163H124.403V177.785Z" fill="#FDEB3B"/>
<path opacity="0.5" d="M124.403 167.307H101.349V173.686H124.403V167.307Z" fill="#FDEB3B"/>
<path d="M155.84 197.651H132.786V204.029H155.84V197.651Z" fill="#0A3BFF"/>
<path d="M155.84 187.718H132.786V194.097H155.84V187.718Z" fill="#0A3BFF"/>
<path d="M155.84 177.786H132.786V184.164H155.84V177.786Z" fill="#0A3BFF"/>
<path opacity="0.6" d="M155.84 167.306H132.786V173.684H155.84V167.306Z" fill="#0A3BFF"/>
<path opacity="0.3" d="M155.84 156.828H132.786V163.206H155.84V156.828Z" fill="#0A3BFF"/>
<path d="M373.258 355.242H208.831C206.096 355.242 204 353.056 204 350.415V262.069C204 259.337 206.188 257.242 208.831 257.242H373.167C375.901 257.242 377.997 259.428 377.997 262.069V350.415C378.088 353.056 375.901 355.242 373.258 355.242Z" fill="white" stroke="black" stroke-width="1.1664" stroke-miterlimit="10"/>
<path d="M371 264.242H213V349.242H371V264.242Z" fill="white" stroke="black" stroke-miterlimit="10"/>
<path d="M420.5 103.242C422.985 103.242 425 101.228 425 98.7423C425 96.257 422.985 94.2423 420.5 94.2423C418.015 94.2423 416 96.257 416 98.7423C416 101.228 418.015 103.242 420.5 103.242Z" fill="white" stroke="black" stroke-miterlimit="10"/>
<path d="M307.34 294.097C307.432 293.361 307.524 292.624 307.524 291.887C307.524 283.782 300.977 277.242 292.862 277.242C284.746 277.242 278.199 283.782 278.199 291.887C278.199 292.624 278.291 293.361 278.383 294.097H278.199C278.199 294.097 279.582 302.111 277 305.703C277 305.703 283.548 312.242 286.406 312.242C286.406 312.242 291.847 305.703 298.579 312.242C298.579 312.242 306.233 310.032 309 305.242C309 305.334 307.34 306.532 307.34 294.097Z" fill="#A4AAB7"/>
<path d="M319.28 309.894C317.72 309.164 315.978 308.8 314.235 308.709C310.291 307.068 308.365 304.242 308.365 304.242C305.063 309.438 298 311.17 298 311.17C298.917 313.357 298.826 317.55 298.55 320.467C298.367 321.47 298.275 322.473 298.275 323.475C298.275 331.679 304.971 338.242 313.134 338.242C321.298 338.242 327.993 331.588 327.993 323.475C328.177 317.368 324.508 312.172 319.28 309.894Z" fill="#173FED"/>
<path d="M284.716 323.326C284.808 321.642 284.532 320.046 283.982 318.362C284.074 314.196 286 311.536 286 311.536C280.588 309.231 276.736 305.242 276.736 305.242C275.085 306.838 270.04 307.813 267.289 308.699C266.28 308.877 265.362 309.143 264.354 309.497C256.741 312.423 252.98 320.844 256.098 328.202C259.125 335.56 267.839 339.195 275.452 336.181C281.047 333.964 284.532 328.823 284.716 323.326Z" fill="#FDEB3B"/>
</svg>
