<svg width="671" height="554" viewBox="0 0 671 554" fill="none" xmlns="http://www.w3.org/2000/svg">
<path d="M146.563 292.47C-27.3518 302.229 -0.500034 237 -0.500035 194.5L-0.500133 0.668636L449.652 -0.331386C452.576 13.7818 440.117 69.3055 433.523 94.3031C400.169 220.142 435.091 276.66 456.72 289.19C513.306 352.624 461.017 414.068 427.799 436.861C340.093 311.332 203.764 288.297 146.563 292.47Z" fill="#B7C5FF"/>
<path d="M-3.24565e-06 49C-3.24565e-06 49 172.609 102.078 238.806 220.918C305.004 339.758 400.396 346.082 400.396 346.082C400.396 346.082 489.193 274.683 314.461 141.818C314.461 141.818 249.57 97.7713 238 0.500005L0.000113568 0.500001L-3.24565e-06 49Z" fill="#0040FF"/>
<path d="M248.85 159.701C248.85 159.701 371.877 474.59 587.408 552.05C592.669 553.964 598.032 549.644 597.308 544.034C590.712 496.785 547.795 314.524 270.316 141.202L248.85 159.701Z" fill="#FFDE03"/>
<path d="M336.5 309L408.5 253L444 287L476.5 323L508.5 363L533 402L460 462.5L426.5 428L392.5 389.5L363.5 350.5L336.5 309Z" fill="#FFF193"/>
<g clip-path="url(#clip0)">
<path d="M418.407 373.731L454.499 345.916L454.642 345.802C458.079 341.894 464.35 342.865 466.712 347.299L470.569 354.637L477.921 357.552L478.634 351.253L475.646 338.545C474.215 332.784 470.196 328.032 464.743 325.591L459.419 323.166C452.981 320.223 445.449 321.193 439.867 325.64L403.144 354.425C396.847 359.441 394.215 367.737 396.728 375.443L398.758 381.663C400.391 386.796 404.211 391.004 409.164 393.258L419.328 397.794L425.475 396.407L425.887 390.464L419.394 386.864C417.067 385.559 415.515 383.169 415.307 380.411C415.341 377.811 416.403 375.327 418.407 373.731Z" fill="#0040FF" stroke="#0040FF" stroke-miterlimit="10"/>
</g>
<path d="M614.222 260.55L286.549 483.531" stroke="#494F5E" stroke-width="3"/>
<ellipse rx="7.31102" ry="7.31102" transform="matrix(0.984981 0.172664 0.172664 -0.984981 476.464 353.463)" fill="#C4C4C4"/>
<ellipse rx="7.31102" ry="7.31102" transform="matrix(0.984981 0.172664 0.172664 -0.984981 422.464 393.463)" fill="#C4C4C4"/>
<g clip-path="url(#clip1)">
<path d="M591.254 290.018C591.254 290.018 633.355 293.256 646.445 256.798L627.333 229.978C627.333 229.978 587.71 231.131 578.049 273.017L591.254 290.018Z" fill="#FFDE03"/>
</g>
<g clip-path="url(#clip2)">
<path d="M303.543 457.707C303.543 457.707 260.745 454.267 247.614 490.714L267.162 517.66C267.162 517.66 307.42 516.691 317.041 474.794L303.543 457.707Z" fill="#FFDE03"/>
</g>
<ellipse rx="17.6683" ry="17.6683" transform="matrix(0.984981 0.172664 0.172664 -0.984981 421.935 336.982)" fill="#C4C4C4"/>
<ellipse rx="9.13878" ry="8.52953" transform="matrix(0.984981 0.172664 0.172664 -0.984981 407.33 319.793)" fill="#C4C4C4"/>
<defs>
<clipPath id="clip0">
<rect x="482.349" y="324.199" width="80.8644" height="81.77" transform="rotate(96.4596 482.349 324.199)" fill="white"/>
</clipPath>
<clipPath id="clip1">
<rect width="62.4809" height="69.0578" transform="matrix(-0.960324 -0.278887 -0.278887 0.960324 652.922 236.649)" fill="white"/>
</clipPath>
<clipPath id="clip2">
<rect width="63.577" height="69.0578" transform="matrix(0.960324 0.278887 0.278887 -0.960324 241.128 510.859)" fill="white"/>
</clipPath>
</defs>
</svg>
