<?xml version="1.0" encoding="UTF-8"?>
<svg width="450px" height="230px" viewBox="0 0 450 230" version="1.1" xmlns="http://www.w3.org/2000/svg" xmlns:xlink="http://www.w3.org/1999/xlink">
    <!-- Generator: Sketch 50.2 (55047) - http://www.bohemiancoding.com/sketch -->
    <title>EMPOWER_logo</title>
    <desc>Created with Sketch.</desc>
    <defs></defs>
    <g id="Page-1" stroke="none" stroke-width="1" fill="none" fill-rule="evenodd">
        <g id="Artboard" transform="translate(-495.000000, -268.000000)" fill="#FFFFFF" fill-rule="nonzero">
            <g id="Banner" transform="translate(2.000000, -2.000000)">
                <g id="Content" transform="translate(299.000000, 270.000000)">
                    <g id="EMPOWER_logo" transform="translate(194.000000, 0.000000)">
                        <g id="Group" transform="translate(0.000000, 125.265957)">
                            <path d="M0,1.35638298 L42.7659574,1.35638298 L42.7659574,12.4468085 L12.4468085,12.4468085 L12.4468085,23.9361702 L39.0957447,23.9361702 L39.0957447,35.0265957 L12.3670213,35.0265957 L12.3670213,46.9148936 L43.0851064,46.9148936 L43.0851064,58.0053191 L0,58.0053191 L0,1.35638298 Z M52.9787234,1.35638298 L66.3829787,1.35638298 L81.3031915,25.2925532 L96.2234043,1.35638298 L109.62766,1.35638298 L109.62766,58.0053191 L97.2606383,58.0053191 L97.2606383,20.9840426 L81.3031915,45.1595745 L80.9840426,45.1595745 L65.1861702,21.2234043 L65.1861702,58.0053191 L52.9787234,58.0053191 L52.9787234,1.35638298 Z M121.595745,1.35638298 L144.734043,1.35638298 C158.218085,1.35638298 166.43617,9.33510638 166.43617,20.9042553 L166.43617,21.0638298 C166.43617,34.1489362 156.223404,41.0106383 143.537234,41.0106383 L134.042553,41.0106383 L134.042553,58.0053191 L121.595745,58.0053191 L121.595745,1.35638298 Z M143.93617,29.9202128 C150.159574,29.9202128 153.829787,26.1702128 153.829787,21.3031915 L153.829787,21.143617 C153.829787,15.5585106 149.920213,12.5265957 143.696809,12.5265957 L134.042553,12.5265957 L134.042553,29.8404255 L143.93617,29.8404255 L143.93617,29.9202128 Z M171.303191,29.8404255 L171.303191,29.6808511 C171.303191,13.5638298 183.989362,0.39893617 201.462766,0.39893617 C218.93617,0.39893617 231.462766,13.4042553 231.462766,29.5212766 L231.462766,29.6808511 C231.462766,45.7978723 218.776596,58.962766 201.303191,58.962766 C183.909574,58.962766 171.303191,45.9574468 171.303191,29.8404255 Z M218.537234,29.8404255 L218.537234,29.6808511 C218.537234,19.9468085 211.43617,11.8882979 201.382979,11.8882979 C191.329787,11.8882979 184.388298,19.787234 184.388298,29.5212766 L184.388298,29.6808511 C184.388298,39.4148936 191.489362,47.4734043 201.542553,47.4734043 C211.595745,47.4734043 218.537234,39.4946809 218.537234,29.8404255 Z M232.978723,1.35638298 L246.303191,1.35638298 L258.031915,39.7340426 L270.718085,1.19680851 L281.409574,1.19680851 L294.095745,39.7340426 L305.824468,1.35638298 L318.829787,1.35638298 L299.521277,58.4042553 L288.670213,58.4042553 L275.904255,21.3031915 L263.138298,58.4042553 L252.287234,58.4042553 L232.978723,1.35638298 Z M325.292553,1.35638298 L368.058511,1.35638298 L368.058511,12.4468085 L337.739362,12.4468085 L337.739362,23.9361702 L364.468085,23.9361702 L364.468085,35.0265957 L337.739362,35.0265957 L337.739362,46.9148936 L368.457447,46.9148936 L368.457447,58.0053191 L325.292553,58.0053191 L325.292553,1.35638298 Z M378.271277,1.35638298 L404.202128,1.35638298 C411.382979,1.35638298 416.968085,3.35106383 420.718085,7.10106383 C423.909574,10.2925532 425.585106,14.6808511 425.585106,20.0265957 L425.585106,20.1861702 C425.585106,29.3617021 420.638298,35.106383 413.457447,37.7393617 L427.260638,58.0053191 L412.659574,58.0053191 L400.531915,39.8138298 L390.718085,39.8138298 L390.718085,57.9255319 L378.271277,57.9255319 L378.271277,1.35638298 Z M403.324468,28.8829787 C409.388298,28.8829787 412.898936,25.6117021 412.898936,20.9042553 L412.898936,20.7446809 C412.898936,15.3989362 409.148936,12.6861702 403.085106,12.6861702 L390.718085,12.6861702 L390.718085,28.962766 L403.324468,28.962766 L403.324468,28.8829787 Z" id="Shape"></path>
                        </g>
                        <g id="Group" transform="translate(87.765957, 0.000000)">
                            <path d="M339.414894,14.2819149 C250.132979,32.0744681 242.712766,-7.42021277 166.595745,1.27659574 L133.164894,18.1117021 C212.154255,9.17553191 217.978723,56.6489362 325.37234,27.0478723 C330.319149,25.6914894 334.946809,24.4946809 339.494681,23.4574468 L339.494681,14.2819149 L339.414894,14.2819149 Z" id="Shape"></path>
                            <path d="M339.414894,33.9095745 C326.329787,35.4255319 311.409574,38.2978723 294.015957,42.8457447 C184.547872,71.4893617 181.914894,25.2925532 100.292553,34.6276596 L66.8617021,51.462766 C145.851064,42.5265957 151.675532,90 259.069149,60.3989362 C294.095745,50.7446809 319.148936,48.5106383 339.494681,49.7074468 L339.494681,33.9095745 L339.414894,33.9095745 Z" id="Shape"></path>
                            <path d="M339.414894,70.5319149 C313.164894,64.7074468 282.925532,61.6755319 227.712766,76.1170213 C118.244681,104.760638 115.611702,58.5638298 33.9893617,67.8989362 L0.558510638,84.7340426 C79.5478723,75.7978723 85.3723404,123.271277 192.765957,93.6702128 C272.31383,71.7287234 300.079787,87.9255319 339.414894,96.0638298 L339.414894,70.5319149 Z" id="Shape"></path>
                        </g>
                        <g id="Group" transform="translate(185.904255, 204.255319)">
                            <path d="M0.39893617,0.239361702 L11.3297872,0.239361702 C14.4414894,0.239361702 16.8351064,1.11702128 18.4308511,2.71276596 C19.7074468,4.06914894 20.5053191,5.90425532 20.5053191,7.9787234 L20.5053191,8.05851064 C20.5053191,12.1276596 18.1117021,14.5212766 14.6808511,15.4787234 L21.3031915,24.7340426 L16.1968085,24.7340426 L10.1329787,16.1968085 L4.70744681,16.1968085 L4.70744681,24.7340426 L0.39893617,24.7340426 L0.39893617,0.239361702 Z M11.0904255,12.4468085 C14.2021277,12.4468085 16.1170213,10.8510638 16.1170213,8.37765957 L16.1170213,8.29787234 C16.1170213,5.66489362 14.2021277,4.2287234 11.0106383,4.2287234 L4.70744681,4.2287234 L4.70744681,12.4468085 L11.0904255,12.4468085 Z M26.8085106,0.239361702 L45,0.239361702 L45,4.06914894 L31.1170213,4.06914894 L31.1170213,10.4521277 L43.4042553,10.4521277 L43.4042553,14.2819149 L31.1170213,14.2819149 L31.1170213,20.9042553 L45.1595745,20.9042553 L45.1595745,24.7340426 L26.8085106,24.7340426 L26.8085106,0.239361702 Z M57.4468085,4.2287234 L49.6276596,4.2287234 L49.6276596,0.239361702 L69.5744681,0.239361702 L69.5744681,4.2287234 L61.7553191,4.2287234 L61.7553191,24.8138298 L57.4468085,24.8138298 L57.4468085,4.2287234 Z M75.3989362,0.239361702 L79.7074468,0.239361702 L79.7074468,24.8138298 L75.3989362,24.8138298 L75.3989362,0.239361702 Z M87.3670213,0.239361702 L98.2978723,0.239361702 C101.409574,0.239361702 103.803191,1.11702128 105.398936,2.71276596 C106.675532,4.06914894 107.473404,5.90425532 107.473404,7.9787234 L107.473404,8.05851064 C107.473404,12.1276596 105.079787,14.5212766 101.648936,15.4787234 L108.271277,24.7340426 L103.164894,24.7340426 L97.1010638,16.1968085 L91.6755319,16.1968085 L91.6755319,24.7340426 L87.3670213,24.7340426 L87.3670213,0.239361702 Z M97.9787234,12.4468085 C101.090426,12.4468085 103.005319,10.8510638 103.005319,8.37765957 L103.005319,8.29787234 C103.005319,5.66489362 101.090426,4.2287234 97.8989362,4.2287234 L91.5957447,4.2287234 L91.5957447,12.4468085 L97.9787234,12.4468085 Z M113.776596,0.239361702 L131.968085,0.239361702 L131.968085,4.06914894 L118.085106,4.06914894 L118.085106,10.4521277 L130.37234,10.4521277 L130.37234,14.2819149 L118.085106,14.2819149 L118.085106,20.9042553 L132.12766,20.9042553 L132.12766,24.7340426 L113.776596,24.7340426 L113.776596,0.239361702 Z M138.351064,0.239361702 L142.978723,0.239361702 L150.478723,11.8882979 L157.978723,0.239361702 L162.606383,0.239361702 L162.606383,24.8138298 L158.297872,24.8138298 L158.297872,7.18085106 L150.558511,18.75 L150.398936,18.75 L142.739362,7.2606383 L142.739362,24.8138298 L138.510638,24.8138298 L138.510638,0.239361702 L138.351064,0.239361702 Z M169.787234,0.239361702 L187.978723,0.239361702 L187.978723,4.06914894 L174.095745,4.06914894 L174.095745,10.4521277 L186.382979,10.4521277 L186.382979,14.2819149 L174.095745,14.2819149 L174.095745,20.9042553 L188.138298,20.9042553 L188.138298,24.7340426 L169.787234,24.7340426 L169.787234,0.239361702 Z M194.361702,0.239361702 L198.351064,0.239361702 L211.515957,17.2340426 L211.515957,0.239361702 L215.744681,0.239361702 L215.744681,24.8138298 L212.154255,24.8138298 L198.590426,7.34042553 L198.590426,24.8138298 L194.361702,24.8138298 L194.361702,0.239361702 Z M229.148936,4.2287234 L221.329787,4.2287234 L221.329787,0.239361702 L241.276596,0.239361702 L241.276596,4.2287234 L233.457447,4.2287234 L233.457447,24.8138298 L229.069149,24.8138298 L229.069149,4.2287234 L229.148936,4.2287234 Z" id="Shape"></path>
                        </g>
                        <g id="Group" transform="translate(433.244681, 204.255319)">
                            <polygon id="Shape" points="2.87234043 0.957446809 0.079787234 0.957446809 0.079787234 0.079787234 6.62234043 0.079787234 6.62234043 0.957446809 3.82978723 0.957446809 3.82978723 8.45744681 2.87234043 8.45744681"></polygon>
                            <polygon id="Shape" points="8.37765957 0.079787234 9.33510638 0.079787234 12.3670213 4.62765957 15.3989362 0.079787234 16.356383 0.079787234 16.356383 8.45744681 15.3989362 8.45744681 15.3989362 1.67553191 12.3670213 6.14361702 12.287234 6.14361702 9.25531915 1.67553191 9.25531915 8.45744681 8.37765957 8.45744681"></polygon>
                        </g>
                    </g>
                </g>
            </g>
        </g>
    </g>
</svg>