<?xml version="1.0" standalone="no"?>
<!DOCTYPE svg PUBLIC "-//W3C//DTD SVG 20010904//EN"
 "http://www.w3.org/TR/2001/REC-SVG-20010904/DTD/svg10.dtd">
<svg version="1.0" xmlns="http://www.w3.org/2000/svg"
 width="290.000000pt" height="130.000000pt" viewBox="0 0 290.000000 130.000000"
 preserveAspectRatio="xMidYMid meet">
<metadata>
Created by potrace 1.15, written by Peter Selinger 2001-2017
</metadata>
<g transform="translate(0.000000,130.000000) scale(0.100000,-0.100000)"
fill="#000000" stroke="none">
<path d="M807 973 c-5 -8 -97 -329 -97 -338 0 -3 24 -5 54 -5 l53 0 17 59 c9
32 22 64 29 69 7 6 40 12 72 14 57 3 60 4 63 31 3 26 2 27 -45 27 -65 0 -80
11 -67 47 9 26 13 28 74 31 67 3 80 11 80 50 0 22 -2 22 -114 22 -63 0 -117
-3 -119 -7z"/>
<path d="M1419 938 c-6 -24 -13 -49 -15 -57 -3 -9 -12 -11 -32 -6 -49 13 -100
10 -121 -9 -44 -40 -85 -205 -58 -232 4 -5 27 -7 50 -7 23 1 77 2 119 2 72 0
79 2 87 23 19 50 31 95 31 116 0 11 4 23 9 26 5 3 11 20 14 38 5 30 12 58 32
126 7 21 5 22 -48 22 l-56 0 -12 -42z"/>
<path d="M1910 954 c-9 -23 -22 -69 -66 -234 -8 -30 -17 -63 -20 -72 -5 -16 2
-18 50 -18 52 0 56 2 62 28 3 15 24 89 45 164 21 75 39 141 39 147 0 6 -21 11
-50 11 -45 0 -52 -3 -60 -26z"/>
<path d="M2236 932 c-15 -24 -60 -213 -61 -252 l0 -45 71 -3 c66 -3 72 -1 77
19 4 15 0 23 -13 26 -10 3 -21 10 -23 17 -5 12 16 107 28 126 9 14 75 12 80
-2 8 -22 22 -192 17 -211 -2 -9 -15 -20 -28 -23 -27 -7 -49 -38 -38 -55 4 -7
28 -10 62 -7 48 4 59 9 83 39 15 19 34 45 41 59 7 14 34 57 60 97 26 39 59 92
73 118 l26 46 -57 -3 c-56 -3 -57 -3 -73 -44 -19 -49 -40 -76 -52 -68 -5 3 -9
29 -9 59 l0 54 -77 3 c-77 3 -78 3 -81 31 -3 25 -6 27 -52 27 -27 0 -51 -4
-54 -8z"/>
<path d="M1623 879 c-45 -13 -88 -70 -103 -136 -18 -72 -3 -103 55 -116 89
-19 205 19 205 67 0 22 -82 22 -100 1 -7 -8 -23 -15 -36 -15 -18 0 -24 5 -24
23 0 38 19 47 101 47 84 0 89 3 89 64 0 48 -29 69 -98 73 -31 1 -71 -2 -89 -8z"/>
<path d="M1075 870 c-7 -11 -65 -216 -65 -230 0 -6 24 -10 53 -10 l54 0 17 68
c10 37 22 83 27 102 25 85 27 80 -29 80 -28 0 -54 -4 -57 -10z"/>
<path d="M2057 873 c-7 -12 -67 -219 -67 -232 0 -7 21 -11 53 -11 l54 0 16 63
c8 34 23 88 31 120 9 32 16 60 16 62 0 8 -99 5 -103 -2z"/>
</g>
</svg>
