<?xml version="1.0" standalone="no"?>
<!DOCTYPE svg PUBLIC "-//W3C//DTD SVG 20010904//EN"
 "http://www.w3.org/TR/2001/REC-SVG-20010904/DTD/svg10.dtd">
<svg version="1.0" xmlns="http://www.w3.org/2000/svg"
 width="640.000000pt" height="360.000000pt" viewBox="0 0 640.000000 360.000000"
 preserveAspectRatio="xMidYMid meet">
<metadata>
Created by potrace 1.15, written by Peter Selinger 2001-2017
</metadata>
<g transform="translate(0.000000,360.000000) scale(0.100000,-0.100000)"
fill="#000000" stroke="none">
<path d="M1115 2340 c-66 -10 -136 -22 -155 -27 l-35 -9 1 -135 c1 -143 10
-206 50 -334 73 -229 241 -420 428 -485 94 -32 106 -28 60 23 -55 58 -81 103
-109 188 -59 171 -58 391 1 757 l7 42 -64 -1 c-35 0 -118 -9 -184 -19z"/>
<path d="M3290 1890 l0 -340 45 0 45 0 0 340 0 340 -45 0 -45 0 0 -340z"/>
<path d="M3780 1891 l0 -341 45 0 45 0 0 174 0 175 31 22 c17 12 50 24 73 26
35 4 47 1 72 -20 l29 -25 3 -176 3 -176 45 0 46 0 -4 183 c-3 203 -11 231 -71
267 -57 35 -169 21 -207 -25 -14 -16 -15 -5 -20 116 l-5 134 -42 3 -43 3 0
-340z"/>
<path d="M4373 2199 c-50 -25 -83 -83 -83 -147 0 -41 0 -42 -36 -42 -33 0 -35
-2 -32 -27 2 -21 10 -29 36 -35 l32 -9 0 -194 0 -195 45 0 45 0 0 195 0 194
63 3 c62 3 62 3 62 33 0 30 0 30 -62 33 l-63 3 0 43 c0 58 23 84 80 94 37 6
46 12 48 31 2 13 -2 28 -10 32 -23 15 -82 10 -125 -12z"/>
<path d="M3497 2164 c-4 -4 -7 -130 -7 -281 l0 -273 28 -30 c37 -42 92 -50
157 -21 46 20 47 22 32 43 -12 19 -22 22 -57 20 -67 -6 -70 1 -70 169 l0 148
63 3 c62 3 62 3 62 33 0 30 0 30 -62 33 l-62 3 -3 77 -3 77 -35 3 c-20 2 -39
0 -43 -4z"/>
<path d="M5807 2164 c-4 -4 -7 -124 -7 -266 0 -296 4 -318 66 -344 45 -19 112
-12 145 15 18 15 20 21 10 39 -10 19 -17 21 -58 15 -69 -9 -73 1 -73 174 l0
143 65 0 c51 0 65 3 66 15 5 52 7 50 -63 53 l-67 3 -3 77 -3 77 -35 3 c-20 2
-39 0 -43 -4z"/>
<path d="M710 2045 c-140 -55 -170 -72 -170 -93 0 -53 77 -236 132 -316 117
-168 304 -283 491 -301 34 -3 77 -8 95 -11 17 -3 32 -1 32 4 0 5 -33 30 -74
55 -126 80 -222 200 -285 357 -33 84 -78 233 -87 291 -4 21 -12 43 -18 47 -7
6 -51 -6 -116 -33z"/>
<path d="M1667 2013 c-3 -5 28 -109 67 -233 l73 -225 43 0 44 0 56 174 56 175
57 -177 58 -177 42 0 42 0 73 228 c40 125 73 230 72 235 0 4 -16 7 -35 7 -46
0 -54 -14 -106 -197 -24 -84 -46 -153 -49 -153 -3 0 -27 73 -54 163 -27 89
-54 168 -59 175 -12 15 -63 16 -74 0 -4 -7 -33 -88 -63 -181 l-55 -170 -48
169 c-26 92 -53 174 -59 181 -11 14 -74 18 -81 6z"/>
<path d="M2500 2005 c-109 -49 -157 -180 -114 -314 35 -106 139 -165 257 -143
60 11 127 45 127 65 0 6 -7 18 -16 28 -16 17 -18 17 -58 -3 -53 -27 -133 -29
-170 -4 -30 19 -65 87 -66 124 0 22 1 22 160 22 l160 0 0 48 c-1 62 -29 123
-75 158 -31 24 -49 29 -104 31 -44 2 -78 -2 -101 -12z m135 -59 c22 -10 41
-27 51 -50 29 -60 19 -66 -105 -66 -60 0 -113 4 -116 10 -11 18 35 91 68 105
41 18 60 18 102 1z"/>
<path d="M2926 2005 c-22 -8 -50 -24 -63 -37 l-23 -24 20 -22 21 -22 49 25
c98 50 170 21 170 -68 l0 -44 -62 -6 c-136 -13 -218 -68 -218 -145 0 -63 40
-107 107 -118 46 -7 133 17 153 42 18 20 29 17 40 -11 7 -19 17 -25 40 -25
l30 0 0 172 c0 155 -2 176 -21 216 -29 60 -69 82 -144 82 -33 -1 -78 -7 -99
-15z m172 -302 c-3 -41 -7 -50 -37 -70 -36 -25 -98 -31 -132 -13 -13 7 -19 21
-19 44 0 55 48 83 143 85 l48 1 -3 -47z"/>
<path d="M4567 2013 c-4 -3 -7 -109 -7 -235 l0 -228 45 0 45 0 0 145 c0 153 6
180 49 219 15 13 34 18 69 18 49 -2 49 -1 55 35 4 20 4 40 1 45 -3 4 -27 8
-53 8 -39 0 -52 -5 -79 -31 -18 -17 -32 -35 -32 -40 0 -5 -4 -9 -10 -9 -5 0
-10 15 -10 34 0 22 -6 36 -16 40 -21 8 -49 8 -57 -1z"/>
<path d="M4940 1998 c-131 -67 -157 -282 -47 -396 40 -42 120 -66 186 -57 109
15 179 92 188 209 10 115 -33 203 -119 247 -54 27 -150 26 -208 -3z m196 -81
c54 -63 52 -217 -4 -270 -58 -56 -159 -39 -194 33 -23 46 -24 157 -2 203 24
50 59 68 123 64 44 -3 59 -9 77 -30z"/>
<path d="M5337 2013 c-4 -3 -7 -109 -7 -235 l0 -228 45 0 45 0 0 168 c0 162 1
169 23 189 55 51 123 58 162 18 25 -24 25 -27 25 -200 l0 -175 45 0 45 0 0
178 c0 200 -7 228 -70 270 -50 34 -142 28 -193 -11 -42 -32 -47 -33 -47 -9 0
10 -5 23 -12 30 -13 13 -50 16 -61 5z"/>
<path d="M509 1682 c-69 -46 -119 -96 -119 -117 0 -26 46 -93 86 -124 84 -66
242 -111 386 -111 l83 1 -71 37 c-141 75 -203 133 -281 261 -22 36 -44 66 -49
68 -5 2 -21 -5 -35 -15z"/>
</g>
</svg>
