<svg width="606" height="397" viewBox="0 0 606 397" fill="none" xmlns="http://www.w3.org/2000/svg">
<path opacity="0.7" d="M606 231.369C606 322.844 470.342 397 303 397C135.658 397 0 322.844 0 231.369C0 139.894 143.012 -12.7377 303 24.8366C564.331 105.8 606 139.894 606 231.369Z" fill="#EDF1FF"/>
<path d="M428.869 210.427H297.601C294.738 210.427 292.415 208.104 292.415 205.241C292.415 202.377 294.738 200.054 297.601 200.054H428.869C431.732 200.054 434.055 202.377 434.055 205.241C434.109 208.05 431.732 210.427 428.869 210.427Z" fill="#4674FF" stroke="black" stroke-miterlimit="10"/>
<path d="M319.425 205.187C319.425 202.323 321.748 200 324.611 200H297.601C294.738 200 292.415 202.323 292.415 205.187C292.415 208.05 294.738 210.373 297.601 210.373H324.611C321.748 210.427 319.425 208.05 319.425 205.187Z" fill="#0A3BFF" stroke="black" stroke-miterlimit="10"/>
<path d="M141.054 249.689H60.2549V45.8334C60.2549 23.5111 78.3744 5.38892 100.693 5.38892C123.012 5.38892 141.132 23.5111 141.132 45.8334V249.689H141.054Z" fill="white" stroke="black" stroke-miterlimit="10"/>
<path d="M60.2549 249.689H242.539C255.059 249.689 265.247 239.5 265.247 226.978C265.247 214.456 255.059 204.267 242.539 204.267H60.2549V249.689Z" fill="white" stroke="black" stroke-miterlimit="10"/>
<path d="M60.2549 151.144H253.271C259.881 151.144 265.247 145.778 265.247 139.167C265.247 132.556 259.881 127.189 253.271 127.189H60.2549V151.144Z" fill="white" stroke="black" stroke-miterlimit="10"/>
<path d="M176.515 126.878C184.461 126.878 190.902 120.436 190.902 112.489C190.902 104.542 184.461 98.1 176.515 98.1C168.57 98.1 162.128 104.542 162.128 112.489C162.128 120.436 168.57 126.878 176.515 126.878Z" fill="#A0AAB8" stroke="black" stroke-miterlimit="10"/>
<path d="M116.247 126.878C124.192 126.878 130.633 120.436 130.633 112.489C130.633 104.542 124.192 98.1 116.247 98.1C108.301 98.1 101.86 104.542 101.86 112.489C101.86 120.436 108.301 126.878 116.247 126.878Z" fill="#FFDE03" stroke="black" stroke-miterlimit="10"/>
<path d="M195.724 199.133L213.921 200.067C213.921 200.067 205.911 195.556 204.356 193.378C202.723 191.122 204.978 184.745 204.978 184.745H196.657L195.724 199.133Z" fill="#E6EBFF" stroke="black" stroke-miterlimit="10"/>
<path d="M191.602 109.378C188.725 124.467 195.024 138.622 194.79 148.889C194.557 159.156 192.846 193.533 192.846 193.533L205.678 189.256L213.999 106.889C214.076 106.811 194.479 94.2889 191.602 109.378Z" fill="black" stroke="black" stroke-miterlimit="10"/>
<path d="M213.921 200.067C213.921 200.067 219.364 199.444 219.364 204.889C212.988 204.889 194.09 204.889 194.09 204.889L195.024 197.5L213.921 200.067Z" fill="black" stroke="black" stroke-miterlimit="10"/>
<path d="M188.336 199.133L206.533 200.067C206.533 200.067 198.523 195.556 196.968 193.378C195.335 191.122 197.59 184.745 197.59 184.745H189.269L188.336 199.133Z" fill="white" stroke="black" stroke-miterlimit="10"/>
<path d="M184.214 109.378C181.337 124.467 187.636 138.622 187.403 148.889C187.169 159.156 185.458 193.533 185.458 193.533L198.29 189.256L206.611 106.889C206.689 106.811 187.169 94.2889 184.214 109.378Z" fill="white" stroke="black" stroke-miterlimit="10"/>
<path d="M206.533 200.067C206.533 200.067 211.977 199.444 211.977 204.889C205.6 204.889 186.703 204.889 186.703 204.889L187.636 197.5L206.533 200.067Z" fill="black" stroke="black" stroke-miterlimit="10"/>
<path d="M250.937 73.0557C250.548 71.8112 250.937 69.4779 250.393 68.3112C249.926 67.1446 248.449 67.3779 248.449 68.4668C248.449 69.5557 248.76 71.9668 247.827 72.2001" fill="white"/>
<path d="M250.937 73.0557C250.548 71.8112 250.937 69.4779 250.393 68.3112C249.926 67.1446 248.449 67.3779 248.449 68.4668C248.449 69.5557 248.76 71.9668 247.827 72.2001" stroke="black" stroke-miterlimit="10"/>
<path d="M256.381 75.1557C257.314 75.0001 261.436 70.8001 261.436 70.8001C261.436 70.8001 260.736 69.7112 259.569 70.4112C258.792 70.8779 257.47 72.3557 256.692 72.9779C254.904 74.3779 252.493 73.289 250.393 72.8223" fill="white"/>
<path d="M256.381 75.1557C257.314 75.0001 261.436 70.8001 261.436 70.8001C261.436 70.8001 260.736 69.7112 259.569 70.4112C258.792 70.8779 257.47 72.3557 256.692 72.9779C254.904 74.3779 252.493 73.289 250.393 72.8223" stroke="black" stroke-miterlimit="10"/>
<path d="M257.703 76.3223C258.636 76.1668 262.758 71.9668 262.758 71.9668C262.758 71.9668 262.058 70.8779 260.891 71.5779C260.114 72.0446 258.792 73.5223 258.014 74.1446C256.225 75.5446 253.815 74.4557 251.715 73.989C250.16 73.6779 250.237 72.8223 247.593 72.4335" fill="white"/>
<path d="M257.703 76.3223C258.636 76.1668 262.758 71.9668 262.758 71.9668C262.758 71.9668 262.058 70.8779 260.891 71.5779C260.114 72.0446 258.792 73.5223 258.014 74.1446C256.225 75.5446 253.815 74.4557 251.715 73.989C250.16 73.6779 250.237 72.8223 247.593 72.4335" stroke="black" stroke-miterlimit="10"/>
<path d="M223.952 67.5334C222.164 67.1445 220.609 66.0557 219.598 64.5001L212.987 53.8445L202.645 57.5779L211.899 72.2779C213.532 74.8445 216.331 76.4001 219.286 76.4001C227.763 76.4779 254.437 78.2668 256.614 77.7223C258.325 77.3334 263.458 74.689 263.458 74.689C263.458 74.689 262.991 73.4445 261.591 74.0668C259.025 75.0779 258.092 76.089 255.837 75.7001C251.948 75.0001 252.493 72.9779 248.449 72.3557C248.449 72.2001 231.029 68.9334 223.952 67.5334Z" fill="white" stroke="black" stroke-miterlimit="10"/>
<path d="M215.943 75.8556L227.219 67.2223L217.42 54.6223C215.009 51.5112 210.577 50.9667 207.466 53.3779C204.355 55.789 203.811 60.2223 206.222 63.3334L215.943 75.8556Z" fill="black" stroke="black" stroke-miterlimit="10"/>
<path d="M213.299 43.9667L202.1 39.8445L200.545 43.1111L216.098 54.5445L216.72 49.5667C217.031 47.1556 215.632 44.8223 213.299 43.9667Z" fill="black" stroke="black" stroke-miterlimit="10"/>
<path d="M202.412 35.8C202.412 35.8 201.323 42.2556 199.69 44.3556C198.057 46.4556 212.288 51.8222 211.743 48.8667C211.199 45.9889 214.776 38.2889 214.776 38.2889L209.255 29.5L202.412 35.8Z" fill="white" stroke="black" stroke-miterlimit="10"/>
<path d="M209.566 32.7667C209.566 32.7667 207.622 38.6778 211.588 46.8445C213.065 41.1667 214.232 40.0001 214.232 40.0001C214.232 40.0001 211.666 40.7001 209.566 32.7667Z" fill="#E6EBFF"/>
<path d="M211.432 29.0334C212.988 26.3112 216.098 24.7556 219.364 25.3778L222.553 26.0001C222.553 26.0001 223.175 27.4778 223.175 28.8001C223.175 31.3667 221.931 31.0556 221.464 32.6112C220.764 34.8667 222.708 35.4112 222.553 36.1112C222.397 36.8112 221.153 36.5778 220.531 38.2889C220.375 38.7556 217.498 44.4334 214.31 42.8778C209.41 40.4667 210.188 34.4778 210.188 34.4778C208.944 33.9334 208.244 32.6889 208.477 31.2889C208.633 29.8889 209.955 28.8778 211.432 29.0334Z" fill="white" stroke="black" stroke-miterlimit="10"/>
<path d="M201.945 38.2111C203.034 32.2223 200.001 31.1334 202.489 25.6111C204.122 20.7889 208.244 17.9111 214.699 19.0778C218.587 19.8556 221.464 22.4223 222.475 26L219.287 25.3778C216.72 24.9111 215.554 27.2445 214.465 29.5778C214.076 30.2778 213.143 30.5111 212.521 29.9667C210.81 28.2556 208.555 30.1223 208.322 31.3667C208.088 32.6889 208.788 34.0111 210.033 34.5556L209.177 35.4889C207.855 36.8889 206.144 37.7445 204.2 37.9L201.945 38.2111Z" fill="black" stroke="black" stroke-miterlimit="10"/>
<path d="M206.922 24.2112C206.922 24.2112 196.735 21.1 190.902 27.7889C185.07 34.4778 193.313 43.9667 185.77 50.9667C192.613 49.1778 196.501 44.0445 197.746 36.7334C198.99 29.4223 202.412 24.7556 206.922 24.2112Z" fill="black" stroke="black" stroke-miterlimit="10"/>
<path d="M202.334 28.7222C203.034 28.8778 203.734 28.4111 203.889 27.7111L204.667 23.5111C204.822 22.8111 204.356 22.1111 203.656 21.9556C202.956 21.8 202.256 22.2667 202.101 22.9667L201.323 27.1667C201.167 27.8667 201.634 28.5667 202.334 28.7222Z" fill="#FFF6BA" stroke="black" stroke-miterlimit="10"/>
<path d="M207.311 113.033C213.921 113.033 219.287 107.2 219.287 99.9667V83.4778H194.246L192.457 93.5112C190.746 103.622 197.823 113.033 207.311 113.033Z" fill="black" stroke="black" stroke-miterlimit="10"/>
<path d="M221.542 70.8C221.542 70.8 224.575 74.8445 222.164 80.9889C219.053 80.3667 217.576 80.3667 217.576 80.3667L221.542 70.8Z" fill="#E6EBFF"/>
<path d="M199.145 43.1889C199.145 43.1889 191.68 49.0222 191.68 55.6333C191.68 63.3333 193.857 71.2667 191.68 87.4445C185.303 104.711 182.037 116.611 182.037 119.8H188.491C204.744 119.8 217.887 106.656 217.887 90.4778V90.0111C217.887 83.7111 220.453 73.2889 221.62 69.1667C223.33 63.0222 220.064 58.0445 215.554 53.7667C211.121 49.4889 199.145 43.1889 199.145 43.1889Z" fill="#FFF6BA" stroke="black" stroke-miterlimit="10"/>
<path d="M211.354 44.6667L200.623 40.7001C200.389 40.6223 200.156 40.7001 200.078 40.9334L199.456 42.4112C199.223 43.0334 199.378 43.7334 199.923 44.1223L214.232 55.2445L214.854 50.2667C215.165 47.8556 213.687 45.5223 211.354 44.6667Z" fill="#FFF6BA" stroke="black" stroke-miterlimit="10"/>
<path d="M262.214 76.2445C263.069 75.7779 265.869 70.6445 265.869 70.6445C265.869 70.6445 264.858 69.8667 264.002 70.8001C263.38 71.5001 262.525 73.2112 261.98 74.0667C260.658 75.9334 258.014 75.5445 255.915 75.7001" fill="white"/>
<path d="M262.214 76.2445C263.069 75.7779 265.869 70.6445 265.869 70.6445C265.869 70.6445 264.858 69.8667 264.002 70.8001C263.38 71.5001 262.525 73.2112 261.98 74.0667C260.658 75.9334 258.014 75.5445 255.915 75.7001" stroke="black" stroke-miterlimit="10"/>
<path d="M263.846 76.9445C264.702 76.4778 267.501 71.3445 267.501 71.3445C267.501 71.3445 266.49 70.5667 265.635 71.5C265.013 72.2 264.157 73.9111 263.613 74.7667C262.291 76.6334 259.647 76.2445 257.547 76.4C255.992 76.4778 255.759 75.7 253.192 76.0111" fill="white"/>
<path d="M263.846 76.9445C264.702 76.4778 267.501 71.3445 267.501 71.3445C267.501 71.3445 266.49 70.5667 265.635 71.5C265.013 72.2 264.157 73.9111 263.613 74.7667C262.291 76.6334 259.647 76.2445 257.547 76.4C255.992 76.4778 255.759 75.7 253.192 76.0111" stroke="black" stroke-miterlimit="10"/>
<path d="M229.007 78.0333C227.219 78.1889 225.352 77.5667 224.03 76.4L214.698 68L205.755 74.3778L218.742 85.8889C220.998 87.9111 224.108 88.6111 226.986 87.7556C235.151 85.4222 261.28 79.6667 263.225 78.5C264.78 77.6444 268.902 73.6778 268.902 73.6778C268.902 73.6778 268.124 72.6667 266.957 73.6C264.78 75.3111 264.158 76.5556 261.903 76.7889C258.014 77.1778 257.936 75.0778 253.893 75.6222C253.815 75.6222 236.162 77.3333 229.007 78.0333Z" fill="white" stroke="black" stroke-miterlimit="10"/>
<path d="M207.311 78.7334L217.731 69.1667L207 57.4223C204.356 54.5445 199.845 54.3112 196.968 56.9556C194.091 59.6001 193.857 64.1112 196.501 66.9889L207.311 78.7334Z" fill="#FFF6BA" stroke="black" stroke-miterlimit="10"/>
<path d="M258.325 76.7889C258.247 75.4667 259.803 73.2111 259.647 71.9667C259.414 70.7222 257.625 71.1111 257.314 72.1222C257.081 73.1334 256.07 75.6222 255.137 75.7" fill="white"/>
<path d="M258.325 76.7889C258.247 75.4667 259.803 73.2111 259.647 71.9667C259.414 70.7222 257.625 71.1111 257.314 72.1222C257.081 73.1334 256.07 75.6222 255.137 75.7" stroke="black" stroke-miterlimit="10"/>
<path d="M245.805 143.133C248.296 143.133 250.315 141.114 250.315 138.622C250.315 136.131 248.296 134.111 245.805 134.111C243.314 134.111 241.294 136.131 241.294 138.622C241.294 141.114 243.314 143.133 245.805 143.133Z" fill="#FFF8F6" stroke="black" stroke-miterlimit="10"/>
<path d="M174.649 143.133C177.14 143.133 179.16 141.114 179.16 138.622C179.16 136.131 177.14 134.111 174.649 134.111C172.158 134.111 170.139 136.131 170.139 138.622C170.139 141.114 172.158 143.133 174.649 143.133Z" fill="#FFF8F6" stroke="black" stroke-miterlimit="10"/>
<path d="M103.493 143.133C105.984 143.133 108.003 141.114 108.003 138.622C108.003 136.131 105.984 134.111 103.493 134.111C101.002 134.111 98.9824 136.131 98.9824 138.622C98.9824 141.114 101.002 143.133 103.493 143.133Z" fill="#FFF8F6" stroke="black" stroke-miterlimit="10"/>
<path d="M428.869 210.428H297.601C294.738 210.428 292.415 208.104 292.415 205.241C292.415 202.377 294.738 200.054 297.601 200.054H428.869C431.732 200.054 434.055 202.377 434.055 205.241C434.109 208.05 431.732 210.428 428.869 210.428Z" fill="#4864EF" stroke="black" stroke-miterlimit="10"/>
<path d="M141.054 249.689H60.2549V45.8334C60.2549 23.5111 78.3744 5.38892 100.693 5.38892C123.012 5.38892 141.132 23.5111 141.132 45.8334V249.689H141.054Z" fill="#EEEDEE" stroke="black" stroke-miterlimit="10"/>
<path d="M60.2549 249.689H242.539C255.059 249.689 265.247 239.5 265.247 226.978C265.247 214.455 255.059 204.267 242.539 204.267H60.2549V249.689Z" fill="white" stroke="black" stroke-miterlimit="10"/>
<path d="M60.2549 151.145H253.271C259.881 151.145 265.247 145.778 265.247 139.167C265.247 132.556 259.881 127.189 253.271 127.189H60.2549V151.145Z" fill="white" stroke="black" stroke-miterlimit="10"/>
<path d="M176.516 126.878C184.461 126.878 190.902 120.436 190.902 112.489C190.902 104.542 184.461 98.1001 176.516 98.1001C168.57 98.1001 162.129 104.542 162.129 112.489C162.129 120.436 168.57 126.878 176.516 126.878Z" fill="#A0AAB8" stroke="black" stroke-miterlimit="10"/>
<path d="M116.247 126.878C124.193 126.878 130.634 120.436 130.634 112.489C130.634 104.542 124.193 98.1001 116.247 98.1001C108.302 98.1001 101.86 104.542 101.86 112.489C101.86 120.436 108.302 126.878 116.247 126.878Z" fill="#FDEB3B" stroke="black" stroke-miterlimit="10"/>
<path d="M195.724 199.134L213.921 200.067C213.921 200.067 205.911 195.556 204.356 193.378C202.723 191.122 204.978 184.745 204.978 184.745H196.657L195.724 199.134Z" fill="#E6EBFF" stroke="black" stroke-miterlimit="10"/>
<path d="M191.602 109.378C188.725 124.467 195.024 138.622 194.791 148.889C194.558 159.156 192.847 193.533 192.847 193.533L205.678 189.256L213.999 106.889C214.077 106.811 194.48 94.289 191.602 109.378Z" fill="black" stroke="black" stroke-miterlimit="10"/>
<path d="M213.921 200.067C213.921 200.067 219.365 199.445 219.365 204.889C212.988 204.889 194.091 204.889 194.091 204.889L195.024 197.5L213.921 200.067Z" fill="black" stroke="black" stroke-miterlimit="10"/>
<path d="M188.336 199.134L206.534 200.067C206.534 200.067 198.524 195.556 196.968 193.378C195.335 191.122 197.591 184.745 197.591 184.745H189.27L188.336 199.134Z" fill="white" stroke="black" stroke-miterlimit="10"/>
<path d="M184.215 109.378C181.337 124.467 187.636 138.622 187.403 148.889C187.17 159.156 185.459 193.533 185.459 193.533L198.29 189.256L206.611 106.889C206.689 106.811 187.17 94.289 184.215 109.378Z" fill="white" stroke="black" stroke-miterlimit="10"/>
<path d="M206.533 200.067C206.533 200.067 211.977 199.445 211.977 204.889C205.6 204.889 186.703 204.889 186.703 204.889L187.636 197.5L206.533 200.067Z" fill="black" stroke="black" stroke-miterlimit="10"/>
<path d="M250.938 73.0558C250.549 71.8113 250.938 69.478 250.393 68.3113C249.927 67.1447 248.449 67.378 248.449 68.4669C248.449 69.5558 248.76 71.9669 247.827 72.2002" fill="white"/>
<path d="M250.938 73.0558C250.549 71.8113 250.938 69.478 250.393 68.3113C249.927 67.1447 248.449 67.378 248.449 68.4669C248.449 69.5558 248.76 71.9669 247.827 72.2002" stroke="black" stroke-miterlimit="10"/>
<path d="M256.382 75.1558C257.315 75.0002 261.436 70.8002 261.436 70.8002C261.436 70.8002 260.736 69.7113 259.57 70.4113C258.792 70.878 257.47 72.3558 256.693 72.978C254.904 74.378 252.493 73.2891 250.394 72.8224" fill="white"/>
<path d="M256.382 75.1558C257.315 75.0002 261.436 70.8002 261.436 70.8002C261.436 70.8002 260.736 69.7113 259.57 70.4113C258.792 70.878 257.47 72.3558 256.693 72.978C254.904 74.378 252.493 73.2891 250.394 72.8224" stroke="black" stroke-miterlimit="10"/>
<path d="M257.703 76.3224C258.637 76.1668 262.758 71.9668 262.758 71.9668C262.758 71.9668 262.058 70.878 260.892 71.578C260.114 72.0446 258.792 73.5224 258.014 74.1446C256.226 75.5446 253.815 74.4557 251.715 73.9891C250.16 73.678 250.238 72.8224 247.594 72.4335" fill="white"/>
<path d="M257.703 76.3224C258.637 76.1668 262.758 71.9668 262.758 71.9668C262.758 71.9668 262.058 70.878 260.892 71.578C260.114 72.0446 258.792 73.5224 258.014 74.1446C256.226 75.5446 253.815 74.4557 251.715 73.9891C250.16 73.678 250.238 72.8224 247.594 72.4335" stroke="black" stroke-miterlimit="10"/>
<path d="M223.953 67.5336C222.164 67.1447 220.609 66.0558 219.598 64.5002L212.988 53.8447L202.645 57.578L211.899 72.278C213.532 74.8447 216.332 76.4002 219.287 76.4002C227.763 76.478 254.437 78.2669 256.615 77.7225C258.326 77.3336 263.458 74.6891 263.458 74.6891C263.458 74.6891 262.992 73.4447 261.592 74.0669C259.025 75.078 258.092 76.0891 255.837 75.7002C251.949 75.0002 252.493 72.978 248.449 72.3558C248.449 72.2002 231.03 68.9336 223.953 67.5336Z" fill="white" stroke="black" stroke-miterlimit="10"/>
<path d="M215.943 75.8558L227.219 67.2224L217.421 54.6224C215.01 51.5113 210.577 50.9669 207.466 53.378C204.356 55.7891 203.811 60.2224 206.222 63.3335L215.943 75.8558Z" fill="black" stroke="black" stroke-miterlimit="10"/>
<path d="M213.299 43.9668L202.101 39.8446L200.545 43.1113L216.099 54.5446L216.721 49.5668C217.032 47.1557 215.632 44.8224 213.299 43.9668Z" fill="black" stroke="black" stroke-miterlimit="10"/>
<path d="M202.412 35.8001C202.412 35.8001 201.323 42.2557 199.69 44.3557C198.057 46.4557 212.288 51.8224 211.744 48.8668C211.2 45.989 214.777 38.289 214.777 38.289L209.255 29.5001L202.412 35.8001Z" fill="white" stroke="black" stroke-miterlimit="10"/>
<path d="M209.566 32.7668C209.566 32.7668 207.622 38.678 211.588 46.8446C213.066 41.1668 214.232 40.0002 214.232 40.0002C214.232 40.0002 211.666 40.7002 209.566 32.7668Z" fill="#E6EBFF"/>
<path d="M211.433 29.0335C212.988 26.3113 216.099 24.7557 219.365 25.378L222.553 26.0002C222.553 26.0002 223.175 27.478 223.175 28.8002C223.175 31.3668 221.931 31.0557 221.465 32.6113C220.765 34.8668 222.709 35.4113 222.553 36.1113C222.398 36.8113 221.154 36.578 220.531 38.2891C220.376 38.7557 217.499 44.4335 214.31 42.878C209.411 40.4668 210.188 34.478 210.188 34.478C208.944 33.9335 208.244 32.6891 208.478 31.2891C208.633 29.8891 209.955 28.878 211.433 29.0335Z" fill="white" stroke="black" stroke-miterlimit="10"/>
<path d="M201.945 38.2113C203.034 32.2224 200.001 31.1335 202.49 25.6113C204.123 20.789 208.244 17.9113 214.699 19.0779C218.587 19.8557 221.465 22.4224 222.476 26.0002L219.287 25.3779C216.721 24.9113 215.554 27.2446 214.466 29.5779C214.077 30.2779 213.144 30.5113 212.522 29.9668C210.811 28.2557 208.556 30.1224 208.322 31.3668C208.089 32.689 208.789 34.0113 210.033 34.5557L209.178 35.489C207.856 36.889 206.145 37.7446 204.201 37.9002L201.945 38.2113Z" fill="black" stroke="black" stroke-miterlimit="10"/>
<path d="M206.922 24.2113C206.922 24.2113 196.735 21.1002 190.903 27.7891C185.07 34.4779 193.313 43.9668 185.77 50.9668C192.613 49.178 196.502 44.0446 197.746 36.7335C198.99 29.4224 202.412 24.7557 206.922 24.2113Z" fill="black" stroke="black" stroke-miterlimit="10"/>
<path d="M202.334 28.7224C203.034 28.8779 203.734 28.4113 203.89 27.7113L204.667 23.5113C204.823 22.8113 204.356 22.1113 203.656 21.9557C202.957 21.8001 202.257 22.2668 202.101 22.9668L201.323 27.1668C201.168 27.8668 201.634 28.5668 202.334 28.7224Z" fill="#FDEB3B" stroke="black" stroke-miterlimit="10"/>
<path d="M207.311 113.034C213.921 113.034 219.287 107.2 219.287 99.9669V83.478H194.246L192.458 93.5113C190.747 103.622 197.824 113.034 207.311 113.034Z" fill="black" stroke="black" stroke-miterlimit="10"/>
<path d="M221.542 70.8002C221.542 70.8002 224.575 74.8446 222.164 80.9891C219.054 80.3668 217.576 80.3668 217.576 80.3668L221.542 70.8002Z" fill="#E6EBFF"/>
<path d="M199.146 43.189C199.146 43.189 191.68 49.0224 191.68 55.6335C191.68 63.3335 193.858 71.2668 191.68 87.4446C185.303 104.711 182.037 116.611 182.037 119.8H188.492C204.745 119.8 217.887 106.656 217.887 90.4779V90.0113C217.887 83.7113 220.454 73.289 221.62 69.1668C223.331 63.0224 220.065 58.0446 215.554 53.7668C211.122 49.489 199.146 43.189 199.146 43.189Z" fill="#FDEB3B" stroke="black" stroke-miterlimit="10"/>
<path d="M211.355 44.6669L200.623 40.7002C200.39 40.6224 200.156 40.7002 200.079 40.9335L199.457 42.4113C199.223 43.0335 199.379 43.7335 199.923 44.1224L214.232 55.2446L214.854 50.2669C215.165 47.8557 213.688 45.5224 211.355 44.6669Z" fill="#FDEB3B" stroke="black" stroke-miterlimit="10"/>
<path d="M262.214 76.2446C263.07 75.778 265.869 70.6446 265.869 70.6446C265.869 70.6446 264.858 69.8669 264.003 70.8002C263.381 71.5002 262.525 73.2113 261.981 74.0669C260.659 75.9335 258.015 75.5446 255.915 75.7002" fill="white"/>
<path d="M262.214 76.2446C263.07 75.778 265.869 70.6446 265.869 70.6446C265.869 70.6446 264.858 69.8669 264.003 70.8002C263.381 71.5002 262.525 73.2113 261.981 74.0669C260.659 75.9335 258.015 75.5446 255.915 75.7002" stroke="black" stroke-miterlimit="10"/>
<path d="M263.847 76.9446C264.702 76.4779 267.502 71.3446 267.502 71.3446C267.502 71.3446 266.491 70.5668 265.635 71.5001C265.013 72.2001 264.158 73.9113 263.614 74.7668C262.292 76.6335 259.647 76.2446 257.548 76.4002C255.992 76.4779 255.759 75.7002 253.193 76.0113" fill="white"/>
<path d="M263.847 76.9446C264.702 76.4779 267.502 71.3446 267.502 71.3446C267.502 71.3446 266.491 70.5668 265.635 71.5001C265.013 72.2001 264.158 73.9113 263.614 74.7668C262.292 76.6335 259.647 76.2446 257.548 76.4002C255.992 76.4779 255.759 75.7002 253.193 76.0113" stroke="black" stroke-miterlimit="10"/>
<path d="M229.008 78.0335C227.219 78.189 225.353 77.5668 224.031 76.4001L214.699 68.0001L205.756 74.3779L218.743 85.889C220.998 87.9112 224.109 88.6112 226.986 87.7557C235.151 85.4224 261.281 79.6668 263.225 78.5001C264.78 77.6446 268.902 73.6779 268.902 73.6779C268.902 73.6779 268.124 72.6668 266.958 73.6001C264.78 75.3112 264.158 76.5557 261.903 76.789C258.015 77.1779 257.937 75.0779 253.893 75.6224C253.815 75.6224 236.162 77.3335 229.008 78.0335Z" fill="white" stroke="black" stroke-miterlimit="10"/>
<path d="M263.614 77.8001C273.921 77.8001 282.277 69.4428 282.277 59.1335C282.277 48.8241 273.921 40.4668 263.614 40.4668C253.306 40.4668 244.95 48.8241 244.95 59.1335C244.95 69.4428 253.306 77.8001 263.614 77.8001Z" fill="#0040FF" stroke="black" stroke-miterlimit="10"/>
<path d="M207.311 78.7335L217.732 69.1668L207 57.4224C204.356 54.5446 199.846 54.3113 196.968 56.9557C194.091 59.6002 193.858 64.1113 196.502 66.9891L207.311 78.7335Z" fill="#FDEB3B" stroke="black" stroke-miterlimit="10"/>
<path d="M258.326 76.789C258.248 75.4668 259.803 73.2113 259.648 71.9668C259.414 70.7224 257.626 71.1113 257.315 72.1224C257.081 73.1335 256.07 75.6224 255.137 75.7001" fill="white"/>
<path d="M258.326 76.789C258.248 75.4668 259.803 73.2113 259.648 71.9668C259.414 70.7224 257.626 71.1113 257.315 72.1224C257.081 73.1335 256.07 75.6224 255.137 75.7001" stroke="black" stroke-miterlimit="10"/>
<path d="M245.805 143.133C248.296 143.133 250.316 141.114 250.316 138.622C250.316 136.131 248.296 134.111 245.805 134.111C243.314 134.111 241.295 136.131 241.295 138.622C241.295 141.114 243.314 143.133 245.805 143.133Z" fill="#FFF8F6" stroke="black" stroke-miterlimit="10"/>
<path d="M174.649 143.133C177.14 143.133 179.16 141.114 179.16 138.622C179.16 136.131 177.14 134.111 174.649 134.111C172.158 134.111 170.139 136.131 170.139 138.622C170.139 141.114 172.158 143.133 174.649 143.133Z" fill="#FFF8F6" stroke="black" stroke-miterlimit="10"/>
<path d="M103.493 143.133C105.984 143.133 108.003 141.114 108.003 138.622C108.003 136.131 105.984 134.111 103.493 134.111C101.002 134.111 98.9824 136.131 98.9824 138.622C98.9824 141.114 101.002 143.133 103.493 143.133Z" fill="#FFF8F6" stroke="black" stroke-miterlimit="10"/>
<path d="M300.396 346C251.279 291.461 276.855 232.609 295.783 210H429.224C474.083 271.217 445.312 326.174 425.32 346H300.396Z" stroke="black"/>
<path d="M350.5 239C355.194 239 359 234.971 359 230C359 225.029 355.194 221 350.5 221C345.806 221 342 225.029 342 230C342 234.971 345.806 239 350.5 239Z" fill="#4864EF" stroke="black" stroke-miterlimit="10"/>
<path d="M356 250C360.971 250 365 245.971 365 241C365 236.029 360.971 232 356 232C351.029 232 347 236.029 347 241C347 245.971 351.029 250 356 250Z" fill="#4864EF" stroke="black" stroke-miterlimit="10"/>
<path d="M373.5 238C378.194 238 382 234.194 382 229.5C382 224.806 378.194 221 373.5 221C368.806 221 365 224.806 365 229.5C365 234.194 368.806 238 373.5 238Z" fill="#4864EF" stroke="black" stroke-miterlimit="10"/>
<path d="M393 275C397.971 275 402 270.971 402 266C402 261.029 397.971 257 393 257C388.029 257 384 261.029 384 266C384 270.971 388.029 275 393 275Z" fill="#4864EF" stroke="black" stroke-miterlimit="10"/>
<path d="M398.5 286C403.194 286 407 282.194 407 277.5C407 272.806 403.194 269 398.5 269C393.806 269 390 272.806 390 277.5C390 282.194 393.806 286 398.5 286Z" fill="#4864EF" stroke="black" stroke-miterlimit="10"/>
<path d="M375 277C379.971 277 384 272.971 384 268C384 263.029 379.971 259 375 259C370.029 259 366 263.029 366 268C366 272.971 370.029 277 375 277Z" fill="#4864EF" stroke="black" stroke-miterlimit="10"/>
<path d="M329.5 280C334.194 280 338 276.194 338 271.5C338 266.806 334.194 263 329.5 263C324.806 263 321 266.806 321 271.5C321 276.194 324.806 280 329.5 280Z" fill="#4864EF" stroke="black" stroke-miterlimit="10"/>
<path d="M368.5 341C373.747 341 378 337.194 378 332.5C378 327.806 373.747 324 368.5 324C363.253 324 359 327.806 359 332.5C359 337.194 363.253 341 368.5 341Z" fill="#AEB8FE" stroke="black" stroke-miterlimit="10"/>
<path d="M396 335C400.971 335 405 330.971 405 326C405 321.029 400.971 317 396 317C391.029 317 387 321.029 387 326C387 330.971 391.029 335 396 335Z" fill="#AEB8FE" stroke="black" stroke-miterlimit="10"/>
<path d="M341.5 283C346.194 283 350 279.194 350 274.5C350 269.806 346.194 266 341.5 266C336.806 266 333 269.806 333 274.5C333 279.194 336.806 283 341.5 283Z" fill="#4864EF" stroke="black" stroke-miterlimit="10"/>
<path opacity="0.63" d="M368 266.734C368 266.734 375.735 261.892 381.98 271C381.98 271 382.61 263.621 376.766 262.065C376.766 262.065 371.151 261.085 368 266.734Z" fill="#8EB2F6"/>
<path opacity="0.63" d="M335 272.734C335 272.734 342.182 267.892 347.982 277C347.982 277 348.567 269.621 343.14 268.065C343.14 268.065 337.926 267.085 335 272.734Z" fill="#8EB2F6"/>
<path opacity="0.63" d="M323.382 274C323.382 274 325.241 266.281 335 268.024C335 268.024 330.714 263.143 326.016 265.783C325.964 265.733 321.73 268.622 323.382 274Z" fill="#8EB2F6"/>
<path opacity="0.63" d="M387.395 271C387.395 271 386.975 261.832 397 260.737C397 260.737 391.384 256.643 387.552 261.025C387.499 261.025 384.193 265.465 387.395 271Z" fill="#8EB2F6"/>
<path opacity="0.63" d="M368.364 234C368.364 234 367.943 224.832 378 223.737C378 223.737 372.366 219.643 368.522 224.025C368.522 224.025 365.205 228.523 368.364 234Z" fill="#8EB2F6"/>
<path opacity="0.63" d="M352 235.488C352 235.488 360.404 235.029 361.408 246C361.408 246 365.16 239.854 361.144 235.661C361.144 235.661 357.074 232.042 352 235.488Z" fill="#8EB2F6"/>
<path opacity="0.63" d="M346.279 235C346.279 235 344.401 226.648 354 223.792C354 223.792 347.844 221.044 344.819 225.786C344.766 225.786 342.262 230.528 346.279 235Z" fill="#8EB2F6"/>
<path opacity="0.63" d="M394 272.364C394 272.364 402.404 271.943 403.408 282C403.408 282 407.16 276.366 403.144 272.522C403.144 272.522 399.021 269.205 394 272.364Z" fill="#8EB2F6"/>
<path opacity="0.63" d="M391 320.488C391 320.488 399.404 320.029 400.408 331C400.408 331 404.16 324.854 400.144 320.661C400.144 320.661 396.021 317.042 391 320.488Z" fill="#E4EBFD"/>
<path d="M384 335C388.971 335 393 330.971 393 326C393 321.029 388.971 317 384 317C379.029 317 375 321.029 375 326C375 330.971 379.029 335 384 335Z" fill="#AEB8FE" stroke="black" stroke-miterlimit="10"/>
<path opacity="0.63" d="M378 324.806C378 324.806 383.455 319.098 391 325C391 325 389.725 318.904 384.322 319.001C384.322 319.001 379.275 319.485 378 324.806Z" fill="#E4E9FD"/>
<path d="M373 326C377.971 326 382 321.971 382 317C382 312.029 377.971 308 373 308C368.029 308 364 312.029 364 317C364 321.971 368.029 326 373 326Z" fill="#AEB8FE" stroke="black" stroke-miterlimit="10"/>
<path opacity="0.63" d="M368 312.364C368 312.364 376.404 311.943 377.408 322C377.408 322 381.16 316.366 377.144 312.522C377.144 312.522 373.021 309.205 368 312.364Z" fill="#E4E9FD"/>
<path d="M359.5 326C364.194 326 368 321.971 368 317C368 312.029 364.194 308 359.5 308C354.806 308 351 312.029 351 317C351 321.971 354.806 326 359.5 326Z" fill="#AEB8FE" stroke="black" stroke-miterlimit="10"/>
<path opacity="0.63" d="M353 316.774C353 316.774 358.455 310.114 366 317C366 317 364.725 309.888 359.322 310.001C359.322 310.001 354.224 310.622 353 316.774Z" fill="#E4E9FD"/>
<path d="M351 335C355.971 335 360 330.971 360 326C360 321.029 355.971 317 351 317C346.029 317 342 321.029 342 326C342 330.971 346.029 335 351 335Z" fill="#AEB8FE" stroke="black" stroke-miterlimit="10"/>
<path opacity="0.63" d="M347 320.488C347 320.488 355.404 320.029 356.408 331C356.408 331 360.16 324.854 356.144 320.661C356.144 320.661 352.021 317.042 347 320.488Z" fill="#E4E9FD"/>
<path d="M329.5 335C334.194 335 338 330.971 338 326C338 321.029 334.194 317 329.5 317C324.806 317 321 321.029 321 326C321 330.971 324.806 335 329.5 335Z" fill="#AEB8FE" stroke="black" stroke-miterlimit="10"/>
<path opacity="0.63" d="M325 320.488C325 320.488 333.404 320.029 334.408 331C334.408 331 338.16 324.854 334.144 320.661C334.144 320.661 330.021 317.042 325 320.488Z" fill="#E4E9FD"/>
<path d="M418.536 355H310.464C304.143 355 299 350.738 299 345.5C299 340.262 304.143 336 310.464 336H418.536C424.857 336 430 340.262 430 345.5C430 350.738 424.857 355 418.536 355Z" fill="#4864EF" stroke="black" stroke-miterlimit="10"/>
<path d="M466 179C467.657 179 469 177.433 469 175.5C469 173.567 467.657 172 466 172C464.343 172 463 173.567 463 175.5C463 177.433 464.343 179 466 179Z" fill="white" stroke="black" stroke-miterlimit="10"/>
<path d="M221.154 334.611C223.301 334.611 225.042 332.87 225.042 330.722C225.042 328.575 223.301 326.833 221.154 326.833C219.006 326.833 217.266 328.575 217.266 330.722C217.266 332.87 219.006 334.611 221.154 334.611Z" fill="white" stroke="black" stroke-miterlimit="10"/>
<path d="M286 13C289.314 13 292 10.3137 292 7C292 3.68629 289.314 1 286 1C282.686 1 280 3.68629 280 7C280 10.3137 282.686 13 286 13Z" fill="white" stroke="black" stroke-miterlimit="10"/>
<path d="M112 355L506 355" stroke="black" stroke-miterlimit="10" stroke-linecap="round" stroke-linejoin="round"/>
<path d="M60 354.615H89.4699" stroke="black" stroke-miterlimit="10" stroke-linecap="round" stroke-linejoin="round"/>
</svg>
