<svg width="649" height="593" viewBox="0 0 649 593" fill="none" xmlns="http://www.w3.org/2000/svg">
<path fill-rule="evenodd" clip-rule="evenodd" d="M305 344.5C305 342.567 306.567 341 308.5 341H308.549C310.482 341 312.049 342.567 312.049 344.5C312.049 346.433 310.482 348 308.549 348H308.5C306.567 348 305 346.433 305 344.5ZM324.774 344.5C324.774 342.567 326.341 341 328.274 341H328.373C330.306 341 331.873 342.567 331.873 344.5C331.873 346.433 330.306 348 328.373 348H328.274C326.341 348 324.774 346.433 324.774 344.5ZM344.598 344.5C344.598 342.567 346.165 341 348.098 341H348.196C350.129 341 351.696 342.567 351.696 344.5C351.696 346.433 350.129 348 348.196 348H348.098C346.165 348 344.598 346.433 344.598 344.5ZM364.421 344.5C364.421 342.567 365.988 341 367.921 341H368.02C369.953 341 371.52 342.567 371.52 344.5C371.52 346.433 369.953 348 368.02 348H367.921C365.988 348 364.421 346.433 364.421 344.5ZM384.245 344.5C384.245 342.567 385.812 341 387.745 341H387.843C389.776 341 391.343 342.567 391.343 344.5C391.343 346.433 389.776 348 387.843 348H387.745C385.812 348 384.245 346.433 384.245 344.5ZM404.068 344.5C404.068 342.567 405.635 341 407.568 341H407.667C409.6 341 411.167 342.567 411.167 344.5C411.167 346.433 409.6 348 407.667 348H407.568C405.635 348 404.068 346.433 404.068 344.5ZM423.892 344.5C423.892 342.567 425.459 341 427.392 341H427.491C429.424 341 430.991 342.567 430.991 344.5C430.991 346.433 429.424 348 427.491 348H427.392C425.459 348 423.892 346.433 423.892 344.5ZM443.715 344.5C443.715 342.567 445.282 341 447.215 341H447.314C449.247 341 450.814 342.567 450.814 344.5C450.814 346.433 449.247 348 447.314 348H447.215C445.282 348 443.715 346.433 443.715 344.5ZM463.539 344.5C463.539 342.567 465.106 341 467.039 341H467.138C469.071 341 470.638 342.567 470.638 344.5C470.638 346.433 469.071 348 467.138 348H467.039C465.106 348 463.539 346.433 463.539 344.5ZM483.362 344.5C483.362 342.567 484.929 341 486.862 341H486.961C488.894 341 490.461 342.567 490.461 344.5C490.461 346.433 488.894 348 486.961 348H486.862C484.929 348 483.362 346.433 483.362 344.5ZM503.186 344.5C503.186 342.567 504.753 341 506.686 341H506.785C508.718 341 510.285 342.567 510.285 344.5C510.285 346.433 508.718 348 506.785 348H506.686C504.753 348 503.186 346.433 503.186 344.5ZM523.009 344.5C523.009 342.567 524.576 341 526.509 341H526.608C528.541 341 530.108 342.567 530.108 344.5C530.108 346.433 528.541 348 526.608 348H526.509C524.576 348 523.009 346.433 523.009 344.5ZM542.833 344.5C542.833 342.567 544.4 341 546.333 341H546.432C548.365 341 549.932 342.567 549.932 344.5C549.932 346.433 548.365 348 546.432 348H546.333C544.4 348 542.833 346.433 542.833 344.5ZM562.657 344.5C562.657 342.567 564.224 341 566.157 341H566.255C568.188 341 569.755 342.567 569.755 344.5C569.755 346.433 568.188 348 566.255 348H566.157C564.224 348 562.657 346.433 562.657 344.5ZM582.48 344.5C582.48 342.567 584.047 341 585.98 341H586.079C588.012 341 589.579 342.567 589.579 344.5C589.579 346.433 588.012 348 586.079 348H585.98C584.047 348 582.48 346.433 582.48 344.5ZM602.304 344.5C602.304 342.567 603.871 341 605.804 341H605.902C607.835 341 609.402 342.567 609.402 344.5C609.402 346.433 607.835 348 605.902 348H605.804C603.871 348 602.304 346.433 602.304 344.5ZM622.127 344.5C622.127 342.567 623.694 341 625.627 341H625.726C627.659 341 629.226 342.567 629.226 344.5C629.226 346.433 627.659 348 625.726 348H625.627C623.694 348 622.127 346.433 622.127 344.5ZM641.951 344.5C641.951 342.567 643.518 341 645.451 341H645.5C647.433 341 649 342.567 649 344.5C649 346.433 647.433 348 645.5 348H645.451C643.518 348 641.951 346.433 641.951 344.5Z" fill="#B1D0C7"/>
<path fill-rule="evenodd" clip-rule="evenodd" d="M305 371.5C305 369.567 306.567 368 308.5 368H308.549C310.482 368 312.049 369.567 312.049 371.5C312.049 373.433 310.482 375 308.549 375H308.5C306.567 375 305 373.433 305 371.5ZM324.774 371.5C324.774 369.567 326.341 368 328.274 368H328.373C330.306 368 331.873 369.567 331.873 371.5C331.873 373.433 330.306 375 328.373 375H328.274C326.341 375 324.774 373.433 324.774 371.5ZM344.598 371.5C344.598 369.567 346.165 368 348.098 368H348.196C350.129 368 351.696 369.567 351.696 371.5C351.696 373.433 350.129 375 348.196 375H348.098C346.165 375 344.598 373.433 344.598 371.5ZM364.421 371.5C364.421 369.567 365.988 368 367.921 368H368.02C369.953 368 371.52 369.567 371.52 371.5C371.52 373.433 369.953 375 368.02 375H367.921C365.988 375 364.421 373.433 364.421 371.5ZM384.245 371.5C384.245 369.567 385.812 368 387.745 368H387.843C389.776 368 391.343 369.567 391.343 371.5C391.343 373.433 389.776 375 387.843 375H387.745C385.812 375 384.245 373.433 384.245 371.5ZM404.068 371.5C404.068 369.567 405.635 368 407.568 368H407.667C409.6 368 411.167 369.567 411.167 371.5C411.167 373.433 409.6 375 407.667 375H407.568C405.635 375 404.068 373.433 404.068 371.5ZM423.892 371.5C423.892 369.567 425.459 368 427.392 368H427.491C429.424 368 430.991 369.567 430.991 371.5C430.991 373.433 429.424 375 427.491 375H427.392C425.459 375 423.892 373.433 423.892 371.5ZM443.715 371.5C443.715 369.567 445.282 368 447.215 368H447.314C449.247 368 450.814 369.567 450.814 371.5C450.814 373.433 449.247 375 447.314 375H447.215C445.282 375 443.715 373.433 443.715 371.5ZM463.539 371.5C463.539 369.567 465.106 368 467.039 368H467.138C469.071 368 470.638 369.567 470.638 371.5C470.638 373.433 469.071 375 467.138 375H467.039C465.106 375 463.539 373.433 463.539 371.5ZM483.362 371.5C483.362 369.567 484.929 368 486.862 368H486.961C488.894 368 490.461 369.567 490.461 371.5C490.461 373.433 488.894 375 486.961 375H486.862C484.929 375 483.362 373.433 483.362 371.5ZM503.186 371.5C503.186 369.567 504.753 368 506.686 368H506.785C508.718 368 510.285 369.567 510.285 371.5C510.285 373.433 508.718 375 506.785 375H506.686C504.753 375 503.186 373.433 503.186 371.5ZM523.009 371.5C523.009 369.567 524.576 368 526.509 368H526.608C528.541 368 530.108 369.567 530.108 371.5C530.108 373.433 528.541 375 526.608 375H526.509C524.576 375 523.009 373.433 523.009 371.5ZM542.833 371.5C542.833 369.567 544.4 368 546.333 368H546.432C548.365 368 549.932 369.567 549.932 371.5C549.932 373.433 548.365 375 546.432 375H546.333C544.4 375 542.833 373.433 542.833 371.5ZM562.657 371.5C562.657 369.567 564.224 368 566.157 368H566.255C568.188 368 569.755 369.567 569.755 371.5C569.755 373.433 568.188 375 566.255 375H566.157C564.224 375 562.657 373.433 562.657 371.5ZM582.48 371.5C582.48 369.567 584.047 368 585.98 368H586.079C588.012 368 589.579 369.567 589.579 371.5C589.579 373.433 588.012 375 586.079 375H585.98C584.047 375 582.48 373.433 582.48 371.5ZM602.304 371.5C602.304 369.567 603.871 368 605.804 368H605.902C607.835 368 609.402 369.567 609.402 371.5C609.402 373.433 607.835 375 605.902 375H605.804C603.871 375 602.304 373.433 602.304 371.5ZM622.127 371.5C622.127 369.567 623.694 368 625.627 368H625.726C627.659 368 629.226 369.567 629.226 371.5C629.226 373.433 627.659 375 625.726 375H625.627C623.694 375 622.127 373.433 622.127 371.5ZM641.951 371.5C641.951 369.567 643.518 368 645.451 368H645.5C647.433 368 649 369.567 649 371.5C649 373.433 647.433 375 645.5 375H645.451C643.518 375 641.951 373.433 641.951 371.5Z" fill="#B1D0C7"/>
<path fill-rule="evenodd" clip-rule="evenodd" d="M305 398.5C305 396.567 306.567 395 308.5 395H308.549C310.482 395 312.049 396.567 312.049 398.5C312.049 400.433 310.482 402 308.549 402H308.5C306.567 402 305 400.433 305 398.5ZM324.774 398.5C324.774 396.567 326.341 395 328.274 395H328.373C330.306 395 331.873 396.567 331.873 398.5C331.873 400.433 330.306 402 328.373 402H328.274C326.341 402 324.774 400.433 324.774 398.5ZM344.598 398.5C344.598 396.567 346.165 395 348.098 395H348.196C350.129 395 351.696 396.567 351.696 398.5C351.696 400.433 350.129 402 348.196 402H348.098C346.165 402 344.598 400.433 344.598 398.5ZM364.421 398.5C364.421 396.567 365.988 395 367.921 395H368.02C369.953 395 371.52 396.567 371.52 398.5C371.52 400.433 369.953 402 368.02 402H367.921C365.988 402 364.421 400.433 364.421 398.5ZM384.245 398.5C384.245 396.567 385.812 395 387.745 395H387.843C389.776 395 391.343 396.567 391.343 398.5C391.343 400.433 389.776 402 387.843 402H387.745C385.812 402 384.245 400.433 384.245 398.5ZM404.068 398.5C404.068 396.567 405.635 395 407.568 395H407.667C409.6 395 411.167 396.567 411.167 398.5C411.167 400.433 409.6 402 407.667 402H407.568C405.635 402 404.068 400.433 404.068 398.5ZM423.892 398.5C423.892 396.567 425.459 395 427.392 395H427.491C429.424 395 430.991 396.567 430.991 398.5C430.991 400.433 429.424 402 427.491 402H427.392C425.459 402 423.892 400.433 423.892 398.5ZM443.715 398.5C443.715 396.567 445.282 395 447.215 395H447.314C449.247 395 450.814 396.567 450.814 398.5C450.814 400.433 449.247 402 447.314 402H447.215C445.282 402 443.715 400.433 443.715 398.5ZM463.539 398.5C463.539 396.567 465.106 395 467.039 395H467.138C469.071 395 470.638 396.567 470.638 398.5C470.638 400.433 469.071 402 467.138 402H467.039C465.106 402 463.539 400.433 463.539 398.5ZM483.362 398.5C483.362 396.567 484.929 395 486.862 395H486.961C488.894 395 490.461 396.567 490.461 398.5C490.461 400.433 488.894 402 486.961 402H486.862C484.929 402 483.362 400.433 483.362 398.5ZM503.186 398.5C503.186 396.567 504.753 395 506.686 395H506.785C508.718 395 510.285 396.567 510.285 398.5C510.285 400.433 508.718 402 506.785 402H506.686C504.753 402 503.186 400.433 503.186 398.5ZM523.009 398.5C523.009 396.567 524.576 395 526.509 395H526.608C528.541 395 530.108 396.567 530.108 398.5C530.108 400.433 528.541 402 526.608 402H526.509C524.576 402 523.009 400.433 523.009 398.5ZM542.833 398.5C542.833 396.567 544.4 395 546.333 395H546.432C548.365 395 549.932 396.567 549.932 398.5C549.932 400.433 548.365 402 546.432 402H546.333C544.4 402 542.833 400.433 542.833 398.5ZM562.657 398.5C562.657 396.567 564.224 395 566.157 395H566.255C568.188 395 569.755 396.567 569.755 398.5C569.755 400.433 568.188 402 566.255 402H566.157C564.224 402 562.657 400.433 562.657 398.5ZM582.48 398.5C582.48 396.567 584.047 395 585.98 395H586.079C588.012 395 589.579 396.567 589.579 398.5C589.579 400.433 588.012 402 586.079 402H585.98C584.047 402 582.48 400.433 582.48 398.5ZM602.304 398.5C602.304 396.567 603.871 395 605.804 395H605.902C607.835 395 609.402 396.567 609.402 398.5C609.402 400.433 607.835 402 605.902 402H605.804C603.871 402 602.304 400.433 602.304 398.5ZM622.127 398.5C622.127 396.567 623.694 395 625.627 395H625.726C627.659 395 629.226 396.567 629.226 398.5C629.226 400.433 627.659 402 625.726 402H625.627C623.694 402 622.127 400.433 622.127 398.5ZM641.951 398.5C641.951 396.567 643.518 395 645.451 395H645.5C647.433 395 649 396.567 649 398.5C649 400.433 647.433 402 645.5 402H645.451C643.518 402 641.951 400.433 641.951 398.5Z" fill="#B1D0C7"/>
<path fill-rule="evenodd" clip-rule="evenodd" d="M305 425.5C305 423.567 306.567 422 308.5 422H308.549C310.482 422 312.049 423.567 312.049 425.5C312.049 427.433 310.482 429 308.549 429H308.5C306.567 429 305 427.433 305 425.5ZM324.774 425.5C324.774 423.567 326.341 422 328.274 422H328.373C330.306 422 331.873 423.567 331.873 425.5C331.873 427.433 330.306 429 328.373 429H328.274C326.341 429 324.774 427.433 324.774 425.5ZM344.598 425.5C344.598 423.567 346.165 422 348.098 422H348.196C350.129 422 351.696 423.567 351.696 425.5C351.696 427.433 350.129 429 348.196 429H348.098C346.165 429 344.598 427.433 344.598 425.5ZM364.421 425.5C364.421 423.567 365.988 422 367.921 422H368.02C369.953 422 371.52 423.567 371.52 425.5C371.52 427.433 369.953 429 368.02 429H367.921C365.988 429 364.421 427.433 364.421 425.5ZM384.245 425.5C384.245 423.567 385.812 422 387.745 422H387.843C389.776 422 391.343 423.567 391.343 425.5C391.343 427.433 389.776 429 387.843 429H387.745C385.812 429 384.245 427.433 384.245 425.5ZM404.068 425.5C404.068 423.567 405.635 422 407.568 422H407.667C409.6 422 411.167 423.567 411.167 425.5C411.167 427.433 409.6 429 407.667 429H407.568C405.635 429 404.068 427.433 404.068 425.5ZM423.892 425.5C423.892 423.567 425.459 422 427.392 422H427.491C429.424 422 430.991 423.567 430.991 425.5C430.991 427.433 429.424 429 427.491 429H427.392C425.459 429 423.892 427.433 423.892 425.5ZM443.715 425.5C443.715 423.567 445.282 422 447.215 422H447.314C449.247 422 450.814 423.567 450.814 425.5C450.814 427.433 449.247 429 447.314 429H447.215C445.282 429 443.715 427.433 443.715 425.5ZM463.539 425.5C463.539 423.567 465.106 422 467.039 422H467.138C469.071 422 470.638 423.567 470.638 425.5C470.638 427.433 469.071 429 467.138 429H467.039C465.106 429 463.539 427.433 463.539 425.5ZM483.362 425.5C483.362 423.567 484.929 422 486.862 422H486.961C488.894 422 490.461 423.567 490.461 425.5C490.461 427.433 488.894 429 486.961 429H486.862C484.929 429 483.362 427.433 483.362 425.5ZM503.186 425.5C503.186 423.567 504.753 422 506.686 422H506.785C508.718 422 510.285 423.567 510.285 425.5C510.285 427.433 508.718 429 506.785 429H506.686C504.753 429 503.186 427.433 503.186 425.5ZM523.009 425.5C523.009 423.567 524.576 422 526.509 422H526.608C528.541 422 530.108 423.567 530.108 425.5C530.108 427.433 528.541 429 526.608 429H526.509C524.576 429 523.009 427.433 523.009 425.5ZM542.833 425.5C542.833 423.567 544.4 422 546.333 422H546.432C548.365 422 549.932 423.567 549.932 425.5C549.932 427.433 548.365 429 546.432 429H546.333C544.4 429 542.833 427.433 542.833 425.5ZM562.657 425.5C562.657 423.567 564.224 422 566.157 422H566.255C568.188 422 569.755 423.567 569.755 425.5C569.755 427.433 568.188 429 566.255 429H566.157C564.224 429 562.657 427.433 562.657 425.5ZM582.48 425.5C582.48 423.567 584.047 422 585.98 422H586.079C588.012 422 589.579 423.567 589.579 425.5C589.579 427.433 588.012 429 586.079 429H585.98C584.047 429 582.48 427.433 582.48 425.5ZM602.304 425.5C602.304 423.567 603.871 422 605.804 422H605.902C607.835 422 609.402 423.567 609.402 425.5C609.402 427.433 607.835 429 605.902 429H605.804C603.871 429 602.304 427.433 602.304 425.5ZM622.127 425.5C622.127 423.567 623.694 422 625.627 422H625.726C627.659 422 629.226 423.567 629.226 425.5C629.226 427.433 627.659 429 625.726 429H625.627C623.694 429 622.127 427.433 622.127 425.5ZM641.951 425.5C641.951 423.567 643.518 422 645.451 422H645.5C647.433 422 649 423.567 649 425.5C649 427.433 647.433 429 645.5 429H645.451C643.518 429 641.951 427.433 641.951 425.5Z" fill="#B1D0C7"/>
<path fill-rule="evenodd" clip-rule="evenodd" d="M305 452.5C305 450.567 306.567 449 308.5 449H308.549C310.482 449 312.049 450.567 312.049 452.5C312.049 454.433 310.482 456 308.549 456H308.5C306.567 456 305 454.433 305 452.5ZM324.774 452.5C324.774 450.567 326.341 449 328.274 449H328.373C330.306 449 331.873 450.567 331.873 452.5C331.873 454.433 330.306 456 328.373 456H328.274C326.341 456 324.774 454.433 324.774 452.5ZM344.598 452.5C344.598 450.567 346.165 449 348.098 449H348.196C350.129 449 351.696 450.567 351.696 452.5C351.696 454.433 350.129 456 348.196 456H348.098C346.165 456 344.598 454.433 344.598 452.5ZM364.421 452.5C364.421 450.567 365.988 449 367.921 449H368.02C369.953 449 371.52 450.567 371.52 452.5C371.52 454.433 369.953 456 368.02 456H367.921C365.988 456 364.421 454.433 364.421 452.5ZM384.245 452.5C384.245 450.567 385.812 449 387.745 449H387.843C389.776 449 391.343 450.567 391.343 452.5C391.343 454.433 389.776 456 387.843 456H387.745C385.812 456 384.245 454.433 384.245 452.5ZM404.068 452.5C404.068 450.567 405.635 449 407.568 449H407.667C409.6 449 411.167 450.567 411.167 452.5C411.167 454.433 409.6 456 407.667 456H407.568C405.635 456 404.068 454.433 404.068 452.5ZM423.892 452.5C423.892 450.567 425.459 449 427.392 449H427.491C429.424 449 430.991 450.567 430.991 452.5C430.991 454.433 429.424 456 427.491 456H427.392C425.459 456 423.892 454.433 423.892 452.5ZM443.715 452.5C443.715 450.567 445.282 449 447.215 449H447.314C449.247 449 450.814 450.567 450.814 452.5C450.814 454.433 449.247 456 447.314 456H447.215C445.282 456 443.715 454.433 443.715 452.5ZM463.539 452.5C463.539 450.567 465.106 449 467.039 449H467.138C469.071 449 470.638 450.567 470.638 452.5C470.638 454.433 469.071 456 467.138 456H467.039C465.106 456 463.539 454.433 463.539 452.5ZM483.362 452.5C483.362 450.567 484.929 449 486.862 449H486.961C488.894 449 490.461 450.567 490.461 452.5C490.461 454.433 488.894 456 486.961 456H486.862C484.929 456 483.362 454.433 483.362 452.5ZM503.186 452.5C503.186 450.567 504.753 449 506.686 449H506.785C508.718 449 510.285 450.567 510.285 452.5C510.285 454.433 508.718 456 506.785 456H506.686C504.753 456 503.186 454.433 503.186 452.5ZM523.009 452.5C523.009 450.567 524.576 449 526.509 449H526.608C528.541 449 530.108 450.567 530.108 452.5C530.108 454.433 528.541 456 526.608 456H526.509C524.576 456 523.009 454.433 523.009 452.5ZM542.833 452.5C542.833 450.567 544.4 449 546.333 449H546.432C548.365 449 549.932 450.567 549.932 452.5C549.932 454.433 548.365 456 546.432 456H546.333C544.4 456 542.833 454.433 542.833 452.5ZM562.657 452.5C562.657 450.567 564.224 449 566.157 449H566.255C568.188 449 569.755 450.567 569.755 452.5C569.755 454.433 568.188 456 566.255 456H566.157C564.224 456 562.657 454.433 562.657 452.5ZM582.48 452.5C582.48 450.567 584.047 449 585.98 449H586.079C588.012 449 589.579 450.567 589.579 452.5C589.579 454.433 588.012 456 586.079 456H585.98C584.047 456 582.48 454.433 582.48 452.5ZM602.304 452.5C602.304 450.567 603.871 449 605.804 449H605.902C607.835 449 609.402 450.567 609.402 452.5C609.402 454.433 607.835 456 605.902 456H605.804C603.871 456 602.304 454.433 602.304 452.5ZM622.127 452.5C622.127 450.567 623.694 449 625.627 449H625.726C627.659 449 629.226 450.567 629.226 452.5C629.226 454.433 627.659 456 625.726 456H625.627C623.694 456 622.127 454.433 622.127 452.5ZM641.951 452.5C641.951 450.567 643.518 449 645.451 449H645.5C647.433 449 649 450.567 649 452.5C649 454.433 647.433 456 645.5 456H645.451C643.518 456 641.951 454.433 641.951 452.5Z" fill="#B1D0C7"/>
<path fill-rule="evenodd" clip-rule="evenodd" d="M305 479.5C305 477.567 306.567 476 308.5 476H308.549C310.482 476 312.049 477.567 312.049 479.5C312.049 481.433 310.482 483 308.549 483H308.5C306.567 483 305 481.433 305 479.5ZM324.774 479.5C324.774 477.567 326.341 476 328.274 476H328.373C330.306 476 331.873 477.567 331.873 479.5C331.873 481.433 330.306 483 328.373 483H328.274C326.341 483 324.774 481.433 324.774 479.5ZM344.598 479.5C344.598 477.567 346.165 476 348.098 476H348.196C350.129 476 351.696 477.567 351.696 479.5C351.696 481.433 350.129 483 348.196 483H348.098C346.165 483 344.598 481.433 344.598 479.5ZM364.421 479.5C364.421 477.567 365.988 476 367.921 476H368.02C369.953 476 371.52 477.567 371.52 479.5C371.52 481.433 369.953 483 368.02 483H367.921C365.988 483 364.421 481.433 364.421 479.5ZM384.245 479.5C384.245 477.567 385.812 476 387.745 476H387.843C389.776 476 391.343 477.567 391.343 479.5C391.343 481.433 389.776 483 387.843 483H387.745C385.812 483 384.245 481.433 384.245 479.5ZM404.068 479.5C404.068 477.567 405.635 476 407.568 476H407.667C409.6 476 411.167 477.567 411.167 479.5C411.167 481.433 409.6 483 407.667 483H407.568C405.635 483 404.068 481.433 404.068 479.5ZM423.892 479.5C423.892 477.567 425.459 476 427.392 476H427.491C429.424 476 430.991 477.567 430.991 479.5C430.991 481.433 429.424 483 427.491 483H427.392C425.459 483 423.892 481.433 423.892 479.5ZM443.715 479.5C443.715 477.567 445.282 476 447.215 476H447.314C449.247 476 450.814 477.567 450.814 479.5C450.814 481.433 449.247 483 447.314 483H447.215C445.282 483 443.715 481.433 443.715 479.5ZM463.539 479.5C463.539 477.567 465.106 476 467.039 476H467.138C469.071 476 470.638 477.567 470.638 479.5C470.638 481.433 469.071 483 467.138 483H467.039C465.106 483 463.539 481.433 463.539 479.5ZM483.362 479.5C483.362 477.567 484.929 476 486.862 476H486.961C488.894 476 490.461 477.567 490.461 479.5C490.461 481.433 488.894 483 486.961 483H486.862C484.929 483 483.362 481.433 483.362 479.5ZM503.186 479.5C503.186 477.567 504.753 476 506.686 476H506.785C508.718 476 510.285 477.567 510.285 479.5C510.285 481.433 508.718 483 506.785 483H506.686C504.753 483 503.186 481.433 503.186 479.5ZM523.009 479.5C523.009 477.567 524.576 476 526.509 476H526.608C528.541 476 530.108 477.567 530.108 479.5C530.108 481.433 528.541 483 526.608 483H526.509C524.576 483 523.009 481.433 523.009 479.5ZM542.833 479.5C542.833 477.567 544.4 476 546.333 476H546.432C548.365 476 549.932 477.567 549.932 479.5C549.932 481.433 548.365 483 546.432 483H546.333C544.4 483 542.833 481.433 542.833 479.5ZM562.657 479.5C562.657 477.567 564.224 476 566.157 476H566.255C568.188 476 569.755 477.567 569.755 479.5C569.755 481.433 568.188 483 566.255 483H566.157C564.224 483 562.657 481.433 562.657 479.5ZM582.48 479.5C582.48 477.567 584.047 476 585.98 476H586.079C588.012 476 589.579 477.567 589.579 479.5C589.579 481.433 588.012 483 586.079 483H585.98C584.047 483 582.48 481.433 582.48 479.5ZM602.304 479.5C602.304 477.567 603.871 476 605.804 476H605.902C607.835 476 609.402 477.567 609.402 479.5C609.402 481.433 607.835 483 605.902 483H605.804C603.871 483 602.304 481.433 602.304 479.5ZM622.127 479.5C622.127 477.567 623.694 476 625.627 476H625.726C627.659 476 629.226 477.567 629.226 479.5C629.226 481.433 627.659 483 625.726 483H625.627C623.694 483 622.127 481.433 622.127 479.5ZM641.951 479.5C641.951 477.567 643.518 476 645.451 476H645.5C647.433 476 649 477.567 649 479.5C649 481.433 647.433 483 645.5 483H645.451C643.518 483 641.951 481.433 641.951 479.5Z" fill="#B1D0C7"/>
<path fill-rule="evenodd" clip-rule="evenodd" d="M305 506.5C305 504.567 306.567 503 308.5 503H308.549C310.482 503 312.049 504.567 312.049 506.5C312.049 508.433 310.482 510 308.549 510H308.5C306.567 510 305 508.433 305 506.5ZM324.774 506.5C324.774 504.567 326.341 503 328.274 503H328.373C330.306 503 331.873 504.567 331.873 506.5C331.873 508.433 330.306 510 328.373 510H328.274C326.341 510 324.774 508.433 324.774 506.5ZM344.598 506.5C344.598 504.567 346.165 503 348.098 503H348.196C350.129 503 351.696 504.567 351.696 506.5C351.696 508.433 350.129 510 348.196 510H348.098C346.165 510 344.598 508.433 344.598 506.5ZM364.421 506.5C364.421 504.567 365.988 503 367.921 503H368.02C369.953 503 371.52 504.567 371.52 506.5C371.52 508.433 369.953 510 368.02 510H367.921C365.988 510 364.421 508.433 364.421 506.5ZM384.245 506.5C384.245 504.567 385.812 503 387.745 503H387.843C389.776 503 391.343 504.567 391.343 506.5C391.343 508.433 389.776 510 387.843 510H387.745C385.812 510 384.245 508.433 384.245 506.5ZM404.068 506.5C404.068 504.567 405.635 503 407.568 503H407.667C409.6 503 411.167 504.567 411.167 506.5C411.167 508.433 409.6 510 407.667 510H407.568C405.635 510 404.068 508.433 404.068 506.5ZM423.892 506.5C423.892 504.567 425.459 503 427.392 503H427.491C429.424 503 430.991 504.567 430.991 506.5C430.991 508.433 429.424 510 427.491 510H427.392C425.459 510 423.892 508.433 423.892 506.5ZM443.715 506.5C443.715 504.567 445.282 503 447.215 503H447.314C449.247 503 450.814 504.567 450.814 506.5C450.814 508.433 449.247 510 447.314 510H447.215C445.282 510 443.715 508.433 443.715 506.5ZM463.539 506.5C463.539 504.567 465.106 503 467.039 503H467.138C469.071 503 470.638 504.567 470.638 506.5C470.638 508.433 469.071 510 467.138 510H467.039C465.106 510 463.539 508.433 463.539 506.5ZM483.362 506.5C483.362 504.567 484.929 503 486.862 503H486.961C488.894 503 490.461 504.567 490.461 506.5C490.461 508.433 488.894 510 486.961 510H486.862C484.929 510 483.362 508.433 483.362 506.5ZM503.186 506.5C503.186 504.567 504.753 503 506.686 503H506.785C508.718 503 510.285 504.567 510.285 506.5C510.285 508.433 508.718 510 506.785 510H506.686C504.753 510 503.186 508.433 503.186 506.5ZM523.009 506.5C523.009 504.567 524.576 503 526.509 503H526.608C528.541 503 530.108 504.567 530.108 506.5C530.108 508.433 528.541 510 526.608 510H526.509C524.576 510 523.009 508.433 523.009 506.5ZM542.833 506.5C542.833 504.567 544.4 503 546.333 503H546.432C548.365 503 549.932 504.567 549.932 506.5C549.932 508.433 548.365 510 546.432 510H546.333C544.4 510 542.833 508.433 542.833 506.5ZM562.657 506.5C562.657 504.567 564.224 503 566.157 503H566.255C568.188 503 569.755 504.567 569.755 506.5C569.755 508.433 568.188 510 566.255 510H566.157C564.224 510 562.657 508.433 562.657 506.5ZM582.48 506.5C582.48 504.567 584.047 503 585.98 503H586.079C588.012 503 589.579 504.567 589.579 506.5C589.579 508.433 588.012 510 586.079 510H585.98C584.047 510 582.48 508.433 582.48 506.5ZM602.304 506.5C602.304 504.567 603.871 503 605.804 503H605.902C607.835 503 609.402 504.567 609.402 506.5C609.402 508.433 607.835 510 605.902 510H605.804C603.871 510 602.304 508.433 602.304 506.5ZM622.127 506.5C622.127 504.567 623.694 503 625.627 503H625.726C627.659 503 629.226 504.567 629.226 506.5C629.226 508.433 627.659 510 625.726 510H625.627C623.694 510 622.127 508.433 622.127 506.5ZM641.951 506.5C641.951 504.567 643.518 503 645.451 503H645.5C647.433 503 649 504.567 649 506.5C649 508.433 647.433 510 645.5 510H645.451C643.518 510 641.951 508.433 641.951 506.5Z" fill="#B1D0C7"/>
<path fill-rule="evenodd" clip-rule="evenodd" d="M305 533.5C305 531.567 306.567 530 308.5 530H308.549C310.482 530 312.049 531.567 312.049 533.5C312.049 535.433 310.482 537 308.549 537H308.5C306.567 537 305 535.433 305 533.5ZM324.774 533.5C324.774 531.567 326.341 530 328.274 530H328.373C330.306 530 331.873 531.567 331.873 533.5C331.873 535.433 330.306 537 328.373 537H328.274C326.341 537 324.774 535.433 324.774 533.5ZM344.598 533.5C344.598 531.567 346.165 530 348.098 530H348.196C350.129 530 351.696 531.567 351.696 533.5C351.696 535.433 350.129 537 348.196 537H348.098C346.165 537 344.598 535.433 344.598 533.5ZM364.421 533.5C364.421 531.567 365.988 530 367.921 530H368.02C369.953 530 371.52 531.567 371.52 533.5C371.52 535.433 369.953 537 368.02 537H367.921C365.988 537 364.421 535.433 364.421 533.5ZM384.245 533.5C384.245 531.567 385.812 530 387.745 530H387.843C389.776 530 391.343 531.567 391.343 533.5C391.343 535.433 389.776 537 387.843 537H387.745C385.812 537 384.245 535.433 384.245 533.5ZM404.068 533.5C404.068 531.567 405.635 530 407.568 530H407.667C409.6 530 411.167 531.567 411.167 533.5C411.167 535.433 409.6 537 407.667 537H407.568C405.635 537 404.068 535.433 404.068 533.5ZM423.892 533.5C423.892 531.567 425.459 530 427.392 530H427.491C429.424 530 430.991 531.567 430.991 533.5C430.991 535.433 429.424 537 427.491 537H427.392C425.459 537 423.892 535.433 423.892 533.5ZM443.715 533.5C443.715 531.567 445.282 530 447.215 530H447.314C449.247 530 450.814 531.567 450.814 533.5C450.814 535.433 449.247 537 447.314 537H447.215C445.282 537 443.715 535.433 443.715 533.5ZM463.539 533.5C463.539 531.567 465.106 530 467.039 530H467.138C469.071 530 470.638 531.567 470.638 533.5C470.638 535.433 469.071 537 467.138 537H467.039C465.106 537 463.539 535.433 463.539 533.5ZM483.362 533.5C483.362 531.567 484.929 530 486.862 530H486.961C488.894 530 490.461 531.567 490.461 533.5C490.461 535.433 488.894 537 486.961 537H486.862C484.929 537 483.362 535.433 483.362 533.5ZM503.186 533.5C503.186 531.567 504.753 530 506.686 530H506.785C508.718 530 510.285 531.567 510.285 533.5C510.285 535.433 508.718 537 506.785 537H506.686C504.753 537 503.186 535.433 503.186 533.5ZM523.009 533.5C523.009 531.567 524.576 530 526.509 530H526.608C528.541 530 530.108 531.567 530.108 533.5C530.108 535.433 528.541 537 526.608 537H526.509C524.576 537 523.009 535.433 523.009 533.5ZM542.833 533.5C542.833 531.567 544.4 530 546.333 530H546.432C548.365 530 549.932 531.567 549.932 533.5C549.932 535.433 548.365 537 546.432 537H546.333C544.4 537 542.833 535.433 542.833 533.5ZM562.657 533.5C562.657 531.567 564.224 530 566.157 530H566.255C568.188 530 569.755 531.567 569.755 533.5C569.755 535.433 568.188 537 566.255 537H566.157C564.224 537 562.657 535.433 562.657 533.5ZM582.48 533.5C582.48 531.567 584.047 530 585.98 530H586.079C588.012 530 589.579 531.567 589.579 533.5C589.579 535.433 588.012 537 586.079 537H585.98C584.047 537 582.48 535.433 582.48 533.5ZM602.304 533.5C602.304 531.567 603.871 530 605.804 530H605.902C607.835 530 609.402 531.567 609.402 533.5C609.402 535.433 607.835 537 605.902 537H605.804C603.871 537 602.304 535.433 602.304 533.5ZM622.127 533.5C622.127 531.567 623.694 530 625.627 530H625.726C627.659 530 629.226 531.567 629.226 533.5C629.226 535.433 627.659 537 625.726 537H625.627C623.694 537 622.127 535.433 622.127 533.5ZM641.951 533.5C641.951 531.567 643.518 530 645.451 530H645.5C647.433 530 649 531.567 649 533.5C649 535.433 647.433 537 645.5 537H645.451C643.518 537 641.951 535.433 641.951 533.5Z" fill="#B1D0C7"/>
<path d="M163.501 571.152C92.2139 612.476 -39.3941 584.027 -96.2871 564.636C-100.643 393.069 -90.9112 42.7983 -17.1403 14.2536C75.0733 -21.4272 224.869 16.1087 296.485 96.2629C368.101 176.417 289.378 280.887 245.52 335.331C201.661 389.775 252.611 519.497 163.501 571.152Z" fill="#FFF3E7"/>
</svg>
