<svg width="378" height="496" viewBox="0 0 378 496" fill="none" xmlns="http://www.w3.org/2000/svg">
<g clip-path="url(#clip0)">
<path d="M353 438.5C391.4 478.5 377.667 532.167 366 554L-90 578L-114 243C-81.6667 280.833 9.4 357.6 115 362C247 367.5 305 388.5 353 438.5Z" fill="#FFEED8"/>
<path fill-rule="evenodd" clip-rule="evenodd" d="M261.865 -41.9523C263.714 -41.3895 264.757 -39.4341 264.194 -37.5848L264.18 -37.5377C263.617 -35.6884 261.662 -34.6456 259.812 -35.2085C257.963 -35.7714 256.92 -37.7268 257.483 -39.576L257.498 -39.6232C258.06 -41.4724 260.016 -42.5152 261.865 -41.9523ZM256.107 -23.035C257.956 -22.4722 258.999 -20.5168 258.436 -18.6675L258.407 -18.5732C257.845 -16.724 255.889 -15.6812 254.04 -16.244C252.191 -16.8069 251.148 -18.7623 251.711 -20.6115L251.739 -20.7059C252.302 -22.5551 254.258 -23.5979 256.107 -23.035ZM250.335 -4.07058C252.184 -3.5077 253.227 -1.5523 252.664 0.296929L252.635 0.391274C252.072 2.2405 250.117 3.2833 248.267 2.72042C246.418 2.15755 245.375 0.202156 245.938 -1.64707L245.967 -1.74142C246.53 -3.59064 248.485 -4.63345 250.335 -4.07058ZM244.562 14.8939C246.411 15.4568 247.454 17.4122 246.891 19.2614L246.862 19.3557C246.3 21.205 244.344 22.2478 242.495 21.6849C240.646 21.122 239.603 19.1666 240.166 17.3174L240.195 17.223C240.757 15.3738 242.713 14.331 244.562 14.8939ZM238.79 33.8584C240.639 34.4212 241.682 36.3766 241.119 38.2259L241.09 38.3202C240.527 40.1694 238.572 41.2122 236.723 40.6494C234.873 40.0865 233.83 38.1311 234.393 36.2819L234.422 36.1875C234.985 34.3383 236.94 33.2955 238.79 33.8584ZM233.017 52.8228C234.866 53.3857 235.909 55.3411 235.346 57.1903L235.318 57.2847C234.755 59.1339 232.799 60.1767 230.95 59.6138C229.101 59.051 228.058 57.0956 228.621 55.2463L228.65 55.152C229.212 53.3028 231.168 52.26 233.017 52.8228ZM227.245 71.7873C229.094 72.3502 230.137 74.3056 229.574 76.1548L229.545 76.2492C228.982 78.0984 227.027 79.1412 225.178 78.5783C223.328 78.0154 222.286 76.06 222.848 74.2108L222.877 74.1164C223.44 72.2672 225.395 71.2244 227.245 71.7873ZM221.472 90.7518C223.321 91.3146 224.364 93.27 223.801 95.1193L223.773 95.2136C223.21 97.0628 221.254 98.1056 219.405 97.5428C217.556 96.9799 216.513 95.0245 217.076 93.1753L217.105 93.0809C217.668 91.2317 219.623 90.1889 221.472 90.7518ZM215.7 109.716C217.549 110.279 218.592 112.235 218.029 114.084L218 114.178C217.437 116.027 215.482 117.07 213.633 116.507C211.783 115.944 210.741 113.989 211.304 112.14L211.332 112.045C211.895 110.196 213.85 109.153 215.7 109.716ZM209.927 128.681C211.776 129.244 212.819 131.199 212.256 133.048L212.228 133.143C211.665 134.992 209.709 136.035 207.86 135.472C206.011 134.909 204.968 132.953 205.531 131.104L205.56 131.01C206.123 129.161 208.078 128.118 209.927 128.681ZM204.155 147.645C206.004 148.208 207.047 150.163 206.484 152.013L206.455 152.107C205.892 153.956 203.937 154.999 202.088 154.436C200.238 153.873 199.196 151.918 199.759 150.069L199.787 149.974C200.35 148.125 202.306 147.082 204.155 147.645ZM198.382 166.61C200.232 167.172 201.274 169.128 200.711 170.977L200.683 171.071C200.12 172.921 198.164 173.963 196.315 173.401C194.466 172.838 193.423 170.882 193.986 169.033L194.015 168.939C194.578 167.09 196.533 166.047 198.382 166.61ZM192.61 185.574C194.459 186.137 195.502 188.092 194.939 189.942L194.91 190.036C194.347 191.885 192.392 192.928 190.543 192.365C188.694 191.802 187.651 189.847 188.214 187.998L188.242 187.903C188.805 186.054 190.761 185.011 192.61 185.574ZM186.837 204.539C188.687 205.101 189.729 207.057 189.167 208.906L189.138 209C188.575 210.85 186.62 211.892 184.77 211.33C182.921 210.767 181.878 208.811 182.441 206.962L182.47 206.868C183.033 205.018 184.988 203.976 186.837 204.539ZM181.065 223.503C182.914 224.066 183.957 226.021 183.394 227.87L183.365 227.965C182.802 229.814 180.847 230.857 178.998 230.294C177.149 229.731 176.106 227.776 176.669 225.927L176.697 225.832C177.26 223.983 179.216 222.94 181.065 223.503ZM175.292 242.467C177.142 243.03 178.184 244.986 177.622 246.835L177.593 246.929C177.03 248.779 175.075 249.821 173.225 249.258C171.376 248.696 170.333 246.74 170.896 244.891L170.925 244.797C171.488 242.947 173.443 241.905 175.292 242.467ZM169.52 261.432C171.369 261.995 172.412 263.95 171.849 265.799L171.82 265.894C171.258 267.743 169.302 268.786 167.453 268.223C165.604 267.66 164.561 265.705 165.124 263.855L165.152 263.761C165.715 261.912 167.671 260.869 169.52 261.432ZM163.748 280.396C165.597 280.959 166.64 282.915 166.077 284.764L166.062 284.811C165.499 286.66 163.544 287.703 161.695 287.14C159.846 286.577 158.803 284.622 159.366 282.773L159.38 282.726C159.943 280.876 161.898 279.834 163.748 280.396Z" fill="#FFE8C8"/>
<path fill-rule="evenodd" clip-rule="evenodd" d="M236.035 -49.8145C237.884 -49.2517 238.927 -47.2963 238.364 -45.447L238.35 -45.3999C237.787 -43.5506 235.832 -42.5078 233.982 -43.0707C232.133 -43.6336 231.09 -45.589 231.653 -47.4382L231.668 -47.4854C232.231 -49.3346 234.186 -50.3774 236.035 -49.8145ZM230.277 -30.8972C232.126 -30.3344 233.169 -28.379 232.606 -26.5297L232.577 -26.4354C232.015 -24.5862 230.059 -23.5434 228.21 -24.1062C226.361 -24.6691 225.318 -26.6245 225.881 -28.4737L225.91 -28.5681C226.472 -30.4173 228.428 -31.4601 230.277 -30.8972ZM224.505 -11.9328C226.354 -11.3699 227.397 -9.41451 226.834 -7.56528L226.805 -7.47092C226.242 -5.6217 224.287 -4.5789 222.438 -5.14178C220.588 -5.70465 219.545 -7.66006 220.108 -9.50928L220.137 -9.60363C220.7 -11.4529 222.655 -12.4957 224.505 -11.9328ZM218.732 7.03169C220.581 7.59456 221.624 9.54997 221.061 11.3992L221.033 11.4935C220.47 13.3428 218.514 14.3856 216.665 13.8227C214.816 13.2598 213.773 11.3044 214.336 9.45519L214.365 9.36083C214.927 7.51161 216.883 6.46881 218.732 7.03169ZM212.96 25.9962C214.809 26.559 215.852 28.5144 215.289 30.3637L215.26 30.458C214.697 32.3072 212.742 33.35 210.893 32.7872C209.043 32.2243 208.001 30.2689 208.563 28.4197L208.592 28.3253C209.155 26.4761 211.11 25.4333 212.96 25.9962ZM207.187 44.9606C209.036 45.5235 210.079 47.4789 209.516 49.3281L209.488 49.4225C208.925 51.2717 206.969 52.3145 205.12 51.7516C203.271 51.1888 202.228 49.2334 202.791 47.3841L202.82 47.2898C203.383 45.4406 205.338 44.3978 207.187 44.9606ZM201.415 63.9251C203.264 64.488 204.307 66.4434 203.744 68.2926L203.715 68.3869C203.152 70.2362 201.197 71.279 199.348 70.7161C197.498 70.1532 196.456 68.1978 197.018 66.3486L197.047 66.2543C197.61 64.405 199.565 63.3622 201.415 63.9251ZM195.642 82.8896C197.491 83.4524 198.534 85.4078 197.971 87.2571L197.943 87.3514C197.38 89.2006 195.424 90.2434 193.575 89.6806C191.726 89.1177 190.683 87.1623 191.246 85.3131L191.275 85.2187C191.838 83.3695 193.793 82.3267 195.642 82.8896ZM189.87 101.854C191.719 102.417 192.762 104.372 192.199 106.222L192.17 106.316C191.607 108.165 189.652 109.208 187.803 108.645C185.953 108.082 184.911 106.127 185.474 104.278L185.502 104.183C186.065 102.334 188.021 101.291 189.87 101.854ZM184.097 120.818C185.947 121.381 186.989 123.337 186.426 125.186L186.398 125.28C185.835 127.13 183.879 128.172 182.03 127.609C180.181 127.047 179.138 125.091 179.701 123.242L179.73 123.148C180.293 121.298 182.248 120.256 184.097 120.818ZM178.325 139.783C180.174 140.346 181.217 142.301 180.654 144.15L180.625 144.245C180.062 146.094 178.107 147.137 176.258 146.574C174.409 146.011 173.366 144.056 173.929 142.206L173.957 142.112C174.52 140.263 176.476 139.22 178.325 139.783ZM172.552 158.747C174.402 159.31 175.444 161.266 174.882 163.115L174.853 163.209C174.29 165.058 172.335 166.101 170.485 165.538C168.636 164.975 167.593 163.02 168.156 161.171L168.185 161.077C168.748 159.227 170.703 158.184 172.552 158.747ZM166.78 177.712C168.629 178.275 169.672 180.23 169.109 182.079L169.08 182.174C168.517 184.023 166.562 185.066 164.713 184.503C162.864 183.94 161.821 181.985 162.384 180.135L162.412 180.041C162.975 178.192 164.931 177.149 166.78 177.712ZM161.007 196.676C162.857 197.239 163.899 199.195 163.337 201.044L163.308 201.138C162.745 202.987 160.79 204.03 158.94 203.467C157.091 202.904 156.048 200.949 156.611 199.1L156.64 199.005C157.203 197.156 159.158 196.113 161.007 196.676ZM155.235 215.641C157.084 216.204 158.127 218.159 157.564 220.008L157.535 220.103C156.973 221.952 155.017 222.995 153.168 222.432C151.319 221.869 150.276 219.914 150.839 218.064L150.867 217.97C151.43 216.121 153.386 215.078 155.235 215.641ZM149.463 234.605C151.312 235.168 152.355 237.124 151.792 238.973L151.763 239.067C151.2 240.916 149.245 241.959 147.395 241.396C145.546 240.833 144.503 238.878 145.066 237.029L145.095 236.934C145.658 235.085 147.613 234.042 149.463 234.605ZM143.69 253.57C145.539 254.133 146.582 256.088 146.019 257.937L145.99 258.032C145.428 259.881 143.472 260.924 141.623 260.361C139.774 259.798 138.731 257.842 139.294 255.993L139.323 255.899C139.885 254.05 141.841 253.007 143.69 253.57ZM137.918 272.534C139.767 273.097 140.81 275.052 140.247 276.902L140.232 276.949C139.669 278.798 137.714 279.841 135.865 279.278C134.016 278.715 132.973 276.76 133.536 274.911L133.55 274.863C134.113 273.014 136.068 271.971 137.918 272.534Z" fill="#FFE8C8"/>
<path fill-rule="evenodd" clip-rule="evenodd" d="M210.205 -57.6767C212.054 -57.1139 213.097 -55.1585 212.534 -53.3092L212.52 -53.2621C211.957 -51.4128 210.002 -50.37 208.152 -50.9329C206.303 -51.4958 205.26 -53.4512 205.823 -55.3004L205.838 -55.3476C206.401 -57.1968 208.356 -58.2396 210.205 -57.6767ZM204.447 -38.7595C206.296 -38.1966 207.339 -36.2412 206.776 -34.392L206.748 -34.2976C206.185 -32.4484 204.229 -31.4056 202.38 -31.9685C200.531 -32.5313 199.488 -34.4867 200.051 -36.336L200.08 -36.4303C200.642 -38.2795 202.598 -39.3223 204.447 -38.7595ZM198.675 -19.795C200.524 -19.2321 201.567 -17.2767 201.004 -15.4275L200.975 -15.3331C200.412 -13.4839 198.457 -12.4411 196.608 -13.004C194.758 -13.5669 193.716 -15.5223 194.278 -17.3715L194.307 -17.4658C194.87 -19.3151 196.825 -20.3579 198.675 -19.795ZM192.902 -0.830512C194.751 -0.267637 195.794 1.68775 195.231 3.53698L195.203 3.63133C194.64 5.48055 192.684 6.52336 190.835 5.96049C188.986 5.39761 187.943 3.44221 188.506 1.59298L188.535 1.49864C189.098 -0.350592 191.053 -1.39339 192.902 -0.830512ZM187.13 18.134C188.979 18.6968 190.022 20.6522 189.459 22.5015L189.43 22.5958C188.867 24.445 186.912 25.4878 185.063 24.925C183.213 24.3621 182.171 22.4067 182.733 20.5575L182.762 20.4631C183.325 18.6139 185.28 17.5711 187.13 18.134ZM181.357 37.0984C183.206 37.6613 184.249 39.6167 183.686 41.4659L183.658 41.5603C183.095 43.4095 181.139 44.4523 179.29 43.8894C177.441 43.3266 176.398 41.3712 176.961 39.5219L176.99 39.4276C177.553 37.5783 179.508 36.5356 181.357 37.0984ZM175.585 56.0629C177.434 56.6258 178.477 58.5812 177.914 60.4304L177.885 60.5247C177.322 62.374 175.367 63.4168 173.518 62.8539C171.668 62.291 170.626 60.3356 171.189 58.4864L171.217 58.392C171.78 56.5428 173.736 55.5 175.585 56.0629ZM169.812 75.0274C171.662 75.5902 172.704 77.5456 172.141 79.3949L172.113 79.4892C171.55 81.3384 169.594 82.3812 167.745 81.8184C165.896 81.2555 164.853 79.3001 165.416 77.4508L165.445 77.3565C166.008 75.5073 167.963 74.4645 169.812 75.0274ZM164.04 93.9918C165.889 94.5547 166.932 96.5101 166.369 98.3593L166.34 98.4537C165.777 100.303 163.822 101.346 161.973 100.783C160.124 100.22 159.081 98.2645 159.644 96.4153L159.672 96.321C160.235 94.4717 162.191 93.4289 164.04 93.9918ZM158.267 112.956C160.117 113.519 161.159 115.475 160.597 117.324L160.568 117.418C160.005 119.267 158.05 120.31 156.2 119.747C154.351 119.184 153.308 117.229 153.871 115.38L153.9 115.285C154.463 113.436 156.418 112.393 158.267 112.956ZM152.495 131.921C154.344 132.484 155.387 134.439 154.824 136.288L154.795 136.383C154.232 138.232 152.277 139.275 150.428 138.712C148.579 138.149 147.536 136.193 148.099 134.344L148.127 134.25C148.69 132.401 150.646 131.358 152.495 131.921ZM146.722 150.885C148.572 151.448 149.614 153.403 149.052 155.253L149.023 155.347C148.46 157.196 146.505 158.239 144.655 157.676C142.806 157.113 141.763 155.158 142.326 153.309L142.355 153.214C142.918 151.365 144.873 150.322 146.722 150.885ZM140.95 169.85C142.799 170.413 143.842 172.368 143.279 174.217L143.25 174.311C142.688 176.161 140.732 177.203 138.883 176.641C137.034 176.078 135.991 174.122 136.554 172.273L136.582 172.179C137.145 170.33 139.101 169.287 140.95 169.85ZM135.177 188.814C137.027 189.377 138.07 191.332 137.507 193.182L137.478 193.276C136.915 195.125 134.96 196.168 133.11 195.605C131.261 195.042 130.218 193.087 130.781 191.238L130.81 191.143C131.373 189.294 133.328 188.251 135.177 188.814ZM129.405 207.779C131.254 208.341 132.297 210.297 131.734 212.146L131.705 212.24C131.143 214.09 129.187 215.132 127.338 214.57C125.489 214.007 124.446 212.051 125.009 210.202L125.038 210.108C125.6 208.258 127.556 207.216 129.405 207.779ZM123.633 226.743C125.482 227.306 126.525 229.261 125.962 231.111L125.933 231.205C125.37 233.054 123.415 234.097 121.565 233.534C119.716 232.971 118.673 231.016 119.236 229.167L119.265 229.072C119.828 227.223 121.783 226.18 123.633 226.743ZM117.86 245.708C119.709 246.27 120.752 248.226 120.189 250.075L120.161 250.169C119.598 252.019 117.642 253.061 115.793 252.499C113.944 251.936 112.901 249.98 113.464 248.131L113.493 248.037C114.055 246.187 116.011 245.145 117.86 245.708ZM112.088 264.672C113.937 265.235 114.98 267.19 114.417 269.04L114.402 269.087C113.84 270.936 111.884 271.979 110.035 271.416C108.186 270.853 107.143 268.898 107.706 267.048L107.72 267.001C108.283 265.152 110.238 264.109 112.088 264.672Z" fill="#FFE8C8"/>
<path fill-rule="evenodd" clip-rule="evenodd" d="M184.375 -65.5389C186.225 -64.9761 187.267 -63.0207 186.704 -61.1714L186.69 -61.1243C186.127 -59.275 184.172 -58.2322 182.323 -58.7951C180.473 -59.358 179.431 -61.3134 179.993 -63.1626L180.008 -63.2098C180.571 -65.059 182.526 -66.1018 184.375 -65.5389ZM178.617 -46.6217C180.466 -46.0588 181.509 -44.1034 180.946 -42.2542L180.918 -42.1598C180.355 -40.3106 178.399 -39.2678 176.55 -39.8307C174.701 -40.3935 173.658 -42.3489 174.221 -44.1982L174.25 -44.2925C174.813 -46.1417 176.768 -47.1845 178.617 -46.6217ZM172.845 -27.6572C174.694 -27.0943 175.737 -25.1389 175.174 -23.2897L175.145 -23.1953C174.582 -21.3461 172.627 -20.3033 170.778 -20.8662C168.928 -21.4291 167.886 -23.3845 168.448 -25.2337L168.477 -25.328C169.04 -27.1773 170.995 -28.2201 172.845 -27.6572ZM167.072 -8.69272C168.921 -8.12985 169.964 -6.17444 169.401 -4.32522L169.373 -4.23087C168.81 -2.38164 166.854 -1.33885 165.005 -1.90172C163.156 -2.4646 162.113 -4.41999 162.676 -6.26922L162.705 -6.36358C163.268 -8.2128 165.223 -9.2556 167.072 -8.69272ZM161.3 10.2718C163.149 10.8346 164.192 12.79 163.629 14.6392L163.6 14.7336C163.037 16.5828 161.082 17.6256 159.233 17.0628C157.383 16.4999 156.341 14.5445 156.904 12.6952L156.932 12.6009C157.495 10.7517 159.451 9.70888 161.3 10.2718ZM155.527 29.2362C157.377 29.7991 158.419 31.7545 157.856 33.6037L157.828 33.6981C157.265 35.5473 155.309 36.5901 153.46 36.0272C151.611 35.4644 150.568 33.5089 151.131 31.6597L151.16 31.5654C151.723 29.7161 153.678 28.6733 155.527 29.2362ZM149.755 48.2007C151.604 48.7636 152.647 50.719 152.084 52.5682L152.055 52.6625C151.492 54.5118 149.537 55.5546 147.688 54.9917C145.839 54.4288 144.796 52.4734 145.359 50.6242L145.387 50.5298C145.95 48.6806 147.906 47.6378 149.755 48.2007ZM143.982 67.1652C145.832 67.728 146.874 69.6834 146.311 71.5326L146.283 71.627C145.72 73.4762 143.765 74.519 141.915 73.9561C140.066 73.3933 139.023 71.4379 139.586 69.5886L139.615 69.4943C140.178 67.6451 142.133 66.6023 143.982 67.1652ZM138.21 86.1296C140.059 86.6925 141.102 88.6479 140.539 90.4971L140.51 90.5915C139.947 92.4407 137.992 93.4835 136.143 92.9206C134.294 92.3577 133.251 90.4023 133.814 88.5531L133.842 88.4588C134.405 86.6095 136.361 85.5667 138.21 86.1296ZM132.437 105.094C134.287 105.657 135.329 107.612 134.767 109.462L134.738 109.556C134.175 111.405 132.22 112.448 130.37 111.885C128.521 111.322 127.478 109.367 128.041 107.518L128.07 107.423C128.633 105.574 130.588 104.531 132.437 105.094ZM126.665 124.058C128.514 124.621 129.557 126.577 128.994 128.426L128.965 128.52C128.403 130.37 126.447 131.412 124.598 130.85C122.749 130.287 121.706 128.331 122.269 126.482L122.297 126.388C122.86 124.538 124.816 123.496 126.665 124.058ZM120.892 143.023C122.742 143.586 123.785 145.541 123.222 147.39L123.193 147.485C122.63 149.334 120.675 150.377 118.825 149.814C116.976 149.251 115.933 147.296 116.496 145.446L116.525 145.352C117.088 143.503 119.043 142.46 120.892 143.023ZM115.12 161.987C116.969 162.55 118.012 164.506 117.449 166.355L117.42 166.449C116.858 168.299 114.902 169.341 113.053 168.778C111.204 168.216 110.161 166.26 110.724 164.411L110.753 164.317C111.315 162.467 113.271 161.425 115.12 161.987ZM109.348 180.952C111.197 181.515 112.24 183.47 111.677 185.319L111.648 185.414C111.085 187.263 109.13 188.306 107.28 187.743C105.431 187.18 104.388 185.225 104.951 183.375L104.98 183.281C105.543 181.432 107.498 180.389 109.348 180.952ZM103.575 199.916C105.424 200.479 106.467 202.435 105.904 204.284L105.876 204.378C105.313 206.227 103.357 207.27 101.508 206.707C99.6588 206.145 98.616 204.189 99.1789 202.34L99.2076 202.246C99.7705 200.396 101.726 199.354 103.575 199.916ZM97.8026 218.881C99.6518 219.444 100.695 221.399 100.132 223.248L100.103 223.343C99.5402 225.192 97.5848 226.235 95.7355 225.672C93.8863 225.109 92.8435 223.154 93.4064 221.304L93.4351 221.21C93.998 219.361 95.9534 218.318 97.8026 218.881ZM92.0302 237.845C93.8794 238.408 94.9222 240.364 94.3593 242.213L94.3306 242.307C93.7677 244.156 91.8123 245.199 89.9631 244.636C88.1139 244.073 87.071 242.118 87.6339 240.269L87.6627 240.174C88.2255 238.325 90.1809 237.282 92.0302 237.845ZM86.2577 256.81C88.1069 257.373 89.1497 259.328 88.5868 261.177L88.5725 261.224C88.0096 263.074 86.0542 264.116 84.205 263.554C82.3557 262.991 81.313 261.035 81.8758 259.186L81.8902 259.139C82.4531 257.29 84.4084 256.247 86.2577 256.81Z" fill="#FFE8C8"/>
<path fill-rule="evenodd" clip-rule="evenodd" d="M158.545 -73.4012C160.395 -72.8383 161.437 -70.8829 160.874 -69.0337L160.86 -68.9865C160.297 -67.1372 158.342 -66.0944 156.493 -66.6573C154.643 -67.2202 153.601 -69.1756 154.163 -71.0248L154.178 -71.072C154.741 -72.9212 156.696 -73.964 158.545 -73.4012ZM152.787 -54.4839C154.636 -53.921 155.679 -51.9656 155.116 -50.1164L155.088 -50.022C154.525 -48.1728 152.569 -47.13 150.72 -47.6929C148.871 -48.2557 147.828 -50.2111 148.391 -52.0604L148.42 -52.1547C148.983 -54.0039 150.938 -55.0467 152.787 -54.4839ZM147.015 -35.5194C148.864 -34.9565 149.907 -33.0011 149.344 -31.1519L149.315 -31.0575C148.752 -29.2083 146.797 -28.1655 144.948 -28.7284C143.098 -29.2913 142.056 -31.2467 142.619 -33.0959L142.647 -33.1902C143.21 -35.0395 145.166 -36.0823 147.015 -35.5194ZM141.242 -16.5549C143.092 -15.9921 144.134 -14.0367 143.571 -12.1874L143.543 -12.0931C142.98 -10.2439 141.024 -9.20105 139.175 -9.76392C137.326 -10.3268 136.283 -12.2822 136.846 -14.1314L136.875 -14.2258C137.438 -16.075 139.393 -17.1178 141.242 -16.5549ZM135.47 2.40954C137.319 2.97242 138.362 4.92782 137.799 6.77705L137.77 6.87139C137.207 8.72062 135.252 9.76342 133.403 9.20054C131.554 8.63767 130.511 6.68228 131.074 4.83305L131.102 4.73869C131.665 2.88946 133.621 1.84667 135.47 2.40954ZM129.697 21.374C131.547 21.9369 132.589 23.8923 132.026 25.7415L131.998 25.8359C131.435 27.6851 129.48 28.7279 127.63 28.165C125.781 27.6021 124.738 25.6467 125.301 23.7975L125.33 23.7032C125.893 21.8539 127.848 20.8111 129.697 21.374ZM123.925 40.3385C125.774 40.9014 126.817 42.8567 126.254 44.706L126.225 44.8003C125.662 46.6496 123.707 47.6924 121.858 47.1295C120.009 46.5666 118.966 44.6112 119.529 42.762L119.557 42.6676C120.12 40.8184 122.076 39.7756 123.925 40.3385ZM118.152 59.3029C120.002 59.8658 121.044 61.8212 120.482 63.6705L120.453 63.7648C119.89 65.614 117.935 66.6568 116.085 66.0939C114.236 65.5311 113.193 63.5757 113.756 61.7264L113.785 61.6321C114.348 59.7829 116.303 58.7401 118.152 59.3029ZM112.38 78.2674C114.229 78.8303 115.272 80.7857 114.709 82.6349L114.68 82.7292C114.118 84.5785 112.162 85.6213 110.313 85.0584C108.464 84.4955 107.421 82.5401 107.984 80.6909L108.012 80.5966C108.575 78.7473 110.531 77.7045 112.38 78.2674ZM106.607 97.2319C108.457 97.7947 109.5 99.7501 108.937 101.599L108.908 101.694C108.345 103.543 106.39 104.586 104.54 104.023C102.691 103.46 101.648 101.505 102.211 99.6553L102.24 99.561C102.803 97.7118 104.758 96.669 106.607 97.2319ZM100.835 116.196C102.684 116.759 103.727 118.715 103.164 120.564L103.135 120.658C102.573 122.507 100.617 123.55 98.7679 122.987C96.9187 122.424 95.8759 120.469 96.4388 118.62L96.4675 118.525C97.0304 116.676 98.9858 115.633 100.835 116.196ZM95.0626 135.161C96.9118 135.724 97.9546 137.679 97.3917 139.528L97.363 139.623C96.8001 141.472 94.8447 142.515 92.9955 141.952C91.1463 141.389 90.1035 139.433 90.6664 137.584L90.6951 137.49C91.2579 135.641 93.2133 134.598 95.0626 135.161ZM89.2901 154.125C91.1393 154.688 92.1821 156.643 91.6192 158.493L91.5905 158.587C91.0276 160.436 89.0723 161.479 87.223 160.916C85.3738 160.353 84.331 158.398 84.8939 156.549L84.9226 156.454C85.4855 154.605 87.4409 153.562 89.2901 154.125ZM83.5176 173.09C85.3668 173.653 86.4096 175.608 85.8468 177.457L85.8181 177.552C85.2552 179.401 83.2998 180.444 81.4506 179.881C79.6013 179.318 78.5585 177.362 79.1214 175.513L79.1501 175.419C79.713 173.57 81.6684 172.527 83.5176 173.09ZM77.7452 192.054C79.5944 192.617 80.6372 194.572 80.0743 196.422L80.0456 196.516C79.4827 198.365 77.5273 199.408 75.6781 198.845C73.8289 198.282 72.786 196.327 73.3489 194.478L73.3777 194.383C73.9405 192.534 75.8959 191.491 77.7452 192.054ZM71.9727 211.019C73.8219 211.582 74.8647 213.537 74.3018 215.386L74.2731 215.48C73.7102 217.33 71.7548 218.373 69.9056 217.81C68.0564 217.247 67.0136 215.291 67.5765 213.442L67.6052 213.348C68.1681 211.499 70.1234 210.456 71.9727 211.019ZM66.2002 229.983C68.0494 230.546 69.0922 232.501 68.5294 234.351L68.5006 234.445C67.9378 236.294 65.9824 237.337 64.1331 236.774C62.2839 236.211 61.2411 234.256 61.804 232.407L61.8327 232.312C62.3956 230.463 64.351 229.42 66.2002 229.983ZM60.4277 248.948C62.277 249.511 63.3198 251.466 62.7569 253.315L62.7425 253.362C62.1797 255.211 60.2243 256.254 58.375 255.691C56.5258 255.129 55.483 253.173 56.0459 251.324L56.0602 251.277C56.6231 249.428 58.5785 248.385 60.4277 248.948Z" fill="#FFE8C8"/>
<path fill-rule="evenodd" clip-rule="evenodd" d="M132.715 -81.2634C134.565 -80.7005 135.607 -78.7451 135.045 -76.8959L135.03 -76.8487C134.467 -74.9995 132.512 -73.9567 130.663 -74.5195C128.813 -75.0824 127.771 -77.0378 128.334 -78.887L128.348 -78.9342C128.911 -80.7834 130.866 -81.8262 132.715 -81.2634ZM126.957 -62.3461C128.807 -61.7832 129.849 -59.8278 129.286 -57.9786L129.258 -57.8842C128.695 -56.035 126.739 -54.9922 124.89 -55.5551C123.041 -56.1179 121.998 -58.0733 122.561 -59.9226L122.59 -60.0169C123.153 -61.8661 125.108 -62.9089 126.957 -62.3461ZM121.185 -43.3816C123.034 -42.8187 124.077 -40.8633 123.514 -39.0141L123.485 -38.9198C122.922 -37.0705 120.967 -36.0277 119.118 -36.5906C117.269 -37.1535 116.226 -39.1089 116.789 -40.9581L116.817 -41.0524C117.38 -42.9017 119.336 -43.9445 121.185 -43.3816ZM115.412 -24.4171C117.262 -23.8543 118.304 -21.8989 117.741 -20.0496L117.713 -19.9553C117.15 -18.1061 115.195 -17.0633 113.345 -17.6261C111.496 -18.189 110.453 -20.1444 111.016 -21.9936L111.045 -22.088C111.608 -23.9372 113.563 -24.98 115.412 -24.4171ZM109.64 -5.45266C111.489 -4.88978 112.532 -2.9344 111.969 -1.08516L111.94 -0.990819C111.377 0.858412 109.422 1.90122 107.573 1.33834C105.724 0.775469 104.681 -1.17993 105.244 -3.02916L105.272 -3.12351C105.835 -4.97274 107.791 -6.01553 109.64 -5.45266ZM103.867 13.5118C105.717 14.0747 106.759 16.0301 106.197 17.8793L106.168 17.9737C105.605 19.8229 103.65 20.8657 101.8 20.3028C99.9511 19.7399 98.9083 17.7845 99.4712 15.9353L99.4999 15.841C100.063 13.9917 102.018 12.9489 103.867 13.5118ZM98.0949 32.4763C99.9442 33.0391 100.987 34.9945 100.424 36.8438L100.395 36.9381C99.8325 38.7874 97.8771 39.8302 96.0279 39.2673C94.1786 38.7044 93.1359 36.749 93.6987 34.8998L93.7275 34.8054C94.2903 32.9562 96.2457 31.9134 98.0949 32.4763ZM92.3225 51.4407C94.1717 52.0036 95.2145 53.959 94.6516 55.8082L94.6229 55.9026C94.06 57.7518 92.1046 58.7946 90.2554 58.2317C88.4062 57.6689 87.3634 55.7135 87.9262 53.8642L87.955 53.7699C88.5178 51.9207 90.4733 50.8779 92.3225 51.4407ZM86.55 70.4052C88.3993 70.9681 89.442 72.9235 88.8792 74.7727L88.8504 74.867C88.2876 76.7163 86.3322 77.7591 84.4829 77.1962C82.6337 76.6333 81.5909 74.6779 82.1538 72.8287L82.1825 72.7343C82.7454 70.8851 84.7008 69.8423 86.55 70.4052ZM80.7775 89.3697C82.6268 89.9325 83.6696 91.8879 83.1067 93.7371L83.078 93.8315C82.5151 95.6807 80.5597 96.7235 78.7105 96.1606C76.8613 95.5978 75.8184 93.6424 76.3813 91.7931L76.41 91.6988C76.9729 89.8496 78.9283 88.8068 80.7775 89.3697ZM75.0051 108.334C76.8543 108.897 77.8971 110.852 77.3342 112.702L77.3055 112.796C76.7426 114.645 74.7873 115.688 72.938 115.125C71.0888 114.562 70.046 112.607 70.6089 110.758L70.6376 110.663C71.2005 108.814 73.1559 107.771 75.0051 108.334ZM69.2326 127.299C71.0819 127.861 72.1246 129.817 71.5618 131.666L71.5331 131.76C70.9702 133.61 69.0148 134.652 67.1656 134.09C65.3163 133.527 64.2735 131.571 64.8364 129.722L64.8651 129.628C65.428 127.778 67.3834 126.736 69.2326 127.299ZM63.4601 146.263C65.3094 146.826 66.3522 148.781 65.7893 150.631L65.7606 150.725C65.1977 152.574 63.2423 153.617 61.3931 153.054C59.5439 152.491 58.5011 150.536 59.0639 148.687L59.0927 148.592C59.6555 146.743 61.6109 145.7 63.4601 146.263ZM57.6877 165.227C59.5369 165.79 60.5797 167.746 60.0168 169.595L59.9881 169.689C59.4252 171.539 57.4698 172.581 55.6206 172.018C53.7714 171.456 52.7286 169.5 53.2915 167.651L53.3202 167.557C53.8831 165.707 55.8385 164.665 57.6877 165.227ZM51.9152 184.192C53.7644 184.755 54.8072 186.71 54.2444 188.559L54.2156 188.654C53.6528 190.503 51.6974 191.546 49.8482 190.983C47.9989 190.42 46.9561 188.465 47.519 186.615L47.5477 186.521C48.1106 184.672 50.066 183.629 51.9152 184.192ZM46.1427 203.156C47.992 203.719 49.0348 205.675 48.4719 207.524L48.4432 207.618C47.8803 209.468 45.9249 210.51 44.0757 209.947C42.2264 209.385 41.1836 207.429 41.7465 205.58L41.7752 205.486C42.3381 203.636 44.2935 202.594 46.1427 203.156ZM40.3703 222.121C42.2195 222.684 43.2623 224.639 42.6994 226.488L42.6707 226.583C42.1078 228.432 40.1524 229.475 38.3032 228.912C36.454 228.349 35.4112 226.394 35.9741 224.544L36.0028 224.45C36.5656 222.601 38.521 221.558 40.3703 222.121ZM34.5978 241.085C36.447 241.648 37.4898 243.604 36.9269 245.453L36.9126 245.5C36.3497 247.349 34.3943 248.392 32.5451 247.829C30.6959 247.266 29.6531 245.311 30.2159 243.462L30.2303 243.415C30.7932 241.565 32.7486 240.523 34.5978 241.085Z" fill="#FFE8C8"/>
<path fill-rule="evenodd" clip-rule="evenodd" d="M106.885 -89.1256C108.735 -88.5627 109.777 -86.6073 109.215 -84.7581L109.2 -84.7109C108.637 -82.8617 106.682 -81.8189 104.833 -82.3817C102.984 -82.9446 101.941 -84.9 102.504 -86.7492L102.518 -86.7964C103.081 -88.6456 105.036 -89.6884 106.885 -89.1256ZM101.127 -70.2083C102.977 -69.6454 104.019 -67.69 103.456 -65.8408L103.428 -65.7464C102.865 -63.8972 100.91 -62.8544 99.0603 -63.4173C97.211 -63.9801 96.1682 -65.9355 96.7311 -67.7848L96.7598 -67.8791C97.3227 -69.7284 99.2781 -70.7711 101.127 -70.2083ZM95.3549 -51.2438C97.2041 -50.6809 98.2469 -48.7255 97.684 -46.8763L97.6553 -46.782C97.0924 -44.9327 95.137 -43.8899 93.2878 -44.4528C91.4386 -45.0157 90.3958 -46.9711 90.9587 -48.8203L90.9874 -48.9147C91.5502 -50.7639 93.5056 -51.8067 95.3549 -51.2438ZM89.5824 -32.2793C91.4316 -31.7165 92.4744 -29.7611 91.9116 -27.9118L91.8828 -27.8175C91.32 -25.9683 89.3646 -24.9255 87.5153 -25.4883C85.6661 -26.0512 84.6233 -28.0066 85.1862 -29.8558L85.2149 -29.9502C85.7778 -31.7994 87.7332 -32.8422 89.5824 -32.2793ZM83.8099 -13.3149C85.6592 -12.752 86.7019 -10.7966 86.1391 -8.94736L86.1104 -8.85302C85.5475 -7.00379 83.5921 -5.96099 81.7429 -6.52387C79.8936 -7.08674 78.8508 -9.04213 79.4137 -10.8914L79.4424 -10.9857C80.0053 -12.835 81.9607 -13.8777 83.8099 -13.3149ZM78.0375 5.64961C79.8867 6.21248 80.9295 8.16787 80.3666 10.0171L80.3379 10.1115C79.775 11.9607 77.8196 13.0035 75.9704 12.4406C74.1212 11.8777 73.0784 9.92234 73.6413 8.07312L73.67 7.97876C74.2328 6.12952 76.1882 5.08673 78.0375 5.64961ZM72.265 24.6141C74.1142 25.1769 75.157 27.1323 74.5941 28.9816L74.5654 29.0759C74.0026 30.9252 72.0472 31.9679 70.1979 31.4051C68.3487 30.8422 67.3059 28.8868 67.8688 27.0376L67.8975 26.9432C68.4604 25.094 70.4158 24.0512 72.265 24.6141ZM66.4925 43.5785C68.3418 44.1414 69.3846 46.0968 68.8217 47.946L68.793 48.0404C68.2301 49.8896 66.2747 50.9324 64.4255 50.3695C62.5762 49.8067 61.5334 47.8513 62.0963 46.002L62.125 45.9077C62.6879 44.0584 64.6433 43.0157 66.4925 43.5785ZM60.7201 62.543C62.5693 63.1059 63.6121 65.0613 63.0492 66.9105L63.0205 67.0048C62.4576 68.8541 60.5022 69.8969 58.653 69.334C56.8038 68.7711 55.761 66.8157 56.3239 64.9665L56.3526 64.8721C56.9154 63.0229 58.8708 61.9801 60.7201 62.543ZM54.9476 81.5074C56.7968 82.0703 57.8396 84.0257 57.2768 85.875L57.248 85.9693C56.6852 87.8185 54.7298 88.8613 52.8805 88.2984C51.0313 87.7356 49.9885 85.7802 50.5514 83.9309L50.5801 83.8366C51.143 81.9874 53.0984 80.9446 54.9476 81.5074ZM49.1751 100.472C51.0244 101.035 52.0672 102.99 51.5043 104.839L51.4756 104.934C50.9127 106.783 48.9573 107.826 47.1081 107.263C45.2589 106.7 44.216 104.745 44.7789 102.895L44.8077 102.801C45.3705 100.952 47.3259 99.909 49.1751 100.472ZM43.4027 119.436C45.2519 119.999 46.2947 121.955 45.7318 123.804L45.7031 123.898C45.1402 125.747 43.1849 126.79 41.3356 126.227C39.4864 125.664 38.4436 123.709 39.0065 121.86L39.0352 121.765C39.5981 119.916 41.5535 118.873 43.4027 119.436ZM37.6302 138.401C39.4795 138.964 40.5222 140.919 39.9594 142.768L39.9307 142.863C39.3678 144.712 37.4124 145.755 35.5631 145.192C33.7139 144.629 32.6711 142.674 33.234 140.824L33.2627 140.73C33.8256 138.881 35.781 137.838 37.6302 138.401ZM31.8577 157.365C33.707 157.928 34.7498 159.884 34.1869 161.733L34.1582 161.827C33.5953 163.676 31.6399 164.719 29.7907 164.156C27.9415 163.593 26.8986 161.638 27.4615 159.789L27.4903 159.694C28.0531 157.845 30.0085 156.802 31.8577 157.365ZM26.0853 176.33C27.9345 176.893 28.9773 178.848 28.4144 180.697L28.3857 180.792C27.8228 182.641 25.8674 183.684 24.0182 183.121C22.169 182.558 21.1262 180.603 21.6891 178.753L21.7178 178.659C22.2807 176.81 24.236 175.767 26.0853 176.33ZM20.3128 195.294C22.162 195.857 23.2048 197.812 22.642 199.662L22.6132 199.756C22.0504 201.605 20.095 202.648 18.2457 202.085C16.3965 201.522 15.3537 199.567 15.9166 197.718L15.9453 197.623C16.5082 195.774 18.4636 194.731 20.3128 195.294ZM14.5403 214.259C16.3896 214.822 17.4324 216.777 16.8695 218.626L16.8408 218.721C16.2779 220.57 14.3225 221.613 12.4733 221.05C10.624 220.487 9.58123 218.531 10.1441 216.682L10.1728 216.588C10.7357 214.739 12.6911 213.696 14.5403 214.259ZM8.76786 233.223C10.6171 233.786 11.6599 235.741 11.097 237.591L11.0827 237.638C10.5198 239.487 8.56438 240.53 6.71516 239.967C4.86593 239.404 3.82314 237.449 4.38601 235.6L4.40037 235.552C4.96325 233.703 6.91863 232.66 8.76786 233.223Z" fill="#FFE8C8"/>
<path fill-rule="evenodd" clip-rule="evenodd" d="M81.0555 -96.9878C82.9047 -96.4249 83.9475 -94.4695 83.3846 -92.6203L83.3703 -92.5731C82.8074 -90.7239 80.852 -89.6811 79.0028 -90.2439C77.1536 -90.8068 76.1108 -92.7622 76.6736 -94.6114L76.688 -94.6586C77.2509 -96.5078 79.2063 -97.5506 81.0555 -96.9878ZM75.2974 -78.0705C77.1466 -77.5076 78.1894 -75.5522 77.6265 -73.703L77.5978 -73.6086C77.035 -71.7594 75.0796 -70.7166 73.2303 -71.2795C71.3811 -71.8424 70.3383 -73.7977 70.9012 -75.647L70.9299 -75.7413C71.4928 -77.5906 73.4482 -78.6334 75.2974 -78.0705ZM69.5249 -59.106C71.3742 -58.5431 72.417 -56.5877 71.8541 -54.7385L71.8254 -54.6442C71.2625 -52.7949 69.3071 -51.7521 67.4579 -52.315C65.6086 -52.8779 64.5658 -54.8333 65.1287 -56.6825L65.1574 -56.7769C65.7203 -58.6261 67.6757 -59.6689 69.5249 -59.106ZM63.7525 -40.1415C65.6017 -39.5787 66.6445 -37.6233 66.0816 -35.774L66.0529 -35.6797C65.49 -33.8305 63.5346 -32.7877 61.6854 -33.3505C59.8362 -33.9134 58.7934 -35.8688 59.3562 -37.718L59.385 -37.8124C59.9478 -39.6616 61.9032 -40.7044 63.7525 -40.1415ZM57.98 -21.1771C59.8292 -20.6142 60.872 -18.6588 60.3091 -16.8096L60.2804 -16.7152C59.7176 -14.866 57.7621 -13.8232 55.9129 -14.3861C54.0637 -14.9489 53.0209 -16.9043 53.5838 -18.7536L53.6125 -18.8479C54.1754 -20.6972 56.1308 -21.7399 57.98 -21.1771ZM52.2075 -2.2126C54.0568 -1.64973 55.0995 0.305672 54.5367 2.1549L54.508 2.24925C53.9451 4.09847 51.9897 5.14129 50.1405 4.57841C48.2912 4.01554 47.2484 2.06013 47.8113 0.210903L47.84 0.116558C48.4029 -1.73267 50.3583 -2.77548 52.2075 -2.2126ZM46.4351 16.7519C48.2843 17.3147 49.3271 19.2701 48.7642 21.1194L48.7355 21.2137C48.1726 23.0629 46.2172 24.1057 44.368 23.5429C42.5188 22.98 41.476 21.0246 42.0388 19.1754L42.0676 19.081C42.6304 17.2318 44.5858 16.189 46.4351 16.7519ZM40.6626 35.7163C42.5118 36.2792 43.5546 38.2346 42.9917 40.0838L42.963 40.1782C42.4002 42.0274 40.4448 43.0702 38.5955 42.5073C36.7463 41.9444 35.7035 39.9891 36.2664 38.1398L36.2951 38.0455C36.858 36.1963 38.8134 35.1535 40.6626 35.7163ZM34.8901 54.6808C36.7394 55.2437 37.7822 57.1991 37.2193 59.0483L37.1906 59.1426C36.6277 60.9919 34.6723 62.0347 32.8231 61.4718C30.9738 60.9089 29.931 58.9535 30.4939 57.1043L30.5226 57.0099C31.0855 55.1607 33.0409 54.1179 34.8901 54.6808ZM29.1177 73.6452C30.9669 74.2081 32.0097 76.1635 31.4468 78.0127L31.4181 78.1071C30.8552 79.9563 28.8998 80.9991 27.0506 80.4362C25.2014 79.8734 24.1586 77.918 24.7215 76.0687L24.7502 75.9744C25.313 74.1252 27.2684 73.0824 29.1177 73.6452ZM23.3452 92.6097C25.1944 93.1726 26.2372 95.128 25.6744 96.9772L25.6456 97.0715C25.0828 98.9208 23.1274 99.9636 21.2781 99.4007C19.4289 98.8378 18.3861 96.8824 18.949 95.0332L18.9777 94.9388C19.5406 93.0896 21.496 92.0468 23.3452 92.6097ZM17.5727 111.574C19.422 112.137 20.4648 114.092 19.9019 115.942L19.8732 116.036C19.3103 117.885 17.3549 118.928 15.5057 118.365C13.6565 117.802 12.6137 115.847 13.1765 113.998L13.2052 113.903C13.7681 112.054 15.7235 111.011 17.5727 111.574ZM11.8003 130.539C13.6495 131.101 14.6923 133.057 14.1294 134.906L14.1007 135C13.5378 136.85 11.5824 137.892 9.7332 137.33C7.88398 136.767 6.84118 134.811 7.40406 132.962L7.43277 132.868C7.99565 131.019 9.95105 129.976 11.8003 130.539ZM6.02781 149.503C7.87704 150.066 8.91982 152.021 8.35695 153.871L8.32824 153.965C7.76536 155.814 5.80997 156.857 3.96074 156.294C2.11152 155.731 1.0687 153.776 1.63158 151.927L1.66031 151.832C2.22318 149.983 4.17858 148.94 6.02781 149.503ZM0.255331 168.468C2.10456 169.03 3.14737 170.986 2.58449 172.835L2.55576 172.929C1.99288 174.779 0.0374977 175.821 -1.81173 175.259C-3.66096 174.696 -4.70376 172.74 -4.14088 170.891L-4.11216 170.797C-3.54928 168.947 -1.5939 167.905 0.255331 168.468ZM-5.51713 187.432C-3.6679 187.995 -2.6251 189.95 -3.18798 191.8L-3.2167 191.894C-3.77958 193.743 -5.73498 194.786 -7.58421 194.223C-9.43344 193.66 -10.4762 191.705 -9.91335 189.856L-9.88464 189.761C-9.32176 187.912 -7.36636 186.869 -5.51713 187.432ZM-11.2896 206.397C-9.44038 206.959 -8.39758 208.915 -8.96046 210.764L-8.98918 210.858C-9.55205 212.708 -11.5075 213.75 -13.3567 213.188C-15.2059 212.625 -16.2487 210.669 -15.6858 208.82L-15.6571 208.726C-15.0942 206.876 -13.1388 205.834 -11.2896 206.397ZM-17.0621 225.361C-15.2129 225.924 -14.1701 227.879 -14.7329 229.729L-14.7473 229.776C-15.3101 231.625 -17.2656 232.668 -19.1148 232.105C-20.964 231.542 -22.0068 229.587 -21.4439 227.737L-21.4296 227.69C-20.8667 225.841 -18.9113 224.798 -17.0621 225.361Z" fill="#FFE8C8"/>
<path fill-rule="evenodd" clip-rule="evenodd" d="M55.2256 -104.85C57.0748 -104.287 58.1176 -102.332 57.5547 -100.482L57.5404 -100.435C56.9775 -98.5861 55.0221 -97.5433 53.1729 -98.1061C51.3236 -98.669 50.2808 -100.624 50.8437 -102.474L50.8581 -102.521C51.4209 -104.37 53.3763 -105.413 55.2256 -104.85ZM49.4675 -85.9327C51.3167 -85.3698 52.3595 -83.4144 51.7966 -81.5652L51.7679 -81.4708C51.205 -79.6216 49.2496 -78.5788 47.4004 -79.1417C45.5512 -79.7046 44.5084 -81.66 45.0712 -83.5092L45.1 -83.6035C45.6628 -85.4528 47.6182 -86.4956 49.4675 -85.9327ZM43.695 -66.9682C45.5442 -66.4053 46.587 -64.4499 46.0241 -62.6007L45.9954 -62.5064C45.4325 -60.6571 43.4772 -59.6143 41.6279 -60.1772C39.7787 -60.7401 38.7359 -62.6955 39.2988 -64.5447L39.3275 -64.6391C39.8904 -66.4883 41.8458 -67.5311 43.695 -66.9682ZM37.9225 -48.0037C39.7717 -47.4409 40.8146 -45.4855 40.2517 -43.6362L40.223 -43.5419C39.6601 -41.6927 37.7047 -40.6499 35.8555 -41.2127C34.0062 -41.7756 32.9634 -43.731 33.5263 -45.5802L33.555 -45.6746C34.1179 -47.5238 36.0733 -48.5666 37.9225 -48.0037ZM32.1501 -29.0393C33.9993 -28.4764 35.0421 -26.521 34.4792 -24.6718L34.4505 -24.5774C33.8876 -22.7282 31.9322 -21.6854 30.083 -22.2483C28.2338 -22.8112 27.191 -24.7665 27.7538 -26.6158L27.7825 -26.7101C28.3454 -28.5594 30.3008 -29.6022 32.1501 -29.0393ZM26.3776 -10.0748C28.2268 -9.51193 29.2696 -7.55654 28.7067 -5.70731L28.678 -5.61295C28.1151 -3.76373 26.1597 -2.72093 24.3105 -3.2838C22.4613 -3.84668 21.4185 -5.80207 21.9814 -7.65129L22.0101 -7.74565C22.573 -9.59489 24.5284 -10.6377 26.3776 -10.0748ZM20.6051 8.88966C22.4543 9.45253 23.4971 11.4079 22.9343 13.2572L22.9056 13.3515C22.3427 15.2007 20.3873 16.2435 18.5381 15.6807C16.6888 15.1178 15.646 13.1624 16.2089 11.3132L16.2376 11.2188C16.8005 9.36958 18.7559 8.32679 20.6051 8.88966ZM14.8327 27.8541C16.6819 28.417 17.7247 30.3724 17.1618 32.2216L17.1331 32.316C16.5702 34.1652 14.6148 35.208 12.7656 34.6451C10.9164 34.0822 9.87356 32.1268 10.4364 30.2776L10.4652 30.1833C11.028 28.334 12.9834 27.2912 14.8327 27.8541ZM9.06018 46.8186C10.9094 47.3815 11.9522 49.3368 11.3893 51.1861L11.3606 51.2804C10.7978 53.1297 8.84235 54.1724 6.99312 53.6096C5.14389 53.0467 4.1011 51.0913 4.66397 49.2421L4.69269 49.1477C5.25557 47.2985 7.21095 46.2557 9.06018 46.8186ZM3.28772 65.783C5.13695 66.3459 6.17975 68.3013 5.61687 70.1505L5.58817 70.2449C5.02529 72.0941 3.06989 73.1369 1.22066 72.574C-0.628568 72.0112 -1.67136 70.0558 -1.10849 68.2065L-1.07977 68.1122C-0.516894 66.2629 1.43849 65.2202 3.28772 65.783ZM-2.48474 84.7475C-0.635508 85.3104 0.407296 87.2658 -0.155575 89.115L-0.184307 89.2093C-0.747182 91.0586 -2.70257 92.1014 -4.5518 91.5385C-6.40103 90.9756 -7.44382 89.0202 -6.88095 87.171L-6.85223 87.0766C-6.28936 85.2274 -4.33397 84.1846 -2.48474 84.7475ZM-8.2572 103.712C-6.40797 104.275 -5.36518 106.23 -5.92805 108.079L-5.95677 108.174C-6.51964 110.023 -8.47503 111.066 -10.3243 110.503C-12.1735 109.94 -13.2163 107.985 -12.6534 106.135L-12.6247 106.041C-12.0618 104.192 -10.1064 103.149 -8.2572 103.712ZM-14.0297 122.676C-12.1804 123.239 -11.1376 125.195 -11.7005 127.044L-11.7292 127.138C-12.2921 128.987 -14.2475 130.03 -16.0967 129.467C-17.9459 128.905 -18.9888 126.949 -18.4259 125.1L-18.3972 125.006C-17.8343 123.156 -15.8789 122.114 -14.0297 122.676ZM-19.8021 141.641C-17.9529 142.204 -16.9101 144.159 -17.473 146.008L-17.5017 146.103C-18.0646 147.952 -20.02 148.995 -21.8692 148.432C-23.7184 147.869 -24.7612 145.914 -24.1983 144.064L-24.1696 143.97C-23.6068 142.121 -21.6514 141.078 -19.8021 141.641ZM-25.5746 160.605C-23.7254 161.168 -22.6826 163.124 -23.2454 164.973L-23.2742 165.067C-23.837 166.916 -25.7924 167.959 -27.6417 167.396C-29.4909 166.833 -30.5337 164.878 -29.9708 163.029L-29.9421 162.935C-29.3792 161.085 -27.4238 160.042 -25.5746 160.605ZM-31.3471 179.57C-29.4978 180.133 -28.455 182.088 -29.0179 183.937L-29.0466 184.032C-29.6095 185.881 -31.5649 186.924 -33.4141 186.361C-35.2634 185.798 -36.3062 183.843 -35.7433 181.993L-35.7146 181.899C-35.1517 180.05 -33.1963 179.007 -31.3471 179.57ZM-37.1195 198.534C-35.2703 199.097 -34.2275 201.053 -34.7904 202.902L-34.8191 202.996C-35.382 204.845 -37.3374 205.888 -39.1866 205.325C-41.0358 204.762 -42.0787 202.807 -41.5158 200.958L-41.487 200.863C-40.9242 199.014 -38.9688 197.971 -37.1195 198.534ZM-42.892 217.499C-41.0428 218.062 -40 220.017 -40.5629 221.866L-40.5772 221.913C-41.1401 223.763 -43.0955 224.805 -44.9447 224.243C-46.7939 223.68 -47.8367 221.724 -47.2739 219.875L-47.2595 219.828C-46.6966 217.979 -44.7413 216.936 -42.892 217.499Z" fill="#FFE8C8"/>
<path fill-rule="evenodd" clip-rule="evenodd" d="M29.3956 -112.712C31.2449 -112.149 32.2877 -110.194 31.7248 -108.345L31.7104 -108.298C31.1475 -106.448 29.1921 -105.405 27.3429 -105.968C25.4937 -106.531 24.4509 -108.487 25.0138 -110.336L25.0281 -110.383C25.591 -112.232 27.5464 -113.275 29.3956 -112.712ZM23.6375 -93.7949C25.4867 -93.232 26.5296 -91.2766 25.9667 -89.4274L25.938 -89.333C25.3751 -87.4838 23.4197 -86.441 21.5705 -87.0039C19.7212 -87.5668 18.6784 -89.5222 19.2413 -91.3714L19.27 -91.4657C19.8329 -93.315 21.7883 -94.3578 23.6375 -93.7949ZM17.8651 -74.8304C19.7143 -74.2675 20.7571 -72.3121 20.1942 -70.4629L20.1655 -70.3686C19.6026 -68.5193 17.6472 -67.4765 15.798 -68.0394C13.9488 -68.6023 12.906 -70.5577 13.4688 -72.4069L13.4975 -72.5013C14.0604 -74.3505 16.0158 -75.3933 17.8651 -74.8304ZM12.0926 -55.866C13.9418 -55.3031 14.9846 -53.3477 14.4217 -51.4985L14.393 -51.4041C13.8301 -49.5549 11.8747 -48.5121 10.0255 -49.0749C8.17629 -49.6378 7.13349 -51.5932 7.69637 -53.4425L7.72508 -53.5368C8.28796 -55.386 10.2434 -56.4288 12.0926 -55.866ZM6.32012 -36.9015C8.16935 -36.3386 9.21214 -34.3832 8.64926 -32.534L8.62055 -32.4396C8.05767 -30.5904 6.10228 -29.5476 4.25305 -30.1105C2.40382 -30.6734 1.36102 -32.6288 1.92389 -34.478L1.95262 -34.5723C2.5155 -36.4216 4.47089 -37.4644 6.32012 -36.9015ZM0.54764 -17.937C2.39687 -17.3741 3.43968 -15.4187 2.8768 -13.5695L2.84809 -13.4752C2.28521 -11.6259 0.329807 -10.5831 -1.51942 -11.146C-3.36865 -11.7089 -4.41144 -13.6643 -3.84857 -15.5135L-3.81985 -15.6079C-3.25698 -17.4571 -1.30159 -18.4999 0.54764 -17.937ZM-5.22482 1.02745C-3.37559 1.59032 -2.3328 3.54572 -2.89567 5.39496L-2.92439 5.4893C-3.48727 7.33853 -5.44265 8.38132 -7.29188 7.81845C-9.14111 7.25557 -10.1839 5.30019 -9.62103 3.45096L-9.59231 3.35661C-9.02944 1.50738 -7.07405 0.464573 -5.22482 1.02745ZM-10.9973 19.9919C-9.14805 20.5548 -8.10526 22.5102 -8.66813 24.3594L-8.69685 24.4538C-9.25973 26.303 -11.2151 27.3458 -13.0644 26.7829C-14.9136 26.22 -15.9564 24.2646 -15.3935 22.4154L-15.3648 22.3211C-14.8019 20.4718 -12.8465 19.4291 -10.9973 19.9919ZM-16.7697 38.9564C-14.9205 39.5192 -13.8777 41.4746 -14.4406 43.3239L-14.4693 43.4182C-15.0322 45.2675 -16.9876 46.3102 -18.8368 45.7474C-20.686 45.1845 -21.7288 43.2291 -21.166 41.3799L-21.1372 41.2855C-20.5744 39.4363 -18.619 38.3935 -16.7697 38.9564ZM-22.5422 57.9208C-20.693 58.4837 -19.6502 60.4391 -20.2131 62.2883L-20.2418 62.3827C-20.8046 64.2319 -22.7601 65.2747 -24.6093 64.7118C-26.4585 64.1489 -27.5013 62.1936 -26.9384 60.3443L-26.9097 60.25C-26.3468 58.4008 -24.3914 57.358 -22.5422 57.9208ZM-28.3147 76.8853C-26.4654 77.4481 -25.4226 79.4036 -25.9855 81.2528L-26.0142 81.3471C-26.5771 83.1964 -28.5325 84.2392 -30.3817 83.6763C-32.231 83.1134 -33.2738 81.158 -32.7109 79.3088L-32.6822 79.2144C-32.1193 77.3652 -30.1639 76.3224 -28.3147 76.8853ZM-34.0871 95.8497C-32.2379 96.4126 -31.1951 98.368 -31.758 100.217L-31.7867 100.312C-32.3496 102.161 -34.305 103.204 -36.1542 102.641C-38.0034 102.078 -39.0462 100.122 -38.4833 98.2732L-38.4546 98.1789C-37.8918 96.3297 -35.9364 95.2869 -34.0871 95.8497ZM-39.8596 114.814C-38.0104 115.377 -36.9676 117.332 -37.5305 119.182L-37.5592 119.276C-38.122 121.125 -40.0774 122.168 -41.9267 121.605C-43.7759 121.042 -44.8187 119.087 -44.2558 117.238L-44.2271 117.143C-43.6642 115.294 -41.7088 114.251 -39.8596 114.814ZM-45.6321 133.779C-43.7828 134.342 -42.74 136.297 -43.3029 138.146L-43.3316 138.241C-43.8945 140.09 -45.8499 141.133 -47.6991 140.57C-49.5484 140.007 -50.5912 138.051 -50.0283 136.202L-49.9996 136.108C-49.4367 134.259 -47.4813 133.216 -45.6321 133.779ZM-51.4045 152.743C-49.5553 153.306 -48.5125 155.261 -49.0754 157.111L-49.1041 157.205C-49.667 159.054 -51.6224 160.097 -53.4716 159.534C-55.3208 158.971 -56.3636 157.016 -55.8008 155.167L-55.772 155.072C-55.2092 153.223 -53.2538 152.18 -51.4045 152.743ZM-57.177 171.708C-55.3278 172.271 -54.285 174.226 -54.8479 176.075L-54.8766 176.169C-55.4395 178.019 -57.3949 179.061 -59.2441 178.499C-61.0933 177.936 -62.1361 175.98 -61.5732 174.131L-61.5445 174.037C-60.9816 172.188 -59.0262 171.145 -57.177 171.708ZM-62.9495 190.672C-61.1003 191.235 -60.0575 193.19 -60.6203 195.04L-60.6491 195.134C-61.2119 196.983 -63.1673 198.026 -65.0166 197.463C-66.8658 196.9 -67.9086 194.945 -67.3457 193.096L-67.317 193.001C-66.7541 191.152 -64.7987 190.109 -62.9495 190.672ZM-68.722 209.637C-66.8727 210.199 -65.8299 212.155 -66.3928 214.004L-66.4072 214.051C-66.97 215.9 -68.9254 216.943 -70.7747 216.38C-72.6239 215.818 -73.6667 213.862 -73.1038 212.013L-73.0895 211.966C-72.5266 210.116 -70.5712 209.074 -68.722 209.637Z" fill="#FFE8C8"/>
<path fill-rule="evenodd" clip-rule="evenodd" d="M3.56569 -120.574C5.41492 -120.012 6.45771 -118.056 5.89484 -116.207L5.88048 -116.16C5.3176 -114.31 3.36221 -113.268 1.51299 -113.831C-0.336243 -114.393 -1.37905 -116.349 -0.816177 -118.198L-0.801818 -118.245C-0.238944 -120.094 1.71646 -121.137 3.56569 -120.574ZM-2.19243 -101.657C-0.343199 -101.094 0.699609 -99.1388 0.136735 -97.2896L0.108018 -97.1952C-0.454857 -95.346 -2.41026 -94.3032 -4.25949 -94.8661C-6.10872 -95.429 -7.15151 -97.3844 -6.58864 -99.2336L-6.55992 -99.3279C-5.99705 -101.177 -4.04166 -102.22 -2.19243 -101.657ZM-7.96489 -82.6926C-6.11566 -82.1298 -5.07287 -80.1743 -5.63574 -78.3251L-5.66446 -78.2308C-6.22733 -76.3815 -8.18272 -75.3387 -10.032 -75.9016C-11.8812 -76.4645 -12.924 -78.4199 -12.3611 -80.2691L-12.3324 -80.3635C-11.7695 -82.2127 -9.81412 -83.2555 -7.96489 -82.6926ZM-13.7373 -63.7282C-11.8881 -63.1653 -10.8453 -61.2099 -11.4082 -59.3607L-11.4369 -59.2663C-11.9998 -57.4171 -13.9552 -56.3743 -15.8044 -56.9372C-17.6537 -57.5 -18.6964 -59.4554 -18.1336 -61.3047L-18.1049 -61.399C-17.542 -63.2482 -15.5866 -64.291 -13.7373 -63.7282ZM-19.5098 -44.7637C-17.6606 -44.2008 -16.6178 -42.2454 -17.1807 -40.3962L-17.2094 -40.3018C-17.7723 -38.4526 -19.7277 -37.4098 -21.5769 -37.9727C-23.4261 -38.5356 -24.4689 -40.491 -23.906 -42.3402L-23.8773 -42.4345C-23.3144 -44.2838 -21.3591 -45.3266 -19.5098 -44.7637ZM-25.2823 -25.7992C-23.4331 -25.2363 -22.3903 -23.2809 -22.9531 -21.4317L-22.9819 -21.3374C-23.5447 -19.4881 -25.5001 -18.4453 -27.3494 -19.0082C-29.1986 -19.5711 -30.2414 -21.5265 -29.6785 -23.3757L-29.6498 -23.4701C-29.0869 -25.3193 -27.1315 -26.3621 -25.2823 -25.7992ZM-31.0548 -6.83475C-29.2055 -6.27188 -28.1627 -4.31649 -28.7256 -2.46726L-28.7543 -2.3729C-29.3172 -0.523666 -31.2726 0.519125 -33.1218 -0.0437494C-34.9711 -0.606624 -36.0138 -2.56203 -35.451 -4.41126L-35.4223 -4.5056C-34.8594 -6.35483 -32.904 -7.39762 -31.0548 -6.83475ZM-36.8272 12.1297C-34.978 12.6926 -33.9352 14.648 -34.4981 16.4972L-34.5268 16.5916C-35.0897 18.4408 -37.0451 19.4836 -38.8943 18.9207C-40.7435 18.3578 -41.7863 16.4024 -41.2234 14.5532L-41.1947 14.4589C-40.6319 12.6096 -38.6765 11.5668 -36.8272 12.1297ZM-42.5997 31.0942C-40.7505 31.657 -39.7077 33.6124 -40.2705 35.4617L-40.2993 35.556C-40.8621 37.4052 -42.8175 38.448 -44.6668 37.8852C-46.516 37.3223 -47.5588 35.3669 -46.9959 33.5177L-46.9672 33.4233C-46.4043 31.5741 -44.4489 30.5313 -42.5997 31.0942ZM-48.3722 50.0586C-46.5229 50.6215 -45.4801 52.5769 -46.043 54.4261L-46.0717 54.5205C-46.6346 56.3697 -48.59 57.4125 -50.4392 56.8496C-52.2884 56.2867 -53.3312 54.3313 -52.7684 52.4821L-52.7397 52.3878C-52.1768 50.5385 -50.2214 49.4957 -48.3722 50.0586ZM-54.1446 69.0231C-52.2954 69.5859 -51.2526 71.5413 -51.8155 73.3906L-51.8442 73.4849C-52.4071 75.3342 -54.3625 76.3769 -56.2117 75.8141C-58.0609 75.2512 -59.1037 73.2958 -58.5408 71.4466L-58.5121 71.3522C-57.9492 69.503 -55.9938 68.4602 -54.1446 69.0231ZM-59.9171 87.9875C-58.0679 88.5504 -57.025 90.5058 -57.5879 92.355L-57.6166 92.4494C-58.1795 94.2986 -60.1349 95.3414 -61.9841 94.7785C-63.8334 94.2156 -64.8762 92.2602 -64.3133 90.411L-64.2846 90.3167C-63.7217 88.4674 -61.7663 87.4247 -59.9171 87.9875ZM-65.6895 106.952C-63.8403 107.515 -62.7975 109.47 -63.3604 111.319L-63.3891 111.414C-63.952 113.263 -65.9074 114.306 -67.7566 113.743C-69.6058 113.18 -70.6486 111.225 -70.0858 109.375L-70.057 109.281C-69.4942 107.432 -67.5388 106.389 -65.6895 106.952ZM-71.462 125.916C-69.6128 126.479 -68.57 128.435 -69.1329 130.284L-69.1616 130.378C-69.7245 132.228 -71.6798 133.27 -73.5291 132.707C-75.3783 132.145 -76.4211 130.189 -75.8582 128.34L-75.8295 128.246C-75.2666 126.396 -73.3112 125.354 -71.462 125.916ZM-77.2345 144.881C-75.3853 145.444 -74.3424 147.399 -74.9053 149.248L-74.9341 149.343C-75.4969 151.192 -77.4523 152.235 -79.3016 151.672C-81.1508 151.109 -82.1936 149.154 -81.6307 147.304L-81.602 147.21C-81.0391 145.361 -79.0837 144.318 -77.2345 144.881ZM-83.007 163.845C-81.1577 164.408 -80.1149 166.364 -80.6778 168.213L-80.7065 168.307C-81.2694 170.157 -83.2248 171.199 -85.074 170.636C-86.9233 170.074 -87.966 168.118 -87.4032 166.269L-87.3745 166.175C-86.8116 164.325 -84.8562 163.283 -83.007 163.845ZM-88.7794 182.81C-86.9302 183.373 -85.8874 185.328 -86.4503 187.177L-86.479 187.272C-87.0419 189.121 -88.9973 190.164 -90.8465 189.601C-92.6957 189.038 -93.7385 187.083 -93.1756 185.233L-93.1469 185.139C-92.584 183.29 -90.6287 182.247 -88.7794 182.81ZM-94.5519 201.774C-92.7027 202.337 -91.6599 204.293 -92.2227 206.142L-92.2371 206.189C-92.8 208.038 -94.7554 209.081 -96.6046 208.518C-98.4538 207.955 -99.4966 206 -98.9337 204.151L-98.9194 204.104C-98.3565 202.254 -96.4011 201.212 -94.5519 201.774Z" fill="#FFE8C8"/>
<path fill-rule="evenodd" clip-rule="evenodd" d="M-22.2643 -128.437C-20.415 -127.874 -19.3722 -125.918 -19.9351 -124.069L-19.9495 -124.022C-20.5123 -122.173 -22.4677 -121.13 -24.317 -121.693C-26.1662 -122.256 -27.209 -124.211 -26.6461 -126.06L-26.6318 -126.107C-26.0689 -127.957 -24.1135 -128.999 -22.2643 -128.437ZM-28.0224 -109.519C-26.1731 -108.956 -25.1303 -107.001 -25.6932 -105.152L-25.7219 -105.057C-26.2848 -103.208 -28.2402 -102.165 -30.0894 -102.728C-31.9387 -103.291 -32.9815 -105.247 -32.4186 -107.096L-32.3899 -107.19C-31.827 -109.039 -29.8716 -110.082 -28.0224 -109.519ZM-33.7948 -90.5548C-31.9456 -89.992 -30.9028 -88.0366 -31.4657 -86.1873L-31.4944 -86.093C-32.0573 -84.2438 -34.0127 -83.201 -35.8619 -83.7638C-37.7111 -84.3267 -38.7539 -86.2821 -38.191 -88.1313L-38.1623 -88.2257C-37.5994 -90.0749 -35.6441 -91.1177 -33.7948 -90.5548ZM-39.5673 -71.5904C-37.7181 -71.0275 -36.6753 -69.0721 -37.2381 -67.2229L-37.2669 -67.1285C-37.8297 -65.2793 -39.7851 -64.2365 -41.6344 -64.7994C-43.4836 -65.3622 -44.5264 -67.3176 -43.9635 -69.1669L-43.9348 -69.2612C-43.3719 -71.1104 -41.4165 -72.1532 -39.5673 -71.5904ZM-45.3398 -52.6259C-43.4905 -52.063 -42.4477 -50.1076 -43.0106 -48.2584L-43.0393 -48.164C-43.6022 -46.3148 -45.5576 -45.272 -47.4068 -45.8349C-49.2561 -46.3978 -50.2989 -48.3532 -49.736 -50.2024L-49.7073 -50.2967C-49.1444 -52.146 -47.189 -53.1888 -45.3398 -52.6259ZM-51.1122 -33.6614C-49.263 -33.0985 -48.2202 -31.1431 -48.7831 -29.2939L-48.8118 -29.1996C-49.3747 -27.3503 -51.3301 -26.3075 -53.1793 -26.8704C-55.0285 -27.4333 -56.0713 -29.3887 -55.5085 -31.2379L-55.4797 -31.3323C-54.9169 -33.1815 -52.9615 -34.2243 -51.1122 -33.6614ZM-56.8847 -14.697C-55.0355 -14.1341 -53.9927 -12.1787 -54.5555 -10.3295L-54.5843 -10.2351C-55.1471 -8.38588 -57.1025 -7.34309 -58.9518 -7.90596C-60.801 -8.46884 -61.8438 -10.4242 -61.2809 -12.2735L-61.2522 -12.3678C-60.6893 -14.217 -58.7339 -15.2598 -56.8847 -14.697ZM-62.6572 4.26752C-60.8079 4.83039 -59.7651 6.78578 -60.328 8.63501L-60.3567 8.72935C-60.9196 10.5786 -62.875 11.6214 -64.7242 11.0585C-66.5735 10.4956 -67.6163 8.54024 -67.0534 6.69101L-67.0247 6.59666C-66.4618 4.74743 -64.5064 3.70464 -62.6572 4.26752ZM-68.4296 23.232C-66.5804 23.7948 -65.5376 25.7502 -66.1005 27.5995L-66.1292 27.6938C-66.6921 29.543 -68.6475 30.5858 -70.4967 30.023C-72.3459 29.4601 -73.3887 27.5047 -72.8258 25.6555L-72.7971 25.5611C-72.2343 23.7119 -70.2789 22.6691 -68.4296 23.232ZM-74.2021 42.1964C-72.3529 42.7593 -71.3101 44.7147 -71.8729 46.5639L-71.9017 46.6583C-72.4645 48.5075 -74.4199 49.5503 -76.2692 48.9874C-78.1184 48.4245 -79.1612 46.4691 -78.5983 44.6199L-78.5696 44.5256C-78.0067 42.6763 -76.0513 41.6335 -74.2021 42.1964ZM-79.9746 61.1609C-78.1253 61.7237 -77.0825 63.6791 -77.6454 65.5284L-77.6741 65.6227C-78.237 67.4719 -80.1924 68.5147 -82.0416 67.9519C-83.8909 67.389 -84.9336 65.4336 -84.3708 63.5844L-84.3421 63.49C-83.7792 61.6408 -81.8238 60.598 -79.9746 61.1609ZM-85.747 80.1253C-83.8978 80.6882 -82.855 82.6436 -83.4179 84.4928L-83.4466 84.5872C-84.0095 86.4364 -85.9648 87.4792 -87.8141 86.9163C-89.6633 86.3534 -90.7061 84.398 -90.1432 82.5488L-90.1145 82.4545C-89.5516 80.6053 -87.5962 79.5624 -85.747 80.1253ZM-91.5195 99.0898C-89.6703 99.6527 -88.6275 101.608 -89.1903 103.457L-89.219 103.552C-89.7819 105.401 -91.7373 106.444 -93.5865 105.881C-95.4358 105.318 -96.4786 103.363 -95.9157 101.513L-95.887 101.419C-95.3241 99.5697 -93.3687 98.5269 -91.5195 99.0898ZM-97.2919 118.054C-95.4427 118.617 -94.3999 120.573 -94.9628 122.422L-94.9915 122.516C-95.5544 124.365 -97.5098 125.408 -99.359 124.845C-101.208 124.282 -102.251 122.327 -101.688 120.478L-101.659 120.383C-101.097 118.534 -99.1412 117.491 -97.2919 118.054ZM-103.064 137.019C-101.215 137.582 -100.172 139.537 -100.735 141.386L-100.764 141.481C-101.327 143.33 -103.282 144.373 -105.131 143.81C-106.981 143.247 -108.024 141.291 -107.461 139.442L-107.432 139.348C-106.869 137.499 -104.914 136.456 -103.064 137.019ZM-108.837 155.983C-106.988 156.546 -105.945 158.501 -106.508 160.351L-106.536 160.445C-107.099 162.294 -109.055 163.337 -110.904 162.774C-112.753 162.211 -113.796 160.256 -113.233 158.407L-113.204 158.312C-112.642 156.463 -110.686 155.42 -108.837 155.983ZM-114.609 174.948C-112.76 175.511 -111.717 177.466 -112.28 179.315L-112.309 179.41C-112.872 181.259 -114.827 182.302 -116.676 181.739C-118.526 181.176 -119.568 179.22 -119.006 177.371L-118.977 177.277C-118.414 175.428 -116.459 174.385 -114.609 174.948ZM-120.382 193.912C-118.533 194.475 -117.49 196.43 -118.053 198.28L-118.067 198.327C-118.63 200.176 -120.585 201.219 -122.435 200.656C-124.284 200.093 -125.327 198.138 -124.764 196.288L-124.749 196.241C-124.186 194.392 -122.231 193.349 -120.382 193.912Z" fill="#FFE8C8"/>
<path fill-rule="evenodd" clip-rule="evenodd" d="M-48.0942 -136.299C-46.245 -135.736 -45.2022 -133.781 -45.765 -131.931L-45.7794 -131.884C-46.3423 -130.035 -48.2977 -128.992 -50.1469 -129.555C-51.9961 -130.118 -53.0389 -132.073 -52.4761 -133.922L-52.4617 -133.97C-51.8988 -135.819 -49.9434 -136.862 -48.0942 -136.299ZM-53.8523 -117.382C-52.0031 -116.819 -50.9603 -114.863 -51.5231 -113.014L-51.5519 -112.92C-52.1147 -111.07 -54.0701 -110.028 -55.9194 -110.591C-57.7686 -111.153 -58.8114 -113.109 -58.2485 -114.958L-58.2198 -115.052C-57.6569 -116.902 -55.7015 -117.944 -53.8523 -117.382ZM-59.6248 -98.417C-57.7755 -97.8542 -56.7327 -95.8988 -57.2956 -94.0495L-57.3243 -93.9552C-57.8872 -92.106 -59.8426 -91.0632 -61.6918 -91.626C-63.5411 -92.1889 -64.5839 -94.1443 -64.021 -95.9935L-63.9923 -96.0879C-63.4294 -97.9371 -61.474 -98.9799 -59.6248 -98.417ZM-65.3972 -79.4526C-63.548 -78.8897 -62.5052 -76.9343 -63.0681 -75.0851L-63.0968 -74.9907C-63.6597 -73.1415 -65.6151 -72.0987 -67.4643 -72.6616C-69.3135 -73.2244 -70.3563 -75.1798 -69.7934 -77.0291L-69.7647 -77.1234C-69.2019 -78.9726 -67.2465 -80.0154 -65.3972 -79.4526ZM-71.1697 -60.4881C-69.3205 -59.9252 -68.2777 -57.9698 -68.8406 -56.1206L-68.8693 -56.0262C-69.4321 -54.177 -71.3875 -53.1342 -73.2368 -53.6971C-75.086 -54.26 -76.1288 -56.2154 -75.5659 -58.0646L-75.5372 -58.1589C-74.9743 -60.0082 -73.0189 -61.051 -71.1697 -60.4881ZM-76.9422 -41.5236C-75.0929 -40.9607 -74.0501 -39.0054 -74.613 -37.1561L-74.6417 -37.0618C-75.2046 -35.2125 -77.16 -34.1697 -79.0092 -34.7326C-80.8585 -35.2955 -81.9013 -37.2509 -81.3384 -39.1001L-81.3097 -39.1945C-80.7468 -41.0437 -78.7914 -42.0865 -76.9422 -41.5236ZM-82.7146 -22.5592C-80.8654 -21.9963 -79.8226 -20.0409 -80.3855 -18.1917L-80.4142 -18.0973C-80.9771 -16.2481 -82.9325 -15.2053 -84.7817 -15.7682C-86.6309 -16.331 -87.6737 -18.2864 -87.1109 -20.1357L-87.0821 -20.23C-86.5193 -22.0792 -84.5639 -23.122 -82.7146 -22.5592ZM-88.4871 -3.5947C-86.6379 -3.03182 -85.5951 -1.07642 -86.158 0.77281L-86.1867 0.867155C-86.7495 2.71639 -88.7049 3.75918 -90.5542 3.1963C-92.4034 2.63343 -93.4462 0.678026 -92.8833 -1.17121L-92.8546 -1.26555C-92.2917 -3.11478 -90.3363 -4.15757 -88.4871 -3.5947ZM-94.2596 15.3698C-92.4103 15.9326 -91.3675 17.888 -91.9304 19.7373L-91.9591 19.8316C-92.522 21.6808 -94.4774 22.7236 -96.3266 22.1607C-98.1759 21.5979 -99.2187 19.6425 -98.6558 17.7933L-98.6271 17.6989C-98.0642 15.8497 -96.1088 14.8069 -94.2596 15.3698ZM-100.032 34.3342C-98.1828 34.8971 -97.14 36.8525 -97.7029 38.7017L-97.7316 38.7961C-98.2945 40.6453 -100.25 41.6881 -102.099 41.1252C-103.948 40.5623 -104.991 38.6069 -104.428 36.7577L-104.4 36.6634C-103.837 34.8141 -101.881 33.7713 -100.032 34.3342ZM-105.804 53.2987C-103.955 53.8615 -102.912 55.8169 -103.475 57.6662L-103.504 57.7605C-104.067 59.6097 -106.022 60.6525 -107.872 60.0897C-109.721 59.5268 -110.764 57.5714 -110.201 55.7222L-110.172 55.6278C-109.609 53.7786 -107.654 52.7358 -105.804 53.2987ZM-111.577 72.2631C-109.728 72.826 -108.685 74.7814 -109.248 76.6306L-109.277 76.7249C-109.839 78.5742 -111.795 79.617 -113.644 79.0541C-115.493 78.4912 -116.536 76.5358 -115.973 74.6866L-115.944 74.5923C-115.382 72.743 -113.426 71.7002 -111.577 72.2631ZM-117.349 91.2276C-115.5 91.7904 -114.457 93.7458 -115.02 95.5951L-115.049 95.6894C-115.612 97.5387 -117.567 98.5814 -119.416 98.0186C-121.266 97.4557 -122.309 95.5003 -121.746 93.6511L-121.717 93.5567C-121.154 91.7075 -119.199 90.6647 -117.349 91.2276ZM-123.122 110.192C-121.273 110.755 -120.23 112.71 -120.793 114.56L-120.821 114.654C-121.384 116.503 -123.34 117.546 -125.189 116.983C-127.038 116.42 -128.081 114.465 -127.518 112.616L-127.489 112.521C-126.927 110.672 -124.971 109.629 -123.122 110.192ZM-128.894 129.157C-127.045 129.719 -126.002 131.675 -126.565 133.524L-126.594 133.618C-127.157 135.468 -129.112 136.51 -130.961 135.948C-132.811 135.385 -133.853 133.429 -133.291 131.58L-133.262 131.486C-132.699 129.636 -130.744 128.594 -128.894 129.157ZM-134.667 148.121C-132.818 148.684 -131.775 150.639 -132.338 152.489L-132.366 152.583C-132.929 154.432 -134.885 155.475 -136.734 154.912C-138.583 154.349 -139.626 152.394 -139.063 150.545L-139.034 150.45C-138.471 148.601 -136.516 147.558 -134.667 148.121ZM-140.439 167.085C-138.59 167.648 -137.547 169.604 -138.11 171.453L-138.139 171.547C-138.702 173.397 -140.657 174.439 -142.506 173.876C-144.356 173.314 -145.398 171.358 -144.836 169.509L-144.807 169.415C-144.244 167.565 -142.289 166.523 -140.439 167.085ZM-146.212 186.05C-144.363 186.613 -143.32 188.568 -143.883 190.417L-143.897 190.465C-144.46 192.314 -146.415 193.357 -148.264 192.794C-150.114 192.231 -151.156 190.275 -150.594 188.426L-150.579 188.379C-150.016 186.53 -148.061 185.487 -146.212 186.05Z" fill="#FFE8C8"/>
<path fill-rule="evenodd" clip-rule="evenodd" d="M-73.9241 -144.161C-72.0749 -143.598 -71.0321 -141.643 -71.595 -139.793L-71.6093 -139.746C-72.1722 -137.897 -74.1276 -136.854 -75.9768 -137.417C-77.8261 -137.98 -78.8689 -139.935 -78.306 -141.785L-78.2916 -141.832C-77.7288 -143.681 -75.7734 -144.724 -73.9241 -144.161ZM-79.6822 -125.244C-77.833 -124.681 -76.7902 -122.725 -77.3531 -120.876L-77.3818 -120.782C-77.9447 -118.933 -79.9001 -117.89 -81.7493 -118.453C-83.5985 -119.016 -84.6413 -120.971 -84.0785 -122.82L-84.0497 -122.915C-83.4869 -124.764 -81.5315 -125.807 -79.6822 -125.244ZM-85.4547 -106.279C-83.6055 -105.716 -82.5627 -103.761 -83.1256 -101.912L-83.1543 -101.817C-83.7171 -99.9682 -85.6725 -98.9254 -87.5218 -99.4882C-89.371 -100.051 -90.4138 -102.007 -89.8509 -103.856L-89.8222 -103.95C-89.2593 -105.799 -87.3039 -106.842 -85.4547 -106.279ZM-91.2272 -87.3148C-89.3779 -86.7519 -88.3352 -84.7965 -88.898 -82.9473L-88.9267 -82.8529C-89.4896 -81.0037 -91.445 -79.9609 -93.2942 -80.5238C-95.1435 -81.0866 -96.1863 -83.042 -95.6234 -84.8913L-95.5947 -84.9856C-95.0318 -86.8349 -93.0764 -87.8776 -91.2272 -87.3148ZM-96.9996 -68.3503C-95.1504 -67.7874 -94.1076 -65.832 -94.6705 -63.9828L-94.6992 -63.8885C-95.2621 -62.0392 -97.2175 -60.9964 -99.0667 -61.5593C-100.916 -62.1222 -101.959 -64.0776 -101.396 -65.9268L-101.367 -66.0211C-100.804 -67.8704 -98.8489 -68.9132 -96.9996 -68.3503ZM-102.772 -49.3858C-100.923 -48.823 -99.8801 -46.8676 -100.443 -45.0183L-100.472 -44.924C-101.035 -43.0748 -102.99 -42.032 -104.839 -42.5948C-106.688 -43.1577 -107.731 -45.1131 -107.168 -46.9623L-107.14 -47.0567C-106.577 -48.9059 -104.621 -49.9487 -102.772 -49.3858ZM-108.545 -30.4214C-106.695 -29.8585 -105.653 -27.9031 -106.215 -26.0539L-106.244 -25.9595C-106.807 -24.1103 -108.762 -23.0675 -110.612 -23.6304C-112.461 -24.1932 -113.504 -26.1486 -112.941 -27.9979L-112.912 -28.0922C-112.349 -29.9414 -110.394 -30.9842 -108.545 -30.4214ZM-114.317 -11.4569C-112.468 -10.894 -111.425 -8.93863 -111.988 -7.0894L-112.017 -6.99506C-112.579 -5.14583 -114.535 -4.10304 -116.384 -4.66591C-118.233 -5.22878 -119.276 -7.18417 -118.713 -9.0334L-118.685 -9.12775C-118.122 -10.977 -116.166 -12.0198 -114.317 -11.4569ZM-120.09 7.50755C-118.24 8.07043 -117.197 10.0258 -117.76 11.8751L-117.789 11.9694C-118.352 13.8186 -120.307 14.8614 -122.157 14.2986C-124.006 13.7357 -125.049 11.7803 -124.486 9.93104L-124.457 9.8367C-123.894 7.98747 -121.939 6.94468 -120.09 7.50755ZM-125.862 26.472C-124.013 27.0349 -122.97 28.9903 -123.533 30.8395L-123.562 30.9339C-124.124 32.7831 -126.08 33.8259 -127.929 33.263C-129.778 32.7001 -130.821 30.7447 -130.258 28.8955L-130.229 28.8012C-129.667 26.9519 -127.711 25.9091 -125.862 26.472ZM-131.634 45.4364C-129.785 45.9993 -128.742 47.9547 -129.305 49.804L-129.334 49.8983C-129.897 51.7475 -131.852 52.7903 -133.701 52.2275C-135.551 51.6646 -136.594 49.7092 -136.031 47.86L-136.002 47.7656C-135.439 45.9164 -133.484 44.8736 -131.634 45.4364ZM-137.407 64.4009C-135.558 64.9638 -134.515 66.9192 -135.078 68.7684L-135.106 68.8627C-135.669 70.712 -137.625 71.7548 -139.474 71.1919C-141.323 70.629 -142.366 68.6736 -141.803 66.8244L-141.774 66.7301C-141.212 64.8808 -139.256 63.838 -137.407 64.4009ZM-143.179 83.3654C-141.33 83.9282 -140.287 85.8836 -140.85 87.7329L-140.879 87.8272C-141.442 89.6764 -143.397 90.7192 -145.246 90.1564C-147.096 89.5935 -148.138 87.6381 -147.576 85.7889L-147.547 85.6945C-146.984 83.8453 -145.029 82.8025 -143.179 83.3654ZM-148.952 102.33C-147.103 102.893 -146.06 104.848 -146.623 106.697L-146.651 106.792C-147.214 108.641 -149.17 109.684 -151.019 109.121C-152.868 108.558 -153.911 106.603 -153.348 104.753L-153.319 104.659C-152.756 102.81 -150.801 101.767 -148.952 102.33ZM-154.724 121.294C-152.875 121.857 -151.832 123.813 -152.395 125.662L-152.424 125.756C-152.987 127.605 -154.942 128.648 -156.791 128.085C-158.641 127.522 -159.683 125.567 -159.121 123.718L-159.092 123.623C-158.529 121.774 -156.574 120.731 -154.724 121.294ZM-160.497 140.259C-158.648 140.822 -157.605 142.777 -158.168 144.626L-158.196 144.721C-158.759 146.57 -160.715 147.613 -162.564 147.05C-164.413 146.487 -165.456 144.532 -164.893 142.682L-164.864 142.588C-164.301 140.739 -162.346 139.696 -160.497 140.259ZM-166.269 159.223C-164.42 159.786 -163.377 161.742 -163.94 163.591L-163.969 163.685C-164.532 165.534 -166.487 166.577 -168.336 166.014C-170.186 165.451 -171.228 163.496 -170.665 161.647L-170.637 161.552C-170.074 159.703 -168.118 158.66 -166.269 159.223ZM-172.042 178.188C-170.192 178.751 -169.15 180.706 -169.713 182.555L-169.727 182.602C-170.29 184.452 -172.245 185.494 -174.094 184.932C-175.944 184.369 -176.986 182.413 -176.424 180.564L-176.409 180.517C-175.846 178.668 -173.891 177.625 -172.042 178.188Z" fill="#FFE8C8"/>
</g>
<defs>
<clipPath id="clip0">
<rect width="378" height="496" fill="white"/>
</clipPath>
</defs>
</svg>
