<svg width="281" height="496" viewBox="0 0 281 496" fill="none" xmlns="http://www.w3.org/2000/svg">
<g clip-path="url(#clip0)">
<path d="M190.5 138.217C88.5 146.617 21 43.0506 0 -9.78275C106 -16.6161 320.8 -23.5827 332 3.21725C346 36.7173 318 127.717 190.5 138.217Z" fill="#FFEED8"/>
<path fill-rule="evenodd" clip-rule="evenodd" d="M400.148 208.351C401.974 207.716 403.969 208.681 404.604 210.507L404.62 210.554C405.255 212.379 404.289 214.374 402.463 215.009C400.638 215.644 398.643 214.678 398.008 212.852L397.992 212.806C397.357 210.98 398.323 208.985 400.148 208.351ZM406.642 227.028C408.468 226.393 410.463 227.359 411.098 229.185L411.13 229.278C411.765 231.104 410.799 233.098 408.973 233.733C407.148 234.368 405.153 233.402 404.518 231.577L404.486 231.483C403.851 229.658 404.816 227.663 406.642 227.028ZM413.152 245.752C414.978 245.117 416.973 246.083 417.608 247.909L417.64 248.002C418.275 249.828 417.309 251.822 415.484 252.457C413.658 253.092 411.663 252.126 411.028 250.301L410.996 250.207C410.361 248.382 411.327 246.387 413.152 245.752ZM419.662 264.476C421.488 263.841 423.483 264.807 424.118 266.633L424.15 266.726C424.785 268.552 423.819 270.546 421.994 271.181C420.168 271.816 418.173 270.851 417.538 269.025L417.506 268.932C416.871 267.106 417.837 265.111 419.662 264.476ZM426.172 283.2C427.998 282.566 429.993 283.531 430.628 285.357L430.66 285.45C431.295 287.276 430.329 289.271 428.504 289.905C426.678 290.54 424.683 289.575 424.048 287.749L424.016 287.656C423.381 285.83 424.347 283.835 426.172 283.2ZM432.682 301.924C434.508 301.29 436.503 302.255 437.138 304.081L437.17 304.174C437.805 306 436.839 307.995 435.014 308.629C433.188 309.264 431.193 308.299 430.558 306.473L430.526 306.38C429.891 304.554 430.857 302.559 432.682 301.924ZM439.193 320.649C441.018 320.014 443.013 320.979 443.648 322.805L443.68 322.898C444.315 324.724 443.35 326.719 441.524 327.353C439.698 327.988 437.703 327.023 437.068 325.197L437.036 325.104C436.401 323.278 437.367 321.283 439.193 320.649ZM445.703 339.373C447.528 338.738 449.523 339.703 450.158 341.529L450.19 341.622C450.825 343.448 449.86 345.443 448.034 346.078C446.208 346.712 444.213 345.747 443.578 343.921L443.546 343.828C442.911 342.002 443.877 340.007 445.703 339.373ZM452.213 358.097C454.038 357.462 456.033 358.427 456.668 360.253L456.7 360.346C457.335 362.172 456.37 364.167 454.544 364.802C452.718 365.436 450.723 364.471 450.089 362.645L450.056 362.552C449.421 360.726 450.387 358.732 452.213 358.097ZM458.723 376.821C460.548 376.186 462.543 377.152 463.178 378.977L463.21 379.07C463.845 380.896 462.88 382.891 461.054 383.526C459.228 384.161 457.233 383.195 456.599 381.369L456.566 381.276C455.931 379.45 456.897 377.456 458.723 376.821ZM465.233 395.545C467.058 394.91 469.053 395.876 469.688 397.701L469.72 397.795C470.355 399.62 469.39 401.615 467.564 402.25C465.738 402.885 463.743 401.919 463.109 400.093L463.076 400C462.441 398.174 463.407 396.18 465.233 395.545ZM471.743 414.269C473.569 413.634 475.563 414.6 476.198 416.425L476.23 416.519C476.865 418.344 475.9 420.339 474.074 420.974C472.248 421.609 470.253 420.643 469.619 418.817L469.586 418.724C468.951 416.898 469.917 414.904 471.743 414.269ZM478.253 432.993C480.079 432.358 482.073 433.324 482.708 435.15L482.74 435.243C483.375 437.068 482.41 439.063 480.584 439.698C478.758 440.333 476.763 439.367 476.129 437.541L476.096 437.448C475.461 435.623 476.427 433.628 478.253 432.993ZM484.763 451.717C486.589 451.082 488.583 452.048 489.218 453.874L489.25 453.967C489.885 455.793 488.92 457.787 487.094 458.422C485.268 459.057 483.274 458.091 482.639 456.266L482.606 456.172C481.972 454.347 482.937 452.352 484.763 451.717ZM491.273 470.441C493.099 469.806 495.093 470.772 495.728 472.598L495.761 472.691C496.395 474.517 495.43 476.511 493.604 477.146C491.778 477.781 489.784 476.816 489.149 474.99L489.116 474.897C488.482 473.071 489.447 471.076 491.273 470.441ZM497.783 489.165C499.609 488.531 501.603 489.496 502.238 491.322L502.271 491.415C502.905 493.241 501.94 495.236 500.114 495.87C498.288 496.505 496.294 495.54 495.659 493.714L495.626 493.621C494.992 491.795 495.957 489.8 497.783 489.165ZM504.293 507.889C506.119 507.255 508.113 508.22 508.748 510.046L508.781 510.139C509.415 511.965 508.45 513.96 506.624 514.594C504.798 515.229 502.804 514.264 502.169 512.438L502.137 512.345C501.502 510.519 502.467 508.524 504.293 507.889ZM510.803 526.614C512.629 525.979 514.624 526.944 515.258 528.77L515.275 528.817C515.909 530.642 514.944 532.637 513.118 533.272C511.292 533.907 509.298 532.941 508.663 531.115L508.647 531.069C508.012 529.243 508.977 527.248 510.803 526.614Z" fill="#FFE8C8"/>
<path fill-rule="evenodd" clip-rule="evenodd" d="M374.646 217.217C376.472 216.583 378.466 217.548 379.101 219.374L379.117 219.42C379.752 221.246 378.787 223.241 376.961 223.876C375.135 224.511 373.14 223.545 372.506 221.719L372.489 221.673C371.855 219.847 372.82 217.852 374.646 217.217ZM381.14 235.895C382.966 235.26 384.96 236.226 385.595 238.051L385.627 238.145C386.262 239.97 385.297 241.965 383.471 242.6C381.645 243.235 379.65 242.269 379.016 240.443L378.983 240.35C378.348 238.524 379.314 236.53 381.14 235.895ZM387.65 254.619C389.476 253.984 391.47 254.95 392.105 256.775L392.137 256.869C392.772 258.694 391.807 260.689 389.981 261.324C388.155 261.959 386.16 260.993 385.526 259.167L385.493 259.074C384.858 257.248 385.824 255.254 387.65 254.619ZM394.16 273.343C395.986 272.708 397.98 273.674 398.615 275.5L398.647 275.593C399.282 277.419 398.317 279.413 396.491 280.048C394.665 280.683 392.671 279.717 392.036 277.892L392.003 277.798C391.369 275.973 392.334 273.978 394.16 273.343ZM400.67 292.067C402.496 291.432 404.49 292.398 405.125 294.224L405.158 294.317C405.792 296.143 404.827 298.137 403.001 298.772C401.175 299.407 399.181 298.441 398.546 296.616L398.513 296.522C397.879 294.697 398.844 292.702 400.67 292.067ZM407.18 310.791C409.006 310.156 411 311.122 411.635 312.948L411.668 313.041C412.302 314.867 411.337 316.861 409.511 317.496C407.685 318.131 405.691 317.166 405.056 315.34L405.023 315.247C404.389 313.421 405.354 311.426 407.18 310.791ZM413.69 329.515C415.516 328.881 417.51 329.846 418.145 331.672L418.178 331.765C418.812 333.591 417.847 335.585 416.021 336.22C414.195 336.855 412.201 335.89 411.566 334.064L411.533 333.971C410.899 332.145 411.864 330.15 413.69 329.515ZM420.2 348.239C422.026 347.605 424.021 348.57 424.655 350.396L424.688 350.489C425.322 352.315 424.357 354.31 422.531 354.944C420.705 355.579 418.711 354.614 418.076 352.788L418.044 352.695C417.409 350.869 418.374 348.874 420.2 348.239ZM426.71 366.964C428.536 366.329 430.531 367.294 431.165 369.12L431.198 369.213C431.833 371.039 430.867 373.034 429.041 373.668C427.215 374.303 425.221 373.338 424.586 371.512L424.554 371.419C423.919 369.593 424.884 367.598 426.71 366.964ZM433.22 385.688C435.046 385.053 437.041 386.018 437.675 387.844L437.708 387.937C438.343 389.763 437.377 391.758 435.551 392.393C433.726 393.027 431.731 392.062 431.096 390.236L431.064 390.143C430.429 388.317 431.394 386.322 433.22 385.688ZM439.73 404.412C441.556 403.777 443.551 404.742 444.185 406.568L444.218 406.661C444.853 408.487 443.887 410.482 442.061 411.117C440.236 411.751 438.241 410.786 437.606 408.96L437.574 408.867C436.939 407.041 437.904 405.046 439.73 404.412ZM446.24 423.136C448.066 422.501 450.061 423.466 450.695 425.292L450.728 425.385C451.363 427.211 450.397 429.206 448.571 429.841C446.746 430.475 444.751 429.51 444.116 427.684L444.084 427.591C443.449 425.765 444.414 423.771 446.24 423.136ZM452.75 441.86C454.576 441.225 456.571 442.191 457.206 444.016L457.238 444.109C457.873 445.935 456.907 447.93 455.081 448.565C453.256 449.2 451.261 448.234 450.626 446.408L450.594 446.315C449.959 444.489 450.924 442.495 452.75 441.86ZM459.26 460.584C461.086 459.949 463.081 460.915 463.716 462.74L463.748 462.834C464.383 464.659 463.417 466.654 461.591 467.289C459.766 467.924 457.771 466.958 457.136 465.132L457.104 465.039C456.469 463.213 457.434 461.219 459.26 460.584ZM465.77 479.308C467.596 478.673 469.591 479.639 470.226 481.465L470.258 481.558C470.893 483.384 469.927 485.378 468.102 486.013C466.276 486.648 464.281 485.682 463.646 483.857L463.614 483.763C462.979 481.938 463.945 479.943 465.77 479.308ZM472.28 498.032C474.106 497.397 476.101 498.363 476.736 500.189L476.768 500.282C477.403 502.108 476.437 504.102 474.612 504.737C472.786 505.372 470.791 504.406 470.156 502.581L470.124 502.487C469.489 500.662 470.455 498.667 472.28 498.032ZM478.79 516.756C480.616 516.121 482.611 517.087 483.246 518.913L483.278 519.006C483.913 520.832 482.947 522.826 481.122 523.461C479.296 524.096 477.301 523.131 476.666 521.305L476.634 521.212C475.999 519.386 476.965 517.391 478.79 516.756ZM485.301 535.48C487.126 534.846 489.121 535.811 489.756 537.637L489.772 537.683C490.407 539.509 489.441 541.504 487.615 542.139C485.79 542.773 483.795 541.808 483.16 539.982L483.144 539.936C482.509 538.11 483.475 536.115 485.301 535.48Z" fill="#FFE8C8"/>
<path fill-rule="evenodd" clip-rule="evenodd" d="M349.143 226.084C350.969 225.449 352.964 226.415 353.599 228.241L353.615 228.287C354.25 230.113 353.284 232.108 351.458 232.743C349.633 233.377 347.638 232.412 347.003 230.586L346.987 230.539C346.352 228.714 347.318 226.719 349.143 226.084ZM355.637 244.762C357.463 244.127 359.458 245.092 360.092 246.918L360.125 247.011C360.76 248.837 359.794 250.832 357.968 251.467C356.143 252.101 354.148 251.136 353.513 249.31L353.481 249.217C352.846 247.391 353.811 245.396 355.637 244.762ZM362.147 263.486C363.973 262.851 365.968 263.816 366.603 265.642L366.635 265.735C367.27 267.561 366.304 269.556 364.478 270.191C362.653 270.826 360.658 269.86 360.023 268.034L359.991 267.941C359.356 266.115 360.321 264.121 362.147 263.486ZM368.657 282.21C370.483 281.575 372.478 282.541 373.113 284.366L373.145 284.46C373.78 286.285 372.814 288.28 370.988 288.915C369.163 289.55 367.168 288.584 366.533 286.758L366.501 286.665C365.866 284.839 366.831 282.845 368.657 282.21ZM375.167 300.934C376.993 300.299 378.988 301.265 379.623 303.09L379.655 303.184C380.29 305.009 379.324 307.004 377.499 307.639C375.673 308.274 373.678 307.308 373.043 305.482L373.011 305.389C372.376 303.563 373.342 301.569 375.167 300.934ZM381.677 319.658C383.503 319.023 385.498 319.989 386.133 321.815L386.165 321.908C386.8 323.734 385.834 325.728 384.009 326.363C382.183 326.998 380.188 326.032 379.553 324.207L379.521 324.113C378.886 322.288 379.852 320.293 381.677 319.658ZM388.187 338.382C390.013 337.747 392.008 338.713 392.643 340.539L392.675 340.632C393.31 342.458 392.344 344.452 390.519 345.087C388.693 345.722 386.698 344.756 386.063 342.931L386.031 342.837C385.396 341.012 386.362 339.017 388.187 338.382ZM394.697 357.106C396.523 356.471 398.518 357.437 399.153 359.263L399.185 359.356C399.82 361.182 398.854 363.176 397.029 363.811C395.203 364.446 393.208 363.48 392.573 361.655L392.541 361.562C391.906 359.736 392.872 357.741 394.697 357.106ZM401.208 375.83C403.033 375.196 405.028 376.161 405.663 377.987L405.695 378.08C406.33 379.906 405.364 381.9 403.539 382.535C401.713 383.17 399.718 382.205 399.083 380.379L399.051 380.286C398.416 378.46 399.382 376.465 401.208 375.83ZM407.718 394.554C409.543 393.92 411.538 394.885 412.173 396.711L412.205 396.804C412.84 398.63 411.875 400.625 410.049 401.259C408.223 401.894 406.228 400.929 405.593 399.103L405.561 399.01C404.926 397.184 405.892 395.189 407.718 394.554ZM414.228 413.278C416.053 412.644 418.048 413.609 418.683 415.435L418.715 415.528C419.35 417.354 418.385 419.349 416.559 419.983C414.733 420.618 412.738 419.653 412.103 417.827L412.071 417.734C411.436 415.908 412.402 413.913 414.228 413.278ZM420.738 432.003C422.563 431.368 424.558 432.333 425.193 434.159L425.225 434.252C425.86 436.078 424.895 438.073 423.069 438.707C421.243 439.342 419.248 438.377 418.614 436.551L418.581 436.458C417.946 434.632 418.912 432.637 420.738 432.003ZM427.248 450.727C429.073 450.092 431.068 451.057 431.703 452.883L431.735 452.976C432.37 454.802 431.405 456.797 429.579 457.432C427.753 458.066 425.758 457.101 425.124 455.275L425.091 455.182C424.456 453.356 425.422 451.361 427.248 450.727ZM433.758 469.451C435.584 468.816 437.578 469.781 438.213 471.607L438.245 471.7C438.88 473.526 437.915 475.521 436.089 476.156C434.263 476.79 432.268 475.825 431.634 473.999L431.601 473.906C430.966 472.08 431.932 470.086 433.758 469.451ZM440.268 488.175C442.094 487.54 444.088 488.506 444.723 490.331L444.755 490.424C445.39 492.25 444.425 494.245 442.599 494.88C440.773 495.515 438.779 494.549 438.144 492.723L438.111 492.63C437.476 490.804 438.442 488.81 440.268 488.175ZM446.778 506.899C448.604 506.264 450.598 507.23 451.233 509.055L451.266 509.149C451.9 510.974 450.935 512.969 449.109 513.604C447.283 514.239 445.289 513.273 444.654 511.447L444.621 511.354C443.987 509.528 444.952 507.534 446.778 506.899ZM453.288 525.623C455.114 524.988 457.108 525.954 457.743 527.78L457.776 527.873C458.41 529.699 457.445 531.693 455.619 532.328C453.793 532.963 451.799 531.997 451.164 530.172L451.131 530.078C450.497 528.253 451.462 526.258 453.288 525.623ZM459.798 544.347C461.624 543.712 463.618 544.678 464.253 546.504L464.269 546.55C464.904 548.376 463.939 550.371 462.113 551.005C460.287 551.64 458.292 550.675 457.658 548.849L457.641 548.802C457.007 546.977 457.972 544.982 459.798 544.347Z" fill="#FFE8C8"/>
<path fill-rule="evenodd" clip-rule="evenodd" d="M323.641 234.951C325.467 234.316 327.461 235.282 328.096 237.107L328.112 237.154C328.747 238.98 327.782 240.975 325.956 241.609C324.13 242.244 322.135 241.279 321.5 239.453L321.484 239.406C320.849 237.58 321.815 235.586 323.641 234.951ZM330.135 253.629C331.96 252.994 333.955 253.959 334.59 255.785L334.622 255.878C335.257 257.704 334.292 259.699 332.466 260.333C330.64 260.968 328.645 260.003 328.011 258.177L327.978 258.084C327.343 256.258 328.309 254.263 330.135 253.629ZM336.645 272.353C338.47 271.718 340.465 272.683 341.1 274.509L341.132 274.602C341.767 276.428 340.802 278.423 338.976 279.058C337.15 279.692 335.155 278.727 334.521 276.901L334.488 276.808C333.853 274.982 334.819 272.987 336.645 272.353ZM343.155 291.077C344.981 290.442 346.975 291.407 347.61 293.233L347.642 293.326C348.277 295.152 347.312 297.147 345.486 297.782C343.66 298.416 341.665 297.451 341.031 295.625L340.998 295.532C340.363 293.706 341.329 291.711 343.155 291.077ZM349.665 309.801C351.491 309.166 353.485 310.131 354.12 311.957L354.152 312.05C354.787 313.876 353.822 315.871 351.996 316.506C350.17 317.141 348.175 316.175 347.541 314.349L347.508 314.256C346.874 312.43 347.839 310.436 349.665 309.801ZM356.175 328.525C358.001 327.89 359.995 328.856 360.63 330.681L360.663 330.775C361.297 332.6 360.332 334.595 358.506 335.23C356.68 335.865 354.686 334.899 354.051 333.073L354.018 332.98C353.384 331.154 354.349 329.16 356.175 328.525ZM362.685 347.249C364.511 346.614 366.505 347.58 367.14 349.405L367.173 349.499C367.807 351.324 366.842 353.319 365.016 353.954C363.19 354.589 361.196 353.623 360.561 351.797L360.528 351.704C359.894 349.878 360.859 347.884 362.685 347.249ZM369.195 365.973C371.021 365.338 373.015 366.304 373.65 368.13L373.683 368.223C374.317 370.048 373.352 372.043 371.526 372.678C369.7 373.313 367.706 372.347 367.071 370.521L367.038 370.428C366.404 368.603 367.369 366.608 369.195 365.973ZM375.705 384.697C377.531 384.062 379.525 385.028 380.16 386.854L380.193 386.947C380.827 388.773 379.862 390.767 378.036 391.402C376.21 392.037 374.216 391.071 373.581 389.246L373.548 389.152C372.914 387.327 373.879 385.332 375.705 384.697ZM382.215 403.421C384.041 402.786 386.035 403.752 386.67 405.578L386.703 405.671C387.337 407.497 386.372 409.491 384.546 410.126C382.72 410.761 380.726 409.795 380.091 407.97L380.059 407.877C379.424 406.051 380.389 404.056 382.215 403.421ZM388.725 422.145C390.551 421.51 392.546 422.476 393.18 424.302L393.213 424.395C393.848 426.221 392.882 428.215 391.056 428.85C389.23 429.485 387.236 428.52 386.601 426.694L386.569 426.601C385.934 424.775 386.899 422.78 388.725 422.145ZM395.235 440.869C397.061 440.235 399.056 441.2 399.69 443.026L399.723 443.119C400.358 444.945 399.392 446.939 397.566 447.574C395.74 448.209 393.746 447.244 393.111 445.418L393.079 445.325C392.444 443.499 393.409 441.504 395.235 440.869ZM401.745 459.593C403.571 458.959 405.566 459.924 406.2 461.75L406.233 461.843C406.868 463.669 405.902 465.664 404.076 466.298C402.251 466.933 400.256 465.968 399.621 464.142L399.589 464.049C398.954 462.223 399.919 460.228 401.745 459.593ZM408.255 478.318C410.081 477.683 412.076 478.648 412.71 480.474L412.743 480.567C413.378 482.393 412.412 484.388 410.586 485.022C408.761 485.657 406.766 484.692 406.131 482.866L406.099 482.773C405.464 480.947 406.429 478.952 408.255 478.318ZM414.765 497.042C416.591 496.407 418.586 497.372 419.221 499.198L419.253 499.291C419.888 501.117 418.922 503.112 417.096 503.747C415.271 504.381 413.276 503.416 412.641 501.59L412.609 501.497C411.974 499.671 412.939 497.676 414.765 497.042ZM421.275 515.766C423.101 515.131 425.096 516.096 425.731 517.922L425.763 518.015C426.398 519.841 425.432 521.836 423.606 522.471C421.781 523.105 419.786 522.14 419.151 520.314L419.119 520.221C418.484 518.395 419.45 516.401 421.275 515.766ZM427.785 534.49C429.611 533.855 431.606 534.821 432.241 536.646L432.273 536.74C432.908 538.565 431.942 540.56 430.117 541.195C428.291 541.83 426.296 540.864 425.661 539.038L425.629 538.945C424.994 537.119 425.96 535.125 427.785 534.49ZM434.295 553.214C436.121 552.579 438.116 553.545 438.751 555.37L438.767 555.417C439.402 557.243 438.436 559.238 436.61 559.872C434.785 560.507 432.79 559.542 432.155 557.716L432.139 557.669C431.504 555.843 432.47 553.849 434.295 553.214Z" fill="#FFE8C8"/>
<path fill-rule="evenodd" clip-rule="evenodd" d="M298.138 243.818C299.964 243.183 301.959 244.148 302.594 245.974L302.61 246.021C303.245 247.847 302.279 249.841 300.453 250.476C298.627 251.111 296.633 250.145 295.998 248.32L295.982 248.273C295.347 246.447 296.312 244.453 298.138 243.818ZM304.632 262.495C306.458 261.861 308.453 262.826 309.087 264.652L309.12 264.745C309.755 266.571 308.789 268.565 306.963 269.2C305.137 269.835 303.143 268.87 302.508 267.044L302.476 266.951C301.841 265.125 302.806 263.13 304.632 262.495ZM311.142 281.219C312.968 280.585 314.963 281.55 315.597 283.376L315.63 283.469C316.265 285.295 315.299 287.29 313.473 287.924C311.648 288.559 309.653 287.594 309.018 285.768L308.986 285.675C308.351 283.849 309.316 281.854 311.142 281.219ZM317.652 299.943C319.478 299.309 321.473 300.274 322.107 302.1L322.14 302.193C322.775 304.019 321.809 306.014 319.983 306.648C318.158 307.283 316.163 306.318 315.528 304.492L315.496 304.399C314.861 302.573 315.826 300.578 317.652 299.943ZM324.162 318.668C325.988 318.033 327.983 318.998 328.618 320.824L328.65 320.917C329.285 322.743 328.319 324.738 326.493 325.373C324.668 326.007 322.673 325.042 322.038 323.216L322.006 323.123C321.371 321.297 322.336 319.302 324.162 318.668ZM330.672 337.392C332.498 336.757 334.493 337.722 335.128 339.548L335.16 339.641C335.795 341.467 334.829 343.462 333.003 344.097C331.178 344.731 329.183 343.766 328.548 341.94L328.516 341.847C327.881 340.021 328.846 338.026 330.672 337.392ZM337.182 356.116C339.008 355.481 341.003 356.446 341.638 358.272L341.67 358.365C342.305 360.191 341.339 362.186 339.514 362.821C337.688 363.455 335.693 362.49 335.058 360.664L335.026 360.571C334.391 358.745 335.357 356.751 337.182 356.116ZM343.692 374.84C345.518 374.205 347.513 375.171 348.148 376.996L348.18 377.089C348.815 378.915 347.849 380.91 346.024 381.545C344.198 382.18 342.203 381.214 341.568 379.388L341.536 379.295C340.901 377.469 341.867 375.475 343.692 374.84ZM350.202 393.564C352.028 392.929 354.023 393.895 354.658 395.72L354.69 395.814C355.325 397.639 354.359 399.634 352.534 400.269C350.708 400.904 348.713 399.938 348.078 398.112L348.046 398.019C347.411 396.193 348.377 394.199 350.202 393.564ZM356.712 412.288C358.538 411.653 360.533 412.619 361.168 414.445L361.2 414.538C361.835 416.363 360.869 418.358 359.044 418.993C357.218 419.628 355.223 418.662 354.588 416.836L354.556 416.743C353.921 414.918 354.887 412.923 356.712 412.288ZM363.223 431.012C365.048 430.377 367.043 431.343 367.678 433.169L367.71 433.262C368.345 435.088 367.379 437.082 365.554 437.717C363.728 438.352 361.733 437.386 361.098 435.561L361.066 435.467C360.431 433.642 361.397 431.647 363.223 431.012ZM369.733 449.736C371.558 449.101 373.553 450.067 374.188 451.893L374.22 451.986C374.855 453.812 373.89 455.806 372.064 456.441C370.238 457.076 368.243 456.11 367.608 454.285L367.576 454.191C366.941 452.366 367.907 450.371 369.733 449.736ZM376.243 468.46C378.068 467.825 380.063 468.791 380.698 470.617L380.73 470.71C381.365 472.536 380.4 474.53 378.574 475.165C376.748 475.8 374.753 474.834 374.118 473.009L374.086 472.916C373.451 471.09 374.417 469.095 376.243 468.46ZM382.753 487.184C384.578 486.55 386.573 487.515 387.208 489.341L387.24 489.434C387.875 491.26 386.91 493.254 385.084 493.889C383.258 494.524 381.263 493.559 380.629 491.733L380.596 491.64C379.961 489.814 380.927 487.819 382.753 487.184ZM389.263 505.908C391.088 505.274 393.083 506.239 393.718 508.065L393.75 508.158C394.385 509.984 393.42 511.979 391.594 512.613C389.768 513.248 387.773 512.283 387.139 510.457L387.106 510.364C386.471 508.538 387.437 506.543 389.263 505.908ZM395.773 524.633C397.599 523.998 399.593 524.963 400.228 526.789L400.26 526.882C400.895 528.708 399.93 530.703 398.104 531.337C396.278 531.972 394.283 531.007 393.649 529.181L393.616 529.088C392.981 527.262 393.947 525.267 395.773 524.633ZM402.283 543.357C404.109 542.722 406.103 543.687 406.738 545.513L406.77 545.606C407.405 547.432 406.44 549.427 404.614 550.062C402.788 550.696 400.794 549.731 400.159 547.905L400.126 547.812C399.492 545.986 400.457 543.991 402.283 543.357ZM408.793 562.081C410.619 561.446 412.613 562.411 413.248 564.237L413.264 564.284C413.899 566.11 412.934 568.104 411.108 568.739C409.282 569.374 407.287 568.408 406.653 566.583L406.636 566.536C406.002 564.71 406.967 562.716 408.793 562.081Z" fill="#FFE8C8"/>
<path fill-rule="evenodd" clip-rule="evenodd" d="M272.636 252.685C274.461 252.05 276.456 253.015 277.091 254.841L277.107 254.888C277.742 256.713 276.776 258.708 274.951 259.343C273.125 259.978 271.13 259.012 270.495 257.186L270.479 257.14C269.844 255.314 270.81 253.319 272.636 252.685ZM279.13 271.362C280.955 270.727 282.95 271.693 283.585 273.519L283.617 273.612C284.252 275.438 283.287 277.432 281.461 278.067C279.635 278.702 277.64 277.736 277.005 275.911L276.973 275.817C276.338 273.992 277.304 271.997 279.13 271.362ZM285.64 290.086C287.465 289.451 289.46 290.417 290.095 292.243L290.127 292.336C290.762 294.162 289.797 296.156 287.971 296.791C286.145 297.426 284.15 296.46 283.515 294.635L283.483 294.541C282.848 292.716 283.814 290.721 285.64 290.086ZM292.15 308.81C293.975 308.175 295.97 309.141 296.605 310.967L296.637 311.06C297.272 312.886 296.307 314.88 294.481 315.515C292.655 316.15 290.66 315.185 290.026 313.359L289.993 313.266C289.358 311.44 290.324 309.445 292.15 308.81ZM298.66 327.534C300.485 326.9 302.48 327.865 303.115 329.691L303.147 329.784C303.782 331.61 302.817 333.605 300.991 334.239C299.165 334.874 297.17 333.909 296.536 332.083L296.503 331.99C295.868 330.164 296.834 328.169 298.66 327.534ZM305.17 346.258C306.996 345.624 308.99 346.589 309.625 348.415L309.657 348.508C310.292 350.334 309.327 352.329 307.501 352.963C305.675 353.598 303.68 352.633 303.046 350.807L303.013 350.714C302.378 348.888 303.344 346.893 305.17 346.258ZM311.68 364.983C313.506 364.348 315.5 365.313 316.135 367.139L316.167 367.232C316.802 369.058 315.837 371.053 314.011 371.688C312.185 372.322 310.19 371.357 309.556 369.531L309.523 369.438C308.888 367.612 309.854 365.617 311.68 364.983ZM318.19 383.707C320.016 383.072 322.01 384.037 322.645 385.863L322.677 385.956C323.312 387.782 322.347 389.777 320.521 390.412C318.695 391.046 316.701 390.081 316.066 388.255L316.033 388.162C315.399 386.336 316.364 384.341 318.19 383.707ZM324.7 402.431C326.526 401.796 328.52 402.761 329.155 404.587L329.188 404.68C329.822 406.506 328.857 408.501 327.031 409.136C325.205 409.77 323.211 408.805 322.576 406.979L322.543 406.886C321.909 405.06 322.874 403.066 324.7 402.431ZM331.21 421.155C333.036 420.52 335.03 421.486 335.665 423.311L335.698 423.404C336.332 425.23 335.367 427.225 333.541 427.86C331.715 428.495 329.721 427.529 329.086 425.703L329.053 425.61C328.419 423.784 329.384 421.79 331.21 421.155ZM337.72 439.879C339.546 439.244 341.54 440.21 342.175 442.035L342.208 442.129C342.842 443.954 341.877 445.949 340.051 446.584C338.225 447.219 336.231 446.253 335.596 444.427L335.563 444.334C334.929 442.508 335.894 440.514 337.72 439.879ZM344.23 458.603C346.056 457.968 348.051 458.934 348.685 460.759L348.718 460.853C349.352 462.678 348.387 464.673 346.561 465.308C344.735 465.943 342.741 464.977 342.106 463.151L342.074 463.058C341.439 461.232 342.404 459.238 344.23 458.603ZM350.74 477.327C352.566 476.692 354.561 477.658 355.195 479.484L355.228 479.577C355.863 481.402 354.897 483.397 353.071 484.032C351.245 484.667 349.251 483.701 348.616 481.875L348.584 481.782C347.949 479.957 348.914 477.962 350.74 477.327ZM357.25 496.051C359.076 495.416 361.071 496.382 361.705 498.208L361.738 498.301C362.373 500.127 361.407 502.121 359.581 502.756C357.756 503.391 355.761 502.425 355.126 500.6L355.094 500.506C354.459 498.681 355.424 496.686 357.25 496.051ZM363.76 514.775C365.586 514.14 367.581 515.106 368.215 516.932L368.248 517.025C368.883 518.851 367.917 520.845 366.091 521.48C364.266 522.115 362.271 521.15 361.636 519.324L361.604 519.231C360.969 517.405 361.934 515.41 363.76 514.775ZM370.27 533.499C372.096 532.865 374.091 533.83 374.725 535.656L374.758 535.749C375.393 537.575 374.427 539.569 372.601 540.204C370.776 540.839 368.781 539.874 368.146 538.048L368.114 537.955C367.479 536.129 368.444 534.134 370.27 533.499ZM376.78 552.223C378.606 551.589 380.601 552.554 381.236 554.38L381.268 554.473C381.903 556.299 380.937 558.294 379.111 558.928C377.286 559.563 375.291 558.598 374.656 556.772L374.624 556.679C373.989 554.853 374.954 552.858 376.78 552.223ZM383.29 570.948C385.116 570.313 387.111 571.278 387.746 573.104L387.762 573.151C388.397 574.976 387.431 576.971 385.605 577.606C383.779 578.241 381.785 577.275 381.15 575.449L381.134 575.403C380.499 573.577 381.465 571.582 383.29 570.948Z" fill="#FFE8C8"/>
<path fill-rule="evenodd" clip-rule="evenodd" d="M247.133 261.551C248.959 260.917 250.954 261.882 251.588 263.708L251.605 263.754C252.239 265.58 251.274 267.575 249.448 268.21C247.622 268.845 245.628 267.879 244.993 266.053L244.977 266.007C244.342 264.181 245.307 262.186 247.133 261.551ZM253.627 280.229C255.453 279.594 257.447 280.56 258.082 282.385L258.115 282.479C258.749 284.304 257.784 286.299 255.958 286.934C254.132 287.569 252.138 286.603 251.503 284.777L251.471 284.684C250.836 282.858 251.801 280.864 253.627 280.229ZM260.137 298.953C261.963 298.318 263.958 299.284 264.592 301.109L264.625 301.203C265.26 303.028 264.294 305.023 262.468 305.658C260.642 306.293 258.648 305.327 258.013 303.501L257.981 303.408C257.346 301.582 258.311 299.588 260.137 298.953ZM266.647 317.677C268.473 317.042 270.468 318.008 271.102 319.834L271.135 319.927C271.77 321.753 270.804 323.747 268.978 324.382C267.152 325.017 265.158 324.051 264.523 322.226L264.491 322.132C263.856 320.307 264.821 318.312 266.647 317.677ZM273.157 336.401C274.983 335.766 276.978 336.732 277.612 338.558L277.645 338.651C278.28 340.477 277.314 342.471 275.488 343.106C273.663 343.741 271.668 342.775 271.033 340.95L271.001 340.856C270.366 339.031 271.331 337.036 273.157 336.401ZM279.667 355.125C281.493 354.49 283.488 355.456 284.122 357.282L284.155 357.375C284.79 359.201 283.824 361.195 281.998 361.83C280.173 362.465 278.178 361.5 277.543 359.674L277.511 359.581C276.876 357.755 277.841 355.76 279.667 355.125ZM286.177 373.849C288.003 373.215 289.998 374.18 290.633 376.006L290.665 376.099C291.3 377.925 290.334 379.919 288.508 380.554C286.683 381.189 284.688 380.224 284.053 378.398L284.021 378.305C283.386 376.479 284.351 374.484 286.177 373.849ZM292.687 392.573C294.513 391.939 296.508 392.904 297.143 394.73L297.175 394.823C297.81 396.649 296.844 398.644 295.018 399.278C293.193 399.913 291.198 398.948 290.563 397.122L290.531 397.029C289.896 395.203 290.861 393.208 292.687 392.573ZM299.197 411.298C301.023 410.663 303.018 411.628 303.653 413.454L303.685 413.547C304.32 415.373 303.354 417.368 301.529 418.002C299.703 418.637 297.708 417.672 297.073 415.846L297.041 415.753C296.406 413.927 297.372 411.932 299.197 411.298ZM305.707 430.022C307.533 429.387 309.528 430.352 310.163 432.178L310.195 432.271C310.83 434.097 309.864 436.092 308.039 436.727C306.213 437.361 304.218 436.396 303.583 434.57L303.551 434.477C302.916 432.651 303.882 430.656 305.707 430.022ZM312.217 448.746C314.043 448.111 316.038 449.076 316.673 450.902L316.705 450.995C317.34 452.821 316.374 454.816 314.549 455.451C312.723 456.085 310.728 455.12 310.093 453.294L310.061 453.201C309.426 451.375 310.392 449.38 312.217 448.746ZM318.727 467.47C320.553 466.835 322.548 467.8 323.183 469.626L323.215 469.719C323.85 471.545 322.884 473.54 321.059 474.175C319.233 474.809 317.238 473.844 316.603 472.018L316.571 471.925C315.936 470.099 316.902 468.105 318.727 467.47ZM325.238 486.194C327.063 485.559 329.058 486.525 329.693 488.35L329.725 488.443C330.36 490.269 329.394 492.264 327.569 492.899C325.743 493.534 323.748 492.568 323.113 490.742L323.081 490.649C322.446 488.823 323.412 486.829 325.238 486.194ZM331.748 504.918C333.573 504.283 335.568 505.249 336.203 507.074L336.235 507.168C336.87 508.993 335.905 510.988 334.079 511.623C332.253 512.258 330.258 511.292 329.623 509.466L329.591 509.373C328.956 507.547 329.922 505.553 331.748 504.918ZM338.258 523.642C340.083 523.007 342.078 523.973 342.713 525.799L342.745 525.892C343.38 527.717 342.415 529.712 340.589 530.347C338.763 530.982 336.768 530.016 336.134 528.191L336.101 528.097C335.466 526.272 336.432 524.277 338.258 523.642ZM344.768 542.366C346.593 541.731 348.588 542.697 349.223 544.523L349.255 544.616C349.89 546.442 348.925 548.436 347.099 549.071C345.273 549.706 343.278 548.74 342.644 546.915L342.611 546.821C341.976 544.996 342.942 543.001 344.768 542.366ZM351.278 561.09C353.104 560.455 355.098 561.421 355.733 563.247L355.765 563.34C356.4 565.166 355.435 567.16 353.609 567.795C351.783 568.43 349.788 567.465 349.154 565.639L349.121 565.546C348.486 563.72 349.452 561.725 351.278 561.09ZM357.788 579.814C359.614 579.18 361.608 580.145 362.243 581.971L362.259 582.017C362.894 583.843 361.929 585.838 360.103 586.473C358.277 587.108 356.282 586.142 355.647 584.316L355.631 584.27C354.996 582.444 355.962 580.449 357.788 579.814Z" fill="#FFE8C8"/>
<path fill-rule="evenodd" clip-rule="evenodd" d="M221.631 270.418C223.456 269.783 225.451 270.749 226.086 272.575L226.102 272.621C226.737 274.447 225.771 276.442 223.946 277.077C222.12 277.711 220.125 276.746 219.49 274.92L219.474 274.873C218.839 273.048 219.805 271.053 221.631 270.418ZM228.124 289.096C229.95 288.461 231.945 289.426 232.58 291.252L232.612 291.345C233.247 293.171 232.281 295.166 230.456 295.801C228.63 296.435 226.635 295.47 226 293.644L225.968 293.551C225.333 291.725 226.299 289.73 228.124 289.096ZM234.635 307.82C236.46 307.185 238.455 308.15 239.09 309.976L239.122 310.069C239.757 311.895 238.791 313.89 236.966 314.525C235.14 315.16 233.145 314.194 232.51 312.368L232.478 312.275C231.843 310.449 232.809 308.455 234.635 307.82ZM241.145 326.544C242.97 325.909 244.965 326.875 245.6 328.7L245.632 328.794C246.267 330.619 245.302 332.614 243.476 333.249C241.65 333.884 239.655 332.918 239.02 331.092L238.988 330.999C238.353 329.173 239.319 327.179 241.145 326.544ZM247.655 345.268C249.48 344.633 251.475 345.599 252.11 347.424L252.142 347.518C252.777 349.343 251.812 351.338 249.986 351.973C248.16 352.608 246.165 351.642 245.531 349.816L245.498 349.723C244.863 347.897 245.829 345.903 247.655 345.268ZM254.165 363.992C255.99 363.357 257.985 364.323 258.62 366.149L258.652 366.242C259.287 368.068 258.322 370.062 256.496 370.697C254.67 371.332 252.675 370.366 252.041 368.541L252.008 368.447C251.373 366.622 252.339 364.627 254.165 363.992ZM260.675 382.716C262.5 382.081 264.495 383.047 265.13 384.873L265.162 384.966C265.797 386.792 264.832 388.786 263.006 389.421C261.18 390.056 259.185 389.09 258.551 387.265L258.518 387.171C257.883 385.346 258.849 383.351 260.675 382.716ZM267.185 401.44C269.011 400.805 271.005 401.771 271.64 403.597L271.672 403.69C272.307 405.516 271.342 407.51 269.516 408.145C267.69 408.78 265.695 407.814 265.061 405.989L265.028 405.896C264.393 404.07 265.359 402.075 267.185 401.44ZM273.695 420.164C275.521 419.53 277.515 420.495 278.15 422.321L278.182 422.414C278.817 424.24 277.852 426.234 276.026 426.869C274.2 427.504 272.205 426.539 271.571 424.713L271.538 424.62C270.904 422.794 271.869 420.799 273.695 420.164ZM280.205 438.888C282.031 438.254 284.025 439.219 284.66 441.045L284.693 441.138C285.327 442.964 284.362 444.959 282.536 445.593C280.71 446.228 278.716 445.263 278.081 443.437L278.048 443.344C277.414 441.518 278.379 439.523 280.205 438.888ZM286.715 457.612C288.541 456.978 290.535 457.943 291.17 459.769L291.203 459.862C291.837 461.688 290.872 463.683 289.046 464.317C287.22 464.952 285.226 463.987 284.591 462.161L284.558 462.068C283.924 460.242 284.889 458.247 286.715 457.612ZM293.225 476.337C295.051 475.702 297.045 476.667 297.68 478.493L297.713 478.586C298.347 480.412 297.382 482.407 295.556 483.041C293.73 483.676 291.736 482.711 291.101 480.885L291.068 480.792C290.434 478.966 291.399 476.971 293.225 476.337ZM299.735 495.061C301.561 494.426 303.555 495.391 304.19 497.217L304.223 497.31C304.857 499.136 303.892 501.131 302.066 501.766C300.24 502.4 298.246 501.435 297.611 499.609L297.578 499.516C296.944 497.69 297.909 495.695 299.735 495.061ZM306.245 513.785C308.071 513.15 310.065 514.115 310.7 515.941L310.733 516.034C311.367 517.86 310.402 519.855 308.576 520.49C306.75 521.124 304.756 520.159 304.121 518.333L304.089 518.24C303.454 516.414 304.419 514.42 306.245 513.785ZM312.755 532.509C314.581 531.874 316.576 532.84 317.21 534.665L317.243 534.759C317.878 536.584 316.912 538.579 315.086 539.214C313.26 539.849 311.266 538.883 310.631 537.057L310.599 536.964C309.964 535.138 310.929 533.144 312.755 532.509ZM319.265 551.233C321.091 550.598 323.086 551.564 323.72 553.389L323.753 553.483C324.388 555.308 323.422 557.303 321.596 557.938C319.771 558.573 317.776 557.607 317.141 555.781L317.109 555.688C316.474 553.862 317.439 551.868 319.265 551.233ZM325.775 569.957C327.601 569.322 329.596 570.288 330.23 572.114L330.263 572.207C330.898 574.033 329.932 576.027 328.106 576.662C326.281 577.297 324.286 576.331 323.651 574.506L323.619 574.412C322.984 572.587 323.949 570.592 325.775 569.957ZM332.285 588.681C334.111 588.046 336.106 589.012 336.741 590.838L336.757 590.884C337.391 592.71 336.426 594.705 334.6 595.34C332.774 595.974 330.78 595.009 330.145 593.183L330.129 593.136C329.494 591.311 330.459 589.316 332.285 588.681Z" fill="#FFE8C8"/>
<path fill-rule="evenodd" clip-rule="evenodd" d="M196.128 279.285C197.954 278.65 199.949 279.616 200.583 281.441L200.6 281.488C201.234 283.314 200.269 285.309 198.443 285.943C196.617 286.578 194.623 285.613 193.988 283.787L193.972 283.74C193.337 281.914 194.302 279.92 196.128 279.285ZM202.622 297.963C204.448 297.328 206.442 298.293 207.077 300.119L207.11 300.212C207.744 302.038 206.779 304.033 204.953 304.667C203.127 305.302 201.133 304.337 200.498 302.511L200.465 302.418C199.831 300.592 200.796 298.597 202.622 297.963ZM209.132 316.687C210.958 316.052 212.952 317.017 213.587 318.843L213.62 318.936C214.254 320.762 213.289 322.757 211.463 323.392C209.637 324.026 207.643 323.061 207.008 321.235L206.975 321.142C206.341 319.316 207.306 317.321 209.132 316.687ZM215.642 335.411C217.468 334.776 219.462 335.741 220.097 337.567L220.13 337.66C220.764 339.486 219.799 341.481 217.973 342.116C216.147 342.75 214.153 341.785 213.518 339.959L213.486 339.866C212.851 338.04 213.816 336.045 215.642 335.411ZM222.152 354.135C223.978 353.5 225.973 354.465 226.607 356.291L226.64 356.384C227.275 358.21 226.309 360.205 224.483 360.84C222.657 361.475 220.663 360.509 220.028 358.683L219.996 358.59C219.361 356.764 220.326 354.77 222.152 354.135ZM228.662 372.859C230.488 372.224 232.483 373.19 233.117 375.015L233.15 375.109C233.785 376.934 232.819 378.929 230.993 379.564C229.167 380.199 227.173 379.233 226.538 377.407L226.506 377.314C225.871 375.488 226.836 373.494 228.662 372.859ZM235.172 391.583C236.998 390.948 238.993 391.914 239.627 393.739L239.66 393.833C240.295 395.658 239.329 397.653 237.503 398.288C235.678 398.923 233.683 397.957 233.048 396.131L233.016 396.038C232.381 394.212 233.346 392.218 235.172 391.583ZM241.682 410.307C243.508 409.672 245.503 410.638 246.137 412.464L246.17 412.557C246.805 414.382 245.839 416.377 244.013 417.012C242.188 417.647 240.193 416.681 239.558 414.855L239.526 414.762C238.891 412.937 239.856 410.942 241.682 410.307ZM248.192 429.031C250.018 428.396 252.013 429.362 252.648 431.188L252.68 431.281C253.315 433.107 252.349 435.101 250.523 435.736C248.698 436.371 246.703 435.405 246.068 433.58L246.036 433.486C245.401 431.661 246.366 429.666 248.192 429.031ZM254.702 447.755C256.528 447.12 258.523 448.086 259.158 449.912L259.19 450.005C259.825 451.831 258.859 453.825 257.033 454.46C255.208 455.095 253.213 454.129 252.578 452.304L252.546 452.211C251.911 450.385 252.876 448.39 254.702 447.755ZM261.212 466.479C263.038 465.844 265.033 466.81 265.668 468.636L265.7 468.729C266.335 470.555 265.369 472.549 263.544 473.184C261.718 473.819 259.723 472.854 259.088 471.028L259.056 470.935C258.421 469.109 259.387 467.114 261.212 466.479ZM267.722 485.203C269.548 484.569 271.543 485.534 272.178 487.36L272.21 487.453C272.845 489.279 271.879 491.273 270.054 491.908C268.228 492.543 266.233 491.578 265.598 489.752L265.566 489.659C264.931 487.833 265.897 485.838 267.722 485.203ZM274.232 503.927C276.058 503.293 278.053 504.258 278.688 506.084L278.72 506.177C279.355 508.003 278.389 509.998 276.564 510.632C274.738 511.267 272.743 510.302 272.108 508.476L272.076 508.383C271.441 506.557 272.407 504.562 274.232 503.927ZM280.742 522.652C282.568 522.017 284.563 522.982 285.198 524.808L285.23 524.901C285.865 526.727 284.899 528.722 283.074 529.356C281.248 529.991 279.253 529.026 278.618 527.2L278.586 527.107C277.951 525.281 278.917 523.286 280.742 522.652ZM287.253 541.376C289.078 540.741 291.073 541.706 291.708 543.532L291.74 543.625C292.375 545.451 291.41 547.446 289.584 548.081C287.758 548.715 285.763 547.75 285.128 545.924L285.096 545.831C284.461 544.005 285.427 542.01 287.253 541.376ZM293.763 560.1C295.588 559.465 297.583 560.43 298.218 562.256L298.25 562.349C298.885 564.175 297.92 566.17 296.094 566.805C294.268 567.439 292.273 566.474 291.638 564.648L291.606 564.555C290.971 562.729 291.937 560.735 293.763 560.1ZM300.273 578.824C302.098 578.189 304.093 579.155 304.728 580.98L304.76 581.074C305.395 582.899 304.43 584.894 302.604 585.529C300.778 586.164 298.783 585.198 298.149 583.372L298.116 583.279C297.481 581.453 298.447 579.459 300.273 578.824ZM306.783 597.548C308.608 596.913 310.603 597.879 311.238 599.704L311.254 599.751C311.889 601.577 310.923 603.572 309.098 604.206C307.272 604.841 305.277 603.876 304.642 602.05L304.626 602.003C303.991 600.177 304.957 598.183 306.783 597.548Z" fill="#FFE8C8"/>
<path fill-rule="evenodd" clip-rule="evenodd" d="M170.626 288.152C172.451 287.517 174.446 288.482 175.081 290.308L175.097 290.355C175.732 292.181 174.766 294.175 172.941 294.81C171.115 295.445 169.12 294.479 168.485 292.654L168.469 292.607C167.834 290.781 168.8 288.787 170.626 288.152ZM177.119 306.829C178.945 306.195 180.94 307.16 181.575 308.986L181.607 309.079C182.242 310.905 181.276 312.899 179.451 313.534C177.625 314.169 175.63 313.204 174.995 311.378L174.963 311.285C174.328 309.459 175.294 307.464 177.119 306.829ZM183.629 325.553C185.455 324.919 187.45 325.884 188.085 327.71L188.117 327.803C188.752 329.629 187.786 331.624 185.961 332.258C184.135 332.893 182.14 331.928 181.505 330.102L181.473 330.009C180.838 328.183 181.804 326.188 183.629 325.553ZM190.139 344.277C191.965 343.643 193.96 344.608 194.595 346.434L194.627 346.527C195.262 348.353 194.296 350.348 192.471 350.982C190.645 351.617 188.65 350.652 188.015 348.826L187.983 348.733C187.348 346.907 188.314 344.912 190.139 344.277ZM196.65 363.002C198.475 362.367 200.47 363.332 201.105 365.158L201.137 365.251C201.772 367.077 200.806 369.072 198.981 369.707C197.155 370.341 195.16 369.376 194.525 367.55L194.493 367.457C193.858 365.631 194.824 363.636 196.65 363.002ZM203.16 381.726C204.985 381.091 206.98 382.056 207.615 383.882L207.647 383.975C208.282 385.801 207.317 387.796 205.491 388.431C203.665 389.065 201.67 388.1 201.035 386.274L201.003 386.181C200.368 384.355 201.334 382.36 203.16 381.726ZM209.67 400.45C211.495 399.815 213.49 400.78 214.125 402.606L214.157 402.699C214.792 404.525 213.827 406.52 212.001 407.155C210.175 407.789 208.18 406.824 207.546 404.998L207.513 404.905C206.878 403.079 207.844 401.085 209.67 400.45ZM216.18 419.174C218.005 418.539 220 419.505 220.635 421.33L220.667 421.423C221.302 423.249 220.337 425.244 218.511 425.879C216.685 426.514 214.69 425.548 214.056 423.722L214.023 423.629C213.388 421.803 214.354 419.809 216.18 419.174ZM222.69 437.898C224.515 437.263 226.51 438.229 227.145 440.054L227.177 440.148C227.812 441.973 226.847 443.968 225.021 444.603C223.195 445.238 221.2 444.272 220.566 442.446L220.533 442.353C219.898 440.527 220.864 438.533 222.69 437.898ZM229.2 456.622C231.026 455.987 233.02 456.953 233.655 458.779L233.687 458.872C234.322 460.697 233.357 462.692 231.531 463.327C229.705 463.962 227.71 462.996 227.076 461.17L227.043 461.077C226.408 459.252 227.374 457.257 229.2 456.622ZM235.71 475.346C237.536 474.711 239.53 475.677 240.165 477.503L240.197 477.596C240.832 479.422 239.867 481.416 238.041 482.051C236.215 482.686 234.22 481.72 233.586 479.895L233.553 479.801C232.919 477.976 233.884 475.981 235.71 475.346ZM242.22 494.07C244.046 493.435 246.04 494.401 246.675 496.227L246.707 496.32C247.342 498.146 246.377 500.14 244.551 500.775C242.725 501.41 240.731 500.444 240.096 498.619L240.063 498.525C239.429 496.7 240.394 494.705 242.22 494.07ZM248.73 512.794C250.556 512.159 252.55 513.125 253.185 514.951L253.218 515.044C253.852 516.87 252.887 518.864 251.061 519.499C249.235 520.134 247.241 519.168 246.606 517.343L246.573 517.25C245.939 515.424 246.904 513.429 248.73 512.794ZM255.24 531.518C257.066 530.884 259.06 531.849 259.695 533.675L259.728 533.768C260.362 535.594 259.397 537.589 257.571 538.223C255.745 538.858 253.751 537.893 253.116 536.067L253.083 535.974C252.449 534.148 253.414 532.153 255.24 531.518ZM261.75 550.242C263.576 549.608 265.57 550.573 266.205 552.399L266.238 552.492C266.872 554.318 265.907 556.313 264.081 556.947C262.255 557.582 260.261 556.617 259.626 554.791L259.593 554.698C258.959 552.872 259.924 550.877 261.75 550.242ZM268.26 568.967C270.086 568.332 272.08 569.297 272.715 571.123L272.748 571.216C273.382 573.042 272.417 575.037 270.591 575.672C268.765 576.306 266.771 575.341 266.136 573.515L266.104 573.422C265.469 571.596 266.434 569.601 268.26 568.967ZM274.77 587.691C276.596 587.056 278.591 588.021 279.225 589.847L279.258 589.94C279.893 591.766 278.927 593.761 277.101 594.396C275.275 595.03 273.281 594.065 272.646 592.239L272.614 592.146C271.979 590.32 272.944 588.325 274.77 587.691ZM281.28 606.415C283.106 605.78 285.101 606.745 285.735 608.571L285.752 608.618C286.386 610.444 285.421 612.438 283.595 613.073C281.769 613.708 279.775 612.742 279.14 610.917L279.124 610.87C278.489 609.044 279.454 607.05 281.28 606.415Z" fill="#FFE8C8"/>
<path fill-rule="evenodd" clip-rule="evenodd" d="M145.123 297.019C146.949 296.384 148.943 297.349 149.578 299.175L149.594 299.222C150.229 301.047 149.264 303.042 147.438 303.677C145.612 304.312 143.617 303.346 142.983 301.52L142.966 301.474C142.332 299.648 143.297 297.653 145.123 297.019ZM151.617 315.696C153.443 315.061 155.437 316.027 156.072 317.853L156.104 317.946C156.739 319.772 155.774 321.766 153.948 322.401C152.122 323.036 150.128 322.07 149.493 320.245L149.46 320.151C148.826 318.326 149.791 316.331 151.617 315.696ZM158.127 334.42C159.953 333.785 161.947 334.751 162.582 336.577L162.615 336.67C163.249 338.496 162.284 340.49 160.458 341.125C158.632 341.76 156.638 340.794 156.003 338.969L155.97 338.875C155.336 337.05 156.301 335.055 158.127 334.42ZM164.637 353.144C166.463 352.509 168.457 353.475 169.092 355.301L169.125 355.394C169.759 357.22 168.794 359.214 166.968 359.849C165.142 360.484 163.148 359.519 162.513 357.693L162.48 357.6C161.846 355.774 162.811 353.779 164.637 353.144ZM171.147 371.868C172.973 371.234 174.967 372.199 175.602 374.025L175.635 374.118C176.269 375.944 175.304 377.939 173.478 378.573C171.652 379.208 169.658 378.243 169.023 376.417L168.99 376.324C168.356 374.498 169.321 372.503 171.147 371.868ZM177.657 390.592C179.483 389.958 181.478 390.923 182.112 392.749L182.145 392.842C182.779 394.668 181.814 396.663 179.988 397.297C178.162 397.932 176.168 396.967 175.533 395.141L175.501 395.048C174.866 393.222 175.831 391.227 177.657 390.592ZM184.167 409.317C185.993 408.682 187.988 409.647 188.622 411.473L188.655 411.566C189.29 413.392 188.324 415.387 186.498 416.021C184.672 416.656 182.678 415.691 182.043 413.865L182.011 413.772C181.376 411.946 182.341 409.951 184.167 409.317ZM190.677 428.041C192.503 427.406 194.498 428.371 195.132 430.197L195.165 430.29C195.8 432.116 194.834 434.111 193.008 434.746C191.183 435.38 189.188 434.415 188.553 432.589L188.521 432.496C187.886 430.67 188.851 428.675 190.677 428.041ZM197.187 446.765C199.013 446.13 201.008 447.095 201.642 448.921L201.675 449.014C202.31 450.84 201.344 452.835 199.518 453.47C197.693 454.104 195.698 453.139 195.063 451.313L195.031 451.22C194.396 449.394 195.361 447.4 197.187 446.765ZM203.697 465.489C205.523 464.854 207.518 465.82 208.152 467.645L208.185 467.738C208.82 469.564 207.854 471.559 206.028 472.194C204.203 472.829 202.208 471.863 201.573 470.037L201.541 469.944C200.906 468.118 201.871 466.124 203.697 465.489ZM210.207 484.213C212.033 483.578 214.028 484.544 214.663 486.369L214.695 486.463C215.33 488.288 214.364 490.283 212.538 490.918C210.713 491.553 208.718 490.587 208.083 488.761L208.051 488.668C207.416 486.842 208.381 484.848 210.207 484.213ZM216.717 502.937C218.543 502.302 220.538 503.268 221.173 505.093L221.205 505.187C221.84 507.012 220.874 509.007 219.048 509.642C217.223 510.277 215.228 509.311 214.593 507.485L214.561 507.392C213.926 505.566 214.891 503.572 216.717 502.937ZM223.227 521.661C225.053 521.026 227.048 521.992 227.683 523.818L227.715 523.911C228.35 525.736 227.384 527.731 225.559 528.366C223.733 529.001 221.738 528.035 221.103 526.21L221.071 526.116C220.436 524.291 221.402 522.296 223.227 521.661ZM229.737 540.385C231.563 539.75 233.558 540.716 234.193 542.542L234.225 542.635C234.86 544.461 233.894 546.455 232.069 547.09C230.243 547.725 228.248 546.759 227.613 544.934L227.581 544.84C226.946 543.015 227.912 541.02 229.737 540.385ZM236.247 559.109C238.073 558.474 240.068 559.44 240.703 561.266L240.735 561.359C241.37 563.185 240.404 565.179 238.579 565.814C236.753 566.449 234.758 565.484 234.123 563.658L234.091 563.565C233.456 561.739 234.422 559.744 236.247 559.109ZM242.757 577.833C244.583 577.199 246.578 578.164 247.213 579.99L247.245 580.083C247.88 581.909 246.914 583.904 245.089 584.538C243.263 585.173 241.268 584.208 240.633 582.382L240.601 582.289C239.966 580.463 240.932 578.468 242.757 577.833ZM249.268 596.557C251.093 595.923 253.088 596.888 253.723 598.714L253.755 598.807C254.39 600.633 253.425 602.628 251.599 603.262C249.773 603.897 247.778 602.932 247.143 601.106L247.111 601.013C246.476 599.187 247.442 597.192 249.268 596.557ZM255.778 615.282C257.603 614.647 259.598 615.612 260.233 617.438L260.249 617.485C260.884 619.31 259.918 621.305 258.093 621.94C256.267 622.575 254.272 621.609 253.637 619.783L253.621 619.737C252.986 617.911 253.952 615.916 255.778 615.282Z" fill="#FFE8C8"/>
<path fill-rule="evenodd" clip-rule="evenodd" d="M119.62 305.885C121.446 305.251 123.441 306.216 124.076 308.042L124.092 308.088C124.727 309.914 123.761 311.909 121.935 312.544C120.11 313.179 118.115 312.213 117.48 310.387L117.464 310.341C116.829 308.515 117.795 306.52 119.62 305.885ZM126.114 324.563C127.94 323.928 129.935 324.894 130.57 326.719L130.602 326.813C131.237 328.638 130.271 330.633 128.445 331.268C126.62 331.903 124.625 330.937 123.99 329.111L123.958 329.018C123.323 327.192 124.288 325.198 126.114 324.563ZM132.624 343.287C134.45 342.652 136.445 343.618 137.08 345.443L137.112 345.537C137.747 347.362 136.781 349.357 134.956 349.992C133.13 350.627 131.135 349.661 130.5 347.835L130.468 347.742C129.833 345.916 130.799 343.922 132.624 343.287ZM139.134 362.011C140.96 361.376 142.955 362.342 143.59 364.168L143.622 364.261C144.257 366.087 143.291 368.081 141.466 368.716C139.64 369.351 137.645 368.385 137.01 366.56L136.978 366.466C136.343 364.641 137.309 362.646 139.134 362.011ZM145.644 380.735C147.47 380.1 149.465 381.066 150.1 382.892L150.132 382.985C150.767 384.811 149.801 386.805 147.976 387.44C146.15 388.075 144.155 387.109 143.52 385.284L143.488 385.19C142.853 383.365 143.819 381.37 145.644 380.735ZM152.154 399.459C153.98 398.824 155.975 399.79 156.61 401.616L156.642 401.709C157.277 403.535 156.311 405.529 154.486 406.164C152.66 406.799 150.665 405.834 150.03 404.008L149.998 403.915C149.363 402.089 150.329 400.094 152.154 399.459ZM158.665 418.183C160.49 417.549 162.485 418.514 163.12 420.34L163.152 420.433C163.787 422.259 162.821 424.253 160.996 424.888C159.17 425.523 157.175 424.558 156.54 422.732L156.508 422.639C155.873 420.813 156.839 418.818 158.665 418.183ZM165.175 436.907C167 436.273 168.995 437.238 169.63 439.064L169.662 439.157C170.297 440.983 169.332 442.978 167.506 443.612C165.68 444.247 163.685 443.282 163.05 441.456L163.018 441.363C162.383 439.537 163.349 437.542 165.175 436.907ZM171.685 455.632C173.51 454.997 175.505 455.962 176.14 457.788L176.172 457.881C176.807 459.707 175.842 461.702 174.016 462.336C172.19 462.971 170.195 462.006 169.561 460.18L169.528 460.087C168.893 458.261 169.859 456.266 171.685 455.632ZM178.195 474.356C180.02 473.721 182.015 474.686 182.65 476.512L182.682 476.605C183.317 478.431 182.352 480.426 180.526 481.061C178.7 481.695 176.705 480.73 176.071 478.904L176.038 478.811C175.403 476.985 176.369 474.99 178.195 474.356ZM184.705 493.08C186.53 492.445 188.525 493.41 189.16 495.236L189.192 495.329C189.827 497.155 188.862 499.15 187.036 499.785C185.21 500.419 183.215 499.454 182.581 497.628L182.548 497.535C181.913 495.709 182.879 493.714 184.705 493.08ZM191.215 511.804C193.041 511.169 195.035 512.134 195.67 513.96L195.702 514.053C196.337 515.879 195.372 517.874 193.546 518.509C191.72 519.143 189.725 518.178 189.091 516.352L189.058 516.259C188.423 514.433 189.389 512.439 191.215 511.804ZM197.725 530.528C199.551 529.893 201.545 530.859 202.18 532.684L202.212 532.777C202.847 534.603 201.882 536.598 200.056 537.233C198.23 537.868 196.235 536.902 195.601 535.076L195.568 534.983C194.934 533.157 195.899 531.163 197.725 530.528ZM204.235 549.252C206.061 548.617 208.055 549.583 208.69 551.408L208.723 551.502C209.357 553.327 208.392 555.322 206.566 555.957C204.74 556.592 202.746 555.626 202.111 553.8L202.078 553.707C201.444 551.881 202.409 549.887 204.235 549.252ZM210.745 567.976C212.571 567.341 214.565 568.307 215.2 570.133L215.233 570.226C215.867 572.052 214.902 574.046 213.076 574.681C211.25 575.316 209.256 574.35 208.621 572.525L208.588 572.431C207.954 570.606 208.919 568.611 210.745 567.976ZM217.255 586.7C219.081 586.065 221.075 587.031 221.71 588.857L221.743 588.95C222.377 590.776 221.412 592.77 219.586 593.405C217.76 594.04 215.766 593.074 215.131 591.249L215.098 591.155C214.464 589.33 215.429 587.335 217.255 586.7ZM223.765 605.424C225.591 604.789 227.585 605.755 228.22 607.581L228.253 607.674C228.887 609.5 227.922 611.494 226.096 612.129C224.27 612.764 222.276 611.799 221.641 609.973L221.609 609.88C220.974 608.054 221.939 606.059 223.765 605.424ZM230.275 624.148C232.101 623.514 234.096 624.479 234.73 626.305L234.747 626.351C235.381 628.177 234.416 630.172 232.59 630.807C230.764 631.441 228.77 630.476 228.135 628.65L228.119 628.604C227.484 626.778 228.449 624.783 230.275 624.148Z" fill="#FFE8C8"/>
<path fill-rule="evenodd" clip-rule="evenodd" d="M94.1179 314.752C95.9437 314.117 97.9384 315.083 98.5732 316.909L98.5894 316.955C99.2242 318.781 98.2587 320.776 96.4329 321.411C94.6071 322.045 92.6124 321.08 91.9776 319.254L91.9614 319.207C91.3266 317.382 92.2921 315.387 94.1179 314.752ZM100.612 333.43C102.438 332.795 104.432 333.76 105.067 335.586L105.099 335.679C105.734 337.505 104.769 339.5 102.943 340.135C101.117 340.769 99.1224 339.804 98.4876 337.978L98.4552 337.885C97.8204 336.059 98.7859 334.064 100.612 333.43ZM107.122 352.154C108.948 351.519 110.942 352.484 111.577 354.31L111.609 354.403C112.244 356.229 111.279 358.224 109.453 358.859C107.627 359.494 105.632 358.528 104.998 356.702L104.965 356.609C104.33 354.783 105.296 352.789 107.122 352.154ZM113.632 370.878C115.458 370.243 117.452 371.209 118.087 373.034L118.119 373.128C118.754 374.953 117.789 376.948 115.963 377.583C114.137 378.218 112.143 377.252 111.508 375.426L111.475 375.333C110.841 373.507 111.806 371.513 113.632 370.878ZM120.142 389.602C121.968 388.967 123.962 389.933 124.597 391.758L124.63 391.852C125.264 393.677 124.299 395.672 122.473 396.307C120.647 396.942 118.653 395.976 118.018 394.15L117.985 394.057C117.351 392.231 118.316 390.237 120.142 389.602ZM126.652 408.326C128.478 407.691 130.472 408.657 131.107 410.483L131.14 410.576C131.774 412.402 130.809 414.396 128.983 415.031C127.157 415.666 125.163 414.7 124.528 412.875L124.495 412.781C123.861 410.956 124.826 408.961 126.652 408.326ZM133.162 427.05C134.988 426.415 136.982 427.381 137.617 429.207L137.65 429.3C138.284 431.126 137.319 433.12 135.493 433.755C133.667 434.39 131.673 433.424 131.038 431.599L131.005 431.505C130.371 429.68 131.336 427.685 133.162 427.05ZM139.672 445.774C141.498 445.139 143.493 446.105 144.127 447.931L144.16 448.024C144.794 449.85 143.829 451.844 142.003 452.479C140.177 453.114 138.183 452.148 137.548 450.323L137.516 450.23C136.881 448.404 137.846 446.409 139.672 445.774ZM146.182 464.498C148.008 463.864 150.003 464.829 150.637 466.655L150.67 466.748C151.305 468.574 150.339 470.568 148.513 471.203C146.687 471.838 144.693 470.873 144.058 469.047L144.026 468.954C143.391 467.128 144.356 465.133 146.182 464.498ZM152.692 483.222C154.518 482.588 156.513 483.553 157.147 485.379L157.18 485.472C157.815 487.298 156.849 489.293 155.023 489.927C153.198 490.562 151.203 489.597 150.568 487.771L150.536 487.678C149.901 485.852 150.866 483.857 152.692 483.222ZM159.202 501.946C161.028 501.312 163.023 502.277 163.657 504.103L163.69 504.196C164.325 506.022 163.359 508.017 161.533 508.651C159.708 509.286 157.713 508.321 157.078 506.495L157.046 506.402C156.411 504.576 157.376 502.581 159.202 501.946ZM165.712 520.671C167.538 520.036 169.533 521.001 170.167 522.827L170.2 522.92C170.835 524.746 169.869 526.741 168.043 527.375C166.218 528.01 164.223 527.045 163.588 525.219L163.556 525.126C162.921 523.3 163.886 521.305 165.712 520.671ZM172.222 539.395C174.048 538.76 176.043 539.725 176.678 541.551L176.71 541.644C177.345 543.47 176.379 545.465 174.553 546.1C172.728 546.734 170.733 545.769 170.098 543.943L170.066 543.85C169.431 542.024 170.396 540.029 172.222 539.395ZM178.732 558.119C180.558 557.484 182.553 558.449 183.188 560.275L183.22 560.368C183.855 562.194 182.889 564.189 181.063 564.824C179.238 565.458 177.243 564.493 176.608 562.667L176.576 562.574C175.941 560.748 176.906 558.754 178.732 558.119ZM185.242 576.843C187.068 576.208 189.063 577.174 189.698 578.999L189.73 579.092C190.365 580.918 189.399 582.913 187.574 583.548C185.748 584.183 183.753 583.217 183.118 581.391L183.086 581.298C182.451 579.472 183.417 577.478 185.242 576.843ZM191.752 595.567C193.578 594.932 195.573 595.898 196.208 597.723L196.24 597.817C196.875 599.642 195.909 601.637 194.084 602.272C192.258 602.907 190.263 601.941 189.628 600.115L189.596 600.022C188.961 598.196 189.927 596.202 191.752 595.567ZM198.262 614.291C200.088 613.656 202.083 614.622 202.718 616.448L202.75 616.541C203.385 618.367 202.419 620.361 200.594 620.996C198.768 621.631 196.773 620.665 196.138 618.84L196.106 618.746C195.471 616.921 196.437 614.926 198.262 614.291ZM204.772 633.015C206.598 632.38 208.593 633.346 209.228 635.172L209.244 635.218C209.879 637.044 208.913 639.039 207.087 639.674C205.262 640.308 203.267 639.343 202.632 637.517L202.616 637.47C201.981 635.645 202.947 633.65 204.772 633.015Z" fill="#FFE8C8"/>
<path fill-rule="evenodd" clip-rule="evenodd" d="M68.6153 323.619C70.4411 322.984 72.4358 323.95 73.0706 325.775L73.0868 325.822C73.7216 327.648 72.7561 329.643 70.9303 330.277C69.1045 330.912 67.1098 329.947 66.475 328.121L66.4588 328.074C65.824 326.248 66.7895 324.254 68.6153 323.619ZM75.1092 342.297C76.935 341.662 78.9297 342.627 79.5645 344.453L79.5969 344.546C80.2317 346.372 79.2662 348.367 77.4404 349.001C75.6146 349.636 73.6199 348.671 72.9851 346.845L72.9527 346.752C72.3179 344.926 73.2834 342.931 75.1092 342.297ZM81.6192 361.021C83.445 360.386 85.4397 361.351 86.0745 363.177L86.1069 363.27C86.7417 365.096 85.7762 367.091 83.9504 367.726C82.1246 368.36 80.1299 367.395 79.4951 365.569L79.4627 365.476C78.828 363.65 79.7934 361.655 81.6192 361.021ZM88.1293 379.745C89.9551 379.11 91.9498 380.075 92.5846 381.901L92.617 381.994C93.2517 383.82 92.2863 385.815 90.4605 386.45C88.6347 387.084 86.64 386.119 86.0052 384.293L85.9728 384.2C85.338 382.374 86.3035 380.379 88.1293 379.745ZM94.6393 398.469C96.4651 397.834 98.4598 398.799 99.0946 400.625L99.127 400.718C99.7618 402.544 98.7963 404.539 96.9705 405.174C95.1447 405.809 93.15 404.843 92.5152 403.017L92.4828 402.924C91.848 401.098 92.8135 399.104 94.6393 398.469ZM101.149 417.193C102.975 416.558 104.97 417.524 105.605 419.349L105.637 419.443C106.272 421.268 105.306 423.263 103.481 423.898C101.655 424.533 99.6601 423.567 99.0253 421.741L98.9929 421.648C98.3581 419.822 99.3236 417.828 101.149 417.193ZM107.659 435.917C109.485 435.282 111.48 436.248 112.115 438.073L112.147 438.167C112.782 439.992 111.816 441.987 109.991 442.622C108.165 443.257 106.17 442.291 105.535 440.465L105.503 440.372C104.868 438.546 105.834 436.552 107.659 435.917ZM114.169 454.641C115.995 454.006 117.99 454.972 118.625 456.798L118.657 456.891C119.292 458.716 118.326 460.711 116.501 461.346C114.675 461.981 112.68 461.015 112.045 459.189L112.013 459.096C111.378 457.271 112.344 455.276 114.169 454.641ZM120.68 473.365C122.505 472.73 124.5 473.696 125.135 475.522L125.167 475.615C125.802 477.441 124.836 479.435 123.011 480.07C121.185 480.705 119.19 479.739 118.555 477.914L118.523 477.82C117.888 475.995 118.854 474 120.68 473.365ZM127.19 492.089C129.015 491.454 131.01 492.42 131.645 494.246L131.677 494.339C132.312 496.165 131.347 498.159 129.521 498.794C127.695 499.429 125.7 498.463 125.065 496.638L125.033 496.544C124.398 494.719 125.364 492.724 127.19 492.089ZM133.7 510.813C135.525 510.178 137.52 511.144 138.155 512.97L138.187 513.063C138.822 514.889 137.857 516.883 136.031 517.518C134.205 518.153 132.21 517.188 131.576 515.362L131.543 515.269C130.908 513.443 131.874 511.448 133.7 510.813ZM140.21 529.537C142.035 528.903 144.03 529.868 144.665 531.694L144.697 531.787C145.332 533.613 144.367 535.607 142.541 536.242C140.715 536.877 138.72 535.912 138.086 534.086L138.053 533.993C137.418 532.167 138.384 530.172 140.21 529.537ZM146.72 548.261C148.545 547.627 150.54 548.592 151.175 550.418L151.207 550.511C151.842 552.337 150.877 554.332 149.051 554.966C147.225 555.601 145.23 554.636 144.596 552.81L144.563 552.717C143.928 550.891 144.894 548.896 146.72 548.261ZM153.23 566.986C155.056 566.351 157.05 567.316 157.685 569.142L157.717 569.235C158.352 571.061 157.387 573.056 155.561 573.69C153.735 574.325 151.74 573.36 151.106 571.534L151.073 571.441C150.438 569.615 151.404 567.62 153.23 566.986ZM159.74 585.71C161.566 585.075 163.56 586.04 164.195 587.866L164.227 587.959C164.862 589.785 163.897 591.78 162.071 592.415C160.245 593.049 158.25 592.084 157.616 590.258L157.583 590.165C156.949 588.339 157.914 586.344 159.74 585.71ZM166.25 604.434C168.076 603.799 170.07 604.764 170.705 606.59L170.738 606.683C171.372 608.509 170.407 610.504 168.581 611.139C166.755 611.773 164.761 610.808 164.126 608.982L164.093 608.889C163.459 607.063 164.424 605.069 166.25 604.434ZM172.76 623.158C174.586 622.523 176.58 623.489 177.215 625.314L177.248 625.408C177.882 627.233 176.917 629.228 175.091 629.863C173.265 630.498 171.271 629.532 170.636 627.706L170.603 627.613C169.969 625.787 170.934 623.793 172.76 623.158ZM179.27 641.882C181.096 641.247 183.09 642.213 183.725 644.038L183.741 644.085C184.376 645.911 183.411 647.906 181.585 648.54C179.759 649.175 177.764 648.21 177.13 646.384L177.113 646.337C176.479 644.511 177.444 642.517 179.27 641.882Z" fill="#FFE8C8"/>
<path fill-rule="evenodd" clip-rule="evenodd" d="M43.1128 332.486C44.9386 331.851 46.9333 332.816 47.5681 334.642L47.5843 334.689C48.2191 336.515 47.2536 338.509 45.4278 339.144C43.602 339.779 41.6073 338.813 40.9725 336.988L40.9563 336.941C40.3215 335.115 41.287 333.121 43.1128 332.486ZM49.6066 351.163C51.4324 350.529 53.4271 351.494 54.0619 353.32L54.0943 353.413C54.7291 355.239 53.7636 357.233 51.9378 357.868C50.112 358.503 48.1173 357.538 47.4825 355.712L47.4502 355.619C46.8154 353.793 47.7808 351.798 49.6066 351.163ZM56.1167 369.887C57.9425 369.253 59.9372 370.218 60.572 372.044L60.6044 372.137C61.2392 373.963 60.2737 375.958 58.4479 376.592C56.6221 377.227 54.6274 376.262 53.9926 374.436L53.9602 374.343C53.3254 372.517 54.2909 370.522 56.1167 369.887ZM62.6267 388.611C64.4525 387.977 66.4472 388.942 67.082 390.768L67.1144 390.861C67.7492 392.687 66.7837 394.682 64.9579 395.316C63.1321 395.951 61.1374 394.986 60.5026 393.16L60.4702 393.067C59.8355 391.241 60.8009 389.246 62.6267 388.611ZM69.1368 407.336C70.9626 406.701 72.9573 407.666 73.5921 409.492L73.6245 409.585C74.2593 411.411 73.2938 413.406 71.468 414.041C69.6422 414.675 67.6475 413.71 67.0127 411.884L66.9803 411.791C66.3455 409.965 67.311 407.97 69.1368 407.336ZM75.6468 426.06C77.4726 425.425 79.4673 426.39 80.1021 428.216L80.1345 428.309C80.7693 430.135 79.8038 432.13 77.978 432.765C76.1522 433.399 74.1575 432.434 73.5227 430.608L73.4903 430.515C72.8555 428.689 73.821 426.694 75.6468 426.06ZM82.1569 444.784C83.9827 444.149 85.9774 445.114 86.6122 446.94L86.6446 447.033C87.2793 448.859 86.3139 450.854 84.4881 451.489C82.6623 452.123 80.6676 451.158 80.0328 449.332L80.0004 449.239C79.3656 447.413 80.3311 445.419 82.1569 444.784ZM88.6669 463.508C90.4927 462.873 92.4874 463.839 93.1222 465.664L93.1546 465.758C93.7894 467.583 92.8239 469.578 90.9981 470.213C89.1723 470.848 87.1776 469.882 86.5428 468.056L86.5104 467.963C85.8756 466.137 86.8411 464.143 88.6669 463.508ZM95.177 482.232C97.0028 481.597 98.9975 482.563 99.6323 484.388L99.6646 484.482C100.299 486.307 99.3339 488.302 97.5082 488.937C95.6824 489.572 93.6877 488.606 93.0529 486.78L93.0205 486.687C92.3857 484.861 93.3512 482.867 95.177 482.232ZM101.687 500.956C103.513 500.321 105.507 501.287 106.142 503.113L106.175 503.206C106.809 505.031 105.844 507.026 104.018 507.661C102.192 508.296 100.198 507.33 99.5629 505.504L99.5305 505.411C98.8957 503.586 99.8612 501.591 101.687 500.956ZM108.197 519.68C110.023 519.045 112.018 520.011 112.652 521.837L112.685 521.93C113.32 523.756 112.354 525.75 110.528 526.385C108.702 527.02 106.708 526.054 106.073 524.229L106.041 524.135C105.406 522.31 106.371 520.315 108.197 519.68ZM114.707 538.404C116.533 537.769 118.528 538.735 119.162 540.561L119.195 540.654C119.83 542.48 118.864 544.474 117.038 545.109C115.212 545.744 113.218 544.778 112.583 542.953L112.551 542.859C111.916 541.034 112.881 539.039 114.707 538.404ZM121.217 557.128C123.043 556.493 125.038 557.459 125.672 559.285L125.705 559.378C126.34 561.204 125.374 563.198 123.548 563.833C121.723 564.468 119.728 563.502 119.093 561.677L119.061 561.584C118.426 559.758 119.391 557.763 121.217 557.128ZM127.727 575.852C129.553 575.218 131.548 576.183 132.182 578.009L132.215 578.102C132.85 579.928 131.884 581.922 130.058 582.557C128.233 583.192 126.238 582.227 125.603 580.401L125.571 580.308C124.936 578.482 125.901 576.487 127.727 575.852ZM134.237 594.576C136.063 593.942 138.058 594.907 138.693 596.733L138.725 596.826C139.36 598.652 138.394 600.647 136.568 601.281C134.743 601.916 132.748 600.951 132.113 599.125L132.081 599.032C131.446 597.206 132.411 595.211 134.237 594.576ZM140.747 613.301C142.573 612.666 144.568 613.631 145.203 615.457L145.235 615.55C145.87 617.376 144.904 619.371 143.078 620.005C141.253 620.64 139.258 619.675 138.623 617.849L138.591 617.756C137.956 615.93 138.922 613.935 140.747 613.301ZM147.257 632.025C149.083 631.39 151.078 632.355 151.713 634.181L151.745 634.274C152.38 636.1 151.414 638.095 149.589 638.73C147.763 639.364 145.768 638.399 145.133 636.573L145.101 636.48C144.466 634.654 145.432 632.659 147.257 632.025ZM153.767 650.749C155.593 650.114 157.588 651.079 158.223 652.905L158.239 652.952C158.874 654.778 157.908 656.772 156.082 657.407C154.257 658.042 152.262 657.076 151.627 655.251L151.611 655.204C150.976 653.378 151.942 651.384 153.767 650.749Z" fill="#FFE8C8"/>
</g>
<defs>
<clipPath id="clip0">
<rect width="281" height="496" fill="white"/>
</clipPath>
</defs>
</svg>
