<svg width="281" height="496" viewBox="0 0 281 496" fill="none" xmlns="http://www.w3.org/2000/svg">
<g clip-path="url(#clip0)">
<path d="M190.5 138.217C88.5 146.617 21 43.0506 0 -9.78275C106 -16.6161 320.8 -23.5827 332 3.21725C346 36.7173 318 127.717 190.5 138.217Z" fill="#FFEED8"/>
<line x1="176.497" y1="289.816" x2="287.168" y2="608.125" stroke="#FFE8C8" stroke-width="7" stroke-linecap="round" stroke-dasharray="0.1 20"/>
<line x1="157.607" y1="296.384" x2="268.277" y2="614.693" stroke="#FFE8C8" stroke-width="7" stroke-linecap="round" stroke-dasharray="0.1 20"/>
<line x1="138.716" y1="302.952" x2="249.386" y2="621.261" stroke="#FFE8C8" stroke-width="7" stroke-linecap="round" stroke-dasharray="0.1 20"/>
<line x1="119.825" y1="309.52" x2="230.496" y2="627.829" stroke="#FFE8C8" stroke-width="7" stroke-linecap="round" stroke-dasharray="0.1 20"/>
<line x1="100.934" y1="316.088" x2="211.605" y2="634.397" stroke="#FFE8C8" stroke-width="7" stroke-linecap="round" stroke-dasharray="0.1 20"/>
<line x1="82.0432" y1="322.656" x2="192.714" y2="640.965" stroke="#FFE8C8" stroke-width="7" stroke-linecap="round" stroke-dasharray="0.1 20"/>
<line x1="63.1526" y1="329.224" x2="173.823" y2="647.533" stroke="#FFE8C8" stroke-width="7" stroke-linecap="round" stroke-dasharray="0.1 20"/>
<line x1="44.2619" y1="335.792" x2="154.933" y2="654.101" stroke="#FFE8C8" stroke-width="7" stroke-linecap="round" stroke-dasharray="0.1 20"/>
<line x1="270.007" y1="257.304" x2="380.677" y2="575.614" stroke="#FFE8C8" stroke-width="7" stroke-linecap="round" stroke-dasharray="0.1 20"/>
<line x1="251.116" y1="263.872" x2="361.787" y2="582.182" stroke="#FFE8C8" stroke-width="7" stroke-linecap="round" stroke-dasharray="0.1 20"/>
<line x1="232.225" y1="270.44" x2="342.896" y2="588.75" stroke="#FFE8C8" stroke-width="7" stroke-linecap="round" stroke-dasharray="0.1 20"/>
<line x1="213.334" y1="277.008" x2="324.005" y2="595.318" stroke="#FFE8C8" stroke-width="7" stroke-linecap="round" stroke-dasharray="0.1 20"/>
<line x1="194.444" y1="283.576" x2="305.114" y2="601.886" stroke="#FFE8C8" stroke-width="7" stroke-linecap="round" stroke-dasharray="0.1 20"/>
</g>
<defs>
<clipPath id="clip0">
<rect width="281" height="496" fill="white"/>
</clipPath>
</defs>
</svg>
