<svg width="590" height="352" viewBox="0 0 590 352" fill="none" xmlns="http://www.w3.org/2000/svg">
<path opacity="0.7" d="M545 197.762C545 282.945 429.489 352 287 352C144.511 352 29 282.945 29 197.762C29 112.578 150.772 -29.5547 287 5.43512C509.52 80.8296 545 112.578 545 197.762Z" fill="#E8EDFF"/>
<path d="M416.447 159.077H388.208V172.615H416.447V159.077Z" fill="white" stroke="black" stroke-miterlimit="10"/>
<path d="M402.366 171.077C405.256 171.077 407.598 168.735 407.598 165.846C407.598 162.957 405.256 160.615 402.366 160.615C399.476 160.615 397.134 162.957 397.134 165.846C397.134 168.735 399.476 171.077 402.366 171.077Z" fill="white" stroke="black" stroke-miterlimit="10"/>
<path d="M402.058 169.077V168.461C401.519 168.384 401.058 168.231 400.75 168C400.442 167.692 400.288 167.308 400.288 166.769H401.365C401.365 167 401.442 167.154 401.596 167.308C401.75 167.461 401.904 167.538 402.135 167.538V166.231L401.904 166.154C401.442 166.077 401.135 165.846 400.904 165.692C400.673 165.461 400.519 165.154 400.519 164.769C400.519 164.461 400.596 164.231 400.75 164C400.904 163.769 401.058 163.615 401.365 163.461C401.596 163.308 401.904 163.231 402.212 163.231V162.615H402.827V163.231C403.289 163.308 403.674 163.461 403.981 163.692C404.289 164 404.443 164.308 404.443 164.769H403.366C403.366 164.461 403.135 164.231 402.827 164.154V165.384H402.981C403.289 165.461 403.52 165.538 403.751 165.692C403.981 165.846 404.135 166 404.289 166.154C404.443 166.384 404.52 166.615 404.52 166.923C404.52 167.384 404.366 167.692 404.058 168C403.751 168.308 403.366 168.461 402.75 168.461V169.077H402.058ZM402.135 165.231V164.077C401.981 164.077 401.827 164.154 401.75 164.308C401.673 164.384 401.596 164.538 401.596 164.692C401.596 164.846 401.673 164.923 401.75 165.077C401.827 165.077 401.981 165.154 402.135 165.231ZM402.673 167.538C402.827 167.461 402.981 167.461 403.135 167.308C403.212 167.231 403.289 167.077 403.289 166.923C403.289 166.769 403.212 166.692 403.135 166.538C403.058 166.461 402.904 166.384 402.673 166.308V167.538Z" fill="black"/>
<path d="M432.99 168.692H404.751V182.231H432.99V168.692Z" fill="white" stroke="black" stroke-miterlimit="10"/>
<path d="M418.909 180.692C421.799 180.692 424.141 178.351 424.141 175.462C424.141 172.573 421.799 170.231 418.909 170.231C416.019 170.231 413.677 172.573 413.677 175.462C413.677 178.351 416.019 180.692 418.909 180.692Z" fill="white" stroke="black" stroke-miterlimit="10"/>
<path d="M418.601 178.692V178.077C418.062 178 417.601 177.846 417.293 177.615C416.985 177.308 416.831 176.923 416.831 176.385H417.908C417.908 176.615 417.985 176.769 418.139 176.923C418.293 177.077 418.447 177.154 418.678 177.154V175.846L418.447 175.769C417.985 175.692 417.677 175.461 417.447 175.308C417.216 175.077 417.062 174.769 417.062 174.385C417.062 174.077 417.139 173.846 417.293 173.615C417.447 173.385 417.601 173.231 417.908 173.077C418.139 172.923 418.447 172.846 418.755 172.846V172.231H419.37V172.846C419.832 172.923 420.217 173.077 420.524 173.308C420.832 173.615 420.986 173.923 420.986 174.385H419.832C419.832 174.077 419.601 173.846 419.293 173.769V175H419.447C419.755 175.077 419.986 175.154 420.217 175.308C420.447 175.461 420.601 175.615 420.755 175.769C420.909 176 420.986 176.231 420.986 176.538C420.986 177 420.832 177.308 420.524 177.615C420.217 177.923 419.832 178.077 419.216 178.077V178.692H418.601ZM418.601 174.846V173.692C418.447 173.692 418.293 173.769 418.216 173.923C418.139 174 418.062 174.154 418.062 174.308C418.062 174.461 418.139 174.538 418.216 174.692C418.37 174.769 418.447 174.846 418.601 174.846ZM419.216 177.154C419.37 177.077 419.524 177.077 419.678 176.923C419.755 176.846 419.832 176.692 419.832 176.538C419.832 176.385 419.755 176.308 419.678 176.154C419.601 176.077 419.447 176 419.216 175.923V177.154Z" fill="black"/>
<path d="M399.519 175.923C399.519 182.615 396.441 182.615 396.441 189.308C396.441 196 399.519 196 399.519 202.692C399.519 205.231 399.057 206.769 398.518 208.154" stroke="black" stroke-miterlimit="10"/>
<path d="M418.293 187.539C418.293 194.231 415.215 194.231 415.215 200.923C415.215 207.616 418.293 207.615 418.293 214.308C418.293 216.846 417.831 218.385 417.293 219.769" stroke="black" stroke-miterlimit="10"/>
<path d="M437.76 153.385C439.885 153.385 441.608 151.663 441.608 149.539C441.608 147.414 439.885 145.692 437.76 145.692C435.636 145.692 433.913 147.414 433.913 149.539C433.913 151.663 435.636 153.385 437.76 153.385Z" fill="white" stroke="black" stroke-miterlimit="10"/>
<path d="M381.514 180.769C382.958 180.769 384.13 179.598 384.13 178.154C384.13 176.71 382.958 175.539 381.514 175.539C380.069 175.539 378.897 176.71 378.897 178.154C378.897 179.598 380.069 180.769 381.514 180.769Z" fill="white" stroke="black" stroke-miterlimit="10"/>
<path d="M52 336L589 336" stroke="black" stroke-miterlimit="10" stroke-linecap="round" stroke-linejoin="round"/>
<path d="M358.122 331.461H102.05L131.443 120.154C132.289 114 137.598 109.385 143.831 109.385H316.495C322.728 109.385 328.037 114 328.883 120.154L358.122 331.461Z" fill="#F6F8FF" stroke="black" stroke-miterlimit="10"/>
<path d="M230.625 240.077C216.159 240.077 204.387 228.308 204.387 213.846V211.923C204.387 197.462 216.159 185.692 230.625 185.692C245.091 185.692 256.863 197.462 256.863 211.923V213.846C256.863 228.308 245.091 240.077 230.625 240.077Z" fill="black" stroke="black" stroke-miterlimit="10"/>
<path opacity="0.7" d="M214.543 209.385V249C214.543 257.846 221.699 265 230.548 265C239.396 265 246.552 257.846 246.552 249V209.385C246.552 200.538 239.396 193.385 230.548 193.385C221.776 193.385 214.543 200.538 214.543 209.385Z" fill="white" stroke="black" stroke-miterlimit="10"/>
<path d="M214.543 225.692C214.543 234.539 221.699 241.692 230.548 241.692C239.396 241.692 246.552 234.539 246.552 225.692" stroke="black" stroke-miterlimit="10"/>
<path d="M214.543 211.461C214.543 220.308 221.699 227.461 230.548 227.461C239.396 227.461 246.552 220.308 246.552 211.461" stroke="black" stroke-miterlimit="10"/>
<path d="M356.66 335.461H103.589C98.0485 335.461 93.5088 331 93.5088 325.385C93.5088 319.846 97.9716 315.308 103.589 315.308H356.66C362.2 315.308 366.74 319.769 366.74 325.385C366.74 330.923 362.2 335.461 356.66 335.461Z" fill="#4864EF" stroke="black" stroke-miterlimit="10"/>
<path opacity="0.7" d="M367.433 264.769H229.624C221.468 264.769 214.928 258.154 214.928 250.077V238.923H341.502C355.814 238.923 367.433 250.462 367.433 264.769Z" fill="white" stroke="black" stroke-miterlimit="10"/>
<path d="M238.011 239.308V264.769" stroke="black" stroke-miterlimit="10"/>
<path d="M271.559 239.308V264.769" stroke="black" stroke-miterlimit="10"/>
<path d="M305.107 239.308V264.769" stroke="black" stroke-miterlimit="10"/>
<path d="M338.732 239.308V264.769" stroke="black" stroke-miterlimit="10"/>
<path d="M1 335.615H30.4699" stroke="black" stroke-miterlimit="10" stroke-linecap="round" stroke-linejoin="round"/>
<path d="M463.951 278.57L463.951 335.417L469.029 335.417L469.029 278.57L463.951 278.57Z" fill="#FFF8F6" stroke="black" stroke-miterlimit="10"/>
<path d="M438.301 278.62L438.301 335.466L443.379 335.466L443.379 278.62L438.301 278.62Z" fill="#FFF8F6" stroke="black" stroke-miterlimit="10"/>
<path d="M456.514 273.224L467.44 273.224L467.44 259.07L456.514 259.07L456.514 273.224Z" fill="white" stroke="black" stroke-miterlimit="10"/>
<path d="M465.614 270.539H468C470.462 270.539 472.462 268.539 472.462 266.077C472.462 263.615 470.462 261.615 468 261.615H465.614V270.539Z" stroke="black" stroke-miterlimit="10"/>
<path d="M466.999 235.539C466.999 242.923 463.614 242.923 463.614 250.308C463.614 253.077 464.075 254.846 464.691 256.308" stroke="black" stroke-miterlimit="10" stroke-linecap="round"/>
<path d="M459.305 249.462C459.305 252.231 459.766 254 460.382 255.462" stroke="black" stroke-miterlimit="10" stroke-linecap="round"/>
<path d="M459.305 219.846C459.305 227.231 462.69 227.231 462.69 234.615C462.69 238.231 461.844 240.154 460.997 241.923" stroke="black" stroke-miterlimit="10" stroke-linecap="round"/>
<path d="M436.102 278.828L471.188 278.828L471.188 273.751L436.102 273.751L436.102 278.828Z" fill="#FFF8F6" stroke="black" stroke-miterlimit="10"/>
<path d="M436.102 318.445L471.188 318.445L471.188 313.368L436.102 313.368L436.102 318.445Z" fill="#FFF8F6" stroke="black" stroke-miterlimit="10"/>
<path d="M209.464 207C224.465 207 236.626 194.843 236.626 179.846C236.626 164.85 224.465 152.692 209.464 152.692C194.463 152.692 182.303 164.85 182.303 179.846C182.303 194.843 194.463 207 209.464 207Z" fill="#F9F9F9" stroke="black" stroke-miterlimit="10"/>
<path d="M425.372 335.385H375.204C372.203 335.385 369.587 333.154 369.125 330.231L364.893 303.539C364.431 300.539 366.74 297.769 369.817 297.769H430.758C433.836 297.769 436.144 300.539 435.682 303.539L431.45 330.231C430.912 333.231 428.373 335.385 425.372 335.385Z" fill="#FFF6BA" stroke="black" stroke-miterlimit="10"/>
<path d="M397.902 304.231V281.923C397.902 278.539 400.672 275.769 404.058 275.769C407.444 275.769 410.214 278.539 410.214 281.923V297.692" stroke="black" stroke-miterlimit="10"/>
<path d="M397.903 307.077C399.475 307.077 400.75 305.803 400.75 304.231C400.75 302.659 399.475 301.385 397.903 301.385C396.33 301.385 395.056 302.659 395.056 304.231C395.056 305.803 396.33 307.077 397.903 307.077Z" stroke="black" stroke-miterlimit="10"/>
<path d="M370.202 304.462H377.127" stroke="black" stroke-miterlimit="10"/>
<path d="M370.741 308.154H378.435" stroke="black" stroke-miterlimit="10"/>
<path d="M371.203 311.846H379.82" stroke="black" stroke-miterlimit="10"/>
<path d="M371.664 315.462H381.128" stroke="black" stroke-miterlimit="10"/>
<path d="M372.126 319.154H382.514" stroke="black" stroke-miterlimit="10"/>
<path d="M372.587 322.846H383.821" stroke="black" stroke-miterlimit="10"/>
<path d="M373.049 326.539H385.206" stroke="black" stroke-miterlimit="10"/>
<path d="M373.511 330.154H386.514" stroke="black" stroke-miterlimit="10"/>
<path d="M231.317 232.308C229.855 232.308 228.547 232.538 227.239 232.923C233.318 234.692 237.781 240.308 237.781 247C237.781 253.692 233.318 259.308 227.239 261.077C228.547 261.461 229.932 261.692 231.317 261.692C239.397 261.692 246.014 255.154 246.014 247C246.014 238.846 239.397 232.308 231.317 232.308Z" fill="#FDEB3B" stroke="black" stroke-miterlimit="10"/>
<path d="M231.24 232.308C232.702 232.308 234.01 232.538 235.319 232.923C229.24 234.692 224.777 240.308 224.777 247C224.777 253.692 229.24 259.308 235.319 261.077C234.01 261.461 232.625 261.692 231.24 261.692C223.161 261.692 216.544 255.154 216.544 247C216.544 238.846 223.161 232.308 231.24 232.308Z" fill="#0040FF" stroke="black" stroke-miterlimit="10"/>
<path d="M231.317 261.615C235.864 261.615 239.55 255.037 239.55 246.923C239.55 238.809 235.864 232.231 231.317 232.231C226.77 232.231 223.084 238.809 223.084 246.923C223.084 255.037 226.77 261.615 231.317 261.615Z" fill="#A0AAB8" stroke="black" stroke-miterlimit="10"/>
<path d="M231.317 235.154C233.867 235.154 235.934 234.431 235.934 233.538C235.934 232.646 233.867 231.923 231.317 231.923C228.767 231.923 226.7 232.646 226.7 233.538C226.7 234.431 228.767 235.154 231.317 235.154Z" fill="#FDEB3B" stroke="black" stroke-miterlimit="10"/>
<path d="M370.28 224.385C368.664 222.769 366.894 221.385 365.047 220.308C369.741 229.308 368.202 240.769 360.431 248.154C352.659 255.538 341.272 256.615 332.423 251.538C333.423 253.461 334.731 255.308 336.27 256.923C345.273 266.308 360.123 266.615 369.51 257.692C378.898 248.692 379.282 233.769 370.28 224.385Z" fill="#FDEB3B" stroke="black" stroke-miterlimit="10"/>
<path d="M370.203 224.385C371.819 226 373.05 227.846 374.05 229.769C365.201 224.692 353.736 225.692 346.042 233.154C338.271 240.539 336.732 251.923 341.425 261C339.579 259.923 337.809 258.539 336.193 256.923C327.191 247.539 327.575 232.692 336.963 223.692C346.35 214.616 361.277 215 370.203 224.385Z" fill="#0040FF" stroke="black" stroke-miterlimit="10"/>
<path d="M362.358 250.127C371.757 241.142 375.305 229.603 370.283 224.352C365.261 219.101 353.571 222.127 344.172 231.111C334.773 240.096 331.224 251.636 336.247 256.887C341.269 262.137 352.959 259.111 362.358 250.127Z" fill="#A0AAB8" stroke="black" stroke-miterlimit="10"/>
<path d="M373.95 231.011C374.995 230.013 373.58 226.839 370.79 223.922C368 221.004 364.891 219.449 363.847 220.447C362.803 221.445 364.218 224.619 367.008 227.537C369.798 230.454 372.906 232.009 373.95 231.011Z" fill="#FDEB3B" stroke="black" stroke-miterlimit="10"/>
<path d="M492.006 204.308C492.622 206.846 492.314 208.077 493.776 209.615C496.392 212.231 497.7 210.769 500.316 213.538L516.629 229.077C516.629 229.077 524.554 223.538 535.018 222.769C545.483 222 535.48 232.769 535.48 232.769C535.48 232.769 513.012 238.692 513.012 238.538C512.935 238.462 492.545 212.077 491.775 210.077C491.16 208.538 490.467 203.154 490.467 203.154C490.467 203.154 491.698 202.923 492.006 204.308Z" fill="black" stroke="black" stroke-miterlimit="10"/>
<path d="M535.172 211.846L548.253 212.615L548.407 216.615L527.786 221.231L529.325 215.923C530.094 213.385 532.479 211.692 535.172 211.846Z" fill="black" stroke="black" stroke-miterlimit="10"/>
<path d="M548.638 205.923C548.638 205.923 547.791 211.538 548.253 215.846C548.561 218.692 532.479 218.692 534.172 215.923C535.865 213.154 535.096 203.923 535.096 203.923L544.098 196.923L548.638 205.923Z" fill="white" stroke="black" stroke-miterlimit="10"/>
<path d="M542.405 200.231C542.405 200.231 542.097 207.077 535.018 213.923C535.634 207.462 534.941 205.846 534.941 205.846C534.941 205.846 537.327 207.616 542.405 200.231Z" fill="#E6EBFF"/>
<path d="M540.713 196.154C539.943 192.846 537.173 190.231 533.634 189.769L530.094 189.385C530.094 189.385 528.94 190.692 528.555 192.154C527.709 194.846 529.171 194.923 529.171 196.692C529.171 199.308 526.939 199.231 526.939 200C526.939 200.769 528.248 200.923 528.324 203C528.324 203.539 529.556 210.462 533.403 209.769C539.251 208.769 540.405 202.308 540.405 202.308C541.867 202.154 543.021 201.077 543.252 199.539C543.329 197.923 542.251 196.462 540.713 196.154Z" fill="white" stroke="black" stroke-miterlimit="10"/>
<path d="M547.714 208.769C548.561 202.154 552.023 202 551.254 195.385C551.1 189.846 547.714 185.462 540.558 184.615C536.25 184.154 532.402 185.923 530.171 189.385L533.71 189.769C536.557 190.077 537.019 192.923 537.404 195.769C537.558 196.692 538.481 197.154 539.327 196.769C541.713 195.539 543.405 198.231 543.252 199.539C543.098 201 541.867 202.154 540.405 202.308L541.02 203.539C541.943 205.385 543.482 206.846 545.406 207.615L547.714 208.769Z" fill="black" stroke="black" stroke-miterlimit="10"/>
<path d="M547.022 192.539C547.022 192.539 558.641 192.539 562.642 201.385C566.643 210.231 554.948 217.539 560.565 227.231C553.948 223.154 551.485 216.539 552.639 208.462C553.64 200.462 551.562 194.615 547.022 192.539Z" fill="black" stroke="black" stroke-miterlimit="10"/>
<path d="M550.407 198.769C549.638 198.692 549.022 198 549.176 197.154L549.715 192.538C549.792 191.769 550.484 191.154 551.331 191.308C552.1 191.385 552.716 192.077 552.562 192.923L552.023 197.538C551.869 198.231 551.177 198.846 550.407 198.769Z" fill="#FDEB3B" stroke="black" stroke-miterlimit="10"/>
<path d="M448.84 330.154C448.84 330.154 442.915 329.461 442.915 335.461C449.917 335.385 470.538 335.231 470.538 335.231L469.461 327.154L448.84 330.154Z" fill="black" stroke="black" stroke-miterlimit="10"/>
<path d="M469.23 329.923L448.917 330.385C448.917 330.385 458.304 325.385 460.382 323.154C462.459 320.923 464.614 315.385 464.614 315.385L469.923 314.846L469.23 329.923Z" fill="white" stroke="black" stroke-miterlimit="10"/>
<path d="M534.71 284.385C534.325 295.462 498.546 288.769 493.083 292.692C489.159 306.385 470.23 329.462 470.23 329.462L458.919 321L477.54 283.385C480.387 277.462 489.544 272.462 496.084 271.692L526.477 268.154C526.477 268.308 535.249 270.231 534.71 284.385Z" fill="black" stroke="black" stroke-miterlimit="10"/>
<path d="M443.069 303.462C443.069 303.462 438.299 299.846 435.298 305C441.376 308.539 459.228 318.846 459.228 318.846L462.382 311.385L443.069 303.462Z" fill="black" stroke="black" stroke-miterlimit="10"/>
<path d="M460.767 313.615L443.069 303.692C443.069 303.692 453.765 304.154 456.612 303.308C459.459 302.462 464.152 298.692 464.152 298.692L469 300.923L460.767 313.615Z" fill="white" stroke="black" stroke-miterlimit="10"/>
<path d="M514.551 275.077C508.626 272.077 503.779 271.923 496.7 272.231C493.853 272.308 491.314 274.154 490.391 276.846C485.158 291.846 465.23 311.308 465.23 311.308L454.534 302.077L477.002 267C480.311 261.308 486.082 258.616 495.931 262.769C508.55 268.077 520.63 276.077 520.63 276.077C520.63 276.077 521.861 278.846 514.551 275.077Z" fill="white" stroke="black" stroke-miterlimit="10"/>
<path d="M515.09 235.154C515.09 235.154 510.319 237.923 509.935 245.077C513.397 245.769 514.782 246.461 514.782 246.461L515.09 235.154Z" fill="#E6EBFF"/>
<path d="M549.715 217.231C549.715 217.231 554.639 226.385 551.716 233C548.33 240.769 545.714 250.615 540.789 267.846C539.558 287.923 534.634 298.385 533.172 301.615L526.708 298.769C510.396 291.615 506.164 268.077 506.164 268.077C508.934 261.769 517.937 243.846 518.552 239.308C519.552 232.385 522.169 223 528.555 220.615C535.018 218.385 549.715 217.231 549.715 217.231Z" fill="#FDEB3B" stroke="black" stroke-miterlimit="10"/>
<path d="M536.865 213.385L549.407 214.154C549.638 214.154 549.869 214.385 549.869 214.615V216.385C549.869 217.154 549.33 217.769 548.638 217.923L529.401 222.769L530.94 217.539C531.71 214.923 534.172 213.231 536.865 213.385Z" fill="#FDEB3B" stroke="black" stroke-miterlimit="10"/>
<path d="M490.775 211.846C490.467 210.846 492.545 204.692 492.545 204.692C492.545 204.692 493.93 204.923 493.776 206.308C493.699 207.308 492.93 209.308 492.699 210.385C492.16 212.846 494.546 214.615 496.007 216.462" fill="white"/>
<path d="M490.775 211.846C490.467 210.846 492.545 204.692 492.545 204.692C492.545 204.692 493.93 204.923 493.776 206.308C493.699 207.308 492.93 209.308 492.699 210.385C492.16 212.846 494.546 214.615 496.007 216.462" stroke="black" stroke-miterlimit="10"/>
<path d="M489.006 211.154C488.698 210.154 490.775 204 490.775 204C490.775 204 492.16 204.231 492.007 205.615C491.93 206.615 491.16 208.615 490.929 209.692C490.391 212.154 492.776 213.923 494.238 215.769C495.315 217.077 496.085 216.692 497.854 219" fill="white"/>
<path d="M489.006 211.154C488.698 210.154 490.775 204 490.775 204C490.775 204 492.16 204.231 492.007 205.615C491.93 206.615 491.16 208.615 490.929 209.692C490.391 212.154 492.776 213.923 494.238 215.769C495.315 217.077 496.085 216.692 497.854 219" stroke="black" stroke-miterlimit="10"/>
<path d="M498.613 222.038L511.204 215.398L501.403 196.823L488.812 203.463L498.613 222.038Z" fill="black" stroke="black" stroke-miterlimit="10"/>
<path d="M498.384 223.837L509.817 217.807L498.58 196.511L487.146 202.541L498.384 223.837Z" fill="white" stroke="black" stroke-miterlimit="10"/>
<path d="M489.39 206.154C489.698 209.154 489.159 210.615 490.698 212.539C493.314 215.923 495.007 214.462 497.623 218.077L514.09 238.615C514.09 238.615 524.092 233.385 536.327 234.154C548.561 234.846 535.326 245.769 535.326 245.769C535.326 245.769 508.473 249.154 508.473 249C508.396 248.923 488.852 215.231 488.236 212.846C487.774 210.923 487.774 204.692 487.774 204.692C487.774 204.692 489.236 204.539 489.39 206.154Z" fill="white" stroke="black" stroke-miterlimit="10"/>
<path d="M493.314 215.385C494.469 214.462 495.084 211.462 496.161 210.692C497.316 209.923 498.393 211.692 497.777 212.615C497.162 213.538 495.931 216.231 496.623 217.077" fill="white"/>
<path d="M493.314 215.385C494.469 214.462 495.084 211.462 496.161 210.692C497.316 209.923 498.393 211.692 497.777 212.615C497.162 213.538 495.931 216.231 496.623 217.077" stroke="black" stroke-miterlimit="10"/>
<path d="M523.4 248.385L520.015 233.231L537.019 229.385C541.174 228.462 545.33 231.077 546.33 235.231C547.253 239.385 544.637 243.539 540.482 244.539L523.4 248.385Z" fill="#FDEB3B" stroke="black" stroke-miterlimit="10"/>
<path d="M507.626 335.461H503.163L500.624 302.308H509.857L507.626 335.461Z" fill="#FFF8F6" stroke="black" stroke-miterlimit="10"/>
<path d="M559.025 335.461H554.563L552.023 302.308H561.334L559.025 335.461Z" fill="#FFF8F6" stroke="black" stroke-miterlimit="10"/>
<path d="M562.18 294.539H499.316V303.692H562.18V294.539Z" fill="#FFF8F6" stroke="black" stroke-miterlimit="10"/>
<path d="M541.482 241.308L535.48 251.769C532.941 256.231 528.17 259 523.015 259H516.013C506.549 259 498.854 266.692 498.854 276.154V296.308H562.103V242.308C562.103 238.154 558.718 234.846 554.64 234.846H552.87C548.099 234.846 543.79 237.308 541.482 241.308Z" fill="#FFF6BA" stroke="black" stroke-miterlimit="10"/>
</svg>
